<?xml version="1.0" encoding="UTF-8" standalone="no"?>
<svg
   xmlns:dc="http://purl.org/dc/elements/1.1/"
   xmlns:cc="http://creativecommons.org/ns#"
   xmlns:rdf="http://www.w3.org/1999/02/22-rdf-syntax-ns#"
   xmlns:svg="http://www.w3.org/2000/svg"
   xmlns="http://www.w3.org/2000/svg"
   xmlns:xlink="http://www.w3.org/1999/xlink"
   xmlns:sodipodi="http://sodipodi.sourceforge.net/DTD/sodipodi-0.dtd"
   xmlns:inkscape="http://www.inkscape.org/namespaces/inkscape"
   version="1.1"
   x="0px"
   y="0px"
   viewBox="0 0 403.42 403.42001"
   xml:space="preserve"
   id="svg716"
   sodipodi:docname="cirkel_gradient.svg"
   width="403.42001"
   height="403.42001"
   inkscape:version="1.0.2-2 (e86c870879, 2021-01-15)"><metadata
   id="metadata722"><rdf:RDF><cc:Work
       rdf:about=""><dc:format>image/svg+xml</dc:format><dc:type
         rdf:resource="http://purl.org/dc/dcmitype/StillImage" /><dc:title></dc:title></cc:Work></rdf:RDF></metadata><defs
   id="defs720" /><sodipodi:namedview
   pagecolor="#ffffff"
   bordercolor="#666666"
   borderopacity="1"
   objecttolerance="10"
   gridtolerance="10"
   guidetolerance="10"
   inkscape:pageopacity="0"
   inkscape:pageshadow="2"
   inkscape:window-width="1920"
   inkscape:window-height="1017"
   id="namedview718"
   showgrid="false"
   fit-margin-top="0"
   fit-margin-left="0"
   fit-margin-right="0"
   fit-margin-bottom="0"
   inkscape:zoom="0.8752257"
   inkscape:cx="201.705"
   inkscape:cy="201.71501"
   inkscape:window-x="-8"
   inkscape:window-y="-8"
   inkscape:window-maximized="1"
   inkscape:current-layer="svg716" />
<style
   type="text/css"
   id="style2">
	.st0{display:none;}
	.st1{display:inline;}
	.st2{display:inline;clip-path:url(#SVGID_2_);fill:#FFFFFF;}
	.st3{display:inline;clip-path:url(#SVGID_2_);}
	.st4{fill:#FFFFFF;}
	.st5{fill:#A51E1E;}
	.st6{opacity:0.9;fill:#FFFFFF;}
	.st7{fill:#100B00;}
	.st8{clip-path:url(#SVGID_4_);}
	.st9{fill:url(#SVGID_5_);}
	.st10{fill:url(#SVGID_6_);}
	.st11{fill:url(#SVGID_7_);}
	.st12{fill:url(#SVGID_8_);}
	.st13{fill:url(#SVGID_9_);}
	.st14{fill:url(#SVGID_10_);}
	.st15{fill:url(#SVGID_11_);}
	.st16{fill:url(#SVGID_12_);}
	.st17{fill:url(#SVGID_13_);}
	.st18{fill:url(#SVGID_14_);}
	.st19{fill:url(#SVGID_15_);}
	.st20{fill:url(#SVGID_16_);}
	.st21{fill:url(#SVGID_17_);}
	.st22{fill:url(#SVGID_18_);}
	.st23{fill:url(#SVGID_19_);}
	.st24{fill:url(#SVGID_20_);}
	.st25{fill:url(#SVGID_21_);}
	.st26{fill:url(#SVGID_22_);}
	.st27{fill:url(#SVGID_23_);}
	.st28{fill:url(#SVGID_24_);}
	.st29{fill:url(#SVGID_25_);}
	.st30{fill:url(#SVGID_26_);}
	.st31{fill:url(#SVGID_27_);}
	.st32{fill:url(#SVGID_28_);}
	.st33{fill:url(#SVGID_29_);}
</style>
<g
   id="beige"
   transform="translate(-393.57002,-219.23)">
</g>
<g
   id="Layer_1"
   transform="translate(-393.57002,-219.23)">
	<g
   class="st0"
   id="g217">
		<defs
   id="defs6">
			<circle
   id="SVGID_1_"
   cx="1680.0601"
   cy="498.78"
   r="306.14001" />
		</defs>
		<use
   xlink:href="#SVGID_1_"
   style="display:inline;overflow:visible;fill:#ffffff"
   id="use8"
   x="0"
   y="0"
   width="100%"
   height="100%" />
		<clipPath
   id="SVGID_2_"
   class="st1">
			<use
   xlink:href="#SVGID_1_"
   style="overflow:visible"
   id="use10"
   x="0"
   y="0"
   width="100%"
   height="100%" />
		</clipPath>
		<circle
   class="st2"
   cx="1680.0601"
   cy="498.78"
   r="362.57001"
   clip-path="url(#SVGID_2_)"
   id="circle13" />
		<g
   class="st3"
   clip-path="url(#SVGID_2_)"
   id="g215">
			<g
   id="g17">
				<path
   class="st4"
   d="m 2042.2,477.14 c 0.59,15.33 0.59,30.65 0,45.98 -2.35,1.7 -4.12,5.11 -6.47,7.66 -25.89,29.8 -55.91,47.68 -88.27,47.68 -11.18,-0.85 -22.36,-1.7 -33.54,-6.81 -14.12,-6.81 -27.66,-16.18 -38.84,-30.65 -2.94,-4.26 -5.88,-8.51 -8.83,-12.77 -5.3,-9.37 -9.42,-18.73 -13.53,-28.95 -7.65,-17.03 -17.07,-28.95 -28.84,-40.02 -14.12,-12.77 -30.01,-17.88 -45.9,-19.58 -36.49,-2.55 -71.21,22.14 -97.69,57.9 2.94,-4.26 5.3,-8.51 8.83,-12.77 2.35,-2.55 4.12,-5.11 6.47,-7.66 38.84,-46.83 93.57,-64.71 139.47,-28.1 7.06,5.96 14.12,12.77 20.01,21.29 7.06,11.07 12.36,22.14 18.83,33.21 20.01,34.91 51.2,47.68 81.21,43.42 34.13,-5.12 64.73,-32.37 87.09,-69.83 z"
   id="path15" />
			</g>
			<g
   id="g21">
				<path
   class="st4"
   d="m 2042.2,477.99 c -33.54,49.38 -83.56,78.33 -132.41,60.45 -2.35,-0.85 -4.12,-1.7 -6.47,-2.55 -11.77,-5.96 -21.77,-13.62 -31.78,-23.84 -13.54,-14.47 -21.77,-33.21 -32.95,-50.23 -9.42,-13.62 -21.19,-22.99 -33.54,-28.95 -24.13,-11.07 -49.43,-6.81 -72.38,7.66 -6.47,4.26 -12.36,8.51 -18.83,14.47 -12.95,12.77 -24.13,26.39 -33.54,44.27 1.18,-3.41 2.94,-6.81 5.3,-9.37 1.18,-1.7 1.18,-3.41 2.35,-5.11 28.84,-47.68 70.03,-76.63 114.16,-68.12 14.71,3.41 27.07,10.22 40.02,22.14 10.59,10.22 17.07,22.99 25.3,35.76 24.13,35.76 58.85,46.83 92.39,35.76 31.19,-11.07 58.26,-35.76 77.09,-71.52 1.18,1.7 1.77,4.26 1.77,6.81 0,1.7 0,2.55 0,4.26 1.75,9.38 2.34,18.74 3.52,28.11 z"
   id="path19" />
			</g>
			<g
   id="g25">
				<path
   class="st4"
   d="m 2042.2,523.97 c -1.18,17.03 -2.94,34.06 -6.47,51.09 -27.66,27.25 -60.61,43.42 -94.74,38.31 -30.01,-5.11 -58.26,-26.39 -74.74,-64.71 -1.18,-2.55 -1.77,-5.11 -2.94,-7.66 -7.65,-27.25 -20.01,-49.38 -37.07,-65.56 -22.36,-19.58 -47.08,-26.39 -72.38,-22.14 -12.36,2.55 -24.13,7.66 -35.9,13.62 -4.71,2.55 -9.42,5.11 -14.12,9.37 -8.24,8.51 -17.07,12.77 -23.54,22.99 21.19,-27.25 46.49,-45.13 75.32,-52.79 1.18,0 2.94,0 4.12,0 40.02,-9.37 80.62,10.22 105.93,57.05 9.42,17.88 16.48,36.61 28.84,51.09 9.42,10.22 18.83,17.03 30.01,22.14 12.95,5.11 25.89,6.81 39.43,4.26 13.54,-2.55 26.48,-7.66 38.84,-16.18 14.69,-11.08 27.64,-24.71 39.41,-40.88 z"
   id="path23" />
			</g>
			<g
   id="g29">
				<path
   class="st4"
   d="m 2036.9,437.12 c -5.88,8.51 -11.77,17.03 -18.24,25.54 -7.06,8.51 -14.71,16.18 -22.95,22.99 -18.83,15.33 -38.84,23.84 -60.02,25.54 -19.42,1.7 -37.66,-5.11 -55.32,-16.18 -2.94,-1.7 -5.3,-5.11 -8.24,-6.81 -4.71,-3.41 -8.83,-8.51 -12.95,-13.62 -9.42,-11.07 -15.89,-23.84 -25.3,-34.91 -4.71,-5.11 -9.42,-8.51 -14.12,-12.77 -17.65,-12.77 -37.07,-15.33 -57.08,-10.22 -34.72,10.22 -63.56,40.87 -82.39,82.59 12.36,-28.95 28.25,-54.49 49.43,-71.52 1.18,-0.85 1.77,-2.55 2.94,-3.41 7.65,-5.11 14.12,-11.07 22.36,-14.47 2.35,-0.85 4.12,-0.85 6.47,-2.55 1.18,-0.85 2.35,-0.85 3.53,-0.85 1.18,-0.85 1.77,-1.7 2.94,-1.7 23.54,-6.81 46.49,-3.41 67.67,11.92 12.36,9.37 21.19,23.84 32.37,36.61 28.25,32.35 65.91,35.76 98.28,17.03 22.95,-13.62 42.96,-34.06 58.26,-63.86 1.18,-1.7 1.77,-2.55 2.94,-4.26 1.77,5.96 3.53,11.07 4.71,17.03 0,0.85 1.18,1.7 1.18,2.55 0.59,3.41 1.18,5.96 1.77,9.37 0.58,1.7 1.76,3.4 1.76,5.96 z"
   id="path27" />
			</g>
			<g
   id="g33">
				<path
   class="st4"
   d="m 2036.31,572.5 c -2.94,18.73 -8.24,35.76 -13.53,52.79 -13.53,11.07 -28.25,17.88 -44.14,22.14 -19.42,5.11 -37.66,3.41 -55.91,-4.26 -25.3,-11.07 -47.08,-33.21 -59.44,-67.26 -5.3,-15.33 -8.24,-31.5 -14.71,-46.83 -5.3,-12.77 -11.77,-22.99 -20.01,-32.35 -11.77,-13.62 -24.13,-22.14 -38.84,-28.1 -38.25,-13.62 -77.68,-0.85 -109.46,30.65 12.95,-15.33 28.25,-25.54 44.14,-33.21 15.89,-7.66 32.37,-11.92 48.84,-10.22 9.42,0.85 18.83,2.55 28.25,5.96 6.47,2.55 12.95,5.96 18.83,10.22 4.71,4.26 10,6.81 14.71,11.92 4.71,4.26 8.83,9.37 12.95,14.47 2.94,4.26 5.88,8.51 8.83,13.62 2.94,4.26 4.71,9.37 7.06,14.47 5.88,12.77 10,23.84 15.3,36.61 13.53,28.95 33.54,45.13 56.49,50.23 2.94,0.85 6.47,1.7 9.42,2.55 8.83,0.85 17.07,0 25.89,-0.85 5.88,-0.85 10.59,-3.41 16.48,-5.96 18.25,-6.79 34.14,-19.56 48.85,-36.59 z"
   id="path31" />
			</g>
			<g
   id="g37">
				<path
   class="st4"
   d="m 2025.72,396.25 c -8.24,16.18 -17.07,29.8 -28.84,41.72 -1.18,1.7 -1.77,3.41 -2.94,4.26 -4.71,3.41 -8.24,8.51 -12.95,11.92 -4.71,3.41 -8.83,6.81 -13.53,10.22 -18.83,11.07 -38.25,17.88 -58.26,15.33 -18.24,-2.55 -35.9,-10.22 -51.79,-26.39 -11.77,-11.92 -20.6,-25.54 -32.37,-35.76 -7.65,-6.81 -15.3,-9.37 -23.54,-12.77 -11.77,-4.26 -22.95,-2.55 -34.72,-0.85 -4.12,0.85 -8.24,2.55 -12.36,4.26 -32.37,14.47 -58.26,48.53 -74.15,91.1 2.94,-9.37 6.47,-17.03 10.59,-25.54 0.59,-1.7 1.18,-3.41 1.77,-5.11 17.07,-32.35 37.07,-57.9 62.97,-71.52 24.13,-12.77 50.02,-13.62 74.15,0 5.3,3.41 10.59,7.66 15.89,11.92 8.24,8.51 14.71,17.88 23.54,24.69 40.02,32.35 88.86,13.62 121.23,-30.65 1.77,-2.55 2.94,-5.11 5.3,-7.66 1.18,-0.85 1.77,-2.55 2.35,-4.26 1.18,-0.85 1.77,-1.7 2.94,-3.41 4.12,-7.66 8.24,-14.47 11.77,-22.99 4.12,11.06 9.42,20.42 12.95,31.49 z"
   id="path35" />
			</g>
			<g
   id="g41">
				<path
   class="st4"
   d="m 2023.96,620.18 h 0.59 c -1.18,2.55 -1.77,5.96 -2.94,9.37 -5.3,15.33 -11.77,29.8 -18.24,43.42 -24.72,11.92 -50.61,16.18 -77.09,7.66 -2.35,-0.85 -4.12,-1.7 -6.47,-2.55 -29.42,-12.77 -54.73,-41.72 -65.91,-83.44 -2.35,-9.37 -4.12,-18.73 -5.88,-28.95 -2.35,-9.37 -5.3,-17.88 -8.83,-26.39 -2.94,-5.96 -5.3,-11.92 -8.83,-17.03 -1.18,-1.7 -2.94,-3.41 -4.12,-5.96 -11.77,-15.33 -24.72,-28.1 -39.43,-34.91 -8.83,-3.41 -17.65,-5.96 -26.48,-7.66 -15.89,-1.7 -31.19,0 -47.08,5.96 -11.77,5.11 -22.95,10.22 -32.95,19.58 2.35,-2.55 4.71,-4.26 7.65,-5.96 1.18,-0.85 2.35,-2.55 3.53,-3.41 2.35,-1.7 5.3,-3.41 7.65,-5.11 2.35,-0.85 5.3,-2.55 7.65,-4.26 26.48,-14.47 54.14,-17.88 82.39,-8.51 24.72,9.37 45.31,26.39 61.2,56.2 8.83,17.03 14.12,35.76 20.01,54.49 7.06,19.58 17.07,34.06 30.01,46.83 10,8.51 19.42,14.47 30.6,17.88 27.66,8.51 54.73,1.7 79.44,-17.03 1.18,-0.85 2.35,-0.85 3.53,-1.7 3.52,-3.41 7.05,-5.12 10,-8.52 z"
   id="path39" />
			</g>
			<g
   id="g45">
				<path
   class="st4"
   d="m 2010.42,356.23 c -14.12,29.8 -31.78,55.34 -54.14,73.22 -1.18,0.85 -2.35,0.85 -3.53,1.7 -20.6,16.18 -43.55,20.43 -65.91,17.03 -7.65,-0.85 -14.71,-4.26 -21.77,-7.66 -15.3,-7.66 -27.07,-22.99 -41.19,-35.76 -10.59,-9.37 -22.36,-12.77 -34.72,-14.47 -22.95,-1.7 -44.72,7.66 -63.56,27.25 -1.77,2.55 -2.94,4.26 -5.3,5.96 -1.18,0.85 -1.77,2.55 -2.35,3.41 -1.18,0.85 -1.77,1.7 -2.94,2.55 -15.3,19.58 -26.48,43.42 -34.72,69.82 14.12,-55.34 44.72,-103.02 84.74,-120.05 2.35,-0.85 4.12,-1.7 6.47,-2.55 22.95,-7.66 45.9,-3.41 66.5,11.92 1.77,1.7 3.53,2.55 5.3,4.26 23.54,24.69 51.79,31.5 78.86,20.43 30.6,-13.62 55.91,-44.27 71.21,-84.29 0.59,1.7 1.77,2.55 2.94,4.26 1.18,2.55 2.35,4.26 3.53,6.81 0.59,0.85 1.18,0.85 1.77,1.7 2.93,5.1 5.87,10.2 8.81,14.46 z"
   id="path43" />
			</g>
			<g
   id="g49">
				<path
   class="st4"
   d="m 2006.3,664.45 c -7.65,19.58 -17.65,35.76 -28.25,51.94 -30.6,7.66 -62.97,4.26 -91.21,-20.43 -15.89,-13.62 -28.25,-32.35 -37.07,-55.34 -7.06,-19.58 -8.83,-40.02 -12.95,-61.3 -5.88,-33.21 -21.19,-58.75 -41.78,-75.78 -32.37,-26.39 -69.44,-27.25 -103.57,-11.07 -2.35,1.7 -4.71,3.41 -7.65,4.26 -1.18,0.85 -2.35,1.7 -3.53,2.55 6.47,-5.11 12.95,-8.51 19.42,-11.92 5.3,-2.55 10.59,-3.41 15.89,-5.96 36.49,-11.92 72.97,-3.41 103.57,28.95 1.77,2.55 3.53,4.26 5.3,5.96 11.18,14.47 20.01,31.5 26.48,51.09 5.88,19.58 8.24,39.17 16.48,57.9 5.88,11.92 11.18,21.29 18.83,29.8 11.77,12.77 23.54,21.29 38.25,24.69 1.77,0.85 3.53,2.55 5.88,2.55 26.48,5.1 52.37,-0.86 75.91,-17.89 z"
   id="path47" />
			</g>
			<g
   id="g53">
				<path
   class="st4"
   d="m 1989.24,317.92 c -7.06,22.99 -18.24,41.72 -31.78,58.75 -1.18,1.7 -1.18,3.41 -2.35,4.26 -18.24,20.43 -38.25,34.91 -60.61,39.17 -12.95,2.55 -25.89,1.7 -38.25,-3.41 -5.88,-2.55 -11.77,-5.11 -17.65,-9.37 -8.83,-6.81 -16.48,-14.47 -25.3,-20.43 -1.77,-0.85 -3.53,-0.85 -5.3,-2.55 -1.18,-0.85 -1.77,-0.85 -2.94,-0.85 -0.59,-0.85 -1.77,-1.7 -2.35,-1.7 -17.65,-6.81 -35.31,-4.26 -51.79,4.26 -34.72,18.73 -59.44,63.01 -70.62,113.24 3.53,-19.58 9.42,-36.61 15.89,-54.49 1.18,-3.41 2.94,-5.96 4.12,-9.37 18.83,-39.17 43.55,-65.56 75.91,-74.08 14.71,-3.41 29.42,-2.55 43.55,3.41 11.18,5.11 21.19,14.47 32.37,19.58 24.72,10.22 50.02,3.41 71.79,-15.33 20.6,-18.73 35.31,-44.27 45.31,-74.93 6.46,7.66 12.93,16.17 20,23.84 z"
   id="path51" />
			</g>
			<g
   id="g57">
				<path
   class="st4"
   d="m 1982.76,706.17 c -10,18.73 -22.36,34.06 -35.31,47.68 -41.78,2.55 -85.33,-21.29 -107.69,-75.78 -0.59,-2.55 -1.77,-5.11 -2.94,-7.66 -3.53,-9.37 -5.3,-19.58 -7.65,-29.8 -2.94,-17.03 -1.77,-33.21 -4.71,-50.23 -8.83,-47.68 -35.31,-80.89 -67.09,-93.66 -2.35,-0.85 -4.12,-1.7 -6.47,-2.55 -24.13,-7.66 -48.26,-5.96 -70.62,5.11 32.37,-17.88 70.03,-19.58 102.39,0.85 2.35,1.7 4.12,2.55 6.47,4.26 11.77,9.37 22.36,20.43 31.78,34.91 15.3,25.54 21.77,55.34 27.07,88.55 1.18,11.07 4.71,19.58 8.83,28.95 6.47,13.62 12.95,23.84 22.36,33.21 14.71,14.47 29.42,22.99 46.49,25.54 19.43,2.54 38.85,-0.01 57.09,-9.38 z"
   id="path55" />
			</g>
			<g
   id="g61">
				<path
   class="st4"
   d="m 1963.93,282.16 c -14.71,53.64 -45.31,98.77 -87.09,110.69 -1.18,0 -2.35,0 -3.53,0 -14.71,4.26 -29.42,2.55 -43.55,-4.26 -12.95,-6.81 -24.13,-17.03 -37.66,-20.43 -11.77,-1.7 -22.95,-1.7 -34.13,2.55 -41.19,17.03 -69.44,69.82 -77.68,128.57 4.71,-48.53 21.77,-91.96 48.84,-123.46 7.65,-7.66 15.3,-13.62 23.54,-19.58 8.83,-5.96 18.83,-8.51 28.25,-9.37 15.3,-2.55 30.6,0.85 45.31,8.51 19.42,11.07 40.02,8.51 58.85,-3.41 0.59,-0.85 1.77,-1.7 2.35,-2.55 25.89,-17.03 44.14,-51.94 53.55,-89.4 7.65,7.66 15.3,15.33 22.95,22.14 z"
   id="path59" />
			</g>
			<g
   id="g65">
				<path
   class="st4"
   d="m 1954.52,743.64 c -12.36,16.18 -26.48,29.8 -41.19,41.72 -50.02,-5.96 -98.86,-60.45 -102.39,-136.23 0.59,-26.39 0.59,-52.79 -8.24,-77.48 -3.53,-8.51 -6.47,-17.03 -11.18,-24.69 -5.88,-8.51 -11.18,-16.18 -18.24,-23.84 -28.25,-27.25 -61.2,-34.06 -92.98,-23.84 27.66,-11.07 57.67,-8.51 84.74,5.96 2.35,1.7 4.12,2.55 6.47,4.26 17.07,11.92 31.78,28.95 42.96,52.79 7.65,16.18 11.77,32.35 13.54,50.23 2.94,26.39 4.12,51.94 14.71,74.93 13.53,28.95 32.37,45.98 54.73,54.49 18.81,6.81 38.23,7.66 57.07,1.7 z"
   id="path63" />
			</g>
			<g
   id="g69">
				<path
   class="st4"
   d="m 1934.51,248.95 c -4.71,17.88 -8.83,34.91 -16.48,51.94 -4.12,7.66 -7.06,14.47 -11.18,21.29 -8.83,13.62 -18.24,25.54 -30.01,34.06 -5.3,3.41 -10,6.81 -15.3,9.37 -11.77,5.11 -22.95,6.81 -34.72,5.96 -12.95,-0.85 -24.72,-9.37 -37.66,-13.62 -32.37,-10.22 -62.97,11.07 -82.98,47.68 -1.18,2.55 -2.35,5.11 -4.12,7.66 -12.95,27.25 -19.42,55.34 -21.77,86 1.18,-69.82 30.01,-140.49 78.27,-161.77 2.35,-0.85 4.12,-1.7 6.47,-2.55 11.77,-4.26 22.95,-3.41 34.72,-1.7 9.42,2.55 18.83,5.96 28.25,5.11 8.24,-0.85 16.48,-3.41 24.72,-7.66 12.95,-7.66 24.13,-19.58 33.54,-35.76 5.3,-10.22 10.59,-20.43 14.12,-32.35 3.53,-11.07 5.88,-22.14 8.24,-34.06 3.53,3.41 7.06,5.96 10.59,9.37 3.53,2.55 6.47,5.11 10,7.66 1.77,0.82 3.53,1.67 5.3,3.37 z"
   id="path67" />
			</g>
			<g
   id="g73">
				<path
   class="st4"
   d="m 1922.15,775.99 c -14.12,14.47 -30.01,25.54 -45.9,34.91 -10,-4.26 -20.01,-9.37 -29.42,-16.18 -1.18,-0.85 -1.77,-2.55 -2.94,-3.41 -15.3,-11.07 -26.48,-28.1 -36.49,-47.68 -15.89,-33.21 -18.83,-71.52 -14.71,-109.84 1.77,-13.62 0.59,-26.39 -1.77,-40.02 -3.53,-17.88 -9.42,-34.06 -18.24,-47.68 -9.42,-13.62 -19.42,-24.69 -31.19,-32.35 -12.36,-7.66 -24.72,-12.77 -37.66,-14.47 -7.65,-0.85 -15.89,-1.7 -23.54,0 39.43,-9.37 81.8,7.66 109.46,51.94 1.18,2.55 2.35,5.11 4.12,7.66 15.3,28.1 20.01,63.01 18.83,97.06 -0.59,16.18 2.35,32.35 7.65,47.68 3.53,8.51 7.06,17.03 11.77,24.69 7.65,12.77 17.07,22.14 27.07,30.65 9.42,6.81 18.83,11.07 29.42,14.47 11.18,3.42 22.36,4.27 33.54,2.57 z"
   id="path71" />
			</g>
			<g
   id="g77">
				<path
   class="st4"
   d="m 1900.38,218.3 c -4.12,37.46 -15.3,73.22 -35.31,98.77 -3.53,5.11 -6.47,9.37 -10.59,12.77 -4.71,4.26 -9.42,8.51 -14.12,11.92 -5.88,4.26 -11.77,5.96 -18.24,7.66 -8.24,3.41 -16.48,3.41 -24.72,2.55 -7.65,-1.7 -15.3,-5.11 -22.95,-5.96 -10,-0.85 -19.42,0 -28.84,4.26 -1.77,0.85 -3.53,1.7 -5.3,2.55 -16.48,10.22 -30.6,26.39 -41.19,49.38 -1.77,4.26 -3.53,7.66 -4.71,12.77 -10,26.39 -14.12,55.34 -14.12,84.29 -1.77,-34.91 2.35,-70.67 13.53,-102.17 11.77,-33.21 31.19,-59.6 55.91,-71.52 7.06,-3.41 14.12,-5.96 21.77,-6.81 10.59,-0.85 21.19,0.85 31.78,-0.85 23.54,-4.26 42.96,-25.54 54.73,-54.49 0.59,-2.55 1.77,-5.11 2.94,-7.66 6.47,-17.88 8.83,-37.46 10.59,-57.05 2.35,2.55 5.3,4.26 8.24,5.96 6.47,5.11 13.53,9.37 20.6,13.63 z"
   id="path75" />
			</g>
			<g
   id="g81">
				<path
   class="st4"
   d="m 1885.66,803.24 h 0.59 c -15.3,11.92 -32.37,21.29 -49.43,26.39 -6.47,-2.55 -11.77,-8.51 -17.65,-12.77 -2.35,-1.7 -4.12,-4.26 -6.47,-5.96 -25.3,-25.54 -41.19,-62.16 -44.14,-104.73 -0.59,-9.37 -0.59,-18.73 0,-28.1 1.18,-11.92 2.94,-22.99 4.71,-34.06 3.53,-17.03 3.53,-34.06 0,-51.09 -0.59,-2.55 -1.18,-5.11 -1.77,-7.66 -7.65,-31.5 -24.72,-55.34 -45.31,-69.82 -14.71,-10.22 -30.01,-15.33 -45.9,-16.18 10,-0.85 18.83,0.85 28.84,3.41 2.35,0.85 4.71,1.7 7.65,2.55 21.77,7.66 40.6,22.99 55.32,47.68 1.18,2.55 2.35,5.11 4.12,7.66 8.83,16.18 14.12,34.06 17.07,54.49 2.35,19.58 0,37.46 -1.18,56.2 -4.12,50.23 19.42,97.06 50.61,116.65 2.35,0.85 4.12,2.55 6.47,4.26 11.76,6.82 24.12,10.23 36.47,11.08 z"
   id="path79" />
			</g>
			<g
   id="g85">
				<path
   class="st4"
   d="m 1847.41,825.38 c -16.48,8.51 -32.95,15.33 -50.61,17.88 -22.36,-17.88 -39.43,-47.68 -48.84,-82.59 -4.71,-18.73 -6.47,-39.17 -5.3,-58.75 1.18,-22.14 8.24,-41.72 12.95,-63.01 2.94,-15.33 3.53,-30.65 0.59,-46.83 -0.59,-2.55 -1.18,-5.11 -1.77,-7.66 0,-0.85 -0.59,-2.55 -1.18,-3.41 0,-1.7 0,-2.55 -0.59,-4.26 -13.53,-41.72 -41.78,-69.82 -72.38,-77.48 18.24,2.55 35.31,11.07 51.79,25.54 20.01,17.88 34.13,43.42 40.6,75.78 4.12,20.43 4.71,40.87 0.59,61.3 -4.12,17.03 -6.47,34.91 -5.3,52.79 2.35,30.65 13.53,57.05 30.01,77.48 1.77,1.7 3.53,3.41 5.3,5.96 14.13,13.63 28.25,23 44.14,27.26 z"
   id="path83" />
			</g>
			<g
   id="g89">
				<path
   class="st4"
   d="m 1862.12,191.05 c 0.59,34.06 -6.47,67.26 -20.6,96.21 -4.12,7.66 -8.24,14.47 -13.53,21.29 -7.06,7.66 -13.54,14.47 -21.77,19.58 -9.42,5.96 -19.42,9.37 -29.42,8.51 -12.36,0 -25.3,-1.7 -37.66,3.41 -1.77,0.85 -3.53,1.7 -5.3,2.55 -42.37,23.84 -60.61,95.36 -53.55,156.66 -7.65,-48.53 -2.35,-101.32 19.42,-142.19 12.36,-22.99 27.66,-39.17 47.08,-46.83 10.59,-3.41 21.19,-5.96 31.78,-9.37 16.48,-5.96 29.42,-21.29 38.84,-41.72 1.18,-2.55 1.77,-5.11 2.94,-7.66 9.42,-24.69 11.18,-51.94 9.42,-78.33 10.58,6.82 21.17,12.78 32.35,17.89 z"
   id="path87" />
			</g>
			<g
   id="g93">
				<path
   class="st4"
   d="m 1820.34,168.06 c 4.71,38.31 1.18,78.33 -15.3,112.39 -1.77,2.55 -2.94,5.11 -4.12,7.66 -14.71,25.54 -36.49,40.02 -59.44,39.17 -17.07,3.41 -32.37,15.33 -44.14,34.06 -3.53,5.96 -7.06,11.92 -9.42,18.73 -2.94,7.66 -4.71,14.47 -7.06,22.14 -7.65,31.5 -7.65,65.56 -0.59,97.06 -15.3,-54.49 -10.59,-120.05 17.07,-165.18 7.65,-11.92 16.48,-21.29 26.48,-28.1 18.83,-12.77 39.43,-18.73 52.37,-45.13 15.89,-33.21 16.48,-73.22 7.06,-108.13 12.38,4.26 24.15,11.93 37.09,15.33 z"
   id="path91" />
			</g>
			<g
   id="g97">
				<path
   class="st4"
   d="m 1806.81,841.55 c -2.35,0 -4.12,1.7 -6.47,2.55 -14.71,5.11 -28.84,6.81 -43.55,8.51 -1.77,-3.41 -4.12,-5.11 -6.47,-7.66 -16.48,-22.14 -28.25,-48.53 -33.54,-80.89 -4.71,-28.1 -2.94,-56.2 4.71,-82.59 4.71,-15.33 11.77,-28.95 15.89,-45.13 5.88,-23.84 4.12,-50.23 -4.12,-73.22 -11.18,-30.65 -31.19,-52.79 -52.96,-63.86 25.89,9.37 48.84,30.65 64.14,64.71 10.59,24.69 15.3,51.09 12.36,79.18 -1.77,17.88 -8.24,32.35 -12.36,48.53 -14.72,64.73 20.59,131.14 62.37,149.87 z"
   id="path95" />
			</g>
			<g
   id="g101">
				<path
   class="st4"
   d="m 1775.62,151.03 c 7.06,27.25 10,56.2 5.3,86 -0.59,3.41 -1.18,5.96 -1.77,9.37 -4.12,19.58 -11.18,36.61 -21.77,51.09 -7.65,10.22 -15.89,17.03 -25.89,21.29 -7.65,2.55 -15.3,5.11 -22.36,10.22 -8.24,5.96 -14.71,14.47 -21.19,23.84 -7.65,13.62 -12.95,28.95 -15.89,45.98 -1.77,10.22 -2.35,19.58 -2.94,29.8 0,24.69 4.12,48.53 11.18,70.67 -16.48,-41.72 -22.36,-93.66 -9.42,-139.64 9.42,-33.21 28.25,-56.2 49.43,-73.22 10,-8.51 17.65,-21.29 22.95,-35.76 0.59,-1.7 0,-2.55 0.59,-4.26 4.71,-13.62 5.88,-28.95 5.3,-43.42 -1.18,-22.99 -7.06,-44.27 -15.89,-63.01 14.12,3.39 28.24,6.8 42.37,11.05 z"
   id="path99" />
			</g>
			<g
   id="g105">
				<path
   class="st4"
   d="m 1765.03,852.62 h 0.59 c -15.89,3.41 -31.78,5.11 -47.67,5.11 -19.42,-26.39 -31.78,-63.01 -33.54,-101.32 -1.18,-23.84 1.77,-47.68 10,-68.97 5.88,-14.47 12.36,-26.39 19.42,-39.17 11.18,-21.29 14.12,-48.53 9.42,-74.08 -6.47,-32.35 -22.95,-58.75 -42.96,-74.93 5.88,4.26 11.77,8.51 17.65,14.47 1.18,0.85 2.35,1.7 3.53,2.55 20.6,22.14 34.72,51.94 38.25,88.55 1.18,16.18 0.59,32.35 -3.53,48.53 -3.53,13.62 -9.42,24.69 -14.71,36.61 -11.18,26.39 -11.77,57.9 -4.71,86 2.94,11.07 6.47,20.43 11.18,30.65 2.94,5.96 6.47,11.07 9.42,16.18 8.24,12.79 17.65,21.31 27.66,29.82 z"
   id="path103" />
			</g>
			<g
   id="g109">
				<path
   class="st4"
   d="m 1727.36,139.97 c 11.18,22.99 17.07,50.23 18.24,77.48 0,16.18 -1.77,32.35 -5.88,47.68 -5.88,20.43 -15.89,37.46 -29.42,47.68 -8.83,6.81 -18.24,11.92 -25.89,21.29 -1.18,1.7 -2.35,4.26 -4.12,5.96 -16.48,24.69 -21.77,58.75 -18.83,91.96 2.35,24.69 9.42,46.83 18.83,67.26 -20.01,-34.91 -31.78,-79.18 -25.89,-126.01 2.94,-18.73 6.47,-35.76 14.71,-51.09 1.77,-2.55 2.94,-5.11 4.12,-7.66 8.24,-14.47 18.83,-24.69 27.07,-39.17 21.77,-40.02 11.77,-94.51 -11.77,-127.72 -1.77,-2.55 -3.53,-4.26 -5.3,-7.66 -0.59,-1.7 -1.77,-2.55 -2.94,-3.41 9.42,-0.85 18.83,0 28.25,0.85 6.47,0.85 12.35,1.7 18.82,2.56 z"
   id="path107" />
			</g>
			<g
   id="g113">
				<path
   class="st4"
   d="m 1723.83,858.58 c -14.71,1.7 -28.84,1.7 -43.55,2.55 -3.53,-6.81 -7.65,-12.77 -10.59,-20.43 -1.18,-3.41 -2.35,-7.66 -4.12,-11.07 -10,-27.25 -14.71,-57.9 -11.77,-88.55 1.18,-14.47 4.71,-27.25 8.24,-40.02 7.65,-25.54 23.54,-40.87 36.49,-60.45 11.18,-17.88 15.3,-41.72 12.95,-65.56 -3.53,-30.65 -14.71,-57.05 -31.19,-75.78 21.19,19.58 36.49,49.38 42.37,86 2.35,17.03 2.35,33.21 -0.59,50.23 -4.12,21.29 -13.54,37.46 -24.72,52.79 -15.3,23.84 -18.24,57.05 -13.53,88.55 0.59,3.41 1.18,5.96 1.77,9.37 6.46,29.8 20.59,55.34 38.24,72.37 z"
   id="path111" />
			</g>
			<g
   id="g117">
				<path
   class="st4"
   d="m 1680.29,499.27 c 15.89,27.25 25.89,62.16 27.07,97.92 0.59,30.65 -5.88,61.3 -20.01,86 -7.06,11.07 -14.12,20.43 -21.77,30.65 -3.53,5.96 -7.06,11.07 -9.42,18.73 -0.59,0.85 -1.18,1.7 -1.77,2.55 -4.12,14.47 -7.06,29.8 -5.88,45.13 2.35,32.35 14.71,61.3 31.78,80.89 -15.89,0.85 -31.78,-0.85 -47.67,-3.41 -17.65,-38.31 -24.72,-89.4 -9.42,-132.82 2.94,-7.66 6.47,-15.33 10.59,-22.14 5.3,-8.51 11.77,-16.18 18.83,-19.58 21.19,-11.92 37.66,-36.61 44.14,-68.12 1.18,-5.96 1.77,-11.92 2.35,-18.73 1.18,-11.92 0.59,-23.84 -1.18,-35.76 -2.93,-22.99 -8.23,-43.43 -17.64,-61.31 z"
   id="path115" />
			</g>
			<g
   id="g121">
				<path
   class="st4"
   d="m 1680.29,136.56 c 7.06,12.77 13.53,27.25 18.24,42.57 0.59,3.41 1.77,7.66 2.94,11.07 6.47,26.39 7.65,54.49 2.94,82.59 -5.3,28.95 -16.48,51.94 -32.95,70.67 -15.89,18.73 -24.72,45.98 -22.95,74.93 2.35,32.35 15.3,60.45 31.78,80.89 -19.42,-19.58 -35.31,-46.83 -41.78,-81.74 -4.12,-23.84 -3.53,-49.38 4.12,-71.52 1.18,-2.55 1.77,-5.11 2.94,-7.66 2.94,-5.96 5.3,-11.92 8.83,-17.03 1.18,-1.7 2.94,-3.41 4.12,-5.96 0.59,-0.85 1.77,-1.7 2.35,-2.55 7.06,-11.07 11.77,-22.99 14.71,-37.46 2.94,-16.18 4.12,-32.35 1.77,-49.38 -5.3,-36.61 -20.01,-66.41 -40.6,-86.85 14.7,-1.72 28.82,-0.87 43.54,-2.57 z"
   id="path119" />
			</g>
			<g
   id="g125">
				<path
   class="st4"
   d="m 1642.03,139.97 c 26.48,35.76 40.6,90.25 31.19,143.04 -5.3,27.25 -15.89,49.38 -28.25,69.82 -6.47,15.33 -10.59,32.35 -10,51.09 1.18,21.29 6.47,41.72 15.89,58.75 1.77,2.55 2.94,5.11 4.12,7.66 7.06,11.92 15.89,20.43 25.3,28.95 -27.07,-17.88 -49.43,-50.23 -57.67,-92.81 -4.12,-24.69 -2.94,-51.09 5.3,-74.08 4.12,-10.22 8.83,-17.88 12.95,-28.1 2.94,-7.66 4.12,-16.18 5.88,-24.69 1.77,-15.33 1.77,-28.95 -0.59,-44.27 -7.06,-40.87 -26.48,-71.52 -51.2,-90.25 15.9,-2.56 31.2,-5.11 47.08,-5.11 z"
   id="path123" />
			</g>
			<g
   id="g129">
				<path
   class="st4"
   d="m 1603.19,145.93 c 26.48,28.1 43.55,75.78 42.96,123.46 -0.59,19.58 -4.12,37.46 -10,55.34 -0.59,0.85 -1.18,2.55 -1.77,3.41 -1.18,2.55 -1.18,5.96 -2.35,8.51 -7.06,14.47 -10.59,29.8 -12.36,46.83 -0.59,11.92 0.59,23.84 2.94,35.76 8.83,39.17 31.78,66.41 57.67,80.04 -32.95,-12.77 -63.56,-45.98 -74.15,-95.36 -2.94,-14.47 -3.53,-29.8 -2.94,-45.13 1.18,-18.73 8.24,-34.91 12.95,-52.79 13.54,-60.45 -15.89,-123.46 -54.73,-145.6 -2.35,-0.85 -5.3,-2.55 -7.65,-4.26 16.48,-5.96 32.95,-8.51 49.43,-11.07 z"
   id="path127" />
			</g>
			<g
   id="g133">
				<path
   class="st4"
   d="m 1563.77,154.44 c 7.65,7.66 15.3,15.33 22.36,24.69 14.71,22.14 25.3,46.83 30.01,77.48 2.94,19.58 2.94,39.17 -1.18,57.9 -6.47,31.5 -17.65,62.16 -10,95.36 0.59,2.55 1.18,5.11 1.77,7.66 11.77,45.13 42.37,72.37 73.56,81.74 -19.42,-3.41 -37.66,-12.77 -54.73,-28.95 -17.65,-17.88 -30.01,-40.87 -37.07,-68.97 -2.94,-11.07 -3.53,-22.99 -4.12,-34.91 -0.59,-18.73 4.71,-35.76 7.65,-54.49 2.94,-23.84 -0.59,-45.98 -7.65,-66.41 -14.12,-40.02 -42.37,-63.86 -71.21,-73.22 16.48,-7.66 32.95,-15.33 50.61,-17.88 z"
   id="path131" />
			</g>
			<g
   id="g137">
				<path
   class="st4"
   d="m 1523.75,168.06 c 5.88,4.26 11.77,7.66 17.65,12.77 4.12,4.26 8.24,8.51 12.36,12.77 7.06,7.66 11.77,17.03 17.65,26.39 8.83,16.18 14.71,34.06 18.24,53.64 2.94,17.03 2.94,34.06 1.77,51.09 -1.18,12.77 -4.12,24.69 -5.88,37.46 -4.12,38.31 7.06,74.08 26.48,98.77 19.42,24.69 43.55,34.91 68.26,38.31 -35.31,0 -70.62,-17.03 -94.16,-57.9 -1.18,-2.55 -2.35,-5.11 -4.12,-7.66 -12.36,-24.69 -17.07,-52.79 -15.89,-81.74 1.18,-12.77 3.53,-25.54 2.94,-38.31 -0.59,-9.37 -1.77,-18.73 -3.53,-28.1 -4.12,-18.73 -11.18,-34.91 -20.6,-48.53 -19.42,-26.39 -44.72,-40.87 -70.62,-42.57 15.32,-11.91 32.38,-21.28 49.45,-26.39 z"
   id="path135" />
			</g>
			<g
   id="g141">
				<path
   class="st4"
   d="m 1484.32,187.65 c 27.07,8.51 52.37,31.5 68.26,67.26 0.59,1.7 1.77,1.7 2.35,3.41 10.59,26.39 16.48,54.49 14.12,85.14 -1.18,11.92 -2.94,24.69 -2.35,36.61 0.59,15.33 2.94,29.8 7.65,43.42 19.42,56.2 64.73,79.18 105.93,75.78 -11.18,1.7 -21.77,2.55 -32.95,0.85 -7.65,-0.85 -15.3,-3.41 -22.95,-5.96 -12.95,-5.11 -24.13,-13.62 -35.9,-24.69 -22.36,-22.14 -36.49,-54.49 -40.02,-92.81 -1.18,-14.47 0,-28.1 -0.59,-42.57 -0.59,-8.51 -1.77,-16.18 -3.53,-24.69 -5.3,-22.14 -14.12,-40.87 -27.07,-55.34 -22.95,-25.54 -50.61,-34.91 -78.86,-32.35 6.47,-6.81 13.54,-12.77 20.6,-18.73 1.18,-0.85 2.35,-0.85 3.53,-1.7 7.06,-6.81 14.71,-9.37 21.77,-14.47 v 0.84 z"
   id="path139" />
			</g>
			<g
   id="g145">
				<path
   class="st4"
   d="m 1447.25,212.34 c 12.95,2.55 25.3,6.81 37.07,13.62 2.35,1.7 4.12,3.41 6.47,4.26 20.01,13.62 35.9,34.91 47.08,62.16 7.06,17.88 11.18,36.61 11.18,56.2 0.59,30.65 0.59,61.3 12.95,88.55 10,22.14 23.54,38.31 39.43,49.38 24.72,17.03 52.37,19.58 78.86,12.77 -20.6,6.81 -41.78,8.51 -63.56,2.55 -2.35,-0.85 -4.71,-1.7 -7.65,-2.55 -21.77,-8.51 -40.6,-23.84 -55.32,-48.53 -1.18,-2.55 -2.35,-5.11 -4.12,-7.66 -13.54,-25.54 -18.83,-55.34 -20.01,-86.85 -0.59,-11.07 -3.53,-21.29 -6.47,-31.5 -4.12,-11.07 -8.83,-21.29 -14.71,-30.65 -1.18,-1.7 -2.94,-3.41 -4.12,-5.96 -27.07,-35.76 -64.73,-43.42 -98.86,-34.06 12.94,-16.19 26.48,-30.66 41.78,-41.73 z"
   id="path143" />
			</g>
			<g
   id="g149">
				<path
   class="st4"
   d="m 1680.29,499.27 c 20.6,50.23 24.13,115.8 -1.18,166.03 -1.77,2.55 -2.94,5.11 -4.12,7.66 -3.53,5.96 -7.06,11.92 -11.77,17.03 -7.65,7.66 -14.71,14.47 -22.95,21.29 -17.07,14.47 -27.07,39.17 -28.84,67.26 -1.18,28.1 4.71,56.2 15.89,79.18 -14.12,-2.55 -28.25,-6.81 -42.37,-11.07 -10.59,-39.17 -11.18,-83.44 4.12,-121.76 11.18,-27.25 29.42,-44.27 51.2,-50.23 7.06,-1.7 12.36,-6.81 18.83,-11.92 8.83,-8.51 15.3,-19.58 20.6,-32.35 16.47,-40.86 14.12,-90.25 0.59,-131.12 z"
   id="path147" />
			</g>
			<g
   id="g153">
				<path
   class="st4"
   d="m 1680.29,499.27 c 10.59,40.02 11.77,85.14 0,125.16 -5.88,20.43 -15.3,38.31 -27.07,52.79 -1.77,1.7 -3.53,3.41 -5.3,5.96 -1.77,1.7 -4.12,3.41 -5.88,5.11 -12.36,9.37 -25.89,14.47 -38.25,23.84 -14.71,11.92 -24.72,31.5 -29.42,54.49 -5.3,26.39 -3.53,52.79 2.35,78.33 -1.77,-0.85 -3.53,-0.85 -5.3,-1.7 -10.59,-5.96 -21.19,-8.51 -31.78,-13.62 -2.94,-32.35 -1.77,-65.56 8.83,-95.36 11.77,-33.21 33.54,-57.9 58.85,-63.01 14.71,0.85 28.84,-5.11 41.78,-17.03 6.47,-5.96 11.18,-12.77 15.89,-21.29 21.18,-38.3 24.71,-88.54 15.3,-133.67 z"
   id="path151" />
			</g>
			<g
   id="g157">
				<path
   class="st4"
   d="m 1680.29,499.27 c 1.18,10.22 2.35,20.43 2.94,30.65 0.59,14.47 -0.59,27.25 -1.77,41.72 -0.59,3.41 -1.18,6.81 -1.77,11.07 -5.3,32.35 -16.48,58.75 -33.54,80.04 -11.18,13.62 -23.54,22.14 -38.25,27.25 -13.53,3.41 -26.48,5.11 -38.84,13.62 -8.83,6.81 -16.48,16.18 -22.95,28.1 -5.88,12.77 -10.59,24.69 -12.95,39.17 -2.94,17.88 -4.12,35.76 -2.35,53.64 -11.18,-5.96 -21.77,-13.62 -32.95,-17.88 1.18,-20.43 1.77,-40.87 7.65,-60.45 1.18,-3.41 2.35,-5.96 2.94,-9.37 0.59,-1.7 1.18,-2.55 1.77,-4.26 0.59,-1.71 0.59,-3.41 1.18,-5.11 1.77,-5.96 4.71,-11.07 7.65,-17.03 1.77,-2.55 2.94,-5.11 4.12,-7.66 14.12,-23.84 33.54,-39.17 54.73,-41.72 9.42,-0.85 19.42,1.7 28.84,0.85 2.94,0 5.88,-1.7 8.83,-1.7 0.59,0 1.77,-1.7 2.35,-1.7 48.83,-16.18 70.02,-94.52 62.37,-159.23 z"
   id="path155" />
			</g>
			<g
   id="g161">
				<path
   class="st4"
   d="m 1680.29,499.27 c 1.77,38.31 -3.53,76.63 -17.65,110.69 -12.36,30.65 -31.78,52.79 -54.73,63.86 -2.35,0.85 -4.12,1.7 -6.47,2.55 -15.89,5.96 -31.19,1.7 -47.08,4.26 -12.95,2.55 -24.72,11.07 -34.72,23.84 -1.18,1.7 -2.35,4.26 -4.12,5.96 -0.59,0.85 -1.18,2.55 -1.77,3.41 -0.59,0.86 -1.77,1.7 -2.35,2.55 -13.53,23.84 -21.19,52.79 -22.36,82.59 -2.35,-0.85 -3.53,-3.41 -6.47,-4.26 -1.18,-0.85 -2.35,-2.55 -3.53,-3.41 -0.59,-0.85 -1.77,0 -2.35,-0.85 -1.18,-0.85 -2.35,-2.55 -3.53,-3.41 -4.12,-2.55 -8.83,-4.26 -12.95,-7.66 4.71,-46.83 21.77,-91.1 51.2,-116.65 11.18,-9.37 22.95,-15.33 35.9,-17.03 12.36,-1.7 23.54,2.55 35.9,5.11 8.83,2.55 17.07,1.7 25.89,-0.85 0.59,0 1.77,-1.7 2.35,-1.7 15.89,-4.26 28.25,-17.88 39.43,-33.21 20.58,-31.49 29.41,-73.21 29.41,-115.79 z"
   id="path159" />
			</g>
			<g
   id="g165">
				<path
   class="st4"
   d="m 1680.29,499.27 c -1.18,29.8 -6.47,57.9 -15.89,84.29 -0.59,1.7 -1.77,2.55 -2.35,4.26 -18.24,48.53 -54.14,81.74 -91.8,77.48 -18.83,-1.7 -38.25,-10.22 -57.08,-0.85 -31.78,16.18 -54.73,58.75 -61.2,105.58 -8.24,-7.66 -16.48,-15.33 -25.89,-20.43 7.65,-40.87 24.13,-74.93 48.84,-100.47 5.88,-5.96 11.77,-9.37 17.65,-13.62 5.3,-3.41 10.59,-4.26 15.89,-6.81 19.42,-6.81 38.84,0 57.08,8.51 12.95,6.81 26.48,5.96 39.43,1.7 10,-4.26 18.83,-9.37 27.66,-17.88 3.53,-4.26 6.47,-7.66 10,-11.07 3.53,-4.26 6.47,-8.51 9.42,-13.62 1.18,-2.55 2.35,-5.11 4.12,-7.66 14.11,-27.25 21.17,-57.05 24.12,-89.41 z"
   id="path163" />
			</g>
			<g
   id="g169">
				<path
   class="st4"
   d="m 1680.29,499.27 c -5.3,39.17 -16.48,75.78 -35.9,105.58 -5.88,8.51 -11.77,15.33 -18.83,22.99 -11.77,11.92 -22.95,17.88 -36.49,22.14 -14.71,4.26 -28.84,3.41 -43.55,-2.55 -8.24,-3.41 -16.48,-7.66 -25.3,-10.22 -12.36,-3.41 -24.72,-0.85 -36.49,4.26 -10.59,5.11 -20.6,12.77 -29.42,22.99 -8.83,11.07 -15.89,22.14 -22.36,35.76 -5.88,11.92 -8.83,24.69 -12.95,37.46 -7.65,-7.66 -14.71,-15.33 -22.95,-22.14 12.95,-43.42 35.31,-80.89 65.32,-100.47 15.3,-9.37 31.19,-13.62 47.67,-11.92 18.24,1.7 34.13,14.47 51.2,23.84 14.71,6.81 30.6,5.11 45.31,-0.85 8.83,-4.26 16.48,-9.37 24.72,-17.03 4.71,-4.26 8.24,-9.37 12.95,-14.47 11.18,-13.62 18.24,-30.65 25.3,-48.53 0.59,-1.7 0.59,-3.41 1.18,-5.11 5.88,-12.78 7.05,-28.1 10.59,-41.73 z"
   id="path167" />
			</g>
			<g
   id="g173">
				<path
   class="st4"
   d="m 1680.29,499.27 c -5.3,26.39 -13.53,49.38 -24.72,72.37 -12.36,22.99 -26.48,39.17 -43.55,51.94 -16.48,11.92 -34.72,17.03 -52.96,14.47 -14.12,-1.7 -27.07,-9.37 -40.02,-18.73 -8.83,-5.96 -18.24,-9.37 -27.66,-10.22 -25.89,-2.55 -51.2,11.92 -70.62,36.61 -12.36,17.03 -22.36,35.76 -30.01,57.9 -4.71,-5.96 -8.83,-12.77 -14.12,-17.03 -2.35,-2.55 -3.53,-5.11 -5.88,-6.81 1.77,-3.41 2.94,-6.81 4.12,-11.07 6.47,-13.62 11.77,-25.54 19.42,-36.61 1.77,-2.55 3.53,-5.11 5.3,-7.66 6.47,-8.51 12.95,-15.33 20.6,-22.99 12.36,-11.92 24.72,-17.03 38.84,-22.14 7.65,-1.7 15.3,-2.55 22.95,-2.55 11.77,0.85 22.95,3.41 34.13,10.22 13.53,8.51 24.72,21.29 38.84,28.1 14.12,5.96 28.25,5.96 42.96,1.7 0.59,0 1.77,-1.7 2.35,-1.7 23.54,-6.81 41.19,-28.1 56.49,-53.64 10.59,-18.73 17.65,-40.02 23.54,-62.16 z"
   id="path171" />
			</g>
			<g
   id="g177">
				<path
   class="st4"
   d="m 1680.29,499.27 c -5.3,16.18 -10,31.5 -17.65,45.98 -0.59,1.7 -1.18,3.41 -1.77,5.11 -6.47,11.92 -12.95,22.14 -20.6,32.35 -3.53,4.26 -7.06,8.51 -11.18,12.77 -15.89,15.33 -31.78,24.69 -50.02,28.1 -23.54,4.26 -46.49,-3.41 -66.5,-23.84 -7.65,-6.81 -15.3,-11.92 -23.54,-15.33 -12.95,-5.11 -25.3,-5.11 -38.25,-3.41 -10.59,1.7 -20.6,7.66 -30.6,14.47 -3.53,2.55 -7.65,5.11 -11.18,8.51 -17.65,17.88 -31.78,38.31 -41.78,64.71 -0.59,-0.85 -1.18,-0.85 -1.77,-1.7 -1.18,-1.7 -1.18,-3.41 -2.35,-5.11 -4.71,-6.81 -8.83,-12.77 -12.95,-20.43 17.65,-39.17 42.96,-69.82 73.56,-85.14 30.6,-13.62 62.97,-11.92 91.21,15.33 14.12,13.62 25.89,28.1 42.37,32.35 0.59,0 1.77,1.7 2.35,1.7 20.01,4.26 40.02,1.7 58.26,-11.07 28.25,-19.57 49.44,-54.48 62.39,-95.35 z"
   id="path175" />
			</g>
			<g
   id="g181">
				<path
   class="st4"
   d="m 1680.29,499.27 c -16.48,45.98 -43.55,86 -78.27,103.02 -2.35,0.85 -4.12,0.85 -6.47,2.55 -1.18,0.85 -2.35,0.85 -3.53,0.85 -1.18,0.85 -1.77,0.85 -2.94,1.7 -6.47,2.55 -12.95,2.55 -19.42,3.41 -7.06,0 -14.12,-0.85 -21.19,-2.55 -11.18,-3.41 -21.19,-8.51 -31.19,-17.03 -11.18,-10.22 -19.42,-22.99 -31.19,-30.65 -20.6,-13.62 -43.55,-15.33 -65.91,-6.81 -4.12,2.55 -8.24,3.41 -12.36,5.96 -24.72,15.33 -45.31,40.87 -60.02,73.22 -4.71,-10.22 -9.42,-20.43 -13.54,-30.65 27.66,-53.64 72.97,-91.1 120.64,-83.44 7.65,1.7 15.3,3.41 22.36,6.81 16.48,8.51 31.19,22.99 44.14,40.87 7.65,10.22 17.07,17.03 26.48,22.14 1.77,0.85 3.53,1.7 5.3,2.55 38.25,15.33 77.09,-7.66 104.16,-47.68 3.53,-5.11 6.47,-11.07 10,-16.18 0.59,-1.7 1.18,-3.41 1.77,-5.11 4.7,-6.8 7.06,-15.31 11.18,-22.98 z"
   id="path179" />
			</g>
			<g
   id="g185">
				<path
   class="st4"
   d="m 1680.29,499.27 c -24.72,57.9 -68.85,101.32 -117.11,97.06 -20.6,-1.7 -40.02,-11.92 -55.91,-32.35 -10.59,-14.47 -21.19,-28.95 -35.31,-36.61 -7.65,-4.26 -15.3,-7.66 -23.54,-9.37 -14.12,-2.55 -27.66,-1.7 -41.19,3.41 -30.6,11.92 -55.91,39.17 -74.15,74.93 -3.53,-11.07 -7.06,-22.99 -9.42,-34.91 28.84,-48.53 72.97,-80.89 118.28,-74.08 21.77,3.41 41.78,15.33 58.85,35.76 14.12,17.88 25.3,39.17 42.37,49.38 12.36,7.66 25.89,11.92 39.43,11.07 40.02,-1.7 75.33,-38.31 97.7,-84.29 z"
   id="path183" />
			</g>
			<g
   id="g189">
				<path
   class="st4"
   d="m 1680.29,499.27 c -2.35,2.55 -3.53,5.96 -5.3,9.37 -14.71,24.69 -31.19,44.27 -51.2,57.9 -8.83,5.11 -17.07,9.37 -26.48,12.77 -13.53,4.26 -25.89,4.26 -39.43,1.7 -18.24,-4.26 -34.72,-14.47 -48.84,-32.35 -7.06,-8.51 -11.77,-19.58 -18.24,-28.1 -5.3,-6.81 -10.59,-11.92 -16.48,-17.88 -8.24,-6.81 -15.89,-11.07 -25.3,-14.47 -11.77,-4.26 -23.54,-5.11 -35.31,-3.41 -14.71,3.41 -28.84,7.66 -42.37,18.73 -1.18,0.85 -2.35,0.85 -3.53,1.7 -17.65,13.62 -31.78,32.35 -44.72,53.64 -2.35,-12.77 -4.12,-25.54 -4.71,-39.17 15.3,-22.14 33.54,-40.02 54.14,-51.94 41.78,-24.69 92.39,-17.03 125.93,29.8 6.47,9.37 11.77,19.58 17.65,29.8 3.53,5.11 6.47,9.37 10,14.47 7.06,8.51 14.71,15.33 23.54,20.43 15.3,7.66 30.6,11.07 47.08,7.66 33.54,-6.79 62.38,-34.89 83.57,-70.65 z"
   id="path187" />
			</g>
			<g
   id="g193">
				<path
   class="st4"
   d="m 1680.29,500.13 c -30.6,45.98 -73.56,74.93 -118.28,66.41 -20.6,-4.26 -38.25,-16.18 -54.14,-35.76 -10,-12.77 -16.48,-28.95 -25.3,-42.57 -6.47,-8.51 -12.95,-16.18 -20.6,-22.14 -10,-7.66 -20.01,-11.92 -31.19,-14.47 -7.06,-1.7 -14.71,-0.85 -21.77,-0.85 -11.18,0.85 -22.36,5.11 -32.95,11.07 -22.36,11.92 -42.37,32.35 -57.67,58.75 -1.18,-15.33 -1.18,-29.8 0,-45.13 38.84,-51.94 99.45,-75.78 148.88,-36.61 15.89,12.77 28.25,29.8 37.66,51.94 7.65,19.58 17.65,35.76 31.19,47.68 1.77,0.85 3.53,2.55 5.3,4.26 21.19,16.18 44.14,18.73 67.67,12.77 1.18,0 1.77,-1.7 2.94,-1.7 8.24,-1.7 15.89,-5.96 23.54,-10.22 4.71,-3.41 8.83,-5.96 13.53,-9.37 2.35,-2.55 4.12,-4.26 6.47,-5.96 1.18,-0.85 1.77,-2.55 2.94,-3.41 1.18,-0.85 2.35,-1.7 3.53,-2.55 5.3,-5.96 10,-11.92 15.3,-17.88 1.18,-1.71 1.77,-2.56 2.95,-4.26 z"
   id="path191" />
			</g>
			<g
   id="g197">
				<path
   class="st4"
   d="m 1680.29,499.27 c -7.65,8.51 -15.3,17.03 -24.13,24.69 -15.3,12.77 -30.6,20.43 -47.67,26.39 -39.43,11.92 -79.44,-3.41 -107.69,-45.13 -10.59,-16.18 -17.07,-34.91 -27.07,-51.09 -3.53,-5.96 -8.24,-10.22 -12.36,-15.33 -8.83,-9.37 -18.24,-14.47 -28.25,-18.73 -24.72,-9.37 -49.43,-3.41 -72.38,11.07 -15.89,11.07 -30.6,24.69 -42.37,43.42 0.59,-17.03 2.35,-34.91 6.47,-51.09 14.71,-16.18 30.6,-27.25 48.84,-33.21 5.3,-2.55 9.42,-4.26 14.71,-5.11 40.02,-9.37 80.62,10.22 104.16,60.45 4.71,11.07 7.65,22.99 12.36,34.06 9.42,22.14 21.77,38.31 37.66,49.38 24.72,17.88 51.2,20.43 78.27,11.92 22.37,-7.63 41.79,-22.1 59.45,-41.69 z"
   id="path195" />
			</g>
			<g
   id="g201">
				<path
   class="st4"
   d="m 1680.29,499.27 c -32.37,31.5 -70.62,51.09 -111.22,40.02 -20.6,-5.96 -38.25,-17.03 -54.14,-36.61 -8.24,-10.22 -15.3,-21.29 -20.6,-34.91 -3.53,-9.37 -7.65,-17.03 -10,-26.39 -0.59,-2.55 -2.35,-4.26 -3.53,-5.96 -2.35,-7.66 -6.47,-12.77 -10.59,-18.73 -4.71,-6.81 -10,-11.92 -15.89,-17.03 -18.24,-15.33 -38.25,-20.43 -58.26,-17.88 -26.48,4.26 -51.79,18.73 -71.79,43.42 2.94,-18.73 8.24,-35.76 13.53,-52.79 31.19,-23.84 68.26,-31.5 102.98,-16.18 31.78,14.47 56.49,51.94 65.32,97.92 4.12,11.07 8.83,21.29 14.71,31.5 8.24,13.62 17.65,24.69 28.84,32.35 10,6.81 19.42,11.92 30.6,14.47 35.89,8.52 70.61,-5.95 100.04,-33.2 z"
   id="path199" />
			</g>
			<g
   id="g205">
				<path
   class="st4"
   d="m 1680.29,499.27 c -12.36,9.37 -24.72,18.73 -38.25,23.84 -16.48,5.96 -32.37,9.37 -49.43,7.66 -7.65,-0.85 -14.12,-3.41 -21.77,-5.11 -10.59,-3.41 -19.42,-9.37 -28.84,-16.18 -23.54,-19.58 -39.43,-51.09 -50.02,-86.85 -2.94,-11.07 -7.65,-21.29 -12.95,-30.65 -4.71,-8.51 -10.59,-14.47 -16.48,-21.29 -1.18,-0.85 -1.77,-0.85 -2.94,-1.7 -12.95,-13.62 -27.07,-18.73 -42.37,-20.43 -28.84,-4.26 -57.08,7.66 -81.21,29.8 5.3,-19.58 12.95,-36.61 21.19,-53.64 23.54,-11.07 48.26,-16.18 73.56,-8.51 2.35,0.85 4.12,1.7 6.47,2.55 1.18,0 1.77,0.85 2.94,1.7 1.18,0 2.35,0 3.53,0.85 17.65,8.51 32.37,22.14 45.31,41.72 8.83,14.47 15.3,30.65 19.42,48.53 2.35,11.07 4.12,22.14 7.06,32.35 5.3,15.33 12.36,28.95 20.6,40.87 39.43,53.66 99.45,49.4 144.18,14.49 z"
   id="path203" />
			</g>
			<g
   id="g209">
				<path
   class="st4"
   d="m 1680.29,499.27 c -24.13,16.18 -50.61,23.84 -77.68,21.29 -21.19,-2.55 -40.6,-11.92 -58.85,-30.65 -22.95,-22.99 -34.72,-55.34 -42.96,-91.96 -3.53,-17.03 -9.42,-31.5 -18.24,-44.27 -8.83,-11.92 -18.24,-21.29 -28.84,-28.1 -14.71,-8.51 -31.19,-12.77 -47.08,-11.92 -18.24,1.7 -35.9,7.66 -52.37,19.58 7.06,-19.58 17.65,-35.76 28.25,-51.09 28.25,-9.37 58.85,-4.26 85.33,15.33 22.95,17.03 40.6,45.13 48.84,80.04 4.71,21.29 4.71,44.27 12.95,64.71 5.88,13.62 12.36,25.54 20.6,36.61 12.95,15.33 26.48,25.54 42.37,31.5 27.07,10.22 54.14,6.81 80.03,-6.81 2.35,-1.7 4.7,-3.4 7.65,-4.26 z"
   id="path207" />
			</g>
			<g
   id="g213">
				<path
   class="st4"
   d="m 1680.29,499.27 c -26.48,13.62 -54.14,17.88 -82.39,8.51 -4.71,-1.7 -8.83,-3.41 -13.54,-5.96 -18.24,-10.22 -34.13,-24.69 -47.08,-46.83 -13.53,-23.84 -19.42,-50.23 -24.13,-80.89 -1.77,-13.62 -5.88,-24.69 -11.18,-36.61 -14.12,-28.95 -34.13,-45.13 -57.67,-52.79 -22.95,-6.81 -45.31,-3.41 -67.09,6.81 10.59,-17.03 21.77,-34.06 35.31,-46.83 28.84,-3.41 58.26,7.66 82.39,34.06 5.88,6.81 11.18,14.47 16.48,22.99 5.3,9.37 9.42,18.73 13.53,29.8 6.47,20.43 8.24,41.72 9.42,63.86 2.94,31.5 14.71,57.9 31.78,78.33 10.59,11.92 21.19,20.43 33.54,26.39 2.35,0.85 4.12,1.7 6.47,2.55 25.31,8.53 50.03,6.83 74.16,-3.39 z"
   id="path211" />
			</g>
		</g>
	</g>
	<g
   id="Layer_2">
	</g>
	<g
   id="g711">
		<circle
   class="st5"
   cx="595.28003"
   cy="420.94"
   r="201.71001"
   id="circle220" />
		<circle
   class="st6"
   cx="595.28003"
   cy="420.94"
   r="193.67999"
   id="circle222" />
		<circle
   class="st7"
   cx="595.28003"
   cy="420.94"
   r="190.61"
   id="circle224" />
		<g
   id="g709">
			<defs
   id="defs227">
				<circle
   id="SVGID_3_"
   cx="595.28003"
   cy="420.94"
   r="190.61" />
			</defs>
			<clipPath
   id="SVGID_4_">
				<use
   xlink:href="#SVGID_3_"
   style="overflow:visible"
   id="use229"
   x="0"
   y="0"
   width="100%"
   height="100%" />
			</clipPath>
			<g
   class="st8"
   clip-path="url(#SVGID_4_)"
   id="g707">
				<g
   id="g245">
					
						<radialGradient
   id="SVGID_5_"
   cx="257.67661"
   cy="420.13379"
   r="122.8902"
   gradientTransform="matrix(0.6748,0,0,0.9763,534.3457,14.0048)"
   gradientUnits="userSpaceOnUse">
						<stop
   offset="0.2821"
   style="stop-color:#A81517;stop-opacity:0.9"
   id="stop232" />
						<stop
   offset="0.3697"
   style="stop-color:#A41618;stop-opacity:0.9158"
   id="stop234" />
						<stop
   offset="0.5007"
   style="stop-color:#981719;stop-opacity:0.9394"
   id="stop236" />
						<stop
   offset="0.6591"
   style="stop-color:#841719;stop-opacity:0.968"
   id="stop238" />
						<stop
   offset="0.8363"
   style="stop-color:#691516"
   id="stop240" />
					</radialGradient>
					<path
   class="st9"
   d="m 820.75,407.47 c 0.37,9.54 0.37,19.08 0,28.63 -1.47,1.06 -2.56,3.18 -4.03,4.77 -16.12,18.55 -34.81,29.69 -54.96,29.69 -6.96,-0.53 -13.92,-1.06 -20.88,-4.24 -8.79,-4.24 -17.22,-10.07 -24.18,-19.08 -1.83,-2.65 -3.66,-5.3 -5.5,-7.95 -3.3,-5.83 -5.86,-11.66 -8.43,-18.02 -4.76,-10.6 -10.63,-18.02 -17.95,-24.92 -8.79,-7.95 -18.69,-11.13 -28.58,-12.19 -22.72,-1.59 -44.33,13.78 -60.82,36.05 1.83,-2.65 3.3,-5.3 5.5,-7.95 1.47,-1.59 2.56,-3.18 4.03,-4.77 24.18,-29.16 58.26,-40.29 86.84,-17.49 4.4,3.71 8.79,7.95 12.46,13.25 4.4,6.89 7.69,13.78 11.72,20.67 12.46,21.73 31.88,29.69 50.56,27.04 21.24,-3.2 40.29,-20.17 54.22,-43.49 z"
   id="path243"
   style="fill:url(#SVGID_5_)" />
				</g>
				<g
   id="g249">
					<path
   class="st7"
   d="m 820.75,408 c -20.88,30.75 -52.03,48.77 -82.44,37.64 -1.47,-0.53 -2.56,-1.06 -4.03,-1.59 -7.33,-3.71 -13.56,-8.48 -19.79,-14.84 -8.43,-9.01 -13.56,-20.67 -20.52,-31.28 -5.86,-8.48 -13.19,-14.31 -20.88,-18.02 -15.02,-6.89 -30.78,-4.24 -45.07,4.77 -4.03,2.65 -7.69,5.3 -11.72,9.01 -8.06,7.95 -15.02,16.43 -20.88,27.57 0.73,-2.12 1.83,-4.24 3.3,-5.83 0.73,-1.06 0.73,-2.12 1.47,-3.18 17.95,-29.69 43.6,-47.71 71.08,-42.41 9.16,2.12 16.85,6.36 24.91,13.78 6.6,6.36 10.63,14.31 15.76,22.27 15.02,22.27 36.64,29.16 57.52,22.27 19.42,-6.89 36.27,-22.27 48,-44.53 0.73,1.06 1.1,2.65 1.1,4.24 0,1.06 0,1.59 0,2.65 1.09,5.82 1.45,11.65 2.19,17.48 z"
   id="path247" />
				</g>
				<g
   id="g253">
					<path
   class="st7"
   d="m 820.75,436.62 c -0.73,10.6 -1.83,21.2 -4.03,31.81 -17.22,16.96 -37.74,27.04 -58.99,23.86 -18.69,-3.18 -36.27,-16.43 -46.53,-40.29 -0.73,-1.59 -1.1,-3.18 -1.83,-4.77 -4.76,-16.96 -12.46,-30.75 -23.08,-40.82 -13.92,-12.19 -29.31,-16.43 -45.07,-13.78 -7.69,1.59 -15.02,4.77 -22.35,8.48 -2.93,1.59 -5.86,3.18 -8.79,5.83 -5.13,5.3 -10.63,7.95 -14.66,14.31 13.19,-16.96 28.95,-28.1 46.9,-32.87 0.73,0 1.83,0 2.56,0 24.91,-5.83 50.2,6.36 65.95,35.52 5.86,11.13 10.26,22.8 17.95,31.81 5.86,6.36 11.72,10.6 18.69,13.78 8.06,3.18 16.12,4.24 24.55,2.65 8.43,-1.59 16.49,-4.77 24.18,-10.07 9.16,-6.89 17.22,-15.37 24.55,-25.45 z"
   id="path251" />
				</g>
				<g
   id="g268">
					
						<radialGradient
   id="SVGID_6_"
   cx="255.0295"
   cy="389.81879"
   r="118.9548"
   gradientTransform="matrix(0.6748,0,0,0.9763,534.3457,14.0048)"
   gradientUnits="userSpaceOnUse">
						<stop
   offset="0.2821"
   style="stop-color:#A81517;stop-opacity:0.9"
   id="stop255" />
						<stop
   offset="0.3697"
   style="stop-color:#A41618;stop-opacity:0.9158"
   id="stop257" />
						<stop
   offset="0.5007"
   style="stop-color:#981719;stop-opacity:0.9394"
   id="stop259" />
						<stop
   offset="0.6591"
   style="stop-color:#841719;stop-opacity:0.968"
   id="stop261" />
						<stop
   offset="0.8363"
   style="stop-color:#691516"
   id="stop263" />
					</radialGradient>
					<path
   class="st10"
   d="m 817.45,382.55 c -3.66,5.3 -7.33,10.6 -11.36,15.9 -4.4,5.3 -9.16,10.07 -14.29,14.31 -11.72,9.54 -24.18,14.84 -37.37,15.9 -12.09,1.06 -23.45,-3.18 -34.44,-10.07 -1.83,-1.06 -3.3,-3.18 -5.13,-4.24 -2.93,-2.12 -5.5,-5.3 -8.06,-8.48 -5.86,-6.89 -9.89,-14.84 -15.75,-21.73 -2.93,-3.18 -5.86,-5.3 -8.79,-7.95 -10.99,-7.95 -23.08,-9.54 -35.54,-6.36 -21.62,6.36 -39.57,25.45 -51.3,51.42 7.69,-18.02 17.59,-33.93 30.78,-44.53 0.73,-0.53 1.1,-1.59 1.83,-2.12 4.76,-3.18 8.79,-6.89 13.92,-9.01 1.47,-0.53 2.56,-0.53 4.03,-1.59 0.73,-0.53 1.47,-0.53 2.2,-0.53 0.73,-0.53 1.1,-1.06 1.83,-1.06 14.66,-4.24 28.95,-2.12 42.14,7.42 7.69,5.83 13.19,14.84 20.15,22.8 17.59,20.14 41.04,22.27 61.19,10.6 14.29,-8.48 26.75,-21.2 36.27,-39.76 0.73,-1.06 1.1,-1.59 1.83,-2.65 1.1,3.71 2.2,6.89 2.93,10.6 0,0.53 0.73,1.06 0.73,1.59 0.37,2.12 0.73,3.71 1.1,5.83 0.37,1.06 1.1,2.12 1.1,3.71 z"
   id="path266"
   style="fill:url(#SVGID_6_)" />
				</g>
				<g
   id="g283">
					
						<radialGradient
   id="SVGID_7_"
   cx="254.758"
   cy="451.3446"
   r="124.1797"
   gradientTransform="matrix(0.6748,0,0,0.9763,534.3457,14.0048)"
   gradientUnits="userSpaceOnUse">
						<stop
   offset="0.2821"
   style="stop-color:#A81517;stop-opacity:0.9"
   id="stop270" />
						<stop
   offset="0.3697"
   style="stop-color:#A41618;stop-opacity:0.9158"
   id="stop272" />
						<stop
   offset="0.5007"
   style="stop-color:#981719;stop-opacity:0.9394"
   id="stop274" />
						<stop
   offset="0.6591"
   style="stop-color:#841719;stop-opacity:0.968"
   id="stop276" />
						<stop
   offset="0.8363"
   style="stop-color:#691516"
   id="stop278" />
					</radialGradient>
					<path
   class="st11"
   d="m 817.08,466.84 c -1.83,11.66 -5.13,22.27 -8.43,32.87 -8.43,6.89 -17.59,11.13 -27.48,13.78 -12.09,3.18 -23.45,2.12 -34.81,-2.65 -15.75,-6.89 -29.31,-20.67 -37.01,-41.88 -3.3,-9.54 -5.13,-19.61 -9.16,-29.16 -3.3,-7.95 -7.33,-14.31 -12.46,-20.14 -7.33,-8.48 -15.02,-13.78 -24.18,-17.49 -23.82,-8.48 -48.36,-0.53 -68.15,19.08 8.06,-9.54 17.59,-15.9 27.48,-20.67 9.89,-4.77 20.15,-7.42 30.41,-6.36 5.86,0.53 11.72,1.59 17.59,3.71 4.03,1.59 8.06,3.71 11.72,6.36 2.93,2.65 6.23,4.24 9.16,7.42 2.93,2.65 5.5,5.83 8.06,9.01 1.83,2.65 3.66,5.3 5.5,8.48 1.83,2.65 2.93,5.83 4.4,9.01 3.66,7.95 6.23,14.84 9.53,22.8 8.43,18.02 20.88,28.1 35.17,31.28 1.83,0.53 4.03,1.06 5.86,1.59 5.5,0.53 10.63,0 16.12,-0.53 3.66,-0.53 6.6,-2.12 10.26,-3.71 11.37,-4.24 21.26,-12.2 30.42,-22.8 z"
   id="path281"
   style="fill:url(#SVGID_7_)" />
				</g>
				<g
   id="g287">
					<path
   class="st7"
   d="m 810.49,357.11 c -5.13,10.07 -10.63,18.55 -17.95,25.98 -0.73,1.06 -1.1,2.12 -1.83,2.65 -2.93,2.12 -5.13,5.3 -8.06,7.42 -2.93,2.12 -5.5,4.24 -8.43,6.36 -11.72,6.89 -23.82,11.13 -36.27,9.54 -11.36,-1.59 -22.35,-6.36 -32.24,-16.43 -7.33,-7.42 -12.82,-15.9 -20.15,-22.27 -4.76,-4.24 -9.53,-5.83 -14.66,-7.95 -7.33,-2.65 -14.29,-1.59 -21.62,-0.53 -2.56,0.53 -5.13,1.59 -7.69,2.65 -20.15,9.01 -36.27,30.22 -46.17,56.72 1.83,-5.83 4.03,-10.6 6.6,-15.9 0.37,-1.06 0.73,-2.12 1.1,-3.18 10.63,-20.14 23.08,-36.05 39.2,-44.53 15.02,-7.95 31.14,-8.48 46.17,0 3.3,2.12 6.6,4.77 9.89,7.42 5.13,5.3 9.16,11.13 14.66,15.37 24.91,20.14 55.33,8.48 75.48,-19.08 1.1,-1.59 1.83,-3.18 3.3,-4.77 0.73,-0.53 1.1,-1.59 1.47,-2.65 0.73,-0.53 1.1,-1.06 1.83,-2.12 2.56,-4.77 5.13,-9.01 7.33,-14.31 2.54,6.88 5.84,12.71 8.04,19.61 z"
   id="path285" />
				</g>
				<g
   id="g291">
					<path
   class="st7"
   d="m 809.39,496.53 h 0.37 c -0.73,1.59 -1.1,3.71 -1.83,5.83 -3.3,9.54 -7.33,18.55 -11.36,27.04 -15.39,7.42 -31.51,10.07 -48,4.77 -1.47,-0.53 -2.56,-1.06 -4.03,-1.59 -18.32,-7.95 -34.07,-25.98 -41.04,-51.95 -1.47,-5.83 -2.56,-11.66 -3.66,-18.02 -1.47,-5.83 -3.3,-11.13 -5.5,-16.43 -1.83,-3.71 -3.3,-7.42 -5.5,-10.6 -0.73,-1.06 -1.83,-2.12 -2.56,-3.71 -7.33,-9.54 -15.39,-17.49 -24.55,-21.73 -5.5,-2.12 -10.99,-3.71 -16.49,-4.77 -9.89,-1.06 -19.42,0 -29.31,3.71 -7.33,3.18 -14.29,6.36 -20.52,12.19 1.47,-1.59 2.93,-2.65 4.76,-3.71 0.73,-0.53 1.47,-1.59 2.2,-2.12 1.47,-1.06 3.3,-2.12 4.76,-3.18 1.47,-0.53 3.3,-1.59 4.76,-2.65 16.49,-9.01 33.71,-11.13 51.3,-5.3 15.39,5.83 28.21,16.43 38.11,34.99 5.5,10.6 8.79,22.27 12.46,33.93 4.4,12.19 10.63,21.2 18.69,29.16 6.23,5.3 12.09,9.01 19.05,11.13 17.22,5.3 34.07,1.06 49.46,-10.6 0.73,-0.53 1.47,-0.53 2.2,-1.06 2.2,-2.15 4.4,-3.21 6.23,-5.33 z"
   id="path289" />
				</g>
				<g
   id="g306">
					
						<radialGradient
   id="SVGID_8_"
   cx="242.8121"
   cy="362.83829"
   r="114.3392"
   gradientTransform="matrix(0.6748,0,0,0.9763,534.3457,14.0048)"
   gradientUnits="userSpaceOnUse">
						<stop
   offset="0.2821"
   style="stop-color:#A81517;stop-opacity:0.9"
   id="stop293" />
						<stop
   offset="0.3697"
   style="stop-color:#A41618;stop-opacity:0.9158"
   id="stop295" />
						<stop
   offset="0.5007"
   style="stop-color:#981719;stop-opacity:0.9394"
   id="stop297" />
						<stop
   offset="0.6591"
   style="stop-color:#841719;stop-opacity:0.968"
   id="stop299" />
						<stop
   offset="0.8363"
   style="stop-color:#691516"
   id="stop301" />
					</radialGradient>
					<path
   class="st12"
   d="m 800.96,332.19 c -8.79,18.55 -19.79,34.46 -33.71,45.59 -0.73,0.53 -1.47,0.53 -2.2,1.06 -12.82,10.07 -27.11,12.72 -41.04,10.6 -4.76,-0.53 -9.16,-2.65 -13.56,-4.77 -9.53,-4.77 -16.85,-14.31 -25.65,-22.27 -6.6,-5.83 -13.92,-7.95 -21.62,-9.01 -14.29,-1.06 -27.85,4.77 -39.57,16.96 -1.1,1.59 -1.83,2.65 -3.3,3.71 -0.73,0.53 -1.1,1.59 -1.47,2.12 -0.73,0.53 -1.1,1.06 -1.83,1.59 -9.53,12.19 -16.49,27.04 -21.62,43.47 8.79,-34.46 27.85,-64.14 52.76,-74.75 1.47,-0.53 2.56,-1.06 4.03,-1.59 14.29,-4.77 28.58,-2.12 41.4,7.42 1.1,1.06 2.2,1.59 3.3,2.65 14.66,15.37 32.24,19.61 49.1,12.72 19.05,-8.48 34.81,-27.57 44.33,-52.48 0.37,1.06 1.1,1.59 1.83,2.65 0.73,1.59 1.47,2.65 2.2,4.24 0.37,0.53 0.73,0.53 1.1,1.06 1.86,3.2 3.69,6.38 5.52,9.03 z"
   id="path304"
   style="fill:url(#SVGID_8_)" />
				</g>
				<g
   id="g321">
					
						<radialGradient
   id="SVGID_9_"
   cx="240.91161"
   cy="480.19009"
   r="119.7183"
   gradientTransform="matrix(0.6748,0,0,0.9763,534.3457,14.0048)"
   gradientUnits="userSpaceOnUse">
						<stop
   offset="0.2821"
   style="stop-color:#A81517;stop-opacity:0.9"
   id="stop308" />
						<stop
   offset="0.3697"
   style="stop-color:#A41618;stop-opacity:0.9158"
   id="stop310" />
						<stop
   offset="0.5007"
   style="stop-color:#981719;stop-opacity:0.9394"
   id="stop312" />
						<stop
   offset="0.6591"
   style="stop-color:#841719;stop-opacity:0.968"
   id="stop314" />
						<stop
   offset="0.8363"
   style="stop-color:#691516"
   id="stop316" />
					</radialGradient>
					<path
   class="st13"
   d="m 798.4,524.09 c -4.76,12.19 -10.99,22.27 -17.59,32.34 -19.05,4.77 -39.2,2.65 -56.79,-12.72 -9.89,-8.48 -17.59,-20.14 -23.08,-34.46 -4.4,-12.19 -5.5,-24.92 -8.06,-38.17 -3.66,-20.67 -13.19,-36.58 -26.01,-47.18 -20.15,-16.43 -43.23,-16.96 -64.49,-6.89 -1.47,1.06 -2.93,2.12 -4.76,2.65 -0.73,0.53 -1.47,1.06 -2.2,1.59 4.03,-3.18 8.06,-5.3 12.09,-7.42 3.3,-1.59 6.6,-2.12 9.89,-3.71 22.72,-7.42 45.43,-2.12 64.49,18.02 1.1,1.59 2.2,2.65 3.3,3.71 6.96,9.01 12.46,19.61 16.49,31.81 3.66,12.19 5.13,24.39 10.26,36.05 3.66,7.42 6.96,13.25 11.72,18.55 7.33,7.95 14.66,13.25 23.82,15.37 1.1,0.53 2.2,1.59 3.66,1.59 16.48,3.19 32.6,-0.52 47.26,-11.13 z"
   id="path319"
   style="fill:url(#SVGID_9_)" />
				</g>
				<g
   id="g325">
					<path
   class="st7"
   d="m 787.77,308.34 c -4.4,14.31 -11.36,25.98 -19.79,36.58 -0.73,1.06 -0.73,2.12 -1.47,2.65 -11.36,12.72 -23.82,21.73 -37.74,24.39 -8.06,1.59 -16.12,1.06 -23.82,-2.12 -3.66,-1.59 -7.33,-3.18 -10.99,-5.83 -5.5,-4.24 -10.26,-9.01 -15.75,-12.72 -1.1,-0.53 -2.2,-0.53 -3.3,-1.59 -0.73,-0.53 -1.1,-0.53 -1.83,-0.53 -0.37,-0.53 -1.1,-1.06 -1.47,-1.06 -10.99,-4.24 -21.98,-2.65 -32.24,2.65 -21.62,11.66 -37.01,39.23 -43.97,70.51 2.2,-12.19 5.86,-22.8 9.89,-33.93 0.73,-2.12 1.83,-3.71 2.56,-5.83 11.72,-24.39 27.11,-40.82 47.26,-46.12 9.16,-2.12 18.32,-1.59 27.11,2.12 6.96,3.18 13.19,9.01 20.15,12.19 15.39,6.36 31.14,2.12 44.7,-9.54 12.82,-11.66 21.98,-27.57 28.21,-46.65 4.06,4.75 8.09,10.05 12.49,14.83 z"
   id="path323" />
				</g>
				<g
   id="g329">
					<path
   class="st7"
   d="m 783.74,550.07 c -6.23,11.66 -13.92,21.2 -21.98,29.69 -26.01,1.59 -53.13,-13.25 -67.05,-47.18 -0.37,-1.59 -1.1,-3.18 -1.83,-4.77 -2.2,-5.83 -3.3,-12.19 -4.76,-18.55 -1.83,-10.6 -1.1,-20.67 -2.93,-31.28 -5.5,-29.69 -21.98,-50.36 -41.77,-58.31 -1.47,-0.53 -2.56,-1.06 -4.03,-1.59 -15.02,-4.77 -30.04,-3.71 -43.97,3.18 20.15,-11.13 43.6,-12.19 63.75,0.53 1.47,1.06 2.56,1.59 4.03,2.65 7.33,5.83 13.92,12.72 19.79,21.73 9.53,15.9 13.56,34.46 16.85,55.13 0.73,6.89 2.93,12.19 5.5,18.02 4.03,8.48 8.06,14.84 13.92,20.67 9.16,9.01 18.32,14.31 28.95,15.9 12.08,1.6 24.17,0.01 35.53,-5.82 z"
   id="path327" />
				</g>
				<g
   id="g344">
					
						<radialGradient
   id="SVGID_10_"
   cx="221.36369"
   cy="340.84698"
   r="107.1103"
   gradientTransform="matrix(0.6748,0,0,0.9763,534.3457,14.0048)"
   gradientUnits="userSpaceOnUse">
						<stop
   offset="0.2821"
   style="stop-color:#A81517;stop-opacity:0.9"
   id="stop331" />
						<stop
   offset="0.3697"
   style="stop-color:#A41618;stop-opacity:0.9158"
   id="stop333" />
						<stop
   offset="0.5007"
   style="stop-color:#981719;stop-opacity:0.9394"
   id="stop335" />
						<stop
   offset="0.6591"
   style="stop-color:#841719;stop-opacity:0.968"
   id="stop337" />
						<stop
   offset="0.8363"
   style="stop-color:#691516"
   id="stop339" />
					</radialGradient>
					<path
   class="st14"
   d="m 772.02,286.07 c -9.16,33.4 -28.21,61.49 -54.23,68.92 -0.73,0 -1.47,0 -2.2,0 -9.16,2.65 -18.32,1.59 -27.11,-2.65 -8.06,-4.24 -15.02,-10.6 -23.45,-12.72 -7.33,-1.06 -14.29,-1.06 -21.25,1.59 -25.65,10.6 -43.23,43.47 -48.36,80.05 2.93,-30.22 13.56,-57.25 30.41,-76.87 4.76,-4.77 9.53,-8.48 14.66,-12.19 5.5,-3.71 11.72,-5.3 17.59,-5.83 9.53,-1.59 19.05,0.53 28.21,5.3 12.09,6.89 24.91,5.3 36.64,-2.12 0.37,-0.53 1.1,-1.06 1.47,-1.59 16.12,-10.6 27.48,-32.34 33.34,-55.66 4.75,4.76 9.51,9.53 14.28,13.77 z"
   id="path342"
   style="fill:url(#SVGID_10_)" />
				</g>
				<g
   id="g359">
					
						<radialGradient
   id="SVGID_11_"
   cx="217.0197"
   cy="506.17291"
   r="111.204"
   gradientTransform="matrix(0.6748,0,0,0.9763,534.3457,14.0048)"
   gradientUnits="userSpaceOnUse">
						<stop
   offset="0.2821"
   style="stop-color:#A81517;stop-opacity:0.9"
   id="stop346" />
						<stop
   offset="0.3697"
   style="stop-color:#A41618;stop-opacity:0.9158"
   id="stop348" />
						<stop
   offset="0.5007"
   style="stop-color:#981719;stop-opacity:0.9394"
   id="stop350" />
						<stop
   offset="0.6591"
   style="stop-color:#841719;stop-opacity:0.968"
   id="stop352" />
						<stop
   offset="0.8363"
   style="stop-color:#691516"
   id="stop354" />
					</radialGradient>
					<path
   class="st15"
   d="m 766.15,573.4 c -7.69,10.07 -16.49,18.55 -25.65,25.98 -31.14,-3.71 -61.55,-37.64 -63.75,-84.82 0.37,-16.43 0.37,-32.87 -5.13,-48.24 -2.2,-5.3 -4.03,-10.6 -6.96,-15.37 -3.66,-5.3 -6.96,-10.07 -11.36,-14.84 -17.59,-16.96 -38.11,-21.2 -57.89,-14.84 17.22,-6.89 35.91,-5.3 52.76,3.71 1.47,1.06 2.56,1.59 4.03,2.65 10.63,7.42 19.79,18.02 26.75,32.87 4.76,10.07 7.33,20.14 8.43,31.28 1.83,16.43 2.56,32.34 9.16,46.65 8.43,18.02 20.15,28.63 34.07,33.93 11.73,4.22 23.82,4.75 35.54,1.04 z"
   id="path357"
   style="fill:url(#SVGID_11_)" />
				</g>
				<g
   id="g363">
					<path
   class="st7"
   d="m 753.7,265.4 c -2.93,11.13 -5.5,21.73 -10.26,32.34 -2.56,4.77 -4.4,9.01 -6.96,13.25 -5.5,8.48 -11.36,15.9 -18.69,21.2 -3.3,2.12 -6.23,4.24 -9.53,5.83 -7.33,3.18 -14.29,4.24 -21.62,3.71 -8.06,-0.53 -15.39,-5.83 -23.45,-8.48 -20.15,-6.36 -39.2,6.89 -51.66,29.69 -0.73,1.59 -1.47,3.18 -2.56,4.77 -8.06,16.96 -12.09,34.46 -13.56,53.54 0.73,-43.47 18.69,-87.47 48.73,-100.72 1.47,-0.53 2.56,-1.06 4.03,-1.59 7.33,-2.65 14.29,-2.12 21.62,-1.06 5.86,1.59 11.72,3.71 17.59,3.18 5.13,-0.53 10.26,-2.12 15.39,-4.77 8.06,-4.77 15.02,-12.19 20.88,-22.27 3.3,-6.36 6.6,-12.72 8.79,-20.14 2.2,-6.89 3.66,-13.78 5.13,-21.2 2.2,2.12 4.4,3.71 6.6,5.83 2.2,1.59 4.03,3.18 6.23,4.77 1.1,0.53 2.2,1.06 3.3,2.12 z"
   id="path361" />
				</g>
				<g
   id="g367">
					<path
   class="st7"
   d="m 746,593.54 c -8.79,9.01 -18.69,15.9 -28.58,21.73 -6.23,-2.65 -12.46,-5.83 -18.32,-10.07 -0.73,-0.53 -1.1,-1.59 -1.83,-2.12 -9.53,-6.89 -16.49,-17.49 -22.72,-29.69 -9.89,-20.67 -11.72,-44.53 -9.16,-68.39 1.1,-8.48 0.37,-16.43 -1.1,-24.92 -2.2,-11.13 -5.86,-21.2 -11.36,-29.69 -5.86,-8.48 -12.09,-15.37 -19.42,-20.14 -7.69,-4.77 -15.39,-7.95 -23.45,-9.01 -4.76,-0.53 -9.89,-1.06 -14.66,0 24.55,-5.83 50.93,4.77 68.15,32.34 0.73,1.59 1.47,3.18 2.56,4.77 9.53,17.49 12.46,39.23 11.72,60.43 -0.37,10.07 1.47,20.14 4.76,29.69 2.2,5.3 4.4,10.6 7.33,15.37 4.76,7.95 10.63,13.78 16.85,19.08 5.86,4.24 11.72,6.89 18.32,9.01 6.99,2.14 13.95,2.67 20.91,1.61 z"
   id="path365" />
				</g>
				<g
   id="g382">
					
						<radialGradient
   id="SVGID_12_"
   cx="191.8605"
   cy="321.2991"
   r="98.824097"
   gradientTransform="matrix(0.6748,0,0,0.9763,534.3457,14.0048)"
   gradientUnits="userSpaceOnUse">
						<stop
   offset="0.2821"
   style="stop-color:#A81517;stop-opacity:0.9"
   id="stop369" />
						<stop
   offset="0.3697"
   style="stop-color:#A41618;stop-opacity:0.9158"
   id="stop371" />
						<stop
   offset="0.5007"
   style="stop-color:#981719;stop-opacity:0.9394"
   id="stop373" />
						<stop
   offset="0.6591"
   style="stop-color:#841719;stop-opacity:0.968"
   id="stop375" />
						<stop
   offset="0.8363"
   style="stop-color:#691516"
   id="stop377" />
					</radialGradient>
					<path
   class="st16"
   d="m 732.44,246.31 c -2.56,23.33 -9.53,45.59 -21.98,61.49 -2.2,3.18 -4.03,5.83 -6.6,7.95 -2.93,2.65 -5.86,5.3 -8.79,7.42 -3.66,2.65 -7.33,3.71 -11.36,4.77 -5.13,2.12 -10.26,2.12 -15.39,1.59 -4.76,-1.06 -9.53,-3.18 -14.29,-3.71 -6.23,-0.53 -12.09,0 -17.95,2.65 -1.1,0.53 -2.2,1.06 -3.3,1.59 -10.26,6.36 -19.05,16.43 -25.65,30.75 -1.1,2.65 -2.2,4.77 -2.93,7.95 -6.23,16.43 -8.79,34.46 -8.79,52.48 -1.1,-21.73 1.47,-44 8.43,-63.61 7.33,-20.67 19.42,-37.11 34.81,-44.53 4.4,-2.12 8.79,-3.71 13.56,-4.24 6.6,-0.53 13.19,0.53 19.79,-0.53 14.66,-2.65 26.75,-15.9 34.07,-33.93 0.37,-1.59 1.1,-3.18 1.83,-4.77 4.03,-11.13 5.5,-23.33 6.6,-35.52 1.47,1.59 3.3,2.65 5.13,3.71 4.02,3.19 8.42,5.84 12.81,8.49 z"
   id="path380"
   style="fill:url(#SVGID_12_)" />
				</g>
				<g
   id="g397">
					
						<radialGradient
   id="SVGID_13_"
   cx="185.526"
   cy="522.40881"
   r="100.3527"
   gradientTransform="matrix(0.6748,0,0,0.9763,534.3457,14.0048)"
   gradientUnits="userSpaceOnUse">
						<stop
   offset="0.2821"
   style="stop-color:#A81517;stop-opacity:0.9"
   id="stop384" />
						<stop
   offset="0.3697"
   style="stop-color:#A41618;stop-opacity:0.9158"
   id="stop386" />
						<stop
   offset="0.5007"
   style="stop-color:#981719;stop-opacity:0.9394"
   id="stop388" />
						<stop
   offset="0.6591"
   style="stop-color:#841719;stop-opacity:0.968"
   id="stop390" />
						<stop
   offset="0.8363"
   style="stop-color:#691516"
   id="stop392" />
					</radialGradient>
					<path
   class="st17"
   d="m 723.28,610.5 h 0.37 c -9.53,7.42 -20.15,13.25 -30.78,16.43 -4.03,-1.59 -7.33,-5.3 -10.99,-7.95 -1.47,-1.06 -2.56,-2.65 -4.03,-3.71 -15.76,-15.9 -25.65,-38.7 -27.48,-65.2 -0.37,-5.83 -0.37,-11.66 0,-17.49 0.73,-7.42 1.83,-14.31 2.93,-21.2 2.2,-10.6 2.2,-21.2 0,-31.81 -0.37,-1.59 -0.73,-3.18 -1.1,-4.77 -4.76,-19.61 -15.39,-34.46 -28.21,-43.47 -9.16,-6.36 -18.69,-9.54 -28.58,-10.07 6.23,-0.53 11.72,0.53 17.95,2.12 1.47,0.53 2.93,1.06 4.76,1.59 13.56,4.77 25.28,14.31 34.44,29.69 0.73,1.59 1.47,3.18 2.56,4.77 5.5,10.07 8.79,21.2 10.63,33.93 1.47,12.19 0,23.33 -0.73,34.99 -2.56,31.28 12.09,60.43 31.51,72.63 1.47,0.53 2.56,1.59 4.03,2.65 7.34,4.22 15.03,6.34 22.72,6.87 z"
   id="path395"
   style="fill:url(#SVGID_13_)" />
				</g>
				<g
   id="g401">
					<path
   class="st7"
   d="m 699.47,624.29 c -10.26,5.3 -20.52,9.54 -31.51,11.13 -13.92,-11.13 -24.55,-29.69 -30.41,-51.42 -2.93,-11.66 -4.03,-24.39 -3.3,-36.58 0.73,-13.78 5.13,-25.98 8.06,-39.23 1.83,-9.54 2.2,-19.08 0.37,-29.16 -0.37,-1.59 -0.73,-3.18 -1.1,-4.77 0,-0.53 -0.37,-1.59 -0.73,-2.12 0,-1.06 0,-1.59 -0.37,-2.65 -8.43,-25.98 -26.01,-43.47 -45.07,-48.24 11.36,1.59 21.98,6.89 32.24,15.9 12.46,11.13 21.25,27.04 25.28,47.18 2.56,12.72 2.93,25.45 0.37,38.17 -2.56,10.6 -4.03,21.73 -3.3,32.87 1.47,19.08 8.43,35.52 18.69,48.24 1.1,1.06 2.2,2.12 3.3,3.71 8.79,8.48 17.59,14.32 27.48,16.97 z"
   id="path399" />
				</g>
				<g
   id="g405">
					<path
   class="st7"
   d="m 708.63,229.35 c 0.37,21.2 -4.03,41.88 -12.82,59.9 -2.56,4.77 -5.13,9.01 -8.43,13.25 -4.4,4.77 -8.43,9.01 -13.56,12.19 -5.86,3.71 -12.09,5.83 -18.32,5.3 -7.69,0 -15.75,-1.06 -23.45,2.12 -1.1,0.53 -2.2,1.06 -3.3,1.59 -26.38,14.84 -37.74,59.37 -33.34,97.54 -4.76,-30.22 -1.47,-63.08 12.09,-88.53 7.69,-14.31 17.22,-24.39 29.31,-29.16 6.6,-2.12 13.19,-3.71 19.79,-5.83 10.26,-3.71 18.32,-13.25 24.18,-25.98 0.73,-1.59 1.1,-3.18 1.83,-4.77 5.86,-15.37 6.96,-32.34 5.86,-48.77 6.6,4.26 13.2,7.97 20.16,11.15 z"
   id="path403" />
				</g>
				<g
   id="g420">
					
						<radialGradient
   id="SVGID_14_"
   cx="152.02811"
   cy="306.63821"
   r="92.2967"
   gradientTransform="matrix(0.6748,0,0,0.9763,534.3457,14.0048)"
   gradientUnits="userSpaceOnUse">
						<stop
   offset="0.2821"
   style="stop-color:#A81517;stop-opacity:0.9"
   id="stop407" />
						<stop
   offset="0.3697"
   style="stop-color:#A41618;stop-opacity:0.9158"
   id="stop409" />
						<stop
   offset="0.5007"
   style="stop-color:#981719;stop-opacity:0.9394"
   id="stop411" />
						<stop
   offset="0.6591"
   style="stop-color:#841719;stop-opacity:0.968"
   id="stop413" />
						<stop
   offset="0.8363"
   style="stop-color:#691516"
   id="stop415" />
					</radialGradient>
					<path
   class="st18"
   d="m 682.61,215.03 c 2.93,23.86 0.73,48.77 -9.53,69.98 -1.1,1.59 -1.83,3.18 -2.56,4.77 -9.16,15.9 -22.72,24.92 -37.01,24.39 -10.63,2.12 -20.15,9.54 -27.48,21.2 -2.2,3.71 -4.4,7.42 -5.86,11.66 -1.83,4.77 -2.93,9.01 -4.4,13.78 -4.76,19.61 -4.76,40.82 -0.37,60.43 -9.53,-33.93 -6.6,-74.75 10.63,-102.84 4.76,-7.42 10.26,-13.25 16.49,-17.49 11.72,-7.95 24.55,-11.66 32.61,-28.1 9.89,-20.67 10.26,-45.59 4.4,-67.33 7.7,2.66 15.02,7.43 23.08,9.55 z"
   id="path418"
   style="fill:url(#SVGID_14_)" />
				</g>
				<g
   id="g435">
					
						<radialGradient
   id="SVGID_15_"
   cx="148.8737"
   cy="529.80988"
   r="89.728104"
   gradientTransform="matrix(0.6748,0,0,0.9763,534.3457,14.0048)"
   gradientUnits="userSpaceOnUse">
						<stop
   offset="0.2821"
   style="stop-color:#A81517;stop-opacity:0.9"
   id="stop422" />
						<stop
   offset="0.3697"
   style="stop-color:#A41618;stop-opacity:0.9158"
   id="stop424" />
						<stop
   offset="0.5007"
   style="stop-color:#981719;stop-opacity:0.9394"
   id="stop426" />
						<stop
   offset="0.6591"
   style="stop-color:#841719;stop-opacity:0.968"
   id="stop428" />
						<stop
   offset="0.8363"
   style="stop-color:#691516"
   id="stop430" />
					</radialGradient>
					<path
   class="st19"
   d="m 674.19,634.36 c -1.47,0 -2.56,1.06 -4.03,1.59 -9.16,3.18 -17.95,4.24 -27.11,5.3 -1.1,-2.12 -2.56,-3.18 -4.03,-4.77 -10.26,-13.78 -17.59,-30.22 -20.88,-50.36 -2.93,-17.49 -1.83,-34.99 2.93,-51.42 2.93,-9.54 7.33,-18.02 9.89,-28.1 3.66,-14.84 2.56,-31.28 -2.56,-45.59 -6.96,-19.08 -19.42,-32.87 -32.98,-39.76 16.12,5.83 30.41,19.08 39.94,40.29 6.6,15.37 9.53,31.81 7.69,49.3 -1.1,11.13 -5.13,20.14 -7.69,30.22 -9.17,40.29 12.81,81.64 38.83,93.3 z"
   id="path433"
   style="fill:url(#SVGID_15_)" />
				</g>
				<g
   id="g439">
					<path
   class="st7"
   d="m 654.77,204.43 c 4.4,16.96 6.23,34.99 3.3,53.54 -0.37,2.12 -0.73,3.71 -1.1,5.83 -2.56,12.19 -6.96,22.8 -13.56,31.81 -4.76,6.36 -9.89,10.6 -16.12,13.25 -4.76,1.59 -9.53,3.18 -13.92,6.36 -5.13,3.71 -9.16,9.01 -13.19,14.84 -4.76,8.48 -8.06,18.02 -9.89,28.63 -1.1,6.36 -1.47,12.19 -1.83,18.55 0,15.37 2.56,30.22 6.96,44 -10.26,-25.98 -13.92,-58.31 -5.86,-86.94 5.86,-20.67 17.59,-34.99 30.78,-45.59 6.23,-5.3 10.99,-13.25 14.29,-22.27 0.37,-1.06 0,-1.59 0.37,-2.65 2.93,-8.48 3.66,-18.02 3.3,-27.04 -0.73,-14.31 -4.4,-27.57 -9.89,-39.23 8.77,2.14 17.57,4.26 26.36,6.91 z"
   id="path437" />
				</g>
				<g
   id="g443">
					<path
   class="st7"
   d="m 648.17,641.25 h 0.37 c -9.89,2.12 -19.79,3.18 -29.68,3.18 -12.09,-16.43 -19.79,-39.23 -20.88,-63.08 -0.73,-14.84 1.1,-29.69 6.23,-42.94 3.66,-9.01 7.69,-16.43 12.09,-24.39 6.96,-13.25 8.79,-30.22 5.86,-46.12 -4.03,-20.14 -14.29,-36.58 -26.75,-46.65 3.66,2.65 7.33,5.3 10.99,9.01 0.73,0.53 1.47,1.06 2.2,1.59 12.82,13.78 21.62,32.34 23.82,55.13 0.73,10.07 0.37,20.14 -2.2,30.22 -2.2,8.48 -5.86,15.37 -9.16,22.8 -6.96,16.43 -7.33,36.05 -2.93,53.54 1.83,6.89 4.03,12.72 6.96,19.08 1.83,3.71 4.03,6.89 5.86,10.07 5.13,7.96 11,13.26 17.22,18.56 z"
   id="path441" />
				</g>
				<g
   id="g458">
					
						<radialGradient
   id="SVGID_16_"
   cx="107.9917"
   cy="301.36719"
   r="87.273201"
   gradientTransform="matrix(0.6748,0,0,0.9763,534.3457,14.0048)"
   gradientUnits="userSpaceOnUse">
						<stop
   offset="0.2821"
   style="stop-color:#A81517;stop-opacity:0.9"
   id="stop445" />
						<stop
   offset="0.3697"
   style="stop-color:#A41618;stop-opacity:0.9158"
   id="stop447" />
						<stop
   offset="0.5007"
   style="stop-color:#981719;stop-opacity:0.9394"
   id="stop449" />
						<stop
   offset="0.6591"
   style="stop-color:#841719;stop-opacity:0.968"
   id="stop451" />
						<stop
   offset="0.8363"
   style="stop-color:#691516"
   id="stop453" />
					</radialGradient>
					<path
   class="st20"
   d="m 624.72,197.54 c 6.96,14.31 10.63,31.28 11.36,48.24 0,10.07 -1.1,20.14 -3.66,29.69 -3.66,12.72 -9.89,23.33 -18.32,29.69 -5.5,4.24 -11.36,7.42 -16.12,13.25 -0.73,1.06 -1.47,2.65 -2.56,3.71 -10.26,15.37 -13.56,36.58 -11.72,57.25 1.47,15.37 5.86,29.16 11.72,41.88 -12.46,-21.73 -19.79,-49.3 -16.12,-78.46 1.83,-11.66 4.03,-22.27 9.16,-31.81 1.1,-1.59 1.83,-3.18 2.56,-4.77 5.13,-9.01 11.72,-15.37 16.85,-24.39 13.56,-24.92 7.33,-58.84 -7.33,-79.52 -1.1,-1.59 -2.2,-2.65 -3.3,-4.77 -0.37,-1.06 -1.1,-1.59 -1.83,-2.12 5.86,-0.53 11.72,0 17.59,0.53 4.03,0.54 7.69,1.07 11.72,1.6 z"
   id="path456"
   style="fill:url(#SVGID_16_)" />
				</g>
				<g
   id="g473">
					
						<radialGradient
   id="SVGID_17_"
   cx="98.215797"
   cy="532.52478"
   r="84.851997"
   gradientTransform="matrix(0.6748,0,0,0.9763,534.3457,14.0048)"
   gradientUnits="userSpaceOnUse">
						<stop
   offset="0.2821"
   style="stop-color:#A81517;stop-opacity:0.9"
   id="stop460" />
						<stop
   offset="0.3697"
   style="stop-color:#A41618;stop-opacity:0.9158"
   id="stop462" />
						<stop
   offset="0.5007"
   style="stop-color:#981719;stop-opacity:0.9394"
   id="stop464" />
						<stop
   offset="0.6591"
   style="stop-color:#841719;stop-opacity:0.968"
   id="stop466" />
						<stop
   offset="0.8363"
   style="stop-color:#691516"
   id="stop468" />
					</radialGradient>
					<path
   class="st21"
   d="m 622.53,644.96 c -9.16,1.06 -17.95,1.06 -27.11,1.59 -2.2,-4.24 -4.76,-7.95 -6.6,-12.72 -0.73,-2.12 -1.47,-4.77 -2.56,-6.89 -6.23,-16.96 -9.16,-36.05 -7.33,-55.13 0.73,-9.01 2.93,-16.96 5.13,-24.92 4.76,-15.9 14.66,-25.45 22.72,-37.64 6.96,-11.13 9.53,-25.98 8.06,-40.82 -2.2,-19.08 -9.16,-35.52 -19.42,-47.18 13.19,12.19 22.72,30.75 26.38,53.54 1.47,10.6 1.47,20.67 -0.37,31.28 -2.56,13.25 -8.43,23.33 -15.39,32.87 -9.53,14.84 -11.36,35.52 -8.43,55.13 0.37,2.12 0.73,3.71 1.1,5.83 4.03,18.56 12.82,34.46 23.82,45.06 z"
   id="path471"
   style="fill:url(#SVGID_17_)" />
				</g>
				<g
   id="g477">
					<path
   class="st7"
   d="m 595.41,421.25 c 9.89,16.96 16.12,38.7 16.85,60.96 0.37,19.08 -3.66,38.17 -12.46,53.54 -4.4,6.89 -8.79,12.72 -13.56,19.08 -2.2,3.71 -4.4,6.89 -5.86,11.66 -0.37,0.53 -0.73,1.06 -1.1,1.59 -2.56,9.01 -4.4,18.55 -3.66,28.1 1.47,20.14 9.16,38.17 19.79,50.36 -9.89,0.53 -19.79,-0.53 -29.68,-2.12 -10.99,-23.86 -15.39,-55.66 -5.86,-82.7 1.83,-4.77 4.03,-9.54 6.6,-13.78 3.3,-5.3 7.33,-10.07 11.72,-12.19 13.19,-7.42 23.45,-22.8 27.48,-42.41 0.73,-3.71 1.1,-7.42 1.47,-11.66 0.73,-7.42 0.37,-14.84 -0.73,-22.27 -1.84,-14.3 -5.13,-27.03 -11,-38.16 z"
   id="path475" />
				</g>
				<g
   id="g481">
					<path
   class="st7"
   d="m 595.41,195.42 c 4.4,7.95 8.43,16.96 11.36,26.51 0.37,2.12 1.1,4.77 1.83,6.89 4.03,16.43 4.76,33.93 1.83,51.42 -3.3,18.02 -10.26,32.34 -20.52,44 -9.89,11.66 -15.39,28.63 -14.29,46.65 1.47,20.14 9.53,37.64 19.79,50.36 -12.09,-12.19 -21.98,-29.16 -26.01,-50.89 -2.56,-14.84 -2.2,-30.75 2.56,-44.53 0.73,-1.59 1.1,-3.18 1.83,-4.77 1.83,-3.71 3.3,-7.42 5.5,-10.6 0.73,-1.06 1.83,-2.12 2.56,-3.71 0.37,-0.53 1.1,-1.06 1.47,-1.59 4.4,-6.89 7.33,-14.31 9.16,-23.33 1.83,-10.07 2.56,-20.14 1.1,-30.75 -3.3,-22.8 -12.46,-41.35 -25.28,-54.07 9.16,-1.06 17.95,-0.53 27.11,-1.59 z"
   id="path479" />
				</g>
				<g
   id="g496">
					
						<radialGradient
   id="SVGID_18_"
   cx="51.134399"
   cy="302.5657"
   r="85.663902"
   gradientTransform="matrix(0.6748,0,0,0.9763,534.3457,14.0048)"
   gradientUnits="userSpaceOnUse">
						<stop
   offset="0.2821"
   style="stop-color:#A81517;stop-opacity:0.9"
   id="stop483" />
						<stop
   offset="0.3697"
   style="stop-color:#A41618;stop-opacity:0.9158"
   id="stop485" />
						<stop
   offset="0.5007"
   style="stop-color:#981719;stop-opacity:0.9394"
   id="stop487" />
						<stop
   offset="0.6591"
   style="stop-color:#841719;stop-opacity:0.968"
   id="stop489" />
						<stop
   offset="0.8363"
   style="stop-color:#691516"
   id="stop491" />
					</radialGradient>
					<path
   class="st22"
   d="m 571.6,197.54 c 16.49,22.27 25.28,56.19 19.42,89.06 -3.3,16.96 -9.89,30.75 -17.59,43.47 -4.03,9.54 -6.6,20.14 -6.23,31.81 0.73,13.25 4.03,25.98 9.89,36.58 1.1,1.59 1.83,3.18 2.56,4.77 4.4,7.42 9.89,12.72 15.75,18.02 -16.85,-11.13 -30.78,-31.28 -35.91,-57.78 -2.56,-15.37 -1.83,-31.81 3.3,-46.12 2.56,-6.36 5.5,-11.13 8.06,-17.49 1.83,-4.77 2.56,-10.07 3.66,-15.37 1.1,-9.54 1.1,-18.02 -0.37,-27.57 -4.4,-25.45 -16.49,-44.53 -31.88,-56.19 9.92,-1.6 19.44,-3.19 29.34,-3.19 z"
   id="path494"
   style="fill:url(#SVGID_18_)" />
				</g>
				<g
   id="g500">
					<path
   class="st7"
   d="m 547.42,201.25 c 16.49,17.49 27.11,47.18 26.75,76.87 -0.37,12.19 -2.56,23.33 -6.23,34.46 -0.37,0.53 -0.73,1.59 -1.1,2.12 -0.73,1.59 -0.73,3.71 -1.47,5.3 -4.4,9.01 -6.6,18.55 -7.69,29.16 -0.37,7.42 0.37,14.84 1.83,22.27 5.5,24.39 19.79,41.35 35.91,49.83 -20.52,-7.95 -39.57,-28.63 -46.17,-59.37 -1.83,-9.01 -2.2,-18.55 -1.83,-28.1 0.73,-11.66 5.13,-21.73 8.06,-32.87 8.43,-37.64 -9.89,-76.87 -34.07,-90.65 -1.47,-0.53 -3.3,-1.59 -4.76,-2.65 10.26,-3.71 20.52,-5.3 30.78,-6.89 v 0.52 z"
   id="path498" />
				</g>
				<g
   id="g515">
					
						<radialGradient
   id="SVGID_19_"
   cx="13.3962"
   cy="307.18121"
   r="94.962502"
   gradientTransform="matrix(0.6748,0,0,0.9763,534.3457,14.0048)"
   gradientUnits="userSpaceOnUse">
						<stop
   offset="0.2821"
   style="stop-color:#A81517;stop-opacity:0.9"
   id="stop502" />
						<stop
   offset="0.3697"
   style="stop-color:#A41618;stop-opacity:0.9158"
   id="stop504" />
						<stop
   offset="0.5007"
   style="stop-color:#981719;stop-opacity:0.9394"
   id="stop506" />
						<stop
   offset="0.6591"
   style="stop-color:#841719;stop-opacity:0.968"
   id="stop508" />
						<stop
   offset="0.8363"
   style="stop-color:#691516"
   id="stop510" />
					</radialGradient>
					<path
   class="st23"
   d="m 522.87,206.55 c 4.76,4.77 9.53,9.54 13.92,15.37 9.16,13.78 15.75,29.16 18.69,48.24 1.83,12.19 1.83,24.39 -0.73,36.05 -4.03,19.61 -10.99,38.7 -6.23,59.37 0.37,1.59 0.73,3.18 1.1,4.77 7.33,28.1 26.38,45.06 45.8,50.89 -12.09,-2.12 -23.45,-7.95 -34.07,-18.02 -10.99,-11.13 -18.69,-25.45 -23.08,-42.94 -1.83,-6.89 -2.2,-14.31 -2.56,-21.73 -0.37,-11.66 2.93,-22.27 4.76,-33.93 1.83,-14.84 -0.37,-28.63 -4.76,-41.35 -8.79,-24.92 -26.38,-39.76 -44.33,-45.59 10.24,-4.77 20.5,-9.54 31.49,-11.13 z"
   id="path513"
   style="fill:url(#SVGID_19_)" />
				</g>
				<g
   id="g519">
					<path
   class="st7"
   d="m 497.95,215.03 c 3.66,2.65 7.33,4.77 10.99,7.95 2.56,2.65 5.13,5.3 7.69,7.95 4.4,4.77 7.33,10.6 10.99,16.43 5.5,10.07 9.16,21.2 11.36,33.4 1.83,10.6 1.83,21.2 1.1,31.81 -0.73,7.95 -2.56,15.37 -3.66,23.33 -2.56,23.86 4.4,46.12 16.49,61.49 12.09,15.37 27.11,21.73 42.5,23.86 -21.98,0 -43.97,-10.6 -58.62,-36.05 -0.73,-1.59 -1.47,-3.18 -2.56,-4.77 -7.69,-15.37 -10.63,-32.87 -9.89,-50.89 0.73,-7.95 2.2,-15.9 1.83,-23.86 -0.37,-5.83 -1.1,-11.66 -2.2,-17.49 -2.56,-11.66 -6.96,-21.73 -12.82,-30.22 -12.09,-16.43 -27.85,-25.45 -43.97,-26.51 9.52,-7.41 20.15,-13.25 30.77,-16.43 z"
   id="path517" />
				</g>
				<g
   id="g534">
					
						<radialGradient
   id="SVGID_20_"
   cx="-21.084101"
   cy="318.06561"
   r="106.0493"
   gradientTransform="matrix(0.6748,0,0,0.9763,534.3457,14.0048)"
   gradientUnits="userSpaceOnUse">
						<stop
   offset="0.2821"
   style="stop-color:#A81517;stop-opacity:0.9"
   id="stop521" />
						<stop
   offset="0.3697"
   style="stop-color:#A41618;stop-opacity:0.9158"
   id="stop523" />
						<stop
   offset="0.5007"
   style="stop-color:#981719;stop-opacity:0.9394"
   id="stop525" />
						<stop
   offset="0.6591"
   style="stop-color:#841719;stop-opacity:0.968"
   id="stop527" />
						<stop
   offset="0.8363"
   style="stop-color:#691516"
   id="stop529" />
					</radialGradient>
					<path
   class="st24"
   d="m 473.4,227.23 c 16.85,5.3 32.61,19.61 42.5,41.88 0.37,1.06 1.1,1.06 1.47,2.12 6.6,16.43 10.26,33.93 8.79,53.01 -0.73,7.42 -1.83,15.37 -1.47,22.8 0.37,9.54 1.83,18.55 4.76,27.04 12.09,34.99 40.3,49.3 65.95,47.18 -6.96,1.06 -13.56,1.59 -20.52,0.53 -4.76,-0.53 -9.53,-2.12 -14.29,-3.71 -8.06,-3.18 -15.02,-8.48 -22.35,-15.37 -13.92,-13.78 -22.72,-33.93 -24.91,-57.78 -0.73,-9.01 0,-17.49 -0.37,-26.51 -0.37,-5.3 -1.1,-10.07 -2.2,-15.37 -3.3,-13.78 -8.79,-25.45 -16.85,-34.46 -14.29,-15.9 -31.51,-21.73 -49.1,-20.14 4.03,-4.24 8.43,-7.95 12.82,-11.66 0.73,-0.53 1.47,-0.53 2.2,-1.06 4.4,-4.24 9.16,-5.83 13.56,-9.01 v 0.51 z"
   id="path532"
   style="fill:url(#SVGID_20_)" />
				</g>
				<g
   id="g538">
					<path
   class="st7"
   d="m 450.32,242.6 c 8.06,1.59 15.75,4.24 23.08,8.48 1.47,1.06 2.56,2.12 4.03,2.65 12.46,8.48 22.35,21.73 29.31,38.7 4.4,11.13 6.96,22.8 6.96,34.99 0.37,19.08 0.37,38.17 8.06,55.13 6.23,13.78 14.66,23.86 24.55,30.75 15.39,10.6 32.61,12.19 49.1,7.95 -12.82,4.24 -26.01,5.3 -39.57,1.59 -1.47,-0.53 -2.93,-1.06 -4.76,-1.59 -13.56,-5.3 -25.28,-14.84 -34.44,-30.22 -0.73,-1.59 -1.47,-3.18 -2.56,-4.77 -8.43,-15.9 -11.72,-34.46 -12.46,-54.07 -0.37,-6.89 -2.2,-13.25 -4.03,-19.61 -2.56,-6.89 -5.5,-13.25 -9.16,-19.08 -0.73,-1.06 -1.83,-2.12 -2.56,-3.71 -16.85,-22.27 -40.3,-27.04 -61.55,-21.2 8.05,-10.09 16.47,-19.1 26,-25.99 z"
   id="path536" />
				</g>
				<g
   id="g553">
					
						<radialGradient
   id="SVGID_21_"
   cx="50.6436"
   cy="531.43878"
   r="89.757004"
   gradientTransform="matrix(0.6748,0,0,0.9763,534.3457,14.0048)"
   gradientUnits="userSpaceOnUse">
						<stop
   offset="0.2821"
   style="stop-color:#A81517;stop-opacity:0.9"
   id="stop540" />
						<stop
   offset="0.3697"
   style="stop-color:#A41618;stop-opacity:0.9158"
   id="stop542" />
						<stop
   offset="0.5007"
   style="stop-color:#981719;stop-opacity:0.9394"
   id="stop544" />
						<stop
   offset="0.6591"
   style="stop-color:#841719;stop-opacity:0.968"
   id="stop546" />
						<stop
   offset="0.8363"
   style="stop-color:#691516"
   id="stop548" />
					</radialGradient>
					<path
   class="st25"
   d="m 595.41,421.25 c 12.82,31.28 15.02,72.1 -0.73,103.37 -1.1,1.59 -1.83,3.18 -2.56,4.77 -2.2,3.71 -4.4,7.42 -7.33,10.6 -4.76,4.77 -9.16,9.01 -14.29,13.25 -10.63,9.01 -16.85,24.39 -17.95,41.88 -0.73,17.49 2.93,34.99 9.89,49.3 -8.79,-1.59 -17.59,-4.24 -26.38,-6.89 -6.6,-24.39 -6.96,-51.95 2.56,-75.81 6.96,-16.96 18.32,-27.57 31.88,-31.28 4.4,-1.06 7.69,-4.24 11.72,-7.42 5.5,-5.3 9.53,-12.19 12.82,-20.14 10.27,-25.44 8.8,-56.18 0.37,-81.63 z"
   id="path551"
   style="fill:url(#SVGID_21_)" />
				</g>
				<g
   id="g557">
					<path
   class="st7"
   d="m 595.41,421.25 c 6.6,24.92 7.33,53.01 0,77.93 -3.66,12.72 -9.53,23.86 -16.85,32.87 -1.1,1.06 -2.2,2.12 -3.3,3.71 -1.1,1.06 -2.56,2.12 -3.66,3.18 -7.69,5.83 -16.12,9.01 -23.82,14.84 -9.16,7.42 -15.39,19.61 -18.32,33.93 -3.3,16.43 -2.2,32.87 1.47,48.77 -1.1,-0.53 -2.2,-0.53 -3.3,-1.06 -6.6,-3.71 -13.19,-5.3 -19.79,-8.48 -1.83,-20.14 -1.1,-40.82 5.5,-59.37 7.33,-20.67 20.88,-36.05 36.64,-39.23 9.16,0.53 17.95,-3.18 26.01,-10.6 4.03,-3.71 6.96,-7.95 9.89,-13.25 13.2,-23.87 15.4,-55.14 9.53,-83.24 z"
   id="path555" />
				</g>
				<g
   id="g572">
					
						<radialGradient
   id="SVGID_22_"
   cx="7.7669001"
   cy="520.8504"
   r="95.0858"
   gradientTransform="matrix(0.6748,0,0,0.9763,534.3457,14.0048)"
   gradientUnits="userSpaceOnUse">
						<stop
   offset="0.2821"
   style="stop-color:#A81517;stop-opacity:0.9"
   id="stop559" />
						<stop
   offset="0.3697"
   style="stop-color:#A41618;stop-opacity:0.9158"
   id="stop561" />
						<stop
   offset="0.5007"
   style="stop-color:#981719;stop-opacity:0.9394"
   id="stop563" />
						<stop
   offset="0.6591"
   style="stop-color:#841719;stop-opacity:0.968"
   id="stop565" />
						<stop
   offset="0.8363"
   style="stop-color:#691516"
   id="stop567" />
					</radialGradient>
					<path
   class="st26"
   d="m 595.41,421.25 c 0.73,6.36 1.47,12.72 1.83,19.08 0.37,9.01 -0.37,16.96 -1.1,25.98 -0.37,2.12 -0.73,4.24 -1.1,6.89 -3.3,20.14 -10.26,36.58 -20.88,49.83 -6.96,8.48 -14.66,13.78 -23.82,16.96 -8.43,2.12 -16.49,3.18 -24.18,8.48 -5.5,4.24 -10.26,10.07 -14.29,17.49 -3.66,7.95 -6.6,15.37 -8.06,24.39 -1.83,11.13 -2.56,22.27 -1.47,33.4 -6.96,-3.71 -13.56,-8.48 -20.52,-11.13 0.73,-12.72 1.1,-25.45 4.76,-37.64 0.73,-2.12 1.47,-3.71 1.83,-5.83 0.37,-1.06 0.73,-1.59 1.1,-2.65 0.37,-1.06 0.37,-2.12 0.73,-3.18 1.1,-3.71 2.93,-6.89 4.76,-10.6 1.1,-1.59 1.83,-3.18 2.56,-4.77 8.79,-14.84 20.88,-24.39 34.07,-25.98 5.86,-0.53 12.09,1.06 17.95,0.53 1.83,0 3.66,-1.06 5.5,-1.06 0.37,0 1.1,-1.06 1.47,-1.06 30.44,-10.07 43.63,-58.84 38.86,-99.13 z"
   id="path570"
   style="fill:url(#SVGID_22_)" />
				</g>
				<g
   id="g576">
					<path
   class="st7"
   d="m 595.41,421.25 c 1.1,23.86 -2.2,47.71 -10.99,68.92 -7.69,19.08 -19.79,32.87 -34.07,39.76 -1.47,0.53 -2.56,1.06 -4.03,1.59 -9.89,3.71 -19.42,1.06 -29.31,2.65 -8.06,1.59 -15.39,6.89 -21.62,14.84 -0.73,1.06 -1.47,2.65 -2.56,3.71 -0.37,0.53 -0.73,1.59 -1.1,2.12 -0.37,0.53 -1.1,1.06 -1.47,1.59 -8.43,14.84 -13.19,32.87 -13.92,51.42 -1.47,-0.53 -2.2,-2.12 -4.03,-2.65 -0.73,-0.53 -1.47,-1.59 -2.2,-2.12 -0.37,-0.53 -1.1,0 -1.47,-0.53 -0.73,-0.53 -1.47,-1.59 -2.2,-2.12 -2.56,-1.59 -5.5,-2.65 -8.06,-4.77 2.93,-29.16 13.56,-56.72 31.88,-72.63 6.96,-5.83 14.29,-9.54 22.35,-10.6 7.69,-1.06 14.66,1.59 22.35,3.18 5.5,1.59 10.63,1.06 16.12,-0.53 0.37,0 1.1,-1.06 1.47,-1.06 9.89,-2.65 17.59,-11.13 24.55,-20.67 12.82,-19.62 18.31,-45.59 18.31,-72.1 z"
   id="path574" />
				</g>
				<g
   id="g591">
					
						<radialGradient
   id="SVGID_23_"
   cx="-26.7855"
   cy="503.47449"
   r="102.9812"
   gradientTransform="matrix(0.6748,0,0,0.9763,534.3457,14.0048)"
   gradientUnits="userSpaceOnUse">
						<stop
   offset="0.2821"
   style="stop-color:#A81517;stop-opacity:0.9"
   id="stop578" />
						<stop
   offset="0.3697"
   style="stop-color:#A41618;stop-opacity:0.9158"
   id="stop580" />
						<stop
   offset="0.5007"
   style="stop-color:#981719;stop-opacity:0.9394"
   id="stop582" />
						<stop
   offset="0.6591"
   style="stop-color:#841719;stop-opacity:0.968"
   id="stop584" />
						<stop
   offset="0.8363"
   style="stop-color:#691516"
   id="stop586" />
					</radialGradient>
					<path
   class="st27"
   d="m 595.41,421.25 c -0.73,18.55 -4.03,36.05 -9.89,52.48 -0.37,1.06 -1.1,1.59 -1.47,2.65 -11.36,30.22 -33.71,50.89 -57.16,48.24 -11.72,-1.06 -23.82,-6.36 -35.54,-0.53 -19.79,10.07 -34.07,36.58 -38.11,65.73 -5.13,-4.77 -10.26,-9.54 -16.12,-12.72 4.76,-25.45 15.02,-46.65 30.41,-62.55 3.66,-3.71 7.33,-5.83 10.99,-8.48 3.3,-2.12 6.6,-2.65 9.89,-4.24 12.09,-4.24 24.18,0 35.54,5.3 8.06,4.24 16.49,3.71 24.55,1.06 6.23,-2.65 11.72,-5.83 17.22,-11.13 2.2,-2.65 4.03,-4.77 6.23,-6.89 2.2,-2.65 4.03,-5.3 5.86,-8.48 0.73,-1.59 1.47,-3.18 2.56,-4.77 8.81,-16.97 13.21,-35.52 15.04,-55.67 z"
   id="path589"
   style="fill:url(#SVGID_23_)" />
				</g>
				<g
   id="g595">
					<path
   class="st7"
   d="m 595.41,421.25 c -3.3,24.39 -10.26,47.18 -22.35,65.73 -3.66,5.3 -7.33,9.54 -11.72,14.31 -7.33,7.42 -14.29,11.13 -22.72,13.78 -9.16,2.65 -17.95,2.12 -27.11,-1.59 -5.13,-2.12 -10.26,-4.77 -15.75,-6.36 -7.69,-2.12 -15.39,-0.53 -22.72,2.65 -6.6,3.18 -12.82,7.95 -18.32,14.31 -5.5,6.89 -9.89,13.78 -13.92,22.27 -3.66,7.42 -5.5,15.37 -8.06,23.33 -4.76,-4.77 -9.16,-9.54 -14.29,-13.78 8.06,-27.04 21.98,-50.36 40.67,-62.55 9.53,-5.83 19.42,-8.48 29.68,-7.42 11.36,1.06 21.25,9.01 31.88,14.84 9.16,4.24 19.05,3.18 28.21,-0.53 5.5,-2.65 10.26,-5.83 15.39,-10.6 2.93,-2.65 5.13,-5.83 8.06,-9.01 6.96,-8.48 11.36,-19.08 15.75,-30.22 0.37,-1.06 0.37,-2.12 0.73,-3.18 3.66,-7.96 4.39,-17.5 6.59,-25.98 z"
   id="path593" />
				</g>
				<g
   id="g610">
					
						<radialGradient
   id="SVGID_24_"
   cx="-52.3064"
   cy="482.29761"
   r="110.9953"
   gradientTransform="matrix(0.6748,0,0,0.9763,534.3457,14.0048)"
   gradientUnits="userSpaceOnUse">
						<stop
   offset="0.2821"
   style="stop-color:#A81517;stop-opacity:0.9"
   id="stop597" />
						<stop
   offset="0.3697"
   style="stop-color:#A41618;stop-opacity:0.9158"
   id="stop599" />
						<stop
   offset="0.5007"
   style="stop-color:#981719;stop-opacity:0.9394"
   id="stop601" />
						<stop
   offset="0.6591"
   style="stop-color:#841719;stop-opacity:0.968"
   id="stop603" />
						<stop
   offset="0.8363"
   style="stop-color:#691516"
   id="stop605" />
					</radialGradient>
					<path
   class="st28"
   d="m 595.41,421.25 c -3.3,16.43 -8.43,30.75 -15.39,45.06 -7.69,14.31 -16.49,24.39 -27.11,32.34 -10.26,7.42 -21.62,10.6 -32.98,9.01 -8.79,-1.06 -16.85,-5.83 -24.91,-11.66 -5.5,-3.71 -11.36,-5.83 -17.22,-6.36 -16.12,-1.59 -31.88,7.42 -43.97,22.8 -7.69,10.6 -13.92,22.27 -18.69,36.05 -2.93,-3.71 -5.5,-7.95 -8.79,-10.6 -1.47,-1.59 -2.2,-3.18 -3.66,-4.24 1.1,-2.12 1.83,-4.24 2.56,-6.89 4.03,-8.48 7.33,-15.9 12.09,-22.8 1.1,-1.59 2.2,-3.18 3.3,-4.77 4.03,-5.3 8.06,-9.54 12.82,-14.31 7.69,-7.42 15.39,-10.6 24.18,-13.78 4.76,-1.06 9.53,-1.59 14.29,-1.59 7.33,0.53 14.29,2.12 21.25,6.36 8.43,5.3 15.39,13.25 24.18,17.49 8.79,3.71 17.59,3.71 26.75,1.06 0.37,0 1.1,-1.06 1.47,-1.06 14.66,-4.24 25.65,-17.49 35.17,-33.4 6.6,-11.67 11,-24.93 14.66,-38.71 z"
   id="path608"
   style="fill:url(#SVGID_24_)" />
				</g>
				<g
   id="g614">
					<path
   class="st7"
   d="m 595.41,421.25 c -3.3,10.07 -6.23,19.61 -10.99,28.63 -0.37,1.06 -0.73,2.12 -1.1,3.18 -4.03,7.42 -8.06,13.78 -12.82,20.14 -2.2,2.65 -4.4,5.3 -6.96,7.95 -9.89,9.54 -19.79,15.37 -31.14,17.49 -14.66,2.65 -28.95,-2.12 -41.4,-14.84 -4.76,-4.24 -9.53,-7.42 -14.66,-9.54 -8.06,-3.18 -15.75,-3.18 -23.82,-2.12 -6.6,1.06 -12.82,4.77 -19.05,9.01 -2.2,1.59 -4.76,3.18 -6.96,5.3 -10.99,11.13 -19.79,23.86 -26.01,40.29 -0.37,-0.53 -0.73,-0.53 -1.1,-1.06 -0.73,-1.06 -0.73,-2.12 -1.47,-3.18 -2.93,-4.24 -5.5,-7.95 -8.06,-12.72 10.99,-24.39 26.75,-43.47 45.8,-53.01 19.05,-8.48 39.2,-7.42 56.79,9.54 8.79,8.48 16.12,17.49 26.38,20.14 0.37,0 1.1,1.06 1.47,1.06 12.46,2.65 24.91,1.06 36.27,-6.89 17.58,-12.19 30.77,-33.92 38.83,-59.37 z"
   id="path612" />
				</g>
				<g
   id="g629">
					
						<radialGradient
   id="SVGID_25_"
   cx="-69.139297"
   cy="459.76331"
   r="116.8378"
   gradientTransform="matrix(0.6748,0,0,0.9763,534.3457,14.0048)"
   gradientUnits="userSpaceOnUse">
						<stop
   offset="0.2821"
   style="stop-color:#A81517;stop-opacity:0.9"
   id="stop616" />
						<stop
   offset="0.3697"
   style="stop-color:#A41618;stop-opacity:0.9158"
   id="stop618" />
						<stop
   offset="0.5007"
   style="stop-color:#981719;stop-opacity:0.9394"
   id="stop620" />
						<stop
   offset="0.6591"
   style="stop-color:#841719;stop-opacity:0.968"
   id="stop622" />
						<stop
   offset="0.8363"
   style="stop-color:#691516"
   id="stop624" />
					</radialGradient>
					<path
   class="st29"
   d="m 595.41,421.25 c -10.26,28.63 -27.11,53.54 -48.73,64.14 -1.47,0.53 -2.56,0.53 -4.03,1.59 -0.73,0.53 -1.47,0.53 -2.2,0.53 -0.73,0.53 -1.1,0.53 -1.83,1.06 -4.03,1.59 -8.06,1.59 -12.09,2.12 -4.4,0 -8.79,-0.53 -13.19,-1.59 -6.96,-2.12 -13.19,-5.3 -19.42,-10.6 -6.96,-6.36 -12.09,-14.31 -19.42,-19.08 -12.82,-8.48 -27.11,-9.54 -41.04,-4.24 -2.56,1.59 -5.13,2.12 -7.69,3.71 -15.39,9.54 -28.21,25.45 -37.37,45.59 -2.93,-6.36 -5.86,-12.72 -8.43,-19.08 17.22,-33.4 45.43,-56.72 75.11,-51.95 4.76,1.06 9.53,2.12 13.92,4.24 10.26,5.3 19.42,14.31 27.48,25.45 4.76,6.36 10.63,10.6 16.49,13.78 1.1,0.53 2.2,1.06 3.3,1.59 23.82,9.54 48,-4.77 64.85,-29.69 2.2,-3.18 4.03,-6.89 6.23,-10.07 0.37,-1.06 0.73,-2.12 1.1,-3.18 2.93,-4.25 4.4,-9.55 6.96,-14.32 z"
   id="path627"
   style="fill:url(#SVGID_25_)" />
				</g>
				<g
   id="g633">
					<path
   class="st7"
   d="m 595.41,421.25 c -15.39,36.05 -42.87,63.08 -72.91,60.43 -12.82,-1.06 -24.91,-7.42 -34.81,-20.14 -6.6,-9.01 -13.19,-18.02 -21.98,-22.8 -4.76,-2.65 -9.53,-4.77 -14.66,-5.83 -8.79,-1.59 -17.22,-1.06 -25.65,2.12 -19.05,7.42 -34.81,24.39 -46.17,46.65 -2.2,-6.89 -4.4,-14.31 -5.86,-21.73 17.95,-30.22 45.43,-50.36 73.65,-46.12 13.56,2.12 26.01,9.54 36.64,22.27 8.79,11.13 15.75,24.39 26.38,30.75 7.69,4.77 16.12,7.42 24.55,6.89 24.92,-1.07 46.9,-23.86 60.82,-52.49 z"
   id="path631" />
				</g>
				<g
   id="g648">
					
						<radialGradient
   id="SVGID_26_"
   cx="-76.469704"
   cy="429.3197"
   r="121.5836"
   gradientTransform="matrix(0.6748,0,0,0.9763,534.3457,14.0048)"
   gradientUnits="userSpaceOnUse">
						<stop
   offset="0.2821"
   style="stop-color:#A81517;stop-opacity:0.9"
   id="stop635" />
						<stop
   offset="0.3697"
   style="stop-color:#A41618;stop-opacity:0.9158"
   id="stop637" />
						<stop
   offset="0.5007"
   style="stop-color:#981719;stop-opacity:0.9394"
   id="stop639" />
						<stop
   offset="0.6591"
   style="stop-color:#841719;stop-opacity:0.968"
   id="stop641" />
						<stop
   offset="0.8363"
   style="stop-color:#691516"
   id="stop643" />
					</radialGradient>
					<path
   class="st30"
   d="m 595.41,421.25 c -1.47,1.59 -2.2,3.71 -3.3,5.83 -9.16,15.37 -19.42,27.57 -31.88,36.05 -5.5,3.18 -10.63,5.83 -16.49,7.95 -8.43,2.65 -16.12,2.65 -24.55,1.06 -11.36,-2.65 -21.62,-9.01 -30.41,-20.14 -4.4,-5.3 -7.33,-12.19 -11.36,-17.49 -3.3,-4.24 -6.6,-7.42 -10.26,-11.13 -5.13,-4.24 -9.89,-6.89 -15.75,-9.01 -7.33,-2.65 -14.66,-3.18 -21.98,-2.12 -9.16,2.12 -17.95,4.77 -26.38,11.66 -0.73,0.53 -1.47,0.53 -2.2,1.06 -10.99,8.48 -19.79,20.14 -27.85,33.4 -1.47,-7.95 -2.56,-15.9 -2.93,-24.39 9.53,-13.78 20.88,-24.92 33.71,-32.34 26.01,-15.37 57.52,-10.6 78.41,18.55 4.03,5.83 7.33,12.19 10.99,18.55 2.2,3.18 4.03,5.83 6.23,9.01 4.4,5.3 9.16,9.54 14.66,12.72 9.53,4.77 19.05,6.89 29.31,4.77 20.89,-4.23 38.84,-21.72 52.03,-43.99 z"
   id="path646"
   style="fill:url(#SVGID_26_)" />
				</g>
				<g
   id="g652">
					<path
   class="st7"
   d="m 595.41,421.78 c -19.05,28.63 -45.8,46.65 -73.65,41.35 -12.82,-2.65 -23.82,-10.07 -33.71,-22.27 -6.23,-7.95 -10.26,-18.02 -15.75,-26.51 -4.03,-5.3 -8.06,-10.07 -12.82,-13.78 -6.23,-4.77 -12.46,-7.42 -19.42,-9.01 -4.4,-1.06 -9.16,-0.53 -13.56,-0.53 -6.96,0.53 -13.92,3.18 -20.52,6.89 -13.92,7.42 -26.38,20.14 -35.91,36.58 -0.73,-9.54 -0.73,-18.55 0,-28.1 24.18,-32.34 61.92,-47.18 92.7,-22.8 9.89,7.95 17.59,18.55 23.45,32.34 4.76,12.19 10.99,22.27 19.42,29.69 1.1,0.53 2.2,1.59 3.3,2.65 13.19,10.07 27.48,11.66 42.14,7.95 0.73,0 1.1,-1.06 1.83,-1.06 5.13,-1.06 9.89,-3.71 14.66,-6.36 2.93,-2.12 5.5,-3.71 8.43,-5.83 1.47,-1.59 2.56,-2.65 4.03,-3.71 0.73,-0.53 1.1,-1.59 1.83,-2.12 0.73,-0.53 1.47,-1.06 2.2,-1.59 3.3,-3.71 6.23,-7.42 9.53,-11.13 0.72,-1.06 1.09,-1.59 1.82,-2.65 z"
   id="path650" />
				</g>
				<g
   id="g667">
					
						<radialGradient
   id="SVGID_27_"
   cx="-76.469704"
   cy="397.5748"
   r="124.2282"
   gradientTransform="matrix(0.6748,0,0,0.9763,534.3457,14.0048)"
   gradientUnits="userSpaceOnUse">
						<stop
   offset="0.2821"
   style="stop-color:#A81517;stop-opacity:0.9"
   id="stop654" />
						<stop
   offset="0.3697"
   style="stop-color:#A41618;stop-opacity:0.9158"
   id="stop656" />
						<stop
   offset="0.5007"
   style="stop-color:#981719;stop-opacity:0.9394"
   id="stop658" />
						<stop
   offset="0.6591"
   style="stop-color:#841719;stop-opacity:0.968"
   id="stop660" />
						<stop
   offset="0.8363"
   style="stop-color:#691516"
   id="stop662" />
					</radialGradient>
					<path
   class="st31"
   d="m 595.41,421.25 c -4.76,5.3 -9.53,10.6 -15.02,15.37 -9.53,7.95 -19.05,12.72 -29.68,16.43 -24.55,7.42 -49.46,-2.12 -67.05,-28.1 -6.6,-10.07 -10.63,-21.73 -16.85,-31.81 -2.2,-3.71 -5.13,-6.36 -7.69,-9.54 -5.5,-5.83 -11.36,-9.01 -17.59,-11.66 -15.39,-5.83 -30.78,-2.12 -45.07,6.89 -9.89,6.89 -19.05,15.37 -26.38,27.04 0.37,-10.6 1.47,-21.73 4.03,-31.81 9.16,-10.07 19.05,-16.96 30.41,-20.67 3.3,-1.59 5.86,-2.65 9.16,-3.18 24.91,-5.83 50.2,6.36 64.85,37.64 2.93,6.89 4.76,14.31 7.69,21.2 5.86,13.78 13.56,23.86 23.45,30.75 15.39,11.13 31.88,12.72 48.73,7.42 13.93,-4.76 26.02,-13.78 37.01,-25.97 z"
   id="path665"
   style="fill:url(#SVGID_27_)" />
				</g>
				<g
   id="g671">
					<path
   class="st7"
   d="m 595.41,421.25 c -20.15,19.61 -43.97,31.81 -69.25,24.92 -12.82,-3.71 -23.82,-10.6 -33.71,-22.8 -5.13,-6.36 -9.53,-13.25 -12.82,-21.73 -2.2,-5.83 -4.76,-10.6 -6.23,-16.43 -0.37,-1.59 -1.47,-2.65 -2.2,-3.71 -1.47,-4.77 -4.03,-7.95 -6.6,-11.66 -2.93,-4.24 -6.23,-7.42 -9.89,-10.6 -11.36,-9.54 -23.82,-12.72 -36.27,-11.13 -16.49,2.65 -32.24,11.66 -44.7,27.04 1.83,-11.66 5.13,-22.27 8.43,-32.87 19.42,-14.84 42.5,-19.61 64.12,-10.07 19.79,9.01 35.17,32.34 40.67,60.96 2.56,6.89 5.5,13.25 9.16,19.61 5.13,8.48 10.99,15.37 17.95,20.14 6.23,4.24 12.09,7.42 19.05,9.01 22.36,5.3 43.97,-3.72 62.29,-20.68 z"
   id="path669" />
				</g>
				<g
   id="g686">
					
						<radialGradient
   id="SVGID_28_"
   cx="-68.324799"
   cy="367.78448"
   r="122.6525"
   gradientTransform="matrix(0.6748,0,0,0.9763,534.3457,14.0048)"
   gradientUnits="userSpaceOnUse">
						<stop
   offset="0.2821"
   style="stop-color:#A81517;stop-opacity:0.9"
   id="stop673" />
						<stop
   offset="0.3697"
   style="stop-color:#A41618;stop-opacity:0.9158"
   id="stop675" />
						<stop
   offset="0.5007"
   style="stop-color:#981719;stop-opacity:0.9394"
   id="stop677" />
						<stop
   offset="0.6591"
   style="stop-color:#841719;stop-opacity:0.968"
   id="stop679" />
						<stop
   offset="0.8363"
   style="stop-color:#691516"
   id="stop681" />
					</radialGradient>
					<path
   class="st32"
   d="m 595.41,421.25 c -7.69,5.83 -15.39,11.66 -23.82,14.84 -10.26,3.71 -20.15,5.83 -30.78,4.77 -4.76,-0.53 -8.79,-2.12 -13.56,-3.18 -6.6,-2.12 -12.09,-5.83 -17.95,-10.07 -14.66,-12.19 -24.55,-31.81 -31.14,-54.07 -1.83,-6.89 -4.76,-13.25 -8.06,-19.08 -2.93,-5.3 -6.6,-9.01 -10.26,-13.25 -0.73,-0.53 -1.1,-0.53 -1.83,-1.06 -8.06,-8.48 -16.85,-11.66 -26.38,-12.72 -17.95,-2.65 -35.54,4.77 -50.56,18.55 3.3,-12.19 8.06,-22.8 13.19,-33.4 14.66,-6.89 30.04,-10.07 45.8,-5.3 1.47,0.53 2.56,1.06 4.03,1.59 0.73,0 1.1,0.53 1.83,1.06 0.73,0 1.47,0 2.2,0.53 10.99,5.3 20.15,13.78 28.21,25.98 5.5,9.01 9.53,19.08 12.09,30.22 1.47,6.89 2.56,13.78 4.4,20.14 3.3,9.54 7.69,18.02 12.82,25.45 24.55,33.39 61.93,30.74 89.77,9 z"
   id="path684"
   style="fill:url(#SVGID_28_)" />
				</g>
				<g
   id="g690">
					<path
   class="st7"
   d="m 595.41,421.25 c -15.02,10.07 -31.51,14.84 -48.36,13.25 -13.19,-1.59 -25.28,-7.42 -36.64,-19.08 -14.29,-14.31 -21.62,-34.46 -26.75,-57.25 -2.2,-10.6 -5.86,-19.61 -11.36,-27.57 -5.5,-7.42 -11.36,-13.25 -17.95,-17.49 -9.16,-5.3 -19.42,-7.95 -29.31,-7.42 -11.36,1.06 -22.35,4.77 -32.61,12.19 4.4,-12.19 10.99,-22.27 17.59,-31.81 17.59,-5.83 36.64,-2.65 53.13,9.54 14.29,10.6 25.28,28.1 30.41,49.83 2.93,13.25 2.93,27.57 8.06,40.29 3.66,8.48 7.69,15.9 12.82,22.8 8.06,9.54 16.49,15.9 26.38,19.61 16.85,6.36 33.71,4.24 49.83,-4.24 1.47,-1.06 2.93,-2.12 4.76,-2.65 z"
   id="path688" />
				</g>
				<g
   id="g705">
					
						<radialGradient
   id="SVGID_29_"
   cx="-49.319901"
   cy="340.0838"
   r="115.9566"
   gradientTransform="matrix(0.6748,0,0,0.9763,534.3457,14.0048)"
   gradientUnits="userSpaceOnUse">
						<stop
   offset="0.2821"
   style="stop-color:#A81517;stop-opacity:0.9"
   id="stop692" />
						<stop
   offset="0.3697"
   style="stop-color:#A41618;stop-opacity:0.9158"
   id="stop694" />
						<stop
   offset="0.5007"
   style="stop-color:#981719;stop-opacity:0.9394"
   id="stop696" />
						<stop
   offset="0.6591"
   style="stop-color:#841719;stop-opacity:0.968"
   id="stop698" />
						<stop
   offset="0.8363"
   style="stop-color:#691516"
   id="stop700" />
					</radialGradient>
					<path
   class="st33"
   d="m 595.41,421.25 c -16.49,8.48 -33.71,11.13 -51.3,5.3 -2.93,-1.06 -5.5,-2.12 -8.43,-3.71 -11.36,-6.36 -21.25,-15.37 -29.31,-29.16 -8.43,-14.84 -12.09,-31.28 -15.02,-50.36 -1.1,-8.48 -3.66,-15.37 -6.96,-22.8 -8.79,-18.02 -21.25,-28.1 -35.91,-32.87 -14.29,-4.24 -28.21,-2.12 -41.77,4.24 6.6,-10.6 13.56,-21.2 21.98,-29.16 17.95,-2.12 36.27,4.77 51.3,21.2 3.66,4.24 6.96,9.01 10.26,14.31 3.3,5.83 5.86,11.66 8.43,18.55 4.03,12.72 5.13,25.98 5.86,39.76 1.83,19.61 9.16,36.05 19.79,48.77 6.6,7.42 13.19,12.72 20.88,16.43 1.47,0.53 2.56,1.06 4.03,1.59 15.76,5.33 31.15,4.27 46.17,-2.09 z"
   id="path703"
   style="fill:url(#SVGID_29_)" />
				</g>
			</g>
		</g>
	</g>
</g>
<g
   id="Layer_4"
   transform="translate(-393.57002,-219.23)">
</g>
<g
   id="text"
   transform="translate(-393.57002,-219.23)">
</g>
</svg>
