<svg width="500" height="500" viewBox="0 0 500 500" fill="none" xmlns="http://www.w3.org/2000/svg">
<path d="M250 500C388.071 500 500 388.071 500 250C500 111.929 388.071 0 250 0C111.929 0 0 111.929 0 250C0 388.071 111.929 500 250 500Z" fill="#100B00"/>
<path d="M486.938 235.776C487.321 246 487.71 255.656 486.938 265.88C479.619 276.103 471.146 283.484 462.283 290.304C452.654 297.118 442.637 301.663 431.853 302.797C425.689 303.365 419.914 302.797 413.75 302.23C409.896 301.663 406.814 299.96 402.966 298.253C393.337 294.843 385.247 287.462 377.545 278.373C375.618 275.53 373.691 272.693 371.764 269.851C368.299 263.604 365.6 257.358 362.907 250.538C357.126 237.478 349.808 228.389 340.951 221.002C334.787 216.457 328.623 213.621 322.076 211.913C315.529 210.778 309.748 210.211 303.201 211.346C297.81 212.48 292.801 213.615 287.792 215.89C273.538 222.704 260.827 234.635 250.043 249.398C251.97 246.555 253.508 243.719 255.824 240.876C257.362 239.174 258.522 237.466 260.06 235.764C282.4 208.503 312.064 196.577 339.796 209.638C355.588 217.019 367.144 232.922 376.773 253.369C377.545 254.504 378.7 255.639 379.471 257.346C379.855 257.914 380.627 258.481 381.01 259.048C381.393 259.616 381.782 260.75 382.165 261.318C383.703 263.02 385.247 264.728 386.402 266.43C386.785 266.997 387.557 266.997 388.329 267.564C421.841 301.089 464.215 276.671 486.938 235.776Z" fill="#BA3634"/>
<path d="M486.939 236.343C464.982 269.284 432.242 288.596 400.268 276.671C386.785 271.559 375.23 261.902 365.984 246.567C357.51 231.799 349.42 216.463 337.092 209.649C335.165 208.515 333.627 206.807 331.7 206.24C327.846 205.105 324.381 203.97 320.528 202.83C315.136 201.695 310.127 201.695 304.735 202.83C282.778 207.374 263.521 225.546 250.038 250.538C269.296 211.919 302.042 185.225 335.937 197.151C341.329 199.42 345.954 202.262 350.958 205.672C359.815 212.486 365.979 222.71 372.531 234.068C373.303 235.203 374.458 236.337 375.613 237.478C375.996 238.045 376.385 239.18 376.768 239.747C378.306 241.449 379.85 243.157 381.388 244.859C382.543 245.426 383.698 246.561 384.853 247.702C385.625 248.269 386.008 248.269 386.78 248.836C387.163 249.404 387.935 249.971 388.318 250.538C421.83 274.963 461.89 250.538 483.846 210.211C484.229 213.621 485.001 216.457 485.384 219.867C485.784 225.552 486.172 230.664 486.939 236.343Z" fill="#100B00"/>
<path d="M486.938 267.014C486.555 278.373 484.628 289.731 482.701 301.089C460.745 323.239 432.625 334.597 406.048 322.104C391.794 315.29 379.855 302.224 371.764 283.485C369.065 276.671 367.527 269.851 364.828 263.037C359.82 251.111 353.656 242.022 345.571 234.641C330.933 221.581 314.757 217.036 298.193 219.873C280.473 223.283 263.526 234.074 250.043 250.544C258.9 238.618 269.301 230.097 280.09 223.283C290.108 217.604 300.891 214.194 311.675 213.627C323.614 213.627 335.559 217.036 346.731 224.418C362.524 234.641 373.308 255.656 382.553 276.103C387.174 282.917 392.182 289.737 397.963 294.849C400.662 297.118 403.743 298.826 406.437 300.528C407.592 301.095 408.747 301.663 409.902 302.23C438.022 314.156 466.909 295.978 486.938 267.014Z" fill="#100B00"/>
<path d="M483.474 209.082C479.62 215.328 475.772 220.44 471.535 226.119C466.915 231.799 461.906 236.343 456.514 241.455C449.195 247.702 441.493 251.679 433.402 255.089C425.7 257.931 417.993 259.066 410.291 258.498C404.51 257.931 398.735 256.796 392.955 254.521C387.946 252.252 383.709 249.409 379.089 246C373.697 241.455 368.688 236.343 364.068 230.097C360.986 224.985 357.904 221.008 354.822 215.896C347.887 206.239 340.185 199.993 330.939 196.583C321.693 193.173 313.219 193.173 303.974 195.448C296.655 197.718 290.491 200.56 283.944 205.672C270.078 216.463 258.523 231.231 250.049 250.544C257.368 232.939 266.225 218.738 278.169 206.245C280.868 203.403 283.561 201.133 286.26 198.864C287.798 197.729 288.958 197.162 290.497 196.022C291.268 195.454 292.035 195.454 292.807 194.887C293.578 194.32 293.962 193.752 294.734 193.185C308.599 184.663 323.626 182.394 338.646 188.073C347.12 191.483 354.822 196.595 361.758 204.543C366.378 210.222 369.849 216.469 374.469 221.581C387.568 235.782 402.589 240.326 417.998 238.051C426.855 236.349 435.335 232.939 443.42 227.26C448.429 223.85 452.666 219.306 457.674 214.767C463.455 208.52 467.692 202.274 472.312 194.887C473.85 192.044 475.394 188.64 477.321 185.798C478.476 189.775 479.631 193.179 480.403 197.156C480.403 197.724 481.174 198.291 481.174 198.858C481.558 201.128 481.946 202.835 482.329 205.105C482.702 206.239 483.474 207.374 483.474 209.082Z" fill="#BA3634"/>
<path d="M483.09 299.387C481.163 311.88 477.698 323.245 474.233 334.603C448.423 355.05 416.066 359.027 389.873 333.468C384.481 328.356 380.627 322.677 376.39 315.863C369.843 304.505 367.144 290.871 362.907 277.811C354.434 251.117 337.097 234.647 317.456 228.968C293.19 221.587 269.69 230.67 250.049 250.55C272.388 225.558 301.664 214.767 329.401 225.558C337.103 228.968 344.422 233.512 351.357 240.326C359.448 248.28 365.223 256.796 370.615 268.722C374.08 277.244 376.779 284.625 380.244 293.147C382.171 296.556 383.709 299.961 386.024 303.37C388.723 306.78 391.416 310.184 394.498 313.594C397.197 316.436 399.89 318.139 402.589 320.408C409.136 324.952 416.071 327.222 423.39 328.362C434.946 329.497 446.502 327.228 457.674 320.981C466.909 315.858 475.383 308.476 483.09 299.387Z" fill="#BA3634"/>
<path d="M476.543 181.821C471.534 189.775 467.297 198.291 461.522 205.105C457.285 210.217 453.431 214.761 448.811 218.738C436.101 230.097 423.001 236.343 408.752 237.484C393.731 238.618 379.094 233.507 365.994 219.879C358.292 211.925 352.512 202.841 344.81 196.022C339.418 191.477 334.026 188.64 327.862 186.933C322.47 185.798 317.844 185.231 312.453 185.798C307.832 186.365 303.207 188.067 298.587 189.775C277.402 199.431 260.454 222.148 250.054 250.55C261.993 214.767 283.566 185.236 311.686 177.282C318.233 175.58 324.014 175.58 330.561 176.147C337.879 177.282 344.815 180.125 351.362 184.669C359.453 190.348 365.616 200.005 373.702 206.818C399.895 228.401 432.252 215.907 453.054 186.371C454.209 184.669 454.98 182.961 456.519 181.259C457.291 180.692 457.674 179.557 458.057 178.417C458.829 177.849 459.212 177.282 459.984 176.147C462.682 171.036 465.376 165.924 467.686 160.812C470.762 167.62 473.461 175.001 476.543 181.821Z" fill="#100B00"/>
<path d="M475 331.193L475.383 330.626C471.529 343.119 466.909 355.05 461.517 366.409C445.341 374.363 428.388 377.2 411.057 371.521C409.519 370.953 408.359 370.386 406.82 369.819C397.191 365.274 388.718 359.028 381.01 349.371C373.308 339.715 367.528 327.789 364.063 314.156C360.597 301.663 359.054 289.164 354.045 277.238C345.571 258.493 333.627 245.432 319.761 238.618C298.96 228.962 277.003 231.805 257.357 245.432C256.585 246 255.43 246 254.658 246.567C253.12 247.702 251.576 248.836 250.038 250.544C253.892 246.567 258.129 243.73 262.366 240.888C263.904 240.32 265.831 239.186 267.374 238.045C284.711 228.389 302.813 226.12 321.305 232.366C331.705 236.343 340.951 242.59 349.425 252.246C354.045 257.925 357.516 263.037 361.364 269.851C368.683 283.485 371.381 298.247 377.157 313.015C381.777 323.239 387.174 330.62 394.104 337.44C402.961 345.394 412.207 349.365 422.224 351.073C441.104 353.91 459.207 345.394 475 331.193Z" fill="#100B00"/>
<path d="M466.142 155.127C456.896 175.007 445.341 192.612 430.703 203.97C429.165 205.105 428.004 205.672 426.466 206.813C425.694 207.38 424.928 207.38 424.156 207.947C423.384 208.515 423.001 209.082 422.229 209.649C411.829 215.896 400.656 217.604 389.489 217.031C380.243 216.463 371.769 211.919 363.296 206.24C362.141 205.105 360.986 204.537 359.83 203.397C354.439 198.285 349.813 192.606 344.038 187.494C337.491 181.815 330.555 178.972 323.236 177.838C310.526 176.136 298.198 180.107 287.026 189.196C276.242 198.285 267.379 209.076 260.06 224.412C256.207 233.501 252.358 240.882 250.043 250.538C259.672 213.621 278.935 181.815 305.512 170.457C307.05 169.889 308.21 169.322 309.748 168.755C324.769 163.643 339.796 166.485 353.278 176.709C354.433 177.844 355.588 178.411 356.743 179.551C371.764 195.454 389.1 199.999 406.437 193.752C427.621 185.798 444.569 164.216 454.97 136.955C455.353 138.089 456.125 138.657 456.896 139.797C459.978 144.903 463.06 150.015 466.142 155.127Z" fill="#BA3634"/>
<path d="M463.444 360.73C458.435 373.79 451.888 384.587 444.952 395.378C426.85 400.49 407.975 397.647 391.022 386.289C375.229 375.498 362.902 355.618 357.126 331.199C354.045 317.565 354.045 303.37 349.424 290.872C348.653 289.17 348.269 287.462 347.498 285.76C339.407 265.312 326.696 252.252 311.675 244.865C293.956 235.776 275.081 238.051 257.362 246C255.824 247.134 254.28 248.269 252.353 248.842C251.581 249.409 250.815 249.977 250.043 250.544C278.546 229.529 313.985 227.827 340.951 257.925C342.106 259.627 343.261 260.768 344.416 261.903C347.881 265.88 350.196 270.992 353.273 275.536C356.355 281.215 358.665 286.894 360.975 293.141C365.212 306.774 366.755 321.537 372.531 334.603C379.849 350.506 389.867 361.864 401.806 368.111C422.229 378.335 444.569 374.925 463.444 360.73Z" fill="#BA3634"/>
<path d="M452.66 129.568C446.88 144.336 440.721 157.964 431.475 168.755C430.704 169.322 430.704 171.024 429.937 171.597C417.998 185.231 404.899 194.881 390.261 197.724C386.024 198.291 381.787 198.291 377.55 198.291C371.387 197.724 365.223 195.449 359.448 192.612C351.357 188.635 344.81 180.686 337.108 175.574C335.953 175.007 334.798 175.007 333.643 173.872C332.871 173.305 332.488 173.305 331.716 173.305C331.333 172.738 330.561 172.17 330.178 172.17C315.157 166.491 300.131 170.468 287.037 181.259C268.934 196.595 256.223 222.154 250.06 250.55C252.37 237.49 256.223 226.125 260.46 214.2C261.232 211.93 262.387 210.222 263.159 207.953C268.94 195.46 275.098 186.371 283.189 177.282C293.206 167.058 303.218 160.244 315.162 157.969C324.02 156.267 332.499 157.402 341.356 160.812C347.136 163.081 351.757 167.626 357.149 171.036C389.506 191.483 426.1 158.542 439.194 113.671C443.798 118.777 447.651 125.023 452.66 129.568Z" fill="#100B00"/>
<path d="M448.034 388.558H448.417C441.482 400.484 433.397 411.275 424.923 420.364C397.574 422.066 369.071 406.73 354.433 369.813C354.05 368.111 353.278 366.403 352.506 364.701C348.269 352.208 345.959 338.574 345.959 324.941C345.576 314.717 343.649 305.061 340.567 295.978C339.796 294.276 339.412 292.568 338.641 290.866C329.783 268.149 315.146 253.948 298.193 247.702C282.017 242.022 265.452 243.157 250.043 250.544C278.163 234.074 311.675 238.051 335.942 268.149C349.041 284.619 355.588 306.201 359.053 331.193C360.592 344.827 364.834 356.185 371.381 366.409C372.153 367.543 373.308 368.678 374.08 370.386C381.398 379.475 388.717 386.856 397.963 390.833C403.743 393.103 409.519 394.81 415.299 395.378C426.466 395.939 437.633 393.67 448.034 388.558Z" fill="#100B00"/>
<path d="M435.712 105.71C433.402 115.367 429.932 123.883 425.695 132.972C423.768 136.949 421.841 140.353 419.531 144.33C417.221 148.307 414.911 150.577 412.596 154.554C410.285 157.964 407.587 160.233 405.277 162.508C391.022 177.844 374.846 183.523 357.899 180.113C347.115 177.844 338.641 169.889 328.624 164.777C322.077 161.935 315.141 161.935 308.205 162.508C305.123 163.075 302.042 164.21 298.96 165.351C289.714 169.895 281.623 176.709 274.305 186.365C261.594 203.97 253.503 226.125 250.038 250.544C253.12 218.171 264.292 189.202 282.012 168.187C287.021 162.508 292.029 159.098 297.421 155.127C303.202 151.15 309.36 149.448 315.913 148.313C323.615 147.178 330.934 148.313 338.252 151.155C344.416 153.998 350.191 157.402 356.355 158.537C361.364 159.671 365.984 159.104 370.993 157.969C375.613 157.402 379.467 153.992 384.092 152.29C384.475 151.723 385.247 151.155 385.63 150.588C393.332 146.044 399.885 138.095 405.66 129.006C406.043 127.871 406.432 127.304 406.815 126.164C413.362 115.94 417.599 104.014 420.681 90.948C425.695 96.0541 430.704 101.166 435.712 105.71Z" fill="#BA3634"/>
<path d="M429.548 413.55C421.458 424.908 412.212 433.997 402.583 441.379C382.937 437.969 364.062 426.043 350.579 403.326C344.032 391.968 339.796 379.469 337.097 365.274C334.787 351.073 335.942 336.878 335.17 322.11C334.398 311.319 331.316 301.095 327.468 291.439C323.614 281.782 318.611 274.969 312.447 268.155C293.956 248.275 271.233 243.73 250.043 250.55C272.771 240.893 297.038 244.871 317.839 263.61C330.167 275.536 339.412 291.439 344.416 311.886C346.726 322.11 347.881 332.334 348.269 343.125C349.041 356.185 352.506 366.982 357.515 378.34C363.296 389.699 370.226 398.22 378.316 404.467C394.109 416.387 412.212 418.662 429.548 413.55Z" fill="#BA3634"/>
<path d="M416.449 83.561C414.139 93.2173 412.212 102.874 408.358 111.957C407.203 114.226 406.431 115.934 405.659 118.203C396.414 138.651 384.086 153.986 368.682 161.368C361.363 164.777 353.661 165.912 345.954 165.345C336.708 164.777 329.006 158.531 319.761 155.688C315.14 154.554 310.904 154.554 306.661 155.121C302.808 155.688 299.342 156.823 295.489 158.531C292.79 159.666 290.869 161.941 288.17 163.075C285.471 164.21 283.55 167.053 281.234 169.322C265.825 183.523 256.968 205.672 252.342 231.231C251.959 233.501 251.57 236.343 251.187 238.613C250.415 242.59 250.415 246.567 250.032 250.538C251.187 203.964 269.679 156.823 301.264 142.628C302.802 142.061 303.963 141.493 305.501 140.926C313.203 138.083 320.522 138.083 328.229 139.791C335.548 142.061 342.867 143.768 350.185 142.634C355.194 141.499 359.814 139.791 364.44 136.955C367.905 134.685 370.987 131.843 374.457 128.433C387.94 113.665 396.031 92.65 399.496 69.9332C401.806 72.2026 404.116 73.9104 406.431 76.1797C409.902 79.0164 412.984 81.2916 416.449 83.561Z" fill="#100B00"/>
<path d="M408.358 435.132C399.112 444.788 388.712 452.17 378.311 458.416C369.065 455.006 360.975 449.327 352.89 441.946C344.799 434.565 339.024 424.908 333.243 413.55C325.541 397.08 322.071 378.902 322.843 360.162C323.226 343.692 325.541 326.654 322.071 310.752C319.372 299.961 315.907 290.304 310.515 281.788C304.351 272.699 297.804 265.318 290.097 260.206C282.006 255.094 273.921 251.685 265.442 250.55C260.433 249.983 255.041 249.415 250.032 250.55C275.842 244.303 303.574 255.094 321.677 285.198C322.448 286.9 323.215 288.608 324.375 290.31C329.767 299.966 332.849 311.325 335.159 323.25C336.314 328.93 336.314 335.176 336.698 340.855C336.698 344.832 336.698 348.236 336.698 352.214C336.314 356.758 336.698 361.303 337.081 365.847C337.464 371.526 339.008 376.638 340.163 381.75C345.171 400.495 355.183 414.123 367.128 423.779C379.855 433.424 394.109 436.834 408.358 435.132Z" fill="#100B00"/>
<path d="M394.109 63.1136C393.337 72.2026 391.411 80.7185 389.489 89.2402C388.717 92.65 387.179 95.4867 386.407 98.8965C379.472 121.613 366.761 139.224 350.968 147.74C346.348 150.009 341.723 151.15 336.714 152.284C328.24 153.419 320.149 150.015 311.675 148.307C305.128 147.172 298.965 148.307 292.801 151.15C291.646 151.717 290.491 152.284 289.336 152.852C263.142 168.187 249.277 210.784 250.043 250.544C248.888 224.985 251.97 198.858 261.599 176.142C270.073 155.694 282.017 140.359 297.421 133.545C306.667 129.568 315.912 129.568 325.158 129.568C342.106 130.135 357.898 115.367 366.372 93.2173C366.755 91.5153 367.527 89.8075 368.299 88.1055C372.153 76.1798 374.08 63.1136 375.235 50.0532C380.627 54.5977 386.019 58.5749 391.799 61.4116C392.566 61.9789 393.337 63.1136 394.109 63.1136Z" fill="#BA3634"/>
<path d="M384.48 453.304H384.863C374.463 461.259 363.679 467.505 352.506 470.909C335.559 460.118 320.532 441.373 312.83 415.819C306.667 394.805 306.283 372.088 310.904 349.939C313.214 336.878 313.214 323.812 310.52 310.752C307.055 295.983 301.275 283.49 292.801 273.267C280.09 258.498 265.452 251.117 250.043 250.55C272.383 249.415 294.728 261.341 310.132 286.333C310.904 288.035 311.67 289.743 312.83 291.445C319.766 305.078 324.003 320.408 324.769 336.884C325.153 346.54 323.614 355.629 322.842 365.28C319.766 415.252 352.89 452.737 384.48 453.304Z" fill="#BA3634"/>
<path d="M359.442 468.072C348.659 473.184 337.869 478.864 326.313 479.998C311.676 467.505 300.12 448.192 294.34 424.908C292.801 417.527 291.258 410.14 290.874 402.192C290.491 395.945 290.874 389.131 291.258 382.879C292.413 369.819 296.266 358.454 298.96 345.961C301.27 335.17 301.658 323.812 299.732 312.454C297.805 302.23 295.111 293.141 290.486 285.192C280.085 266.447 265.831 254.521 250.038 250.544C261.977 251.679 273.15 257.925 283.933 267.582C297.033 280.075 306.273 296.545 310.51 318.133C313.209 331.766 313.592 345.394 310.893 359.028C308.195 370.386 306.656 382.312 307.428 394.243C308.583 409.579 312.82 422.639 319.367 434.571C329.779 452.737 344.033 463.528 359.442 468.072Z" fill="#100B00"/>
<path d="M369.071 44.9413C369.454 67.6581 364.834 89.8133 355.589 109.12C349.425 121.613 341.723 130.702 332.477 136.381C328.623 138.651 324.775 140.359 320.921 141.493C313.603 143.195 306.667 141.493 299.737 141.493C294.728 142.061 289.719 143.763 285.099 146.038C274.699 151.717 266.996 161.941 260.444 175.574C250.043 198.291 247.345 224.985 250.043 250.544C247.345 233.507 247.345 215.896 249.66 198.291C251.587 185.798 254.28 175.007 258.906 164.216C268.152 140.932 283.944 126.731 301.28 121.619C316.301 120.484 331.711 110.828 339.801 90.3806C340.185 88.6786 340.956 86.9708 341.728 85.2688C347.509 68.7986 349.43 50.6205 347.892 33.0156C354.817 37.5543 361.752 41.5315 369.071 44.9413Z" fill="#100B00"/>
<path d="M341.723 29.6058C343.65 44.374 343.261 59.1422 340.951 74.4778C339.024 85.8361 336.331 94.9252 331.705 104.582C330.55 106.284 329.778 107.991 329.007 109.693C319.378 127.298 304.74 136.387 290.102 135.82C276.237 138.662 263.909 150.588 256.207 168.193C245.806 193.752 244.268 223.283 250.043 250.55C244.651 229.535 242.725 206.251 246.578 183.529C248.116 172.738 250.043 163.649 254.28 153.992C258.134 144.903 261.982 137.522 267.763 131.275C269.69 129.573 271.228 127.298 273.155 125.596C275.082 124.462 276.62 122.754 278.547 121.052C287.021 115.373 296.266 112.53 304.357 104.014C322.46 84.1341 325.158 47.7839 317.456 19.3879C325.541 22.7862 333.632 26.7634 341.723 29.6058Z" fill="#BA3634"/>
<path d="M332.86 478.864C331.322 478.864 330.162 479.998 328.623 480.566C318.995 483.975 309.749 485.11 300.12 486.245C282.784 465.797 270.845 433.992 272.383 400.484C273.155 390.828 274.31 381.171 277.003 372.088C280.468 361.864 284.705 352.775 287.404 341.984C291.258 326.081 290.103 308.476 284.705 293.141C277.386 272.693 264.676 257.925 250.038 250.544C270.456 257.925 288.942 278.94 297.033 307.909C301.27 323.812 302.042 341.417 298.188 357.887C296.261 365.268 293.951 371.521 292.024 378.902C290.097 387.991 289.325 397.647 290.097 407.298C292.024 431.155 300.881 451.029 314.752 465.23C316.291 466.365 317.451 467.499 318.989 469.207C323.615 473.752 328.24 476.021 332.86 478.864Z" fill="#BA3634"/>
<path d="M312.447 18.2474C317.067 36.4196 318.994 55.7323 315.912 75.6124C315.529 77.8817 315.14 79.5895 314.757 81.8589C310.137 104.576 298.581 122.754 283.555 130.135C272.771 132.404 262.371 140.359 255.052 152.852C252.742 156.829 251.198 160.806 249.271 165.345C246.961 171.024 245.806 177.27 244.651 183.517C243.496 190.331 243.113 196.577 242.724 203.397C242.724 219.867 245.423 235.77 250.043 250.538C237.332 217.598 233.867 176.136 249.271 142.055C250.043 140.353 251.198 138.645 251.97 136.943C257.362 126.719 263.909 119.338 271.616 113.086C274.315 110.816 276.625 108.541 279.318 105.705C283.555 100.593 287.02 95.4809 289.336 88.667C289.719 88.0996 290.108 87.5323 290.491 86.965C293.956 76.1739 295.883 64.2482 295.111 52.3167C294.339 40.9583 292.801 30.1673 288.175 19.9436C287.792 18.8089 287.792 17.6743 287.403 16.5338C286.248 14.8318 285.477 13.124 284.705 10.8546C293.956 13.1356 303.202 15.4049 312.447 18.2474Z" fill="#100B00"/>
<path d="M305.895 486.245C295.495 488.514 285.094 489.655 274.693 489.655C257.357 464.663 248.117 427.178 255.047 391.395C258.129 375.492 265.064 362.999 271.995 349.933C283.55 327.783 281.623 298.814 270.456 276.665C264.676 265.307 258.129 256.785 250.038 250.538C254.275 253.381 257.74 256.218 261.594 260.195C262.366 260.762 263.132 261.329 263.904 261.897C276.231 275.53 284.705 292.568 288.17 314.717C290.869 330.62 289.325 347.09 284.317 361.291C283.545 362.993 283.162 364.701 282.39 366.403C274.299 381.171 270.062 398.209 271.217 416.954C273.538 447.625 288.176 472.617 305.895 486.245Z" fill="#100B00"/>
<path d="M280.856 10.8605C288.175 26.196 292.029 44.3682 292.795 62.5463C293.178 76.1798 290.868 89.8075 286.248 102.306C282.395 111.963 277.774 118.777 271.227 125.023C266.607 129.568 261.982 130.702 257.362 135.247C255.823 136.949 254.28 138.657 252.742 140.359C251.97 142.061 251.203 143.201 250.043 144.336C243.496 153.992 240.025 165.918 238.104 178.984C234.639 205.111 240.414 230.103 250.043 250.55C244.651 240.894 240.025 230.103 236.943 218.177C234.633 208.52 233.09 198.297 232.323 188.073C231.94 180.692 232.323 173.872 233.478 166.491C234.633 153.998 237.332 143.207 242.724 132.416C247.733 122.192 253.508 114.811 259.672 106.857C266.219 97.2003 270.456 84.1399 270.844 70.5064C271.227 50.059 265.452 30.7463 255.435 15.9839C254.28 14.2819 253.125 13.1414 251.97 10.872C251.586 9.73735 250.815 9.17002 250.043 8.60268C256.207 8.03534 262.37 8.60267 268.534 9.17001C272.771 9.72577 276.619 10.2931 280.856 10.8605Z" fill="#BA3634"/>
<path d="M278.547 490.222C268.918 491.924 259.672 491.357 250.043 491.924C247.733 487.379 245.034 483.402 243.107 478.29C242.336 476.021 241.569 473.179 240.409 470.909C229.236 440.238 228.47 403.321 242.719 373.79C243.874 372.088 244.646 370.38 245.418 368.678C250.038 360.156 255.818 354.477 260.827 346.529C266.991 336.872 270.456 324.947 270.844 311.88C271.228 288.023 262.754 265.307 250.043 250.538C270.073 269.284 283.555 305.628 277.391 341.411C274.693 355.612 268.534 366.403 261.216 376.627C259.289 379.469 258.517 382.306 256.979 385.716C256.595 387.418 255.824 389.126 255.052 390.828C249.66 409 250.043 430.014 255.052 448.192C255.824 450.462 256.207 452.17 256.979 454.439C261.982 469.207 269.689 481.133 278.547 490.222Z" fill="#BA3634"/>
<path d="M250.043 250.544C260.444 268.716 266.991 292.006 267.763 315.858C267.763 328.918 266.224 341.984 262.754 353.91C258.517 366.97 252.353 378.334 244.263 387.985C241.181 391.962 238.482 396.507 235.789 401.618C233.862 405.596 232.324 410.14 231.169 414.679C229.63 421.493 228.859 428.312 229.242 435.694C230.014 457.843 238.871 477.723 250.043 491.924C239.642 492.491 229.242 491.357 218.841 489.655C209.212 466.938 203.82 438.536 209.595 412.409C213.06 397.074 219.224 384.014 228.853 375.492C232.318 372.649 235.789 370.38 239.254 368.111C243.491 365.268 246.573 360.729 250.038 356.185C259.283 341.417 263.52 321.537 262.748 301.663C262.365 290.871 260.438 280.648 257.74 270.424C255.824 263.604 253.508 256.223 250.043 250.544Z" fill="#100B00"/>
<path d="M250.043 8.59106C253.897 14.8376 256.59 22.2246 259.672 29.6058C263.909 41.5315 266.219 54.0303 267.374 67.0907C268.146 77.8818 267.374 88.6728 265.836 99.4638C262.371 118.777 255.052 134.112 244.263 146.605C235.406 157.396 229.625 172.164 229.242 188.635C228.859 213.059 237.716 235.209 250.043 250.544C234.251 234.641 221.923 209.082 221.151 180.119C220.768 169.328 222.306 158.537 225.388 148.313C226.16 146.611 226.543 144.903 227.315 143.201C229.242 139.224 230.78 135.247 233.096 131.843C233.868 130.708 235.023 129.573 235.794 127.866C236.178 127.298 236.949 126.731 237.333 126.164C246.578 110.828 250.815 91.5153 248.505 71.0737C245.423 46.0818 235.794 23.9324 221.54 10.2989C231.169 9.1584 240.415 9.1584 250.043 8.59106Z" fill="#100B00"/>
<path d="M225.388 10.8604C242.336 35.2849 251.582 71.062 245.418 106.278C245.035 108.547 244.646 110.255 244.263 112.524C240.409 127.86 233.862 139.785 226.926 152.852C225 157.396 223.461 161.941 222.306 166.485C220.768 173.299 220.379 180.119 220.379 186.932C220.763 201.133 224.616 214.761 230.78 226.119C231.935 227.821 232.707 229.529 233.479 231.231C238.488 239.186 243.879 245.432 250.043 250.544C232.324 238.618 217.686 217.036 212.294 188.635C209.212 172.164 210.367 154.559 215.759 139.224C216.531 137.522 216.914 135.814 217.686 134.112C223.078 123.888 226.932 113.665 228.47 101.172C230.008 85.836 228.087 70.5005 223.461 56.8728C217.298 38.1274 206.125 24.4997 194.186 14.276C198.423 14.276 202.277 12.574 206.514 12.0066C212.677 11.995 219.23 10.8604 225.388 10.8604Z" fill="#BA3634"/>
<path d="M199.583 14.2703C209.212 25.6286 217.303 39.8295 222.311 56.2997C225.777 69.3601 228.092 82.9936 227.703 97.1945C227.32 117.075 221.156 134.679 214.604 151.717C212.294 158.531 210.75 165.918 210.367 173.299C209.984 181.253 210.75 189.202 212.294 197.156C218.075 223.283 233.095 240.888 250.043 250.544C231.94 243.163 214.987 227.26 205.747 201.701C204.209 196.589 202.665 192.044 201.51 186.933C200.738 182.955 200.355 178.978 199.972 175.007C198.817 164.783 199.2 155.127 201.127 145.47C203.054 136.949 206.136 129.568 208.062 121.613C210.761 108.553 211.144 94.9193 208.446 81.8531C203.054 55.1592 189.188 35.2792 172.235 24.4882C170.697 23.3535 168.77 22.7862 167.226 21.6457C178.01 17.6801 188.794 15.4049 199.583 14.2703Z" fill="#100B00"/>
<path d="M173.773 20.5168C190.721 35.8524 203.82 59.1365 208.057 88.6729C209.596 98.3292 209.596 107.986 208.829 117.636C207.674 130.697 203.821 142.061 201.127 154.554C198.429 166.479 198.429 178.978 200.744 190.904C202.671 201.128 206.136 209.649 210.762 218.165C212.688 221.008 214.615 223.844 216.542 226.687C226.171 239.18 237.727 246.567 250.054 250.544C243.89 248.842 237.727 247.702 231.951 244.298C230.413 243.163 228.486 242.596 226.943 241.455C217.314 235.209 209.223 226.687 201.904 215.329C201.133 213.626 200.366 211.919 199.206 210.217C198.823 209.649 198.434 208.515 198.051 207.374C197.668 206.807 196.896 206.24 196.512 205.105C194.202 199.426 192.276 193.746 190.732 188.067C189.96 184.09 189.194 180.686 188.422 176.709C187.65 171.597 187.65 167.053 187.65 161.941C187.65 159.098 187.65 155.694 187.65 152.852C188.422 143.195 191.115 135.247 192.27 125.59C197.662 77.8818 169.931 39.8295 140.655 32.4425C151.434 26.7634 162.601 22.2189 173.773 20.5168Z" fill="#BA3634"/>
<path d="M147.58 29.6058C152.972 33.5829 158.364 36.4196 162.989 42.6662C163.761 43.2335 164.527 43.8008 165.299 44.3682C171.463 51.182 175.7 58.569 180.32 67.0849C183.785 74.4661 186.867 81.8531 188.411 90.369C189.183 93.7788 189.949 96.6155 190.721 100.025C191.493 105.137 191.876 110.249 192.259 115.361C192.642 121.607 192.259 127.854 191.876 134.106C191.104 142.628 189.177 150.009 188.022 158.531C185.712 180.68 190.721 202.262 201.122 218.732C207.668 228.956 215.376 236.337 223.85 242.017C232.324 247.128 241.186 248.83 250.043 250.538C232.324 249.971 214.987 244.292 199.966 227.822C183.402 209.649 173.773 181.815 175.311 152.284C176.083 143.763 177.621 135.247 177.238 126.725C176.855 120.479 176.083 114.232 174.928 107.98C166.838 70.4947 140.644 48.3453 115.223 47.2049C116.761 46.0702 117.921 44.9355 119.46 43.7951C120.998 43.2277 122.158 42.093 123.696 40.9526C124.468 40.3852 125.235 40.3852 126.007 39.8179C126.778 39.2505 127.162 38.6832 127.933 38.1159C134.486 34.7176 141.033 31.8751 147.58 29.6058Z" fill="#100B00"/>
<path d="M121.77 42.0989C139.489 49.4801 156.054 63.1136 166.454 87.5381C166.838 88.6728 167.609 88.6728 167.993 89.8075C175.311 107.412 178.393 126.158 177.238 146.038C176.466 156.261 175.311 166.485 176.083 176.709C177.621 196.022 184.174 211.924 193.803 224.985C209.595 245.432 230.014 252.246 250.043 250.544C239.642 251.679 229.242 252.246 218.458 248.842C207.674 245.438 199.2 239.753 189.954 230.67C181.097 221.581 174.934 210.79 169.925 197.162C163.378 178.99 162.989 159.677 163.378 139.797C163.378 136.955 162.606 134.685 162.606 131.843C162.606 131.275 161.834 130.141 161.834 129.573C157.597 101.177 142.576 81.2974 124.857 72.2084C119.465 69.3659 114.456 66.5292 109.064 65.9619C103.284 65.3945 97.5086 64.2598 91.728 65.3945C100.974 55.7324 110.986 47.7781 121.77 42.0989Z" fill="#BA3634"/>
<path d="M97.5032 59.1364C105.977 60.8384 114.068 63.6809 121.77 68.2254C123.308 69.3601 124.468 70.4948 126.007 71.0679C144.109 83.561 157.981 106.284 162.984 135.247C165.683 150.015 163.756 163.643 164.911 178.411C167.221 203.403 177.621 224.418 192.648 237.478C210.367 252.813 230.78 255.083 250.043 250.538C236.561 255.083 222.695 256.217 208.44 252.24C206.902 251.673 204.975 251.106 203.432 250.538C198.423 247.696 193.031 245.994 188.411 241.449C187.639 240.882 186.873 240.882 186.101 240.315C174.928 231.226 166.071 218.733 159.907 202.83C157.981 197.15 156.054 192.039 154.899 186.359C152.589 176.136 152.2 165.345 151.434 154.554C149.895 138.651 144.887 125.017 137.568 113.659C136.796 112.524 135.641 111.39 134.869 109.682C117.533 85.8245 92.4944 80.7185 70.1548 86.965C78.6286 76.1798 87.4911 66.5234 97.5032 59.1364Z" fill="#100B00"/>
<path d="M250.044 250.544C260.444 276.103 263.909 307.909 257.746 336.872C255.047 347.663 251.965 357.887 246.573 366.409C243.874 370.386 241.953 374.363 238.871 377.767C233.862 382.879 229.242 387.423 223.85 391.968C215.76 399.349 209.596 410.14 206.902 423.206C202.282 445.923 205.747 470.915 215.376 489.66C206.131 487.958 196.885 485.116 187.639 482.279C181.092 456.153 180.321 426.616 190.338 401.063C196.502 386.295 204.976 374.936 216.531 370.959C225.777 367.549 233.868 363.005 240.798 353.921C245.418 347.675 248.888 340.861 251.582 332.339C253.12 327.228 254.28 322.683 255.435 317.571C259.289 294.843 256.979 270.991 250.044 250.544Z" fill="#BA3634"/>
<path d="M250.043 250.544C257.362 278.94 258.134 312.454 247.733 340.282C247.35 341.417 247.35 342.552 246.961 343.692C242.724 353.348 238.487 361.864 232.324 369.251C231.169 370.386 230.013 371.521 228.858 373.228C226.548 376.071 223.85 377.206 221.156 379.475C212.683 385.154 203.82 387.997 195.735 396.512C191.881 401.057 189.188 405.601 186.106 411.281C184.568 414.123 183.796 418.094 183.024 420.937C176.86 440.25 178.015 461.832 182.252 481.139C174.162 477.161 166.076 474.325 157.986 470.915C156.831 459.557 156.831 448.198 157.603 436.84C158.374 426.616 160.685 416.96 163.766 407.303C166.465 399.349 169.93 392.535 173.784 386.289C181.486 374.363 191.503 367.543 202.287 365.274C216.542 365.841 230.791 356.752 240.036 339.715C253.897 314.156 256.207 280.642 250.043 250.544Z" fill="#100B00"/>
<path d="M250.043 250.544C251.97 266.447 253.125 282.35 250.815 298.82C250.432 301.089 250.043 303.365 249.66 306.201C246.195 327.216 239.259 345.388 227.704 359.589C220.002 368.678 211.911 374.357 202.665 377.761C196.118 380.031 189.955 380.031 183.791 383.441C181.092 384.575 178.399 385.71 175.7 387.985C172.235 391.962 168.765 394.799 166.071 399.343C160.291 409 156.054 419.223 153.744 431.717C151.817 443.642 151.045 455.574 152.206 467.499C144.887 463.522 137.951 458.41 130.632 455.574C131.404 449.327 130.632 442.513 131.787 436.261C133.326 428.88 133.714 422.06 135.641 415.246C137.179 411.269 137.951 406.725 139.495 402.753C141.033 398.776 142.96 395.372 144.504 391.395C145.659 389.693 146.43 387.985 147.202 386.283C152.983 376.627 159.913 369.245 167.62 364.134C172.629 361.291 177.638 359.589 183.03 358.454C189.194 357.887 195.741 359.589 201.904 359.022C205.758 358.454 209.223 357.32 213.077 355.612C218.086 353.343 222.706 349.365 226.943 344.821C246.961 322.104 253.508 285.187 250.043 250.544Z" fill="#BA3634"/>
<path d="M250.043 250.544C251.97 291.439 241.569 335.17 216.148 357.887C211.528 361.297 207.674 364.701 202.665 366.976C200.738 367.543 198.428 368.111 196.501 369.245C191.11 370.947 185.718 371.515 180.326 370.947C167.615 369.245 154.904 374.925 144.887 387.418C132.559 403.888 126.012 426.605 124.857 450.462C121.392 447.619 117.921 445.35 114.456 442.507C111.758 440.805 108.293 440.238 105.982 437.396C105.599 436.828 105.982 434.553 106.366 433.418C106.749 431.149 107.137 428.874 107.521 426.037C109.448 413.544 112.529 402.753 117.15 391.962C123.313 378.329 130.249 368.105 139.489 359.589C149.89 350.5 161.446 345.956 173.385 348.798C183.402 351.067 193.031 354.477 203.432 351.067C214.216 347.09 223.078 339.142 230.78 327.783C244.268 306.769 250.043 278.94 250.043 250.544Z" fill="#100B00"/>
<path d="M250.043 250.544C249.271 270.424 245.806 289.164 239.642 306.774C239.259 307.909 238.487 308.476 238.104 309.617C225.393 344.265 199.972 365.847 173.778 361.303C162.994 357.326 151.439 355.624 140.649 360.735C119.848 370.959 105.21 399.355 100.59 430.593C94.8097 426.049 89.8064 420.937 83.6426 417.533C83.6426 414.691 84.7976 412.421 85.1808 409.579C85.9526 407.309 86.3359 404.467 87.1077 402.197C90.9614 388.564 96.3533 376.638 103.284 365.847C104.439 364.145 105.594 362.437 106.749 360.735C122.158 339.721 142.959 329.497 163.755 337.451C169.536 339.721 174.539 343.13 180.32 344.832C187.256 345.967 193.803 345.967 200.738 343.698C213.066 339.153 223.078 329.497 231.552 315.302C232.323 313.6 233.09 311.892 234.25 310.19C243.496 292.006 248.116 272.126 250.043 250.544Z" fill="#BA3634"/>
<path d="M250.043 250.544C246.578 276.671 239.259 301.095 226.549 320.969C220.002 330.626 212.683 338.574 204.592 344.254C199.972 347.096 195.347 348.798 190.338 351.067C189.566 351.067 188.8 351.067 188.028 351.067C179.171 353.91 170.691 352.769 161.834 349.365C156.054 347.096 151.05 344.254 145.27 342.552C141.033 341.417 136.796 341.984 132.559 342.552C107.521 345.961 87.1081 374.925 79.4007 409.573C74.3919 404.461 69.3832 399.349 63.9912 394.805C73.2369 362.999 90.1846 335.17 112.913 324.379C122.542 319.835 132.171 318.133 142.188 320.402C151.434 322.671 159.524 328.356 167.998 334.036C173.779 337.445 179.937 338.58 186.101 338.58C193.036 338.013 199.967 336.311 206.519 332.334C222.312 322.677 234.639 304.505 242.341 281.783C242.725 280.648 242.725 279.513 243.113 278.373C246.578 269.284 247.733 259.627 250.043 250.544Z" fill="#100B00"/>
<path d="M250.043 250.544C243.107 285.192 228.086 316.998 205.358 333.468C194.574 340.85 182.63 344.827 170.691 343.125C164.527 341.99 158.752 340.282 152.971 336.878C149.118 334.036 145.269 330.632 141.033 328.356C139.877 327.789 138.722 327.222 137.567 326.654C105.594 313.021 73.625 344.827 60.9142 386.856C57.4491 383.446 54.7504 378.902 51.2853 374.93C49.7471 373.796 48.5867 372.088 47.4316 370.953C55.9055 346.529 69.3881 326.654 85.9525 313.588C87.4908 312.454 88.6512 311.886 90.1895 310.746C94.4264 308.476 98.6633 305.634 103.289 305.067C104.061 305.067 104.444 303.932 105.216 303.932C122.163 298.82 138.345 303.365 153.365 316.992C160.301 323.806 167.231 328.351 175.322 330.053C179.942 330.62 184.179 331.187 188.421 330.62C195.74 329.485 202.676 326.643 209.223 322.098C229.241 307.909 243.107 280.642 250.043 250.544Z" fill="#BA3634"/>
<path d="M250.043 250.544C240.797 284.052 223.466 313.588 200.35 327.222C180.703 338.58 158.747 336.878 140.261 318.133C126.395 303.932 111.369 301.095 95.5762 306.207C73.2366 313.588 55.9003 335.743 45.1164 363.572C41.2627 357.325 37.7976 351.646 33.9438 345.4C35.0989 343.13 35.8707 340.855 37.0257 338.586C37.7976 337.451 38.1808 336.884 38.9526 335.743C50.1251 312.459 64.7627 297.691 82.0936 289.169C87.8742 286.327 93.6494 284.058 99.8131 283.49C104.822 283.49 109.831 283.49 114.834 284.058C122.536 285.192 129.855 289.169 136.79 294.849C142.954 299.393 148.346 306.207 154.51 311.886C171.458 327.222 191.876 326.087 209.207 314.156C227.703 301.089 241.569 277.805 250.043 250.544Z" fill="#100B00"/>
<path d="M250.043 250.544C244.263 265.88 237.716 281.215 228.087 292.573C227.315 293.141 227.315 294.843 226.549 295.416C218.075 305.64 209.212 314.161 198.812 319.273C197.273 319.841 196.113 319.841 194.575 320.975C193.803 321.543 193.036 321.543 192.265 321.543C191.493 322.11 191.11 322.677 190.338 322.677C176.472 326.654 162.989 324.947 150.279 316.998C141.422 311.319 134.869 301.095 126.395 293.714C109.448 280.08 89.4181 280.654 71.6986 290.871C55.5227 301.095 42.0402 318.133 32.4059 339.715C29.324 332.901 26.6253 326.081 23.5488 319.267C39.7247 288.029 64.3798 265.312 91.345 263.037C104.444 261.902 117.155 266.447 128.711 276.098C135.258 281.209 140.65 288.023 146.047 295.41C157.603 310.178 172.624 316.425 187.65 314.723C207.296 311.88 225.399 297.118 238.11 274.395C238.493 273.261 239.265 273.261 240.037 272.126C243.88 265.306 246.578 257.358 250.043 250.544Z" fill="#BA3634"/>
<path d="M250.043 250.544C242.724 267.582 233.867 282.35 221.923 294.276C220.384 295.41 219.224 296.545 217.686 298.253C192.264 322.11 159.518 322.11 136.796 294.276C128.705 280.642 117.921 270.418 105.982 265.312C97.8915 261.902 89.8063 261.902 81.7156 262.47C76.7069 263.037 72.0868 264.739 67.078 267.014C55.9055 272.694 45.5048 280.648 36.6477 292.574C31.639 299.955 26.6303 306.774 22.7819 315.29C21.6269 311.313 20.4719 307.336 19.3168 303.365C18.545 299.387 17.0068 295.41 16.6182 291.439C38.9578 253.954 75.1686 231.237 109.064 247.14C117.921 251.685 125.628 257.931 132.947 266.453C137.567 272.132 141.038 278.378 145.275 284.625C152.977 295.416 162.223 302.23 172.623 305.072C186.489 308.482 199.972 306.207 212.299 297.691C227.703 287.462 240.414 270.418 250.043 250.544Z" fill="#100B00"/>
<path d="M250.043 250.544C243.496 263.604 235.022 274.401 225.777 284.619C224.238 285.754 223.078 286.889 221.54 288.596C203.82 304.499 184.174 310.746 164.144 303.365C158.752 301.095 154.127 298.253 149.123 294.843C147.968 293.708 146.813 293.141 145.658 292C137.568 285.187 132.559 274.395 126.012 264.739C125.24 263.604 124.085 262.47 122.93 261.329C122.547 260.762 122.158 259.627 121.775 259.06C119.465 256.791 117.538 255.083 115.228 252.813C114.073 251.679 112.918 251.111 111.763 249.971C96.3535 238.613 79.4058 238.045 62.8413 244.292C43.9668 252.246 28.5574 268.716 16.2298 290.298C15.8466 286.321 15.0748 282.344 14.6916 278.373C13.9197 273.828 13.1533 268.716 13.1533 264.172C15.0802 260.762 17.3902 258.493 19.3171 255.65C20.8553 253.948 22.0158 252.24 23.554 250.538C44.7386 225.546 70.932 214.188 97.5139 223.277C99.0522 223.844 100.213 224.412 101.751 224.979C102.523 224.979 102.906 225.546 103.678 226.114C104.45 226.114 105.216 226.114 105.988 226.681C111.768 230.658 117.544 234.062 122.935 239.741C131.026 248.263 136.418 258.487 142.582 269.278C147.591 277.232 152.983 284.046 159.53 289.158C170.702 297.112 183.024 299.949 195.352 297.68C217.303 293.141 236.177 274.395 250.043 250.544Z" fill="#BA3634"/>
<path d="M250.043 251.111C231.169 279.507 204.976 298.82 177.239 295.983C159.902 294.281 143.343 282.923 131.399 263.043C126.39 253.954 122.542 244.871 116.378 237.484C107.521 227.26 97.8866 220.446 86.7195 218.738C72.0819 216.469 57.8275 219.873 44.7335 228.962C32.406 237.484 22.0053 249.977 13.1482 264.745C12.3764 254.521 12.3764 244.865 13.1482 234.641C18.9288 226.12 25.859 219.873 33.1778 214.194C33.9496 213.627 34.3328 212.492 35.1046 211.924C42.0402 207.38 48.9704 203.403 56.2892 200.566C64.7631 197.724 73.2369 197.156 81.7108 197.724C91.7283 198.858 101.357 202.835 110.603 210.217C121.387 219.306 129.861 231.231 136.413 247.702C139.495 255.656 142.96 262.47 148.352 268.149C148.735 268.716 149.124 269.851 149.507 270.418C151.434 272.688 153.744 274.396 155.671 276.665C156.826 277.8 157.981 278.367 159.136 279.507C173.002 290.298 188.028 292 203.432 288.029C204.204 288.029 204.587 286.894 205.359 286.894C215.759 284.625 224.616 277.805 233.862 269.857C235.4 268.722 236.561 267.014 238.099 265.88C242.725 261.335 246.19 256.223 250.043 251.111Z" fill="#100B00"/>
<path d="M250.043 250.544C245.034 256.223 240.026 261.902 234.25 267.014C224.233 275.536 214.221 280.648 203.048 284.619C198.04 286.321 193.419 286.321 188.411 286.889C180.709 287.456 173.39 285.754 165.682 282.344C153.355 277.232 141.799 268.711 132.942 253.948C131.787 252.813 130.632 251.679 129.86 249.971C124.852 239.18 120.231 230.091 114.839 220.435C111.758 215.89 108.676 211.913 105.211 208.509C99.8186 203.397 94.4267 200.554 88.2629 197.718C76.7071 193.173 65.1514 193.741 53.5957 198.285C47.0487 201.128 40.8849 205.099 34.7211 209.644C28.1742 214.755 22.3936 221.569 16.6184 228.389C15.4634 230.091 14.3084 232.366 13.1533 234.068C13.1533 222.71 15.0802 210.784 17.3902 199.993C33.5661 181.821 54.3675 172.164 74.7857 173.299C95.2039 174.434 115.233 188.067 127.172 214.761C130.254 222.142 132.181 229.529 135.263 237.478C138.728 246 142.965 252.246 147.974 259.06C155.676 268.149 163.766 274.395 173.395 277.805C200.738 288.029 228.47 274.963 250.043 250.544Z" fill="#BA3634"/>
<path d="M250.043 250.544C231.94 269.857 209.595 280.648 186.872 278.94C181.48 278.373 176.088 277.238 170.697 274.963C166.46 273.261 162.223 270.418 157.986 268.149C145.658 259.627 135.646 247.134 128.327 229.529C124.474 219.306 121.392 209.649 116.388 201.133C114.85 198.291 113.306 196.022 111.38 193.752C84.0204 157.964 42.8062 169.322 16.9961 201.128C18.9229 188.635 22.388 177.27 25.8531 165.912C43.1894 152.279 62.8304 146.599 82.4768 151.711C90.5674 153.413 97.8862 156.256 104.816 162.502C107.126 164.772 109.437 166.479 111.752 168.749C116.761 174.428 120.998 179.54 124.851 186.921C129.472 196.577 132.942 206.234 135.252 217.592C135.635 218.159 136.024 219.294 136.407 219.861C141.799 238.607 152.2 253.369 164.527 263.026C168.381 265.868 172.229 268.137 176.466 269.839C183.785 273.249 190.721 274.384 198.039 273.817C211.139 273.817 223.85 270.407 235.789 261.324C236.56 260.756 237.715 260.756 238.487 260.189C242.724 257.358 246.189 253.381 250.043 250.544Z" fill="#100B00"/>
<path d="M250.043 250.544C241.952 256.791 233.867 262.47 225.005 266.447C218.069 269.289 211.522 270.991 204.587 271.559C195.73 272.126 187.25 270.991 178.393 268.149C169.536 264.739 161.829 259.627 154.127 252.246C152.972 251.111 152.2 249.404 150.662 248.269C149.89 247.702 149.507 246.567 149.123 246C148.352 245.432 147.968 244.865 147.197 244.298C137.951 231.805 131.404 216.469 127.167 199.426C126.395 196.016 124.857 193.179 123.702 189.769C119.848 179.546 114.456 172.164 107.526 164.777C98.2803 155.121 88.6514 151.144 77.8675 149.442C58.993 147.172 40.5016 154.554 24.709 169.889C28.5627 157.396 33.1828 145.465 38.5748 134.106C53.9842 126.725 70.1601 123.315 86.7246 128.427C88.2628 128.994 89.4232 129.562 90.9615 130.129C91.7333 130.129 92.1165 130.696 92.8883 131.264C93.6602 131.264 94.4266 131.264 95.1984 131.831C106.754 136.943 116.383 146.599 124.857 159.66C127.939 164.772 130.249 170.451 132.948 176.13C134.874 181.242 136.413 186.354 137.568 192.033C139.494 202.257 141.421 211.913 144.886 220.996C149.123 231.787 154.904 240.309 161.834 248.257C171.463 258.481 181.481 264.16 193.036 266.43C213.066 270.418 232.707 264.172 250.043 250.544Z" fill="#BA3634"/>
<path d="M250.043 250.544C238.871 257.925 226.548 263.037 214.221 264.745C193.419 267.014 171.846 259.633 155.67 238.618C148.735 229.529 142.96 219.873 139.106 207.38C136.796 199.426 134.869 191.477 132.942 182.955C130.243 171.597 126.395 161.941 120.615 153.419C116.761 148.307 112.913 143.763 108.676 139.785C86.336 120.473 58.9822 123.883 36.6426 139.785C41.6513 127.292 48.1983 115.928 55.1339 105.71C67.0728 101.733 79.4004 101.733 92.1112 105.71C106.749 110.822 119.076 120.479 129.477 136.381C135.641 146.038 140.261 156.829 142.96 169.322C145.27 180.113 145.658 191.471 148.352 202.262C151.05 213.053 155.287 222.142 160.679 230.658C169.536 244.292 180.325 252.808 192.653 257.92C210.373 264.166 228.092 262.464 245.04 253.375C246.578 252.246 248.116 251.111 250.043 250.544Z" fill="#100B00"/>
<path d="M250.043 250.544C235.789 257.925 220.768 260.768 205.747 258.498C199.2 257.364 193.42 255.089 187.256 251.685C175.317 246.005 164.916 235.782 156.442 221.013C152.977 214.2 149.895 207.953 147.585 200.566C144.503 190.342 142.965 180.119 141.422 169.328C137.956 147.746 129.483 131.275 116.766 119.917C96.7368 101.745 72.8536 101.745 51.6689 111.963C54.7508 106.851 57.8327 102.306 60.9146 97.1945C65.1515 90.948 70.1603 85.8361 74.7804 80.1569C90.9563 79.5896 106.754 83.5668 121.392 96.0598C130.249 104.014 137.185 113.097 143.348 125.596C147.202 134.118 149.895 142.634 151.822 152.857C153.36 162.514 153.749 171.603 154.521 181.253C156.448 202.268 164.15 219.873 175.322 233.507C196.885 259.06 225.005 260.768 250.043 250.544Z" fill="#BA3634"/>
</svg>
