<?xml version="1.0" encoding="utf-8"?>
<!-- Generator: Adobe Illustrator 25.2.0, SVG Export Plug-In . SVG Version: 6.00 Build 0)  -->
<svg version="1.1" xmlns="http://www.w3.org/2000/svg" xmlns:xlink="http://www.w3.org/1999/xlink" x="0px" y="0px"
	 viewBox="0 0 1749.45 1014.13" style="enable-background:new 0 0 1749.45 1014.13;" xml:space="preserve">
<style type="text/css">
	.st0{display:none;}
	.st1{display:inline;}
	.st2{display:inline;clip-path:url(#SVGID_2_);fill:#FFFFFF;}
	.st3{display:inline;clip-path:url(#SVGID_2_);}
	.st4{fill:#FFFFFF;}
	.st5{clip-path:url(#SVGID_4_);}
	.st6{fill:#A51E1E;}
	.st7{fill:#100B00;}
	.st8{clip-path:url(#SVGID_6_);}
	.st9{fill:url(#SVGID_7_);}
	.st10{fill:url(#SVGID_8_);}
	.st11{fill:url(#SVGID_9_);}
	.st12{fill:url(#SVGID_10_);}
	.st13{fill:url(#SVGID_11_);}
	.st14{fill:url(#SVGID_12_);}
	.st15{fill:url(#SVGID_13_);}
	.st16{fill:url(#SVGID_14_);}
	.st17{fill:url(#SVGID_15_);}
	.st18{fill:url(#SVGID_16_);}
	.st19{fill:url(#SVGID_17_);}
	.st20{fill:url(#SVGID_18_);}
	.st21{fill:url(#SVGID_19_);}
	.st22{fill:url(#SVGID_20_);}
	.st23{fill:url(#SVGID_21_);}
	.st24{fill:url(#SVGID_22_);}
	.st25{fill:url(#SVGID_23_);}
	.st26{fill:url(#SVGID_24_);}
	.st27{fill:url(#SVGID_25_);}
	.st28{fill:url(#SVGID_26_);}
	.st29{fill:url(#SVGID_27_);}
	.st30{fill:url(#SVGID_28_);}
	.st31{fill:url(#SVGID_29_);}
	.st32{fill:url(#SVGID_30_);}
	.st33{fill:url(#SVGID_31_);}
</style>
<g id="beige">
</g>
<g id="Layer_1">
	<g class="st0">
		<defs>
			<circle id="SVGID_1_" cx="-4004.23" cy="474.09" r="306.14"/>
		</defs>
		<use xlink:href="#SVGID_1_"  style="display:inline;overflow:visible;fill:#FFFFFF;"/>
		<clipPath id="SVGID_2_" class="st1">
			<use xlink:href="#SVGID_1_"  style="overflow:visible;"/>
		</clipPath>
		<circle class="st2" cx="-4004.23" cy="474.09" r="362.57"/>
		<g class="st3">
			<g>
				<path class="st4" d="M-3642.1,452.45c0.59,15.33,0.59,30.65,0,45.98c-2.35,1.7-4.12,5.11-6.47,7.66
					c-25.89,29.8-55.91,47.68-88.27,47.68c-11.18-0.85-22.36-1.7-33.54-6.81c-14.12-6.81-27.66-16.18-38.84-30.65
					c-2.94-4.26-5.88-8.51-8.83-12.77c-5.3-9.37-9.42-18.73-13.53-28.95c-7.65-17.03-17.07-28.95-28.84-40.02
					c-14.12-12.77-30.01-17.88-45.9-19.58c-36.49-2.55-71.21,22.14-97.69,57.9c2.94-4.26,5.3-8.51,8.83-12.77
					c2.35-2.55,4.12-5.11,6.47-7.66c38.84-46.83,93.57-64.71,139.47-28.1c7.06,5.96,14.12,12.77,20.01,21.29
					c7.06,11.07,12.36,22.14,18.83,33.21c20.01,34.91,51.2,47.68,81.21,43.42C-3695.06,517.16-3664.46,489.91-3642.1,452.45
					L-3642.1,452.45z"/>
			</g>
			<g>
				<path class="st4" d="M-3642.1,453.3c-33.54,49.38-83.56,78.33-132.41,60.45c-2.35-0.85-4.12-1.7-6.47-2.55
					c-11.77-5.96-21.77-13.62-31.78-23.84c-13.53-14.47-21.77-33.21-32.95-50.23c-9.42-13.62-21.19-22.99-33.54-28.95
					c-24.13-11.07-49.43-6.81-72.38,7.66c-6.47,4.26-12.36,8.51-18.83,14.47c-12.95,12.77-24.13,26.39-33.54,44.27
					c1.18-3.41,2.94-6.81,5.3-9.37c1.18-1.7,1.18-3.41,2.35-5.11c28.84-47.68,70.03-76.63,114.16-68.12
					c14.71,3.41,27.07,10.22,40.02,22.14c10.59,10.22,17.07,22.99,25.3,35.76c24.13,35.76,58.85,46.83,92.39,35.76
					c31.19-11.07,58.26-35.76,77.09-71.52c1.18,1.7,1.77,4.26,1.77,6.81c0,1.7,0,2.55,0,4.26
					C-3643.86,434.57-3643.28,443.93-3642.1,453.3L-3642.1,453.3z"/>
			</g>
			<g>
				<path class="st4" d="M-3642.1,499.28c-1.18,17.03-2.94,34.06-6.47,51.09c-27.66,27.25-60.61,43.42-94.74,38.31
					c-30.01-5.11-58.26-26.39-74.74-64.71c-1.18-2.55-1.77-5.11-2.94-7.66c-7.65-27.25-20.01-49.38-37.07-65.56
					c-22.36-19.58-47.08-26.39-72.38-22.14c-12.36,2.55-24.13,7.66-35.9,13.62c-4.71,2.55-9.42,5.11-14.12,9.37
					c-8.24,8.51-17.07,12.77-23.54,22.99c21.19-27.25,46.49-45.13,75.32-52.79c1.18,0,2.94,0,4.12,0
					c40.02-9.37,80.62,10.22,105.93,57.05c9.42,17.88,16.48,36.61,28.84,51.09c9.42,10.22,18.83,17.03,30.01,22.14
					c12.95,5.11,25.89,6.81,39.43,4.26s26.48-7.66,38.84-16.18C-3666.81,529.08-3653.87,515.45-3642.1,499.28L-3642.1,499.28z"/>
			</g>
			<g>
				<path class="st4" d="M-3647.4,412.43c-5.88,8.51-11.77,17.03-18.24,25.54c-7.06,8.51-14.71,16.18-22.95,22.99
					c-18.83,15.33-38.84,23.84-60.02,25.54c-19.42,1.7-37.66-5.11-55.32-16.18c-2.94-1.7-5.3-5.11-8.24-6.81
					c-4.71-3.41-8.83-8.51-12.95-13.62c-9.42-11.07-15.89-23.84-25.3-34.91c-4.71-5.11-9.42-8.51-14.12-12.77
					c-17.65-12.77-37.07-15.33-57.08-10.22c-34.72,10.22-63.56,40.87-82.39,82.59c12.36-28.95,28.25-54.49,49.43-71.52
					c1.18-0.85,1.77-2.55,2.94-3.41c7.65-5.11,14.12-11.07,22.36-14.47c2.35-0.85,4.12-0.85,6.47-2.55
					c1.18-0.85,2.35-0.85,3.53-0.85c1.18-0.85,1.77-1.7,2.94-1.7c23.54-6.81,46.49-3.41,67.67,11.92
					c12.36,9.37,21.19,23.84,32.37,36.61c28.25,32.35,65.91,35.76,98.28,17.03c22.95-13.62,42.96-34.06,58.26-63.86
					c1.18-1.7,1.77-2.55,2.94-4.26c1.77,5.96,3.53,11.07,4.71,17.03c0,0.85,1.18,1.7,1.18,2.55c0.59,3.41,1.18,5.96,1.77,9.37
					C-3648.57,408.17-3647.4,409.87-3647.4,412.43L-3647.4,412.43z"/>
			</g>
			<g>
				<path class="st4" d="M-3647.98,547.81c-2.94,18.73-8.24,35.76-13.53,52.79c-13.53,11.07-28.25,17.88-44.14,22.14
					c-19.42,5.11-37.66,3.41-55.91-4.26c-25.3-11.07-47.08-33.21-59.44-67.26c-5.3-15.33-8.24-31.5-14.71-46.83
					c-5.3-12.77-11.77-22.99-20.01-32.35c-11.77-13.62-24.13-22.14-38.84-28.1c-38.25-13.62-77.68-0.85-109.46,30.65
					c12.95-15.33,28.25-25.54,44.14-33.21c15.89-7.66,32.37-11.92,48.84-10.22c9.42,0.85,18.83,2.55,28.25,5.96
					c6.47,2.55,12.95,5.96,18.83,10.22c4.71,4.26,10,6.81,14.71,11.92c4.71,4.26,8.83,9.37,12.95,14.47
					c2.94,4.26,5.88,8.51,8.83,13.62c2.94,4.26,4.71,9.37,7.06,14.47c5.88,12.77,10,23.84,15.3,36.61
					c13.53,28.95,33.54,45.13,56.49,50.23c2.94,0.85,6.47,1.7,9.42,2.55c8.83,0.85,17.07,0,25.89-0.85
					c5.88-0.85,10.59-3.41,16.48-5.96C-3678.58,577.61-3662.7,564.84-3647.98,547.81L-3647.98,547.81z"/>
			</g>
			<g>
				<path class="st4" d="M-3658.58,371.56c-8.24,16.18-17.07,29.8-28.84,41.72c-1.18,1.7-1.77,3.41-2.94,4.26
					c-4.71,3.41-8.24,8.51-12.95,11.92s-8.83,6.81-13.53,10.22c-18.83,11.07-38.25,17.88-58.26,15.33
					c-18.24-2.55-35.9-10.22-51.79-26.39c-11.77-11.92-20.6-25.54-32.37-35.76c-7.65-6.81-15.3-9.37-23.54-12.77
					c-11.77-4.26-22.95-2.55-34.72-0.85c-4.12,0.85-8.24,2.55-12.36,4.26c-32.37,14.47-58.26,48.53-74.15,91.1
					c2.94-9.37,6.47-17.03,10.59-25.54c0.59-1.7,1.18-3.41,1.77-5.11c17.07-32.35,37.07-57.9,62.97-71.52
					c24.13-12.77,50.02-13.62,74.15,0c5.3,3.41,10.59,7.66,15.89,11.92c8.24,8.51,14.71,17.88,23.54,24.69
					c40.02,32.35,88.86,13.62,121.23-30.65c1.77-2.55,2.94-5.11,5.3-7.66c1.18-0.85,1.77-2.55,2.35-4.26
					c1.18-0.85,1.77-1.7,2.94-3.41c4.12-7.66,8.24-14.47,11.77-22.99C-3667.4,351.13-3662.11,360.49-3658.58,371.56L-3658.58,371.56
					z"/>
			</g>
			<g>
				<path class="st4" d="M-3660.34,595.49h0.59c-1.18,2.55-1.77,5.96-2.94,9.37c-5.3,15.33-11.77,29.8-18.24,43.42
					c-24.72,11.92-50.61,16.18-77.09,7.66c-2.35-0.85-4.12-1.7-6.47-2.55c-29.42-12.77-54.73-41.72-65.91-83.44
					c-2.35-9.37-4.12-18.73-5.88-28.95c-2.35-9.37-5.3-17.88-8.83-26.39c-2.94-5.96-5.3-11.92-8.83-17.03
					c-1.18-1.7-2.94-3.41-4.12-5.96c-11.77-15.33-24.72-28.1-39.43-34.91c-8.83-3.41-17.65-5.96-26.48-7.66
					c-15.89-1.7-31.19,0-47.08,5.96c-11.77,5.11-22.95,10.22-32.95,19.58c2.35-2.55,4.71-4.26,7.65-5.96
					c1.18-0.85,2.35-2.55,3.53-3.41c2.35-1.7,5.3-3.41,7.65-5.11c2.35-0.85,5.3-2.55,7.65-4.26c26.48-14.47,54.14-17.88,82.39-8.51
					c24.72,9.37,45.31,26.39,61.2,56.2c8.83,17.03,14.12,35.76,20.01,54.49c7.06,19.58,17.07,34.06,30.01,46.83
					c10,8.51,19.42,14.47,30.6,17.88c27.66,8.51,54.73,1.7,79.44-17.03c1.18-0.85,2.35-0.85,3.53-1.7
					C-3666.81,600.6-3663.28,598.89-3660.34,595.49L-3660.34,595.49z"/>
			</g>
			<g>
				<path class="st4" d="M-3673.88,331.54c-14.12,29.8-31.78,55.34-54.14,73.22c-1.18,0.85-2.35,0.85-3.53,1.7
					c-20.6,16.18-43.55,20.43-65.91,17.03c-7.65-0.85-14.71-4.26-21.77-7.66c-15.3-7.66-27.07-22.99-41.19-35.76
					c-10.59-9.37-22.36-12.77-34.72-14.47c-22.95-1.7-44.72,7.66-63.56,27.25c-1.77,2.55-2.94,4.26-5.3,5.96
					c-1.18,0.85-1.77,2.55-2.35,3.41c-1.18,0.85-1.77,1.7-2.94,2.55c-15.3,19.58-26.48,43.42-34.72,69.82
					c14.12-55.34,44.72-103.02,84.74-120.05c2.35-0.85,4.12-1.7,6.47-2.55c22.95-7.66,45.9-3.41,66.5,11.92
					c1.77,1.7,3.53,2.55,5.3,4.26c23.54,24.69,51.79,31.5,78.86,20.43c30.6-13.62,55.91-44.27,71.21-84.29
					c0.59,1.7,1.77,2.55,2.94,4.26c1.18,2.55,2.35,4.26,3.53,6.81c0.59,0.85,1.18,0.85,1.77,1.7
					C-3679.76,322.18-3676.82,327.29-3673.88,331.54L-3673.88,331.54z"/>
			</g>
			<g>
				<path class="st4" d="M-3678,639.76c-7.65,19.58-17.65,35.76-28.25,51.94c-30.6,7.66-62.97,4.26-91.21-20.43
					c-15.89-13.62-28.25-32.35-37.07-55.34c-7.06-19.58-8.83-40.02-12.95-61.3c-5.88-33.21-21.19-58.75-41.78-75.78
					c-32.37-26.39-69.44-27.25-103.57-11.07c-2.35,1.7-4.71,3.41-7.65,4.26c-1.18,0.85-2.35,1.7-3.53,2.55
					c6.47-5.11,12.95-8.51,19.42-11.92c5.3-2.55,10.59-3.41,15.89-5.96c36.49-11.92,72.97-3.41,103.57,28.95
					c1.77,2.55,3.53,4.26,5.3,5.96c11.18,14.47,20.01,31.5,26.48,51.09c5.88,19.58,8.24,39.17,16.48,57.9
					c5.88,11.92,11.18,21.29,18.83,29.8c11.77,12.77,23.54,21.29,38.25,24.69c1.77,0.85,3.53,2.55,5.88,2.55
					C-3727.43,662.75-3701.53,656.79-3678,639.76L-3678,639.76z"/>
			</g>
			<g>
				<path class="st4" d="M-3695.06,293.23c-7.06,22.99-18.24,41.72-31.78,58.75c-1.18,1.7-1.18,3.41-2.35,4.26
					c-18.24,20.43-38.25,34.91-60.61,39.17c-12.95,2.55-25.89,1.7-38.25-3.41c-5.88-2.55-11.77-5.11-17.65-9.37
					c-8.83-6.81-16.48-14.47-25.3-20.43c-1.77-0.85-3.53-0.85-5.3-2.55c-1.18-0.85-1.77-0.85-2.94-0.85
					c-0.59-0.85-1.77-1.7-2.35-1.7c-17.65-6.81-35.31-4.26-51.79,4.26c-34.72,18.73-59.44,63.01-70.62,113.24
					c3.53-19.58,9.42-36.61,15.89-54.49c1.18-3.41,2.94-5.96,4.12-9.37c18.83-39.17,43.55-65.56,75.91-74.08
					c14.71-3.41,29.42-2.55,43.55,3.41c11.18,5.11,21.19,14.47,32.37,19.58c24.72,10.22,50.02,3.41,71.79-15.33
					c20.6-18.73,35.31-44.27,45.31-74.93C-3708.6,277.05-3702.12,285.56-3695.06,293.23L-3695.06,293.23z"/>
			</g>
			<g>
				<path class="st4" d="M-3701.53,681.48c-10,18.73-22.36,34.06-35.31,47.68c-41.78,2.55-85.33-21.29-107.69-75.78
					c-0.59-2.55-1.77-5.11-2.94-7.66c-3.53-9.37-5.3-19.58-7.65-29.8c-2.94-17.03-1.77-33.21-4.71-50.23
					c-8.83-47.68-35.31-80.89-67.09-93.66c-2.35-0.85-4.12-1.7-6.47-2.55c-24.13-7.66-48.25-5.96-70.62,5.11
					c32.37-17.88,70.03-19.58,102.39,0.85c2.35,1.7,4.12,2.55,6.47,4.26c11.77,9.37,22.36,20.43,31.78,34.91
					c15.3,25.54,21.77,55.34,27.07,88.55c1.18,11.07,4.71,19.58,8.83,28.95c6.47,13.62,12.95,23.84,22.36,33.21
					c14.71,14.47,29.42,22.99,46.49,25.54C-3739.2,693.4-3719.78,690.85-3701.53,681.48L-3701.53,681.48z"/>
			</g>
			<g>
				<path class="st4" d="M-3720.37,257.47c-14.71,53.64-45.31,98.77-87.09,110.69c-1.18,0-2.35,0-3.53,0
					c-14.71,4.26-29.42,2.55-43.55-4.26c-12.95-6.81-24.13-17.03-37.66-20.43c-11.77-1.7-22.95-1.7-34.13,2.55
					c-41.19,17.03-69.44,69.82-77.68,128.57c4.71-48.53,21.77-91.96,48.84-123.46c7.65-7.66,15.3-13.62,23.54-19.58
					c8.83-5.96,18.83-8.51,28.25-9.37c15.3-2.55,30.6,0.85,45.31,8.51c19.42,11.07,40.02,8.51,58.85-3.41
					c0.59-0.85,1.77-1.7,2.35-2.55c25.89-17.03,44.14-51.94,53.55-89.4C-3735.67,242.99-3728.02,250.66-3720.37,257.47
					L-3720.37,257.47z"/>
			</g>
			<g>
				<path class="st4" d="M-3729.78,718.95c-12.36,16.18-26.48,29.8-41.19,41.72c-50.02-5.96-98.86-60.45-102.39-136.23
					c0.59-26.39,0.59-52.79-8.24-77.48c-3.53-8.51-6.47-17.03-11.18-24.69c-5.88-8.51-11.18-16.18-18.24-23.84
					c-28.25-27.25-61.2-34.06-92.98-23.84c27.66-11.07,57.67-8.51,84.74,5.96c2.35,1.7,4.12,2.55,6.47,4.26
					c17.07,11.92,31.78,28.95,42.96,52.79c7.65,16.18,11.77,32.35,13.53,50.23c2.94,26.39,4.12,51.94,14.71,74.93
					c13.53,28.95,32.37,45.98,54.73,54.49C-3768.03,724.06-3748.61,724.91-3729.78,718.95L-3729.78,718.95z"/>
			</g>
			<g>
				<path class="st4" d="M-3749.79,224.26c-4.71,17.88-8.83,34.91-16.48,51.94c-4.12,7.66-7.06,14.47-11.18,21.29
					c-8.83,13.62-18.24,25.54-30.01,34.06c-5.3,3.41-10,6.81-15.3,9.37c-11.77,5.11-22.95,6.81-34.72,5.96
					c-12.95-0.85-24.72-9.37-37.66-13.62c-32.37-10.22-62.97,11.07-82.98,47.68c-1.18,2.55-2.35,5.11-4.12,7.66
					c-12.95,27.25-19.42,55.34-21.77,86c1.18-69.82,30.01-140.49,78.27-161.77c2.35-0.85,4.12-1.7,6.47-2.55
					c11.77-4.26,22.95-3.41,34.72-1.7c9.42,2.55,18.83,5.96,28.25,5.11c8.24-0.85,16.48-3.41,24.72-7.66
					c12.95-7.66,24.13-19.58,33.54-35.76c5.3-10.22,10.59-20.43,14.12-32.35c3.53-11.07,5.88-22.14,8.24-34.06
					c3.53,3.41,7.06,5.96,10.59,9.37c3.53,2.55,6.47,5.11,10,7.66C-3753.32,221.71-3751.56,222.56-3749.79,224.26L-3749.79,224.26z"
					/>
			</g>
			<g>
				<path class="st4" d="M-3762.15,751.3c-14.12,14.47-30.01,25.54-45.9,34.91c-10-4.26-20.01-9.37-29.42-16.18
					c-1.18-0.85-1.77-2.55-2.94-3.41c-15.3-11.07-26.48-28.1-36.49-47.68c-15.89-33.21-18.83-71.52-14.71-109.84
					c1.77-13.62,0.59-26.39-1.77-40.02c-3.53-17.88-9.42-34.06-18.24-47.68c-9.42-13.62-19.42-24.69-31.19-32.35
					c-12.36-7.66-24.72-12.77-37.66-14.47c-7.65-0.85-15.89-1.7-23.54,0c39.43-9.37,81.8,7.66,109.46,51.94
					c1.18,2.55,2.35,5.11,4.12,7.66c15.3,28.1,20.01,63.01,18.83,97.06c-0.59,16.18,2.35,32.35,7.65,47.68
					c3.53,8.51,7.06,17.03,11.77,24.69c7.65,12.77,17.07,22.14,27.07,30.65c9.42,6.81,18.83,11.07,29.42,14.47
					C-3784.51,752.15-3773.33,753.01-3762.15,751.3L-3762.15,751.3z"/>
			</g>
			<g>
				<path class="st4" d="M-3783.92,193.61c-4.12,37.46-15.3,73.22-35.31,98.77c-3.53,5.11-6.47,9.37-10.59,12.77
					c-4.71,4.26-9.42,8.51-14.12,11.92c-5.88,4.26-11.77,5.96-18.24,7.66c-8.24,3.41-16.48,3.41-24.72,2.55
					c-7.65-1.7-15.3-5.11-22.95-5.96c-10-0.85-19.42,0-28.84,4.26c-1.77,0.85-3.53,1.7-5.3,2.55
					c-16.48,10.22-30.6,26.39-41.19,49.38c-1.77,4.26-3.53,7.66-4.71,12.77c-10,26.39-14.12,55.34-14.12,84.29
					c-1.77-34.91,2.35-70.67,13.53-102.17c11.77-33.21,31.19-59.6,55.91-71.52c7.06-3.41,14.12-5.96,21.77-6.81
					c10.59-0.85,21.19,0.85,31.78-0.85c23.54-4.26,42.96-25.54,54.73-54.49c0.59-2.55,1.77-5.11,2.94-7.66
					c6.47-17.88,8.83-37.46,10.59-57.05c2.35,2.55,5.3,4.26,8.24,5.96C-3798.04,185.09-3790.98,189.35-3783.92,193.61
					L-3783.92,193.61z"/>
			</g>
			<g>
				<path class="st4" d="M-3798.63,778.55h0.59c-15.3,11.92-32.37,21.29-49.43,26.39c-6.47-2.55-11.77-8.51-17.65-12.77
					c-2.35-1.7-4.12-4.26-6.47-5.96c-25.3-25.54-41.19-62.16-44.14-104.73c-0.59-9.37-0.59-18.73,0-28.1
					c1.18-11.92,2.94-22.99,4.71-34.06c3.53-17.03,3.53-34.06,0-51.09c-0.59-2.55-1.18-5.11-1.77-7.66
					c-7.65-31.5-24.72-55.34-45.31-69.82c-14.71-10.22-30.01-15.33-45.9-16.18c10-0.85,18.83,0.85,28.84,3.41
					c2.35,0.85,4.71,1.7,7.65,2.55c21.77,7.66,40.6,22.99,55.32,47.68c1.18,2.55,2.35,5.11,4.12,7.66
					c8.83,16.18,14.12,34.06,17.07,54.49c2.35,19.58,0,37.46-1.18,56.2c-4.12,50.23,19.42,97.06,50.61,116.65
					c2.35,0.85,4.12,2.55,6.47,4.26C-3823.35,774.29-3810.99,777.7-3798.63,778.55L-3798.63,778.55z"/>
			</g>
			<g>
				<path class="st4" d="M-3836.88,800.69c-16.48,8.51-32.95,15.33-50.61,17.88c-22.36-17.88-39.43-47.68-48.84-82.59
					c-4.71-18.73-6.47-39.17-5.3-58.75c1.18-22.14,8.24-41.72,12.95-63.01c2.94-15.33,3.53-30.65,0.59-46.83
					c-0.59-2.55-1.18-5.11-1.77-7.66c0-0.85-0.59-2.55-1.18-3.41c0-1.7,0-2.55-0.59-4.26c-13.53-41.72-41.78-69.82-72.38-77.48
					c18.24,2.55,35.31,11.07,51.79,25.54c20.01,17.88,34.13,43.42,40.6,75.78c4.12,20.43,4.71,40.87,0.59,61.3
					c-4.12,17.03-6.47,34.91-5.3,52.79c2.35,30.65,13.53,57.05,30.01,77.48c1.77,1.7,3.53,3.41,5.3,5.96
					C-3866.9,787.06-3852.77,796.43-3836.88,800.69L-3836.88,800.69z"/>
			</g>
			<g>
				<path class="st4" d="M-3822.17,166.36c0.59,34.06-6.47,67.26-20.6,96.21c-4.12,7.66-8.24,14.47-13.54,21.29
					c-7.06,7.66-13.53,14.47-21.77,19.58c-9.42,5.96-19.42,9.37-29.42,8.51c-12.36,0-25.3-1.7-37.66,3.41
					c-1.77,0.85-3.53,1.7-5.3,2.55c-42.37,23.84-60.61,95.36-53.55,156.66c-7.65-48.53-2.35-101.32,19.42-142.19
					c12.36-22.99,27.66-39.17,47.08-46.83c10.59-3.41,21.19-5.96,31.78-9.37c16.48-5.96,29.42-21.29,38.84-41.72
					c1.18-2.55,1.77-5.11,2.94-7.66c9.42-24.69,11.18-51.94,9.42-78.33C-3843.95,155.29-3833.35,161.25-3822.17,166.36
					L-3822.17,166.36z"/>
			</g>
			<g>
				<path class="st4" d="M-3863.95,143.37c4.71,38.31,1.18,78.33-15.3,112.39c-1.77,2.55-2.94,5.11-4.12,7.66
					c-14.71,25.54-36.49,40.02-59.44,39.17c-17.07,3.41-32.37,15.33-44.14,34.06c-3.53,5.96-7.06,11.92-9.42,18.73
					c-2.94,7.66-4.71,14.47-7.06,22.14c-7.65,31.5-7.65,65.56-0.59,97.06c-15.3-54.49-10.59-120.05,17.07-165.18
					c7.65-11.92,16.48-21.29,26.48-28.1c18.83-12.77,39.43-18.73,52.37-45.13c15.89-33.21,16.48-73.22,7.06-108.13
					C-3888.67,132.31-3876.9,139.97-3863.95,143.37L-3863.95,143.37z"/>
			</g>
			<g>
				<path class="st4" d="M-3877.49,816.86c-2.35,0-4.12,1.7-6.47,2.55c-14.71,5.11-28.84,6.81-43.55,8.51
					c-1.77-3.41-4.12-5.11-6.47-7.66c-16.48-22.14-28.25-48.53-33.54-80.89c-4.71-28.1-2.94-56.2,4.71-82.59
					c4.71-15.33,11.77-28.95,15.89-45.13c5.88-23.84,4.12-50.23-4.12-73.22c-11.18-30.65-31.19-52.79-52.96-63.86
					c25.89,9.37,48.84,30.65,64.14,64.71c10.59,24.69,15.3,51.09,12.36,79.18c-1.77,17.88-8.24,32.35-12.36,48.53
					C-3954.58,731.72-3919.27,798.13-3877.49,816.86L-3877.49,816.86z"/>
			</g>
			<g>
				<path class="st4" d="M-3908.68,126.35c7.06,27.25,10,56.2,5.3,86c-0.59,3.41-1.18,5.96-1.77,9.37
					c-4.12,19.58-11.18,36.61-21.77,51.09c-7.65,10.22-15.89,17.03-25.89,21.29c-7.65,2.55-15.3,5.11-22.36,10.22
					c-8.24,5.96-14.71,14.47-21.19,23.84c-7.65,13.62-12.95,28.95-15.89,45.98c-1.77,10.22-2.35,19.58-2.94,29.8
					c0,24.69,4.12,48.53,11.18,70.67c-16.48-41.72-22.36-93.66-9.42-139.64c9.42-33.21,28.25-56.2,49.43-73.22
					c10-8.51,17.65-21.29,22.95-35.76c0.59-1.7,0-2.55,0.59-4.26c4.71-13.62,5.88-28.95,5.3-43.42
					c-1.18-22.99-7.06-44.27-15.89-63.01C-3936.93,118.68-3922.8,122.09-3908.68,126.35L-3908.68,126.35z"/>
			</g>
			<g>
				<path class="st4" d="M-3919.27,827.93h0.59c-15.89,3.41-31.78,5.11-47.67,5.11c-19.42-26.39-31.78-63.01-33.54-101.32
					c-1.18-23.84,1.77-47.68,10-68.97c5.88-14.47,12.36-26.39,19.42-39.17c11.18-21.29,14.12-48.53,9.42-74.08
					c-6.47-32.35-22.95-58.75-42.96-74.93c5.88,4.26,11.77,8.51,17.65,14.47c1.18,0.85,2.35,1.7,3.53,2.55
					c20.6,22.14,34.72,51.94,38.25,88.55c1.18,16.18,0.59,32.35-3.53,48.53c-3.53,13.62-9.42,24.69-14.71,36.61
					c-11.18,26.39-11.77,57.9-4.71,86c2.94,11.07,6.47,20.43,11.18,30.65c2.94,5.96,6.47,11.07,9.42,16.18
					C-3938.69,810.9-3929.28,819.42-3919.27,827.93L-3919.27,827.93z"/>
			</g>
			<g>
				<path class="st4" d="M-3956.93,115.28c11.18,22.99,17.07,50.23,18.24,77.48c0,16.18-1.77,32.35-5.88,47.68
					c-5.88,20.43-15.89,37.46-29.42,47.68c-8.83,6.81-18.24,11.92-25.89,21.29c-1.18,1.7-2.35,4.26-4.12,5.96
					c-16.48,24.69-21.77,58.75-18.83,91.96c2.35,24.69,9.42,46.83,18.83,67.26c-20.01-34.91-31.78-79.18-25.89-126.01
					c2.94-18.73,6.47-35.76,14.71-51.09c1.77-2.55,2.94-5.11,4.12-7.66c8.24-14.47,18.83-24.69,27.07-39.17
					c21.77-40.02,11.77-94.51-11.77-127.72c-1.77-2.55-3.53-4.26-5.3-7.66c-0.59-1.7-1.77-2.55-2.94-3.41
					c9.42-0.85,18.83,0,28.25,0.85C-3969.29,113.57-3963.41,114.43-3956.93,115.28L-3956.93,115.28z"/>
			</g>
			<g>
				<path class="st4" d="M-3960.46,833.89c-14.71,1.7-28.84,1.7-43.55,2.55c-3.53-6.81-7.65-12.77-10.59-20.43
					c-1.18-3.41-2.35-7.66-4.12-11.07c-10-27.25-14.71-57.9-11.77-88.55c1.18-14.47,4.71-27.25,8.24-40.02
					c7.65-25.54,23.54-40.87,36.49-60.45c11.18-17.88,15.3-41.72,12.95-65.56c-3.53-30.65-14.71-57.05-31.19-75.78
					c21.19,19.58,36.49,49.38,42.37,86c2.35,17.03,2.35,33.21-0.59,50.23c-4.12,21.29-13.53,37.46-24.72,52.79
					c-15.3,23.84-18.24,57.05-13.53,88.55c0.59,3.41,1.18,5.96,1.77,9.37C-3992.24,791.32-3978.12,816.86-3960.46,833.89
					L-3960.46,833.89z"/>
			</g>
			<g>
				<path class="st4" d="M-4004.01,474.58c15.89,27.25,25.89,62.16,27.07,97.92c0.59,30.65-5.88,61.3-20.01,86
					c-7.06,11.07-14.12,20.43-21.77,30.65c-3.53,5.96-7.06,11.07-9.42,18.73c-0.59,0.85-1.18,1.7-1.77,2.55
					c-4.12,14.47-7.06,29.8-5.88,45.13c2.35,32.35,14.71,61.3,31.78,80.89c-15.89,0.85-31.78-0.85-47.67-3.41
					c-17.65-38.31-24.72-89.4-9.42-132.82c2.94-7.66,6.47-15.33,10.59-22.14c5.3-8.51,11.77-16.18,18.83-19.58
					c21.19-11.92,37.66-36.61,44.14-68.12c1.18-5.96,1.77-11.92,2.35-18.73c1.18-11.92,0.59-23.84-1.18-35.76
					C-3989.3,512.9-3994.6,492.46-4004.01,474.58L-4004.01,474.58z"/>
			</g>
			<g>
				<path class="st4" d="M-4004.01,111.87c7.06,12.77,13.53,27.25,18.24,42.57c0.59,3.41,1.77,7.66,2.94,11.07
					c6.47,26.39,7.65,54.49,2.94,82.59c-5.3,28.95-16.48,51.94-32.95,70.67c-15.89,18.73-24.72,45.98-22.95,74.93
					c2.35,32.35,15.3,60.45,31.78,80.89c-19.42-19.58-35.31-46.83-41.78-81.74c-4.12-23.84-3.53-49.38,4.12-71.52
					c1.18-2.55,1.77-5.11,2.94-7.66c2.94-5.96,5.3-11.92,8.83-17.03c1.18-1.7,2.94-3.41,4.12-5.96c0.59-0.85,1.77-1.7,2.35-2.55
					c7.06-11.07,11.77-22.99,14.71-37.46c2.94-16.18,4.12-32.35,1.77-49.38c-5.3-36.61-20.01-66.41-40.6-86.85
					C-4032.85,112.72-4018.72,113.57-4004.01,111.87L-4004.01,111.87z"/>
			</g>
			<g>
				<path class="st4" d="M-4042.26,115.28c26.48,35.76,40.6,90.25,31.19,143.04c-5.3,27.25-15.89,49.38-28.25,69.82
					c-6.47,15.33-10.59,32.35-10,51.09c1.18,21.29,6.47,41.72,15.89,58.75c1.77,2.55,2.94,5.11,4.12,7.66
					c7.06,11.92,15.89,20.43,25.3,28.95c-27.07-17.88-49.43-50.23-57.67-92.81c-4.12-24.69-2.94-51.09,5.3-74.08
					c4.12-10.22,8.83-17.88,12.95-28.1c2.94-7.66,4.12-16.18,5.88-24.69c1.77-15.33,1.77-28.95-0.59-44.27
					c-7.06-40.87-26.48-71.52-51.2-90.25C-4073.45,117.83-4058.15,115.28-4042.26,115.28L-4042.26,115.28z"/>
			</g>
			<g>
				<path class="st4" d="M-4081.1,121.24c26.48,28.1,43.55,75.78,42.96,123.46c-0.59,19.58-4.12,37.46-10,55.34
					c-0.59,0.85-1.18,2.55-1.77,3.41c-1.18,2.55-1.18,5.96-2.35,8.51c-7.06,14.47-10.59,29.8-12.36,46.83
					c-0.59,11.92,0.59,23.84,2.94,35.76c8.83,39.17,31.78,66.41,57.67,80.04c-32.95-12.77-63.56-45.98-74.15-95.36
					c-2.94-14.47-3.53-29.8-2.94-45.13c1.18-18.73,8.24-34.91,12.95-52.79c13.53-60.45-15.89-123.46-54.73-145.6
					c-2.35-0.85-5.3-2.55-7.65-4.26c16.48-5.96,32.95-8.51,49.43-11.07V121.24L-4081.1,121.24z"/>
			</g>
			<g>
				<path class="st4" d="M-4120.53,129.75c7.65,7.66,15.3,15.33,22.36,24.69c14.71,22.14,25.3,46.83,30.01,77.48
					c2.94,19.58,2.94,39.17-1.18,57.9c-6.47,31.5-17.65,62.16-10,95.36c0.59,2.55,1.18,5.11,1.77,7.66
					c11.77,45.13,42.37,72.37,73.56,81.74c-19.42-3.41-37.66-12.77-54.73-28.95c-17.65-17.88-30.01-40.87-37.07-68.97
					c-2.94-11.07-3.53-22.99-4.12-34.91c-0.59-18.73,4.71-35.76,7.65-54.49c2.94-23.84-0.59-45.98-7.65-66.41
					c-14.12-40.02-42.37-63.86-71.21-73.22C-4154.66,139.97-4138.18,132.31-4120.53,129.75L-4120.53,129.75z"/>
			</g>
			<g>
				<path class="st4" d="M-4160.55,143.37c5.88,4.26,11.77,7.66,17.65,12.77c4.12,4.26,8.24,8.51,12.36,12.77
					c7.06,7.66,11.77,17.03,17.65,26.39c8.83,16.18,14.71,34.06,18.24,53.64c2.94,17.03,2.94,34.06,1.77,51.09
					c-1.18,12.77-4.12,24.69-5.89,37.46c-4.12,38.31,7.06,74.08,26.48,98.77c19.42,24.69,43.55,34.91,68.26,38.31
					c-35.31,0-70.62-17.03-94.16-57.9c-1.18-2.55-2.35-5.11-4.12-7.66c-12.36-24.69-17.07-52.79-15.89-81.74
					c1.18-12.77,3.53-25.54,2.94-38.31c-0.59-9.37-1.77-18.73-3.53-28.1c-4.12-18.73-11.18-34.91-20.6-48.53
					c-19.42-26.39-44.72-40.87-70.62-42.57C-4194.68,157.85-4177.61,148.48-4160.55,143.37L-4160.55,143.37z"/>
			</g>
			<g>
				<path class="st4" d="M-4199.97,162.96c27.07,8.51,52.37,31.5,68.26,67.26c0.59,1.7,1.77,1.7,2.35,3.41
					c10.59,26.39,16.48,54.49,14.12,85.14c-1.18,11.92-2.94,24.69-2.35,36.61c0.59,15.33,2.94,29.8,7.65,43.42
					c19.42,56.2,64.73,79.18,105.93,75.78c-11.18,1.7-21.77,2.55-32.95,0.85c-7.65-0.85-15.3-3.41-22.95-5.96
					c-12.95-5.11-24.13-13.62-35.9-24.69c-22.36-22.14-36.49-54.49-40.02-92.81c-1.18-14.47,0-28.1-0.59-42.57
					c-0.59-8.51-1.77-16.18-3.53-24.69c-5.3-22.14-14.12-40.87-27.07-55.34c-22.95-25.54-50.61-34.91-78.86-32.35
					c6.47-6.81,13.53-12.77,20.6-18.73c1.18-0.85,2.35-0.85,3.53-1.7c7.06-6.81,14.71-9.37,21.77-14.47V162.96L-4199.97,162.96z"/>
			</g>
			<g>
				<path class="st4" d="M-4237.05,187.65c12.95,2.55,25.3,6.81,37.07,13.62c2.35,1.7,4.12,3.41,6.47,4.26
					c20.01,13.62,35.9,34.91,47.08,62.16c7.06,17.88,11.18,36.61,11.18,56.2c0.59,30.65,0.59,61.3,12.95,88.55
					c10,22.14,23.54,38.31,39.43,49.38c24.72,17.03,52.37,19.58,78.86,12.77c-20.6,6.81-41.78,8.51-63.56,2.55
					c-2.35-0.85-4.71-1.7-7.65-2.55c-21.77-8.51-40.6-23.84-55.32-48.53c-1.18-2.55-2.35-5.11-4.12-7.66
					c-13.53-25.54-18.83-55.34-20.01-86.85c-0.59-11.07-3.53-21.29-6.47-31.5c-4.12-11.07-8.83-21.29-14.71-30.65
					c-1.18-1.7-2.94-3.41-4.12-5.96c-27.07-35.76-64.73-43.42-98.86-34.06C-4265.88,213.19-4252.35,198.72-4237.05,187.65
					L-4237.05,187.65z"/>
			</g>
			<g>
				<path class="st4" d="M-4004.01,474.58c20.6,50.23,24.13,115.8-1.18,166.03c-1.77,2.55-2.94,5.11-4.12,7.66
					c-3.53,5.96-7.06,11.92-11.77,17.03c-7.65,7.66-14.71,14.47-22.95,21.29c-17.07,14.47-27.07,39.17-28.84,67.26
					c-1.18,28.1,4.71,56.2,15.89,79.18c-14.12-2.55-28.25-6.81-42.37-11.07c-10.59-39.17-11.18-83.44,4.12-121.76
					c11.18-27.25,29.42-44.27,51.2-50.23c7.06-1.7,12.36-6.81,18.83-11.92c8.83-8.51,15.3-19.58,20.6-32.35
					C-3988.12,564.84-3990.48,515.45-4004.01,474.58L-4004.01,474.58z"/>
			</g>
			<g>
				<path class="st4" d="M-4004.01,474.58c10.59,40.02,11.77,85.14,0,125.16c-5.88,20.43-15.3,38.31-27.07,52.79
					c-1.77,1.7-3.53,3.41-5.3,5.96c-1.77,1.7-4.12,3.41-5.88,5.11c-12.36,9.37-25.89,14.47-38.25,23.84
					c-14.71,11.92-24.72,31.5-29.42,54.49c-5.3,26.39-3.53,52.79,2.35,78.33c-1.77-0.85-3.53-0.85-5.3-1.7
					c-10.59-5.96-21.19-8.51-31.78-13.62c-2.94-32.35-1.77-65.56,8.83-95.36c11.77-33.21,33.54-57.9,58.85-63.01
					c14.71,0.85,28.84-5.11,41.78-17.03c6.47-5.96,11.18-12.77,15.89-21.29C-3998.13,569.95-3994.6,519.71-4004.01,474.58
					L-4004.01,474.58z"/>
			</g>
			<g>
				<path class="st4" d="M-4004.01,474.58c1.18,10.22,2.35,20.43,2.94,30.65c0.59,14.47-0.59,27.25-1.77,41.72
					c-0.59,3.41-1.18,6.81-1.77,11.07c-5.3,32.35-16.48,58.75-33.54,80.04c-11.18,13.62-23.54,22.14-38.25,27.25
					c-13.53,3.41-26.48,5.11-38.84,13.62c-8.83,6.81-16.48,16.18-22.95,28.1c-5.88,12.77-10.59,24.69-12.95,39.17
					c-2.94,17.88-4.12,35.76-2.35,53.64c-11.18-5.96-21.77-13.62-32.95-17.88c1.18-20.43,1.77-40.87,7.65-60.45
					c1.18-3.41,2.35-5.96,2.94-9.37c0.59-1.7,1.18-2.55,1.77-4.26s0.59-3.41,1.18-5.11c1.77-5.96,4.71-11.07,7.65-17.03
					c1.77-2.55,2.94-5.11,4.12-7.66c14.12-23.84,33.54-39.17,54.73-41.72c9.42-0.85,19.42,1.7,28.84,0.85c2.94,0,5.88-1.7,8.83-1.7
					c0.59,0,1.77-1.7,2.35-1.7C-4017.55,617.63-3996.36,539.29-4004.01,474.58L-4004.01,474.58z"/>
			</g>
			<g>
				<path class="st4" d="M-4004.01,474.58c1.77,38.31-3.53,76.63-17.65,110.69c-12.36,30.65-31.78,52.79-54.73,63.86
					c-2.35,0.85-4.12,1.7-6.47,2.55c-15.89,5.96-31.19,1.7-47.08,4.26c-12.95,2.55-24.72,11.07-34.72,23.84
					c-1.18,1.7-2.35,4.26-4.12,5.96c-0.59,0.85-1.18,2.55-1.77,3.41s-1.77,1.7-2.35,2.55c-13.53,23.84-21.19,52.79-22.36,82.59
					c-2.35-0.85-3.53-3.41-6.47-4.26c-1.18-0.85-2.35-2.55-3.53-3.41c-0.59-0.85-1.77,0-2.35-0.85c-1.18-0.85-2.35-2.55-3.53-3.41
					c-4.12-2.55-8.83-4.26-12.95-7.66c4.71-46.83,21.77-91.1,51.2-116.65c11.18-9.37,22.95-15.33,35.9-17.03
					c12.36-1.7,23.54,2.55,35.9,5.11c8.83,2.55,17.07,1.7,25.89-0.85c0.59,0,1.77-1.7,2.35-1.7c15.89-4.26,28.25-17.88,39.43-33.21
					C-4012.84,558.88-4004.01,517.16-4004.01,474.58L-4004.01,474.58z"/>
			</g>
			<g>
				<path class="st4" d="M-4004.01,474.58c-1.18,29.8-6.47,57.9-15.89,84.29c-0.59,1.7-1.77,2.55-2.35,4.26
					c-18.24,48.53-54.14,81.74-91.8,77.48c-18.83-1.7-38.25-10.22-57.08-0.85c-31.78,16.18-54.73,58.75-61.2,105.58
					c-8.24-7.66-16.48-15.33-25.89-20.43c7.65-40.87,24.13-74.93,48.84-100.47c5.88-5.96,11.77-9.37,17.65-13.62
					c5.3-3.41,10.59-4.26,15.89-6.81c19.42-6.81,38.84,0,57.08,8.51c12.95,6.81,26.48,5.96,39.43,1.7
					c10-4.26,18.83-9.37,27.66-17.88c3.53-4.26,6.47-7.66,10-11.07c3.53-4.26,6.47-8.51,9.42-13.62c1.18-2.55,2.35-5.11,4.12-7.66
					C-4014.02,536.74-4006.95,506.94-4004.01,474.58L-4004.01,474.58z"/>
			</g>
			<g>
				<path class="st4" d="M-4004.01,474.58c-5.3,39.17-16.48,75.78-35.9,105.58c-5.88,8.51-11.77,15.33-18.83,22.99
					c-11.77,11.92-22.95,17.88-36.49,22.14c-14.71,4.26-28.84,3.41-43.55-2.55c-8.24-3.41-16.48-7.66-25.3-10.22
					c-12.36-3.41-24.72-0.85-36.49,4.26c-10.59,5.11-20.6,12.77-29.42,22.99c-8.83,11.07-15.89,22.14-22.36,35.76
					c-5.88,11.92-8.83,24.69-12.95,37.46c-7.65-7.66-14.71-15.33-22.95-22.14c12.95-43.42,35.31-80.89,65.32-100.47
					c15.3-9.37,31.19-13.62,47.67-11.92c18.24,1.7,34.13,14.47,51.2,23.84c14.71,6.81,30.6,5.11,45.31-0.85
					c8.83-4.26,16.48-9.37,24.72-17.03c4.71-4.26,8.24-9.37,12.95-14.47c11.18-13.62,18.24-30.65,25.3-48.53
					c0.59-1.7,0.59-3.41,1.18-5.11C-4008.72,503.53-4007.54,488.21-4004.01,474.58L-4004.01,474.58z"/>
			</g>
			<g>
				<path class="st4" d="M-4004.01,474.58c-5.3,26.39-13.54,49.38-24.72,72.37c-12.36,22.99-26.48,39.17-43.55,51.94
					c-16.48,11.92-34.72,17.03-52.96,14.47c-14.12-1.7-27.07-9.37-40.02-18.73c-8.83-5.96-18.24-9.37-27.66-10.22
					c-25.89-2.55-51.2,11.92-70.62,36.61c-12.36,17.03-22.36,35.76-30.01,57.9c-4.71-5.96-8.83-12.77-14.12-17.03
					c-2.35-2.55-3.53-5.11-5.88-6.81c1.77-3.41,2.94-6.81,4.12-11.07c6.47-13.62,11.77-25.54,19.42-36.61
					c1.77-2.55,3.53-5.11,5.3-7.66c6.47-8.51,12.95-15.33,20.6-22.99c12.36-11.92,24.72-17.03,38.84-22.14
					c7.65-1.7,15.3-2.55,22.95-2.55c11.77,0.85,22.95,3.41,34.13,10.22c13.53,8.51,24.72,21.29,38.84,28.1
					c14.12,5.96,28.25,5.96,42.96,1.7c0.59,0,1.77-1.7,2.35-1.7c23.54-6.81,41.19-28.1,56.49-53.64
					C-4016.96,518.01-4009.9,496.72-4004.01,474.58L-4004.01,474.58z"/>
			</g>
			<g>
				<path class="st4" d="M-4004.01,474.58c-5.3,16.18-10,31.5-17.65,45.98c-0.59,1.7-1.18,3.41-1.77,5.11
					c-6.47,11.92-12.95,22.14-20.6,32.35c-3.53,4.26-7.06,8.51-11.18,12.77c-15.89,15.33-31.78,24.69-50.02,28.1
					c-23.54,4.26-46.49-3.41-66.5-23.84c-7.65-6.81-15.3-11.92-23.54-15.33c-12.95-5.11-25.3-5.11-38.25-3.41
					c-10.59,1.7-20.6,7.66-30.6,14.47c-3.53,2.55-7.65,5.11-11.18,8.51c-17.65,17.88-31.78,38.31-41.78,64.71
					c-0.59-0.85-1.18-0.85-1.77-1.7c-1.18-1.7-1.18-3.41-2.35-5.11c-4.71-6.81-8.83-12.77-12.95-20.43
					c17.65-39.17,42.96-69.82,73.56-85.14c30.6-13.62,62.97-11.92,91.21,15.33c14.12,13.62,25.89,28.1,42.37,32.35
					c0.59,0,1.77,1.7,2.35,1.7c20.01,4.26,40.02,1.7,58.26-11.07C-4038.14,550.36-4016.96,515.45-4004.01,474.58L-4004.01,474.58z"
					/>
			</g>
			<g>
				<path class="st4" d="M-4004.01,474.58c-16.48,45.98-43.55,86-78.27,103.02c-2.35,0.85-4.12,0.85-6.47,2.55
					c-1.18,0.85-2.35,0.85-3.53,0.85c-1.18,0.85-1.77,0.85-2.94,1.7c-6.47,2.55-12.95,2.55-19.42,3.41
					c-7.06,0-14.12-0.85-21.19-2.55c-11.18-3.41-21.19-8.51-31.19-17.03c-11.18-10.22-19.42-22.99-31.19-30.65
					c-20.6-13.62-43.55-15.33-65.91-6.81c-4.12,2.55-8.24,3.41-12.36,5.96c-24.72,15.33-45.31,40.87-60.02,73.22
					c-4.71-10.22-9.42-20.43-13.54-30.65c27.66-53.64,72.97-91.1,120.64-83.44c7.65,1.7,15.3,3.41,22.36,6.81
					c16.48,8.51,31.19,22.99,44.14,40.87c7.65,10.22,17.07,17.03,26.48,22.14c1.77,0.85,3.53,1.7,5.3,2.55
					c38.25,15.33,77.09-7.66,104.16-47.68c3.53-5.11,6.47-11.07,10-16.18c0.59-1.7,1.18-3.41,1.77-5.11
					C-4010.48,490.76-4008.13,482.25-4004.01,474.58L-4004.01,474.58z"/>
			</g>
			<g>
				<path class="st4" d="M-4004.01,474.58c-24.72,57.9-68.85,101.32-117.11,97.06c-20.6-1.7-40.02-11.92-55.91-32.35
					c-10.59-14.47-21.19-28.95-35.31-36.61c-7.65-4.26-15.3-7.66-23.54-9.37c-14.12-2.55-27.66-1.7-41.19,3.41
					c-30.6,11.92-55.91,39.17-74.15,74.93c-3.53-11.07-7.06-22.99-9.42-34.91c28.84-48.53,72.97-80.89,118.28-74.08
					c21.77,3.41,41.78,15.33,58.85,35.76c14.12,17.88,25.3,39.17,42.37,49.38c12.36,7.66,25.89,11.92,39.43,11.07
					C-4061.68,557.17-4026.37,520.56-4004.01,474.58L-4004.01,474.58z"/>
			</g>
			<g>
				<path class="st4" d="M-4004.01,474.58c-2.35,2.55-3.53,5.96-5.3,9.37c-14.71,24.69-31.19,44.27-51.2,57.9
					c-8.83,5.11-17.07,9.37-26.48,12.77c-13.53,4.26-25.89,4.26-39.43,1.7c-18.24-4.26-34.72-14.47-48.84-32.35
					c-7.06-8.51-11.77-19.58-18.24-28.1c-5.3-6.81-10.59-11.92-16.48-17.88c-8.24-6.81-15.89-11.07-25.3-14.47
					c-11.77-4.26-23.54-5.11-35.31-3.41c-14.71,3.41-28.84,7.66-42.37,18.73c-1.18,0.85-2.35,0.85-3.53,1.7
					c-17.65,13.62-31.78,32.35-44.72,53.64c-2.35-12.77-4.12-25.54-4.71-39.17c15.3-22.14,33.54-40.02,54.14-51.94
					c41.78-24.69,92.39-17.03,125.93,29.8c6.47,9.37,11.77,19.58,17.65,29.8c3.53,5.11,6.47,9.37,10,14.47
					c7.06,8.51,14.71,15.33,23.54,20.43c15.3,7.66,30.6,11.07,47.08,7.66C-4054.03,538.44-4025.2,510.34-4004.01,474.58
					L-4004.01,474.58z"/>
			</g>
			<g>
				<path class="st4" d="M-4004.01,475.44c-30.6,45.98-73.56,74.93-118.28,66.41c-20.6-4.26-38.25-16.18-54.14-35.76
					c-10-12.77-16.48-28.95-25.3-42.57c-6.47-8.51-12.95-16.18-20.6-22.14c-10-7.66-20.01-11.92-31.19-14.47
					c-7.06-1.7-14.71-0.85-21.77-0.85c-11.18,0.85-22.36,5.11-32.95,11.07c-22.36,11.92-42.37,32.35-57.67,58.75
					c-1.18-15.33-1.18-29.8,0-45.13c38.84-51.94,99.45-75.78,148.88-36.61c15.89,12.77,28.25,29.8,37.66,51.94
					c7.65,19.58,17.65,35.76,31.19,47.68c1.77,0.85,3.53,2.55,5.3,4.26c21.19,16.18,44.14,18.73,67.67,12.77
					c1.18,0,1.77-1.7,2.94-1.7c8.24-1.7,15.89-5.96,23.54-10.22c4.71-3.41,8.83-5.96,13.53-9.37c2.35-2.55,4.12-4.26,6.47-5.96
					c1.18-0.85,1.77-2.55,2.94-3.41s2.35-1.7,3.53-2.55c5.3-5.96,10-11.92,15.3-17.88
					C-4005.78,477.99-4005.19,477.14-4004.01,475.44L-4004.01,475.44z"/>
			</g>
			<g>
				<path class="st4" d="M-4004.01,474.58c-7.65,8.51-15.3,17.03-24.13,24.69c-15.3,12.77-30.6,20.43-47.67,26.39
					c-39.43,11.92-79.44-3.41-107.69-45.13c-10.59-16.18-17.07-34.91-27.07-51.09c-3.53-5.96-8.24-10.22-12.36-15.33
					c-8.83-9.37-18.24-14.47-28.25-18.73c-24.72-9.37-49.43-3.41-72.38,11.07c-15.89,11.07-30.6,24.69-42.37,43.42
					c0.59-17.03,2.35-34.91,6.47-51.09c14.71-16.18,30.6-27.25,48.84-33.21c5.3-2.55,9.42-4.26,14.71-5.11
					c40.02-9.37,80.62,10.22,104.16,60.45c4.71,11.07,7.65,22.99,12.36,34.06c9.42,22.14,21.77,38.31,37.66,49.38
					c24.72,17.88,51.2,20.43,78.27,11.92C-4041.09,508.64-4021.67,494.17-4004.01,474.58L-4004.01,474.58z"/>
			</g>
			<g>
				<path class="st4" d="M-4004.01,474.58c-32.37,31.5-70.62,51.09-111.22,40.02c-20.6-5.96-38.25-17.03-54.14-36.61
					c-8.24-10.22-15.3-21.29-20.6-34.91c-3.53-9.37-7.65-17.03-10-26.39c-0.59-2.55-2.35-4.26-3.53-5.96
					c-2.35-7.66-6.47-12.77-10.59-18.73c-4.71-6.81-10-11.92-15.89-17.03c-18.24-15.33-38.25-20.43-58.26-17.88
					c-26.48,4.26-51.79,18.73-71.79,43.42c2.94-18.73,8.24-35.76,13.54-52.79c31.19-23.84,68.26-31.5,102.98-16.18
					c31.78,14.47,56.49,51.94,65.32,97.92c4.12,11.07,8.83,21.29,14.71,31.5c8.24,13.62,17.65,24.69,28.84,32.35
					c10,6.81,19.42,11.92,30.6,14.47C-4068.16,516.3-4033.44,501.83-4004.01,474.58L-4004.01,474.58z"/>
			</g>
			<g>
				<path class="st4" d="M-4004.01,474.58c-12.36,9.37-24.72,18.73-38.25,23.84c-16.48,5.96-32.37,9.37-49.43,7.66
					c-7.65-0.85-14.12-3.41-21.77-5.11c-10.59-3.41-19.42-9.37-28.83-16.18c-23.54-19.58-39.43-51.09-50.02-86.85
					c-2.94-11.07-7.65-21.29-12.95-30.65c-4.71-8.51-10.59-14.47-16.48-21.29c-1.18-0.85-1.77-0.85-2.94-1.7
					c-12.95-13.62-27.07-18.73-42.37-20.43c-28.83-4.26-57.08,7.66-81.21,29.8c5.3-19.58,12.95-36.61,21.19-53.64
					c23.54-11.07,48.25-16.18,73.56-8.51c2.35,0.85,4.12,1.7,6.47,2.55c1.18,0,1.77,0.85,2.94,1.7c1.18,0,2.35,0,3.53,0.85
					c17.65,8.51,32.37,22.14,45.31,41.72c8.83,14.47,15.3,30.65,19.42,48.53c2.35,11.07,4.12,22.14,7.06,32.35
					c5.3,15.33,12.36,28.95,20.6,40.87C-4108.76,513.75-4048.74,509.49-4004.01,474.58L-4004.01,474.58z"/>
			</g>
			<g>
				<path class="st4" d="M-4004.01,474.58c-24.13,16.18-50.61,23.84-77.68,21.29c-21.19-2.55-40.6-11.92-58.85-30.65
					c-22.95-22.99-34.72-55.34-42.96-91.96c-3.53-17.03-9.42-31.5-18.24-44.27c-8.83-11.92-18.24-21.29-28.83-28.1
					c-14.71-8.51-31.19-12.77-47.08-11.92c-18.24,1.7-35.9,7.66-52.37,19.58c7.06-19.58,17.65-35.76,28.25-51.09
					c28.25-9.37,58.85-4.26,85.33,15.33c22.95,17.03,40.6,45.13,48.84,80.04c4.71,21.29,4.71,44.27,12.95,64.71
					c5.88,13.62,12.36,25.54,20.6,36.61c12.95,15.33,26.48,25.54,42.37,31.5c27.07,10.22,54.14,6.81,80.03-6.81
					C-4009.31,477.14-4006.95,475.44-4004.01,474.58L-4004.01,474.58z"/>
			</g>
			<g>
				<path class="st4" d="M-4004.01,474.58c-26.48,13.62-54.14,17.88-82.39,8.51c-4.71-1.7-8.83-3.41-13.53-5.96
					c-18.24-10.22-34.13-24.69-47.08-46.83c-13.54-23.84-19.42-50.23-24.13-80.89c-1.77-13.62-5.88-24.69-11.18-36.61
					c-14.12-28.95-34.13-45.13-57.67-52.79c-22.95-6.81-45.31-3.41-67.09,6.81c10.59-17.03,21.77-34.06,35.31-46.83
					c28.84-3.41,58.26,7.66,82.39,34.06c5.88,6.81,11.18,14.47,16.48,22.99c5.3,9.37,9.42,18.73,13.54,29.8
					c6.47,20.43,8.24,41.72,9.42,63.86c2.94,31.5,14.71,57.9,31.78,78.33c10.59,11.92,21.19,20.43,33.54,26.39
					c2.35,0.85,4.12,1.7,6.47,2.55C-4052.85,486.5-4028.14,484.8-4004.01,474.58L-4004.01,474.58z"/>
			</g>
		</g>
	</g>
	<g id="Layer_2">
	</g>
	<g>
		<defs>
			
				<rect id="SVGID_3_" x="254.79" y="-325.24" transform="matrix(6.123234e-17 -1 1 6.123234e-17 318.6463 1424.0471)" width="1233.11" height="1755.89"/>
		</defs>
		<clipPath id="SVGID_4_">
			<use xlink:href="#SVGID_3_"  style="overflow:visible;"/>
		</clipPath>
		<g class="st5">
			<ellipse class="st6" cx="875.43" cy="542.39" rx="1150.47" ry="1148.03"/>
			<ellipse class="st4" cx="875.43" cy="542.39" rx="1104.7" ry="1102.35"/>
			<ellipse class="st7" cx="875.43" cy="542.39" rx="1087.16" ry="1084.85"/>
			<g>
				<defs>
					<ellipse id="SVGID_5_" cx="875.43" cy="542.39" rx="1087.16" ry="1084.85"/>
				</defs>
				<clipPath id="SVGID_6_">
					<use xlink:href="#SVGID_5_"  style="overflow:visible;"/>
				</clipPath>
				<g class="st8">
					<g>
						
							<radialGradient id="SVGID_7_" cx="-1333.2449" cy="3756.2729" r="688.5439" gradientTransform="matrix(0 -0.6854 0.9938 0 -2839.2727 -1014.2759)" gradientUnits="userSpaceOnUse">
							<stop  offset="0.2821" style="stop-color:#A81517;stop-opacity:0.9"/>
							<stop  offset="0.3697" style="stop-color:#A41618;stop-opacity:0.9158"/>
							<stop  offset="0.5007" style="stop-color:#981719;stop-opacity:0.9394"/>
							<stop  offset="0.6591" style="stop-color:#841719;stop-opacity:0.968"/>
							<stop  offset="0.8363" style="stop-color:#691516"/>
						</radialGradient>
						<path class="st9" d="M798.56-740.88c54.43-2.09,108.85-2.09,163.28,0c6.05,8.34,18.14,14.6,27.21,22.94
							c105.83,91.76,169.32,198.11,169.32,312.8c-3.02,39.62-6.05,79.24-24.19,118.86c-24.19,50.05-57.45,98.01-108.85,137.63
							c-15.12,10.43-30.24,20.85-45.35,31.28C946.72-98.6,913.46-84,877.18-69.4C816.7-42.29,774.37-8.93,735.07,32.78
							c-45.35,50.05-63.5,106.35-69.54,162.66c-9.07,129.29,78.61,252.33,205.61,346.17c-15.12-10.43-30.24-18.77-45.35-31.28
							c-9.07-8.34-18.14-14.6-27.21-22.94c-166.3-137.63-229.8-331.57-99.78-494.23c21.17-25.02,45.35-50.05,75.59-70.9
							c39.31-25.02,78.61-43.79,117.92-66.73c123.97-70.9,169.32-181.43,154.2-287.78C1028.36-553.2,931.6-661.64,798.56-740.88
							L798.56-740.88z"/>
					</g>
					<g>
						<path class="st7" d="M801.59-740.88c175.37,118.86,278.17,296.12,214.68,469.2c-3.02,8.34-6.05,14.6-9.07,22.94
							c-21.17,41.71-48.38,77.16-84.66,112.61c-51.4,47.96-117.92,77.16-178.39,116.78c-48.38,33.37-81.64,75.07-102.8,118.86
							c-39.31,85.5-24.19,175.17,27.21,256.5c15.12,22.94,30.24,43.79,51.4,66.73c45.35,45.88,93.73,85.5,157.23,118.86
							c-12.09-4.17-24.19-10.43-33.26-18.77c-6.05-4.17-12.09-4.17-18.14-8.34C656.45,412.31,553.65,266.34,583.88,109.94
							c12.09-52.13,36.28-95.93,78.61-141.8c36.28-37.54,81.64-60.48,126.99-89.67c126.99-85.5,166.3-208.53,126.99-327.4
							C877.18-559.46,789.49-655.38,662.5-722.12c6.05-4.17,15.12-6.26,24.19-6.26c6.05,0,9.07,0,15.12,0
							C735.07-734.63,768.33-736.71,801.59-740.88L801.59-740.88z"/>
					</g>
					<g>
						<path class="st7" d="M964.86-740.88c60.47,4.17,120.94,10.43,181.42,22.94c96.76,98.01,154.2,214.79,136.06,335.74
							c-18.14,106.35-93.73,206.45-229.8,264.84c-9.07,4.17-18.14,6.26-27.21,10.43c-96.76,27.11-175.37,70.9-232.82,131.38
							c-69.54,79.24-93.73,166.83-78.61,256.5c9.07,43.79,27.21,85.5,48.38,127.21c9.07,16.68,18.14,33.37,33.26,50.05
							c30.24,29.19,45.35,60.48,81.64,83.41c-96.76-75.07-160.25-164.74-187.46-266.92c0-4.17,0-10.43,0-14.6
							c-33.26-141.8,36.28-285.69,202.58-375.36c63.5-33.37,130.02-58.39,181.42-102.18c36.28-33.37,60.47-66.73,78.61-106.35
							c18.14-45.88,24.19-91.76,15.12-139.72c-9.07-47.96-27.21-93.84-57.45-137.63C1070.69-653.3,1022.31-699.18,964.86-740.88
							L964.86-740.88z"/>
					</g>
					<g>
						
							<radialGradient id="SVGID_8_" cx="-1348.0764" cy="3586.4207" r="666.4944" gradientTransform="matrix(0 -0.6854 0.9938 0 -2839.2727 -1014.2759)" gradientUnits="userSpaceOnUse">
							<stop  offset="0.2821" style="stop-color:#A81517;stop-opacity:0.9"/>
							<stop  offset="0.3697" style="stop-color:#A41618;stop-opacity:0.9158"/>
							<stop  offset="0.5007" style="stop-color:#981719;stop-opacity:0.9394"/>
							<stop  offset="0.6591" style="stop-color:#841719;stop-opacity:0.968"/>
							<stop  offset="0.8363" style="stop-color:#691516"/>
						</radialGradient>
						<path class="st10" d="M656.45-722.12c30.24,20.85,60.47,41.71,90.71,64.65c30.24,25.02,57.45,52.13,81.64,81.33
							c54.43,66.73,84.66,137.63,90.71,212.71c6.05,68.82-18.14,133.46-57.45,196.02c-6.05,10.43-18.14,18.77-24.19,29.19
							c-12.09,16.68-30.24,31.28-48.38,45.88c-39.31,33.37-84.66,56.3-123.97,89.67c-18.14,16.68-30.24,33.37-45.35,50.05
							c-45.35,62.56-54.43,131.38-36.28,202.28c36.28,123.04,145.13,225.22,293.29,291.95c-102.8-43.79-193.51-100.1-253.98-175.17
							c-3.02-4.17-9.07-6.26-12.09-10.43c-18.14-27.11-39.31-50.05-51.4-79.24c-3.02-8.34-3.02-14.6-9.07-22.94
							c-3.02-4.17-3.02-8.34-3.02-12.51c-3.02-4.17-6.05-6.26-6.05-10.43c-24.19-83.41-12.09-164.74,42.33-239.81
							C617.14-52.72,668.55-84,713.9-123.62c114.9-100.1,126.99-233.56,60.47-348.25C725.99-553.2,653.43-624.1,547.6-678.32
							c-6.05-4.17-9.07-6.26-15.12-10.43c21.17-6.26,39.31-12.51,60.47-16.68c3.02,0,6.05-4.17,9.07-4.17
							c12.09-2.09,21.17-4.17,33.26-6.26C641.33-717.94,647.38-722.12,656.45-722.12L656.45-722.12z"/>
					</g>
					<g>
						
							<radialGradient id="SVGID_9_" cx="-1349.5977" cy="3931.1445" r="695.7687" gradientTransform="matrix(0 -0.6854 0.9938 0 -2839.2727 -1014.2759)" gradientUnits="userSpaceOnUse">
							<stop  offset="0.2821" style="stop-color:#A81517;stop-opacity:0.9"/>
							<stop  offset="0.3697" style="stop-color:#A41618;stop-opacity:0.9158"/>
							<stop  offset="0.5007" style="stop-color:#981719;stop-opacity:0.9394"/>
							<stop  offset="0.6591" style="stop-color:#841719;stop-opacity:0.968"/>
							<stop  offset="0.8363" style="stop-color:#691516"/>
						</radialGradient>
						<path class="st11" d="M1137.21-720.03c66.52,10.43,126.99,29.19,187.46,47.96c39.31,47.96,63.5,100.1,78.61,156.4
							c18.14,68.82,12.09,133.46-15.12,198.11c-39.31,89.67-117.92,166.83-238.87,210.62C1094.88-88.17,1037.43-77.74,983-54.8
							c-45.35,18.77-81.64,41.71-114.9,70.9c-48.38,41.71-78.61,85.5-99.78,137.63C719.95,289.28,765.3,429,877.18,541.6
							c-54.43-45.88-90.71-100.1-117.92-156.4c-27.21-56.3-42.33-114.69-36.28-173.08c3.02-33.37,9.07-66.73,21.17-100.1
							c9.07-22.94,21.17-45.88,36.28-66.73c15.12-16.68,24.19-35.45,42.33-52.13c15.12-16.68,33.26-31.28,51.4-45.88
							c15.12-10.43,30.24-20.85,48.38-31.28c15.12-10.43,33.26-16.68,51.4-25.02c45.35-20.85,84.66-35.45,130.02-54.22
							c102.8-47.96,160.25-118.86,178.39-200.19c3.02-10.43,6.05-22.94,9.07-33.37c3.02-31.28,0-60.48-3.02-91.76
							c-3.02-20.85-12.09-37.54-21.17-58.39C1243.03-611.59,1197.68-667.9,1137.21-720.03L1137.21-720.03z"/>
					</g>
					<g>
						<path class="st7" d="M511.32-682.49c57.45,29.19,105.83,60.48,148.16,102.18c6.05,4.17,12.09,6.26,15.12,10.43
							c12.09,16.68,30.24,29.19,42.33,45.88c12.09,16.68,24.19,31.28,36.28,47.96c39.31,66.73,63.5,135.55,54.43,206.45
							c-9.07,64.65-36.28,127.21-93.73,183.51C671.57-44.38,623.19-13.1,586.91,28.61c-24.19,27.11-33.26,54.22-45.35,83.41
							c-15.12,41.71-9.07,81.33-3.02,123.04c3.02,14.6,9.07,29.19,15.12,43.79c51.4,114.69,172.35,206.45,323.53,262.75
							c-33.26-10.43-60.47-22.94-90.71-37.54c-6.05-2.09-12.09-4.17-18.14-6.26c-114.9-60.48-205.61-131.38-253.98-223.13
							c-45.35-85.5-48.38-177.25,0-262.75c12.09-18.77,27.21-37.54,42.33-56.3c30.24-29.19,63.5-52.13,87.69-83.41
							c114.9-141.8,48.38-314.89-108.85-429.58c-9.07-6.26-18.14-10.43-27.21-18.77c-3.02-4.17-9.07-6.26-15.12-8.34
							c-3.02-4.17-6.05-6.26-12.09-10.43c-27.21-14.6-51.4-29.19-81.64-41.71C438.75-651.21,472.01-669.98,511.32-682.49
							L511.32-682.49z"/>
					</g>
					<g>
						<path class="st7" d="M1306.53-676.24v-2.09c9.07,4.17,21.17,6.26,33.26,10.43c54.43,18.77,105.83,41.71,154.2,64.65
							c42.33,87.58,57.45,179.34,27.21,273.18c-3.02,8.34-6.05,14.6-9.07,22.94c-45.35,104.27-148.16,193.94-296.32,233.56
							c-33.26,8.34-66.52,14.6-102.8,20.85c-33.26,8.34-63.5,18.77-93.73,31.28c-21.17,10.43-42.33,18.77-60.47,31.28
							c-6.05,4.17-12.09,10.43-21.17,14.6c-54.43,41.71-99.78,87.58-123.97,139.72c-12.09,31.28-21.17,62.56-27.21,93.84
							c-6.05,56.3,0,110.52,21.17,166.83c18.14,41.71,36.28,81.33,69.54,116.78c-9.07-8.34-15.12-16.68-21.17-27.11
							c-3.02-4.17-9.07-8.34-12.09-12.51c-6.05-8.34-12.09-18.77-18.14-27.11c-3.02-8.34-9.07-18.77-15.12-27.11
							c-51.4-93.84-63.5-191.85-30.24-291.95C813.68,68.23,874.15-4.76,979.98-61.06c60.47-31.28,126.99-50.05,193.51-70.9
							c69.54-25.02,120.94-60.48,166.3-106.35c30.24-35.45,51.4-68.82,63.5-108.44c30.24-98.01,6.05-193.94-60.47-281.52
							c-3.02-4.17-3.02-8.34-6.05-12.51C1324.67-653.3,1318.63-665.81,1306.53-676.24L1306.53-676.24z"/>
					</g>
					<g>
						
							<radialGradient id="SVGID_10_" cx="-1416.5297" cy="3435.251" r="640.6337" gradientTransform="matrix(0 -0.6854 0.9938 0 -2839.2727 -1014.2759)" gradientUnits="userSpaceOnUse">
							<stop  offset="0.2821" style="stop-color:#A81517;stop-opacity:0.9"/>
							<stop  offset="0.3697" style="stop-color:#A41618;stop-opacity:0.9158"/>
							<stop  offset="0.5007" style="stop-color:#981719;stop-opacity:0.9394"/>
							<stop  offset="0.6591" style="stop-color:#841719;stop-opacity:0.968"/>
							<stop  offset="0.8363" style="stop-color:#691516"/>
						</radialGradient>
						<path class="st12" d="M369.21-628.28c105.83,50.05,196.54,112.61,260.03,191.85c3.02,4.17,3.02,8.34,6.05,12.51
							c57.45,72.99,72.57,154.32,60.47,233.56c-3.02,27.11-15.12,52.13-27.21,77.16c-27.21,54.22-81.64,95.93-126.99,145.97
							c-33.26,37.54-45.35,79.24-51.4,123.04c-6.05,81.33,27.21,158.49,96.76,225.22c9.07,6.26,15.12,10.43,21.17,18.77
							c3.02,4.17,9.07,6.26,12.09,8.34c3.02,4.17,6.05,6.26,9.07,10.43c69.54,54.22,154.2,93.84,247.94,123.04
							c-196.54-50.05-365.86-158.49-426.33-300.29c-3.02-8.34-6.05-14.6-9.07-22.94c-27.21-81.33-12.09-162.66,42.33-235.64
							c6.05-6.26,9.07-12.51,15.12-18.77c87.69-83.41,111.87-183.51,72.57-279.44C523.41-423.91,414.56-513.58,272.45-567.8
							c6.05-2.09,9.07-6.26,15.12-10.43c9.07-4.17,15.12-8.34,24.19-12.51c3.02-2.09,3.02-4.17,6.05-6.26
							C335.95-607.42,354.09-617.85,369.21-628.28L369.21-628.28z"/>
					</g>
					<g>
						
							<radialGradient id="SVGID_11_" cx="-1427.1779" cy="4092.7634" r="670.7719" gradientTransform="matrix(0 -0.6854 0.9938 0 -2839.2727 -1014.2759)" gradientUnits="userSpaceOnUse">
							<stop  offset="0.2821" style="stop-color:#A81517;stop-opacity:0.9"/>
							<stop  offset="0.3697" style="stop-color:#A41618;stop-opacity:0.9158"/>
							<stop  offset="0.5007" style="stop-color:#981719;stop-opacity:0.9394"/>
							<stop  offset="0.6591" style="stop-color:#841719;stop-opacity:0.968"/>
							<stop  offset="0.8363" style="stop-color:#691516"/>
						</radialGradient>
						<path class="st13" d="M1463.76-613.68c69.54,27.11,126.99,62.56,184.44,100.1c27.21,108.44,15.12,223.13-72.57,323.23
							c-48.38,56.3-114.9,100.1-196.54,131.38c-69.54,25.02-142.11,31.28-217.7,45.88c-117.92,20.85-208.63,75.07-269.1,148.06
							c-93.73,114.69-96.76,246.07-39.31,367.02c6.05,8.34,12.09,16.68,15.12,27.11c3.02,4.17,6.05,8.34,9.07,12.51
							c-18.14-22.94-30.24-45.88-42.33-68.82c-9.07-18.77-12.09-37.54-21.17-56.3c-42.33-129.29-12.09-258.58,102.8-367.02
							c9.07-6.26,15.12-12.51,21.17-18.77c51.4-39.62,111.87-70.9,181.42-93.84c69.54-20.85,139.09-29.19,205.61-58.39
							c42.33-20.85,75.59-39.62,105.83-66.73c45.35-41.71,75.59-83.41,87.69-135.55c3.02-6.26,9.07-12.51,9.07-20.85
							C1545.4-438.51,1524.23-530.26,1463.76-613.68L1463.76-613.68z"/>
					</g>
					<g>
						<path class="st7" d="M233.14-553.2c81.64,25.02,148.16,64.65,208.63,112.61c6.05,4.17,12.09,4.17,15.12,8.34
							c72.57,64.65,123.97,135.55,139.09,214.79c9.07,45.88,6.05,91.76-12.09,135.55c-9.07,20.85-18.14,41.71-33.26,62.56
							c-24.19,31.28-51.4,58.39-72.57,89.67c-3.02,6.26-3.02,12.51-9.07,18.77c-3.02,4.17-3.02,6.26-3.02,10.43
							c-3.02,2.09-6.05,6.26-6.05,8.34c-24.19,62.56-15.12,125.12,15.12,183.51C541.55,414.4,698.78,501.98,877.18,541.6
							c-69.54-12.51-130.02-33.37-193.51-56.3c-12.09-4.17-21.17-10.43-33.26-14.6c-139.09-66.73-232.82-154.32-263.06-269.01
							c-12.09-52.13-9.07-104.27,12.09-154.32c18.14-39.62,51.4-75.07,69.54-114.69c36.28-87.58,12.09-177.25-54.43-254.41
							c-66.52-72.99-157.23-125.12-266.08-160.57C175.7-505.24,205.93-528.18,233.14-553.2L233.14-553.2z"/>
					</g>
					<g>
						<path class="st7" d="M1611.92-530.26c66.52,35.45,120.95,79.24,169.32,125.12c9.07,148.06-75.59,302.38-269.1,381.62
							c-9.07,2.09-18.14,6.26-27.21,10.43c-33.26,12.51-69.54,18.77-105.83,27.11c-60.47,10.43-117.92,6.26-178.39,16.68
							c-169.32,31.28-287.24,125.12-332.6,237.73c-3.02,8.34-6.05,14.6-9.07,22.94c-27.21,85.5-21.17,171,18.14,250.24
							c-63.5-114.69-69.54-248.16,3.02-362.85c6.05-8.34,9.07-14.6,15.12-22.94c33.26-41.71,72.57-79.24,123.97-112.61
							c90.71-54.22,196.54-77.16,314.46-95.93c39.31-4.17,69.54-16.68,102.8-31.28c48.38-22.94,84.66-45.88,117.92-79.24
							c51.4-52.13,81.64-104.27,90.71-164.74C1654.25-396.8,1645.18-465.62,1611.92-530.26L1611.92-530.26z"/>
					</g>
					<g>
						
							<radialGradient id="SVGID_12_" cx="-1536.703" cy="3312.0349" r="600.1302" gradientTransform="matrix(0 -0.6854 0.9938 0 -2839.2727 -1014.2759)" gradientUnits="userSpaceOnUse">
							<stop  offset="0.2821" style="stop-color:#A81517;stop-opacity:0.9"/>
							<stop  offset="0.3697" style="stop-color:#A41618;stop-opacity:0.9158"/>
							<stop  offset="0.5007" style="stop-color:#981719;stop-opacity:0.9394"/>
							<stop  offset="0.6591" style="stop-color:#841719;stop-opacity:0.968"/>
							<stop  offset="0.8363" style="stop-color:#691516"/>
						</radialGradient>
						<path class="st14" d="M106.15-463.53C296.64-411.4,456.89-302.96,499.22-154.9c0,4.17,0,8.34,0,12.51
							c15.12,52.13,9.07,104.27-15.12,154.32c-24.19,45.88-60.47,85.5-72.57,133.46c-6.05,41.71-6.05,81.33,9.07,120.95
							c60.47,145.97,247.94,246.07,456.57,275.27c-172.35-16.68-326.55-77.16-438.43-173.08c-27.21-27.11-48.38-54.22-69.54-83.41
							c-21.17-31.28-30.24-66.73-33.26-100.1c-9.07-54.22,3.02-108.44,30.24-160.57c39.31-68.82,30.24-141.8-12.09-208.53
							c-3.02-2.09-6.05-6.26-9.07-8.34c-60.47-91.76-184.44-156.4-317.48-189.77C54.75-409.31,81.96-436.42,106.15-463.53
							L106.15-463.53z"/>
					</g>
					<g>
						
							<radialGradient id="SVGID_13_" cx="-1561.042" cy="4238.3428" r="623.0671" gradientTransform="matrix(0 -0.6854 0.9938 0 -2839.2727 -1014.2759)" gradientUnits="userSpaceOnUse">
							<stop  offset="0.2821" style="stop-color:#A81517;stop-opacity:0.9"/>
							<stop  offset="0.3697" style="stop-color:#A41618;stop-opacity:0.9158"/>
							<stop  offset="0.5007" style="stop-color:#981719;stop-opacity:0.9394"/>
							<stop  offset="0.6591" style="stop-color:#841719;stop-opacity:0.968"/>
							<stop  offset="0.8363" style="stop-color:#691516"/>
						</radialGradient>
						<path class="st15" d="M1744.96-430.17c57.45,43.79,105.83,93.84,148.16,145.97c-21.17,177.25-214.68,350.34-483.78,362.85
							c-93.73-2.09-187.46-2.09-275.15,29.19c-30.24,12.51-60.47,22.94-87.69,39.62c-30.24,20.85-57.45,39.62-84.66,64.65
							C865.08,312.22,840.89,429,877.18,541.6c-39.31-98.01-30.24-204.36,21.17-300.29c6.05-8.34,9.07-14.6,15.12-22.94
							c42.33-60.48,102.8-112.61,187.46-152.23c57.45-27.11,114.9-41.71,178.39-47.96c93.73-10.43,184.44-14.6,266.08-52.13
							c102.8-47.96,163.28-114.69,193.51-193.94C1763.1-294.62,1766.12-363.44,1744.96-430.17L1744.96-430.17z"/>
					</g>
					<g>
						<path class="st7" d="M-11.77-359.27c63.5,16.68,123.97,31.28,184.44,58.39c27.21,14.6,51.4,25.02,75.59,39.62
							c48.38,31.28,90.71,64.65,120.94,106.35c12.09,18.77,24.19,35.45,33.26,54.22c18.14,41.71,24.19,81.33,21.17,123.04
							c-3.02,45.88-33.26,87.58-48.38,133.46c-36.28,114.69,39.31,223.13,169.32,294.03c9.07,4.17,18.14,8.34,27.21,14.6
							c96.76,45.88,196.54,68.82,305.39,77.16c-247.94-4.17-498.9-106.35-574.49-277.35c-3.02-8.34-6.05-14.6-9.07-22.94
							c-15.12-41.71-12.09-81.33-6.05-123.04c9.07-33.37,21.17-66.73,18.14-100.1c-3.02-29.19-12.09-58.39-27.21-87.58
							c-27.21-45.88-69.54-85.5-126.99-118.86c-36.28-18.77-72.57-37.54-114.9-50.05c-39.31-12.51-78.61-20.85-120.94-29.19
							c12.09-12.51,21.17-25.02,33.26-37.54c9.07-12.51,18.14-22.94,27.21-35.45C-20.84-346.75-17.82-353.01-11.77-359.27
							L-11.77-359.27z"/>
					</g>
					<g>
						<path class="st7" d="M1859.85-315.47c51.4,50.05,90.71,106.35,123.97,162.66c-15.12,35.45-33.26,70.9-57.45,104.27
							c-3.02,4.17-9.07,6.26-12.09,10.43c-39.31,54.22-99.78,93.84-169.32,129.29c-117.92,56.3-253.98,66.73-390.05,52.13
							c-48.38-6.26-93.73-2.09-142.11,6.26c-63.5,12.51-120.95,33.37-169.32,64.65c-48.38,33.37-87.69,68.82-114.9,110.52
							c-27.21,43.79-45.35,87.58-51.4,133.46c-3.02,27.11-6.05,56.3,0,83.41c-33.26-139.72,27.21-289.86,184.44-387.87
							c9.07-4.17,18.14-8.34,27.21-14.6c99.78-54.22,223.75-70.9,344.69-66.73c57.45,2.09,114.9-8.34,169.32-27.11
							c30.24-12.51,60.47-25.02,87.69-41.71c45.35-27.11,78.61-60.48,108.85-95.93c24.19-33.37,39.31-66.73,51.4-104.27
							C1862.88-236.23,1865.9-275.85,1859.85-315.47L1859.85-315.47z"/>
					</g>
					<g>
						
							<radialGradient id="SVGID_14_" cx="-1702.0074" cy="3202.5098" r="553.7037" gradientTransform="matrix(0 -0.6854 0.9938 0 -2839.2727 -1014.2759)" gradientUnits="userSpaceOnUse">
							<stop  offset="0.2821" style="stop-color:#A81517;stop-opacity:0.9"/>
							<stop  offset="0.3697" style="stop-color:#A41618;stop-opacity:0.9158"/>
							<stop  offset="0.5007" style="stop-color:#981719;stop-opacity:0.9394"/>
							<stop  offset="0.6591" style="stop-color:#841719;stop-opacity:0.968"/>
							<stop  offset="0.8363" style="stop-color:#691516"/>
						</radialGradient>
						<path class="st16" d="M-120.62-238.32c133.04,14.6,260.03,54.22,350.74,125.12c18.14,12.51,33.26,22.94,45.35,37.54
							c15.12,16.68,30.24,33.37,42.33,50.05c15.12,20.85,21.17,41.71,27.21,64.65c12.09,29.19,12.09,58.39,9.07,87.58
							c-6.05,27.11-18.14,54.22-21.17,81.33c-3.02,35.45,0,68.82,15.12,102.18c3.02,6.26,6.05,12.51,9.07,18.77
							c36.28,58.39,93.73,108.44,175.37,145.97c15.12,6.26,27.21,12.51,45.35,16.68c93.73,35.45,196.54,50.05,299.34,50.05
							c-123.97,6.26-250.96-8.34-362.83-47.96c-117.92-41.71-211.65-110.52-253.98-198.11c-12.09-25.02-21.17-50.05-24.19-77.16
							c-3.02-37.54,3.02-75.07-3.02-112.61C218.03,22.35,142.44-46.46,39.63-88.17c-9.07-2.09-18.14-6.26-27.21-10.43
							c-63.5-22.94-133.04-31.28-202.58-37.54c9.07-8.34,15.12-18.77,21.17-29.19C-150.86-188.27-135.74-213.29-120.62-238.32
							L-120.62-238.32z"/>
					</g>
					<g>
						
							<radialGradient id="SVGID_15_" cx="-1737.499" cy="4329.3115" r="562.268" gradientTransform="matrix(0 -0.6854 0.9938 0 -2839.2727 -1014.2759)" gradientUnits="userSpaceOnUse">
							<stop  offset="0.2821" style="stop-color:#A81517;stop-opacity:0.9"/>
							<stop  offset="0.3697" style="stop-color:#A41618;stop-opacity:0.9158"/>
							<stop  offset="0.5007" style="stop-color:#981719;stop-opacity:0.9394"/>
							<stop  offset="0.6591" style="stop-color:#841719;stop-opacity:0.968"/>
							<stop  offset="0.8363" style="stop-color:#691516"/>
						</radialGradient>
						<path class="st17" d="M1956.61-186.18v-2.09c42.33,54.22,75.59,114.69,93.73,175.17c-9.07,22.94-30.24,41.71-45.35,62.56
							c-6.05,8.34-15.12,14.6-21.17,22.94c-90.71,89.67-220.72,145.97-371.91,156.4c-33.26,2.09-66.52,2.09-99.78,0
							c-42.33-4.17-81.64-10.43-120.94-16.68c-60.47-12.51-120.94-12.51-181.42,0c-9.07,2.09-18.14,4.17-27.21,6.26
							c-111.87,27.11-196.54,87.58-247.94,160.57c-36.28,52.13-54.43,106.35-57.45,162.66c-3.02-35.45,3.02-66.73,12.09-102.18
							c3.02-8.34,6.05-16.68,9.07-27.11c27.21-77.16,81.64-143.89,169.32-196.02c9.07-4.17,18.14-8.34,27.21-14.6
							c57.45-31.28,120.94-50.05,193.51-60.48c69.54-8.34,133.04,0,199.56,4.17c178.39,14.6,344.69-68.82,414.24-179.34
							c3.02-8.34,9.07-14.6,15.12-22.94C1941.49-98.6,1953.59-142.39,1956.61-186.18L1956.61-186.18z"/>
					</g>
					<g>
						<path class="st7" d="M2035.22-50.63c30.24,58.39,54.43,116.78,63.5,179.34c-63.5,79.24-169.32,139.72-293.29,173.08
							c-66.52,16.68-139.09,22.94-208.63,18.77c-78.61-4.17-148.16-29.19-223.75-45.88c-54.43-10.43-108.85-12.51-166.3-2.09
							c-9.07,2.09-18.14,4.17-27.21,6.26c-3.02,0-9.07,2.09-12.09,4.17c-6.05,0-9.07,0-15.12,2.09
							c-148.16,47.96-247.94,148.06-275.15,256.5c9.07-64.65,39.31-125.12,90.71-183.51c63.5-70.9,154.2-120.95,269.1-143.89
							c72.57-14.6,145.13-16.68,217.7-2.09c60.47,14.6,123.97,22.94,187.46,18.77c108.85-8.34,202.58-47.96,275.15-106.35
							c6.05-6.26,12.09-12.51,21.17-18.77C1986.85,55.72,2020.11,5.67,2035.22-50.63L2035.22-50.63z"/>
					</g>
					<g>
						<path class="st7" d="M-217.38-102.77c120.94-2.09,238.87,22.94,341.67,72.99c27.21,14.6,51.4,29.19,75.59,47.96
							c27.21,25.02,51.4,47.96,69.54,77.16c21.17,33.37,33.26,68.82,30.24,104.27c0,43.79-6.05,89.67,12.09,133.46
							c3.02,6.26,6.05,12.51,9.07,18.77c84.66,150.14,338.65,214.79,556.35,189.77c-172.35,27.11-359.81,8.34-504.95-68.82
							c-81.64-43.79-139.09-98.01-166.3-166.83c-12.09-37.54-21.17-75.07-33.26-112.61C151.51,134.96,97.08,89.08,24.51,55.72
							C15.44,51.55,6.37,49.46-2.7,45.29C-90.38,11.93-187.14,5.67-280.87,11.93C-256.68-25.61-235.52-63.15-217.38-102.77
							L-217.38-102.77z"/>
					</g>
					<g>
						
							<radialGradient id="SVGID_16_" cx="-1925.1852" cy="3120.3657" r="517.1313" gradientTransform="matrix(0 -0.6854 0.9938 0 -2839.2727 -1014.2759)" gradientUnits="userSpaceOnUse">
							<stop  offset="0.2821" style="stop-color:#A81517;stop-opacity:0.9"/>
							<stop  offset="0.3697" style="stop-color:#A41618;stop-opacity:0.9158"/>
							<stop  offset="0.5007" style="stop-color:#981719;stop-opacity:0.9394"/>
							<stop  offset="0.6591" style="stop-color:#841719;stop-opacity:0.968"/>
							<stop  offset="0.8363" style="stop-color:#691516"/>
						</radialGradient>
						<path class="st18" d="M-299.01,45.29c136.06-16.68,278.17-4.17,399.12,54.22c9.07,6.26,18.14,10.43,27.21,14.6
							c90.71,52.13,142.11,129.29,139.09,210.62c12.09,60.48,54.43,114.69,120.94,156.4c21.17,12.51,42.33,25.02,66.52,33.37
							c27.21,10.43,51.4,16.68,78.61,25.02c111.87,27.11,232.82,27.11,344.69,2.09c-193.51,54.22-426.33,37.54-586.58-60.48
							c-42.33-27.11-75.59-58.39-99.78-93.84c-45.35-66.73-66.52-139.72-160.25-185.6c-117.92-56.3-260.03-58.39-384-25.02
							C-338.32,132.88-311.11,91.17-299.01,45.29L-299.01,45.29z"/>
					</g>
					<g>
						
							<radialGradient id="SVGID_17_" cx="-1942.8586" cy="4370.7788" r="502.7391" gradientTransform="matrix(0 -0.6854 0.9938 0 -2839.2727 -1014.2759)" gradientUnits="userSpaceOnUse">
							<stop  offset="0.2821" style="stop-color:#A81517;stop-opacity:0.9"/>
							<stop  offset="0.3697" style="stop-color:#A41618;stop-opacity:0.9158"/>
							<stop  offset="0.5007" style="stop-color:#981719;stop-opacity:0.9394"/>
							<stop  offset="0.6591" style="stop-color:#841719;stop-opacity:0.968"/>
							<stop  offset="0.8363" style="stop-color:#691516"/>
						</radialGradient>
						<path class="st19" d="M2092.67,93.25c0,8.34,6.05,14.6,9.07,22.94c18.14,52.13,24.19,102.18,30.24,154.32
							c-12.09,6.26-18.14,14.6-27.21,22.94c-78.61,58.39-172.35,100.1-287.24,118.86c-99.78,16.68-199.56,10.43-293.29-16.68
							c-54.43-16.68-102.8-41.71-160.25-56.3c-84.66-20.85-178.39-14.6-260.03,14.6C995.1,393.54,916.48,464.45,877.18,541.6
							c33.26-91.76,108.85-173.08,229.8-227.3c87.69-37.54,181.42-54.22,281.2-43.79c63.5,6.26,114.9,29.19,172.35,43.79
							C1790.31,366.44,2026.15,241.31,2092.67,93.25L2092.67,93.25z"/>
					</g>
					<g>
						<path class="st7" d="M-359.49,203.78c96.76-25.02,199.56-35.45,305.39-18.77c12.09,2.09,21.17,4.17,33.26,6.26
							c69.54,14.6,130.02,39.62,181.42,77.16c36.28,27.11,60.47,56.3,75.59,91.76c9.07,27.11,18.14,54.22,36.28,79.24
							c21.17,29.19,51.4,52.13,84.66,75.07c48.38,27.11,102.8,45.88,163.28,56.3c36.28,6.26,69.54,8.34,105.83,10.43
							c87.69,0,172.35-14.6,250.96-39.62c-148.16,58.39-332.6,79.24-495.87,33.37C263.38,541.6,181.74,474.87,121.27,399.8
							c-30.24-35.45-75.59-62.56-126.99-81.33c-6.05-2.09-9.07,0-15.12-2.09c-48.38-16.68-102.8-20.85-154.2-18.77
							c-81.64,4.17-157.23,25.02-223.75,56.3C-386.7,303.87-374.6,253.83-359.49,203.78L-359.49,203.78z"/>
					</g>
					<g>
						<path class="st7" d="M2131.98,241.31v-2.09c12.09,56.3,18.14,112.61,18.14,168.91c-93.73,68.82-223.75,112.61-359.81,118.86
							c-84.66,4.17-169.32-6.26-244.91-35.45c-51.4-20.85-93.73-43.79-139.09-68.82c-75.59-39.62-172.35-50.05-263.06-33.37
							c-114.9,22.94-208.63,81.33-266.08,152.23c15.12-20.85,30.24-41.71,51.4-62.56c3.02-4.17,6.05-8.34,9.07-12.51
							c78.61-72.99,184.44-123.04,314.46-135.55c57.45-4.17,114.9-2.09,172.35,12.51c48.38,12.51,87.69,33.37,130.02,52.13
							c93.73,39.62,205.61,41.71,305.39,16.68c39.31-10.43,72.57-22.94,108.85-39.62c21.17-10.43,39.31-22.94,57.45-33.37
							C2071.51,310.13,2101.74,276.77,2131.98,241.31L2131.98,241.31z"/>
					</g>
					<g>
						
							<radialGradient id="SVGID_18_" cx="-2171.9175" cy="3090.8333" r="488.9847" gradientTransform="matrix(0 -0.6854 0.9938 0 -2839.2727 -1014.2759)" gradientUnits="userSpaceOnUse">
							<stop  offset="0.2821" style="stop-color:#A81517;stop-opacity:0.9"/>
							<stop  offset="0.3697" style="stop-color:#A41618;stop-opacity:0.9158"/>
							<stop  offset="0.5007" style="stop-color:#981719;stop-opacity:0.9394"/>
							<stop  offset="0.6591" style="stop-color:#841719;stop-opacity:0.968"/>
							<stop  offset="0.8363" style="stop-color:#691516"/>
						</radialGradient>
						<path class="st20" d="M-398.79,374.78c81.64-39.62,178.39-60.48,275.15-64.65c57.45,0,114.9,6.26,169.32,20.85
							c72.57,20.85,133.04,56.3,169.32,104.27c24.19,31.28,42.33,64.65,75.59,91.76c6.05,4.17,15.12,8.34,21.17,14.6
							c87.69,58.39,208.63,77.16,326.55,66.73c87.69-8.34,166.3-33.37,238.87-66.73c-123.97,70.9-281.2,112.61-447.5,91.76
							c-66.52-10.43-126.99-22.94-181.42-52.13c-9.07-6.26-18.14-10.43-27.21-14.6c-51.4-29.19-87.69-66.73-139.09-95.93
							C-60.15,393.54-253.66,429-371.58,512.41c-9.07,6.26-15.12,12.51-27.21,18.77c-6.05,2.09-9.07,6.26-12.09,10.43
							c-3.02-33.37,0-66.73,3.02-100.1C-404.84,418.57-401.82,397.72-398.79,374.78L-398.79,374.78z"/>
					</g>
					<g>
						
							<radialGradient id="SVGID_19_" cx="-2226.6909" cy="4385.9907" r="475.4188" gradientTransform="matrix(0 -0.6854 0.9938 0 -2839.2727 -1014.2759)" gradientUnits="userSpaceOnUse">
							<stop  offset="0.2821" style="stop-color:#A81517;stop-opacity:0.9"/>
							<stop  offset="0.3697" style="stop-color:#A41618;stop-opacity:0.9158"/>
							<stop  offset="0.5007" style="stop-color:#981719;stop-opacity:0.9394"/>
							<stop  offset="0.6591" style="stop-color:#841719;stop-opacity:0.968"/>
							<stop  offset="0.8363" style="stop-color:#691516"/>
						</radialGradient>
						<path class="st21" d="M2153.15,387.29c6.05,52.13,6.05,102.18,9.07,154.32c-24.19,12.51-45.35,27.11-72.57,37.54
							c-12.09,4.17-27.21,8.34-39.31,14.6c-96.76,35.45-205.61,52.13-314.46,41.71c-51.4-4.17-96.76-16.68-142.11-29.19
							c-90.71-27.11-145.13-83.41-214.68-129.29c-63.5-39.62-148.16-54.22-232.82-45.88c-108.85,12.51-202.58,52.13-269.1,110.52
							c69.54-75.07,175.37-129.29,305.39-150.14c60.47-8.34,117.92-8.34,178.39,2.09c75.59,14.6,133.04,47.96,187.46,87.58
							c84.66,54.22,202.58,64.65,314.46,47.96c12.09-2.09,21.17-4.17,33.26-6.26C2001.96,499.9,2092.67,449.85,2153.15,387.29
							L2153.15,387.29z"/>
					</g>
					<g>
						<path class="st7" d="M877.18,541.6c96.76-56.3,220.72-91.76,347.72-95.93c108.85-2.09,217.7,20.85,305.39,70.9
							c39.31,25.02,72.57,50.05,108.85,77.16c21.17,12.51,39.31,25.02,66.52,33.37c3.02,2.09,6.05,4.17,9.07,6.26
							c51.4,14.6,105.83,25.02,160.25,20.85c114.9-8.34,217.7-52.13,287.24-112.61c3.02,56.3-3.02,112.61-12.09,168.91
							c-136.06,62.56-317.48,87.58-471.69,33.37c-27.21-10.43-54.43-22.94-78.61-37.54c-30.24-18.77-57.45-41.71-69.54-66.73
							c-42.33-75.07-130.02-133.46-241.89-156.4c-21.17-4.17-42.33-6.26-66.52-8.34c-42.33-4.17-84.66-2.09-126.99,4.17
							C1013.24,489.47,940.67,508.24,877.18,541.6L877.18,541.6z"/>
					</g>
					<g>
						<path class="st7" d="M-410.89,541.6c45.35-25.02,96.76-47.96,151.18-64.65c12.09-2.09,27.21-6.26,39.31-10.43
							c93.73-22.94,193.51-27.11,293.29-10.43c102.8,18.77,184.44,58.39,250.96,116.78c66.52,56.3,163.28,87.58,266.08,81.33
							c114.9-8.34,214.68-54.22,287.24-112.61c-69.54,68.82-166.3,125.12-290.27,148.06c-84.66,14.6-175.37,12.51-253.98-14.6
							c-9.07-4.17-18.14-6.26-27.21-10.43c-21.17-10.43-42.33-18.77-60.47-31.28c-6.05-4.17-12.09-10.43-21.17-14.6
							c-3.02-2.09-6.05-6.26-9.07-8.34c-39.31-25.02-81.64-41.71-133.04-52.13c-57.45-10.43-114.9-14.6-175.37-6.26
							c-130.02,18.77-235.84,70.9-308.41,143.89C-407.86,643.79-404.84,593.74-410.89,541.6L-410.89,541.6z"/>
					</g>
					<g>
						
							<radialGradient id="SVGID_20_" cx="-2490.4844" cy="3097.5481" r="479.9678" gradientTransform="matrix(0 -0.6854 0.9938 0 -2839.2727 -1014.2759)" gradientUnits="userSpaceOnUse">
							<stop  offset="0.2821" style="stop-color:#A81517;stop-opacity:0.9"/>
							<stop  offset="0.3697" style="stop-color:#A41618;stop-opacity:0.9158"/>
							<stop  offset="0.5007" style="stop-color:#981719;stop-opacity:0.9394"/>
							<stop  offset="0.6591" style="stop-color:#841719;stop-opacity:0.968"/>
							<stop  offset="0.8363" style="stop-color:#691516"/>
						</radialGradient>
						<path class="st22" d="M-398.79,677.15c126.99-93.84,320.5-143.89,507.97-110.52c96.76,18.77,175.37,56.3,247.94,100.1
							c54.43,22.94,114.9,37.54,181.42,35.45c75.59-4.17,148.16-22.94,208.63-56.3c9.07-6.26,18.14-10.43,27.21-14.6
							c42.33-25.02,72.57-56.3,102.8-89.67c-63.5,95.93-178.39,175.17-329.58,204.36c-87.69,14.6-181.42,10.43-263.06-18.77
							c-36.28-14.6-63.5-31.28-99.78-45.88c-27.21-10.43-57.45-14.6-87.69-20.85c-54.43-6.26-102.8-6.26-157.23,2.09
							c-145.13,25.02-253.98,93.84-320.5,181.43C-389.72,787.68-398.79,733.46-398.79,677.15L-398.79,677.15z"/>
					</g>
					<g>
						<path class="st7" d="M-377.63,814.78c99.78-93.84,269.1-154.32,438.43-152.23c69.54,2.09,133.04,14.6,196.54,35.45
							c3.02,2.09,9.07,4.17,12.09,6.26c9.07,4.17,21.17,4.17,30.24,8.34c51.4,25.02,105.83,37.54,166.3,43.79
							c42.33,2.09,84.66-2.09,126.99-10.43C732.04,714.69,828.8,633.36,877.18,541.6C831.82,658.38,713.9,766.82,538.53,804.36
							c-51.4,10.43-105.83,12.51-160.25,10.43c-66.52-4.17-123.97-29.19-187.46-45.88c-214.68-47.96-438.43,56.3-517.04,193.94
							c-3.02,8.34-9.07,18.77-15.12,27.11c-21.17-58.39-30.24-116.78-39.31-175.17H-377.63L-377.63,814.78z"/>
					</g>
					<g>
						
							<radialGradient id="SVGID_21_" cx="-2701.9287" cy="3123.4082" r="532.0674" gradientTransform="matrix(0 -0.6854 0.9938 0 -2839.2727 -1014.2759)" gradientUnits="userSpaceOnUse">
							<stop  offset="0.2821" style="stop-color:#A81517;stop-opacity:0.9"/>
							<stop  offset="0.3697" style="stop-color:#A41618;stop-opacity:0.9158"/>
							<stop  offset="0.5007" style="stop-color:#981719;stop-opacity:0.9394"/>
							<stop  offset="0.6591" style="stop-color:#841719;stop-opacity:0.968"/>
							<stop  offset="0.8363" style="stop-color:#691516"/>
						</radialGradient>
						<path class="st23" d="M-347.39,954.5c27.21-27.11,54.43-54.22,87.69-79.24c78.61-52.13,166.3-89.67,275.15-106.35
							c69.54-10.43,139.09-10.43,205.61,4.17c111.87,22.94,220.72,62.56,338.65,35.45c9.07-2.09,18.14-4.17,27.21-6.26
							c160.25-41.71,257.01-150.14,290.27-260.67c-12.09,68.82-45.35,133.46-102.8,193.94c-63.5,62.56-145.13,106.35-244.91,131.38
							c-39.31,10.43-81.64,12.51-123.97,14.6c-66.52,2.09-126.99-16.68-193.51-27.11c-84.66-10.43-163.28,2.09-235.84,27.11
							c-142.11,50.05-226.77,150.14-260.03,252.33C-311.11,1075.45-338.32,1017.06-347.39,954.5L-347.39,954.5z"/>
					</g>
					<g>
						<path class="st7" d="M-299.01,1096.31c15.12-20.85,27.21-41.71,45.35-62.56c15.12-14.6,30.24-29.19,45.35-43.79
							c27.21-25.02,60.47-41.71,93.73-62.56c57.45-31.28,120.94-52.13,190.49-64.65c60.47-10.43,120.94-10.43,181.42-6.26
							c45.35,4.17,87.69,14.6,133.04,20.85c136.06,14.6,263.06-25.02,350.74-93.84s123.97-154.32,136.06-241.9
							c0,125.12-60.47,250.24-205.61,333.66c-9.07,4.17-18.14,8.34-27.21,14.6c-87.69,43.79-187.46,60.48-290.27,56.3
							c-45.35-4.17-90.71-12.51-136.06-10.43c-33.26,2.09-66.52,6.26-99.78,12.51c-66.52,14.6-123.97,39.62-172.35,72.99
							c-93.73,68.82-145.13,158.49-151.18,250.24C-247.61,1217.26-280.87,1156.78-299.01,1096.31L-299.01,1096.31z"/>
					</g>
					<g>
						
							<radialGradient id="SVGID_22_" cx="-2895.1187" cy="3184.3926" r="594.1856" gradientTransform="matrix(0 -0.6854 0.9938 0 -2839.2727 -1014.2759)" gradientUnits="userSpaceOnUse">
							<stop  offset="0.2821" style="stop-color:#A81517;stop-opacity:0.9"/>
							<stop  offset="0.3697" style="stop-color:#A41618;stop-opacity:0.9158"/>
							<stop  offset="0.5007" style="stop-color:#981719;stop-opacity:0.9394"/>
							<stop  offset="0.6591" style="stop-color:#841719;stop-opacity:0.968"/>
							<stop  offset="0.8363" style="stop-color:#691516"/>
						</radialGradient>
						<path class="st24" d="M-229.47,1236.02c30.24-95.93,111.87-185.6,238.87-241.9c6.05-2.09,6.05-6.26,12.09-8.34
							c93.73-37.54,193.51-58.39,302.36-50.05c42.33,4.17,87.69,10.43,130.02,8.34c54.43-2.09,105.83-10.43,154.2-27.11
							c199.56-68.82,281.2-229.39,269.1-375.36c6.05,39.62,9.07,77.16,3.02,116.78c-3.02,27.11-12.09,54.22-21.17,81.33
							c-18.14,45.88-48.38,85.5-87.69,127.21c-78.61,79.24-193.51,129.29-329.58,141.8c-51.4,4.17-99.78,0-151.18,2.09
							c-30.24,2.09-57.45,6.26-87.69,12.51c-78.61,18.77-145.13,50.05-196.54,95.93c-90.71,81.33-123.97,179.34-114.9,279.44
							c-24.19-22.94-45.35-47.96-66.52-72.99c-3.02-4.17-3.02-8.34-6.05-12.51c-24.19-25.02-33.26-52.13-51.4-77.16H-229.47
							L-229.47,1236.02z"/>
					</g>
					<g>
						<path class="st7" d="M-141.79,1367.4c9.07-45.88,24.19-89.67,48.38-131.38c6.05-8.34,12.09-14.6,15.12-22.94
							c48.38-70.9,123.97-127.21,220.72-166.83c63.5-25.02,130.02-39.62,199.56-39.62c108.85-2.09,217.7-2.09,314.46-45.88
							c78.61-35.45,136.06-83.41,175.37-139.72c60.47-87.58,69.54-185.6,45.35-279.44c24.19,72.99,30.24,148.06,9.07,225.22
							c-3.02,8.34-6.05,16.68-9.07,27.11c-30.24,77.16-84.66,143.89-172.35,196.02c-9.07,4.17-18.14,8.34-27.21,14.6
							c-90.71,47.96-196.54,66.73-308.41,70.9c-39.31,2.09-75.59,12.51-111.87,22.94c-39.31,14.6-75.59,31.28-108.85,52.13
							c-6.05,4.17-12.09,10.43-21.17,14.6C0.33,1261.05-26.89,1394.51,6.37,1515.46C-51.08,1469.58-102.48,1421.62-141.79,1367.4
							L-141.79,1367.4z"/>
					</g>
					<g>
						
							<radialGradient id="SVGID_23_" cx="-2493.2344" cy="4379.9062" r="502.901" gradientTransform="matrix(0 -0.6854 0.9938 0 -2839.2727 -1014.2759)" gradientUnits="userSpaceOnUse">
							<stop  offset="0.2821" style="stop-color:#A81517;stop-opacity:0.9"/>
							<stop  offset="0.3697" style="stop-color:#A41618;stop-opacity:0.9158"/>
							<stop  offset="0.5007" style="stop-color:#981719;stop-opacity:0.9394"/>
							<stop  offset="0.6591" style="stop-color:#841719;stop-opacity:0.968"/>
							<stop  offset="0.8363" style="stop-color:#691516"/>
						</radialGradient>
						<path class="st25" d="M877.18,541.6c178.39-72.99,411.21-85.5,589.61,4.17c9.07,6.26,18.14,10.43,27.21,14.6
							c21.17,12.51,42.33,25.02,60.47,41.71c27.21,27.11,51.4,52.13,75.59,81.33c51.4,60.48,139.09,95.93,238.87,102.18
							c99.78,4.17,199.56-16.68,281.2-56.3c-9.07,50.05-24.19,100.1-39.31,150.14c-139.09,37.54-296.32,39.62-432.38-14.6
							c-96.76-39.62-157.23-104.27-178.39-181.43c-6.05-25.02-24.19-43.79-42.33-66.73c-30.24-31.28-69.54-54.22-114.9-72.99
							C1197.68,485.3,1022.31,493.64,877.18,541.6L877.18,541.6z"/>
					</g>
					<g>
						<path class="st7" d="M877.18,541.6c142.11-37.54,302.36-41.71,444.47,0c72.57,20.85,136.06,54.22,187.46,95.93
							c6.05,6.26,12.09,12.51,21.17,18.77c6.05,6.26,12.09,14.6,18.14,20.85c33.26,43.79,51.4,91.76,84.66,135.55
							c42.33,52.13,111.87,87.58,193.51,104.27c93.73,18.77,187.46,12.51,278.17-8.34c-3.02,6.26-3.02,12.51-6.05,18.77
							c-21.17,37.54-30.24,75.07-48.38,112.61c-114.9,10.43-232.82,6.26-338.65-31.28c-117.92-41.71-205.61-118.86-223.75-208.53
							c3.02-52.13-18.14-102.18-60.47-148.06c-21.17-22.94-45.35-39.62-75.59-56.3C1215.82,520.75,1037.43,508.24,877.18,541.6
							L877.18,541.6z"/>
					</g>
					<g>
						
							<radialGradient id="SVGID_24_" cx="-2733.4688" cy="4320.5801" r="532.7581" gradientTransform="matrix(0 -0.6854 0.9938 0 -2839.2727 -1014.2759)" gradientUnits="userSpaceOnUse">
							<stop  offset="0.2821" style="stop-color:#A81517;stop-opacity:0.9"/>
							<stop  offset="0.3697" style="stop-color:#A41618;stop-opacity:0.9158"/>
							<stop  offset="0.5007" style="stop-color:#981719;stop-opacity:0.9394"/>
							<stop  offset="0.6591" style="stop-color:#841719;stop-opacity:0.968"/>
							<stop  offset="0.8363" style="stop-color:#691516"/>
						</radialGradient>
						<path class="st26" d="M877.18,541.6c36.28-4.17,72.57-8.34,108.85-10.43c51.4-2.09,96.76,2.09,148.16,6.26
							c12.09,2.09,24.19,4.17,39.31,6.26c114.9,18.77,208.63,58.39,284.22,118.86c48.38,39.62,78.61,83.41,96.76,135.55
							c12.09,47.96,18.14,93.84,48.38,137.63c24.19,31.28,57.45,58.39,99.78,81.33c45.35,20.85,87.69,37.54,139.09,45.88
							c63.5,10.43,126.99,14.6,190.49,8.34c-21.17,39.62-48.38,77.16-63.5,116.78c-72.57-4.17-145.13-6.26-214.68-27.11
							c-12.09-4.17-21.17-8.34-33.26-10.43c-6.05-2.09-9.07-4.17-15.12-6.26c-6.05-2.09-12.09-2.09-18.14-4.17
							c-21.17-6.26-39.31-16.68-60.47-27.11c-9.07-6.26-18.14-10.43-27.21-14.6c-84.66-50.05-139.09-118.86-148.16-193.94
							c-3.02-33.37,6.05-68.82,3.02-102.18c0-10.43-6.05-20.85-6.05-31.28c0-2.09-6.05-6.26-6.05-8.34
							C1385.15,589.57,1106.97,514.49,877.18,541.6L877.18,541.6z"/>
					</g>
					<g>
						<path class="st7" d="M877.18,541.6c136.06-6.26,272.13,12.51,393.07,62.56c108.85,43.79,187.46,112.61,226.77,193.94
							c3.02,8.34,6.05,14.6,9.07,22.94c21.17,56.3,6.05,110.52,15.12,166.83c9.07,45.88,39.31,87.58,84.66,123.04
							c6.05,4.17,15.12,8.34,21.17,14.6c3.02,2.09,9.07,4.17,12.09,6.26c3.02,2.09,6.05,6.26,9.07,8.34
							c84.66,47.96,187.46,75.07,293.29,79.24c-3.02,8.34-12.09,12.51-15.12,22.94c-3.02,4.17-9.07,8.34-12.09,12.51
							c-3.02,2.09,0,6.26-3.02,8.34c-3.02,4.17-9.07,8.34-12.09,12.51c-9.07,14.6-15.12,31.28-27.21,45.88
							c-166.3-16.68-323.53-77.16-414.24-181.43c-33.26-39.62-54.43-81.33-60.47-127.21c-6.05-43.79,9.07-83.41,18.14-127.21
							c9.07-31.28,6.05-60.48-3.02-91.76c0-2.09-6.05-6.26-6.05-8.34c-15.12-56.3-63.5-100.1-117.92-139.72
							C1176.52,572.88,1028.36,541.6,877.18,541.6L877.18,541.6z"/>
					</g>
					<g>
						
							<radialGradient id="SVGID_25_" cx="-2927.0635" cy="4223.2241" r="576.9957" gradientTransform="matrix(0 -0.6854 0.9938 0 -2839.2727 -1014.2759)" gradientUnits="userSpaceOnUse">
							<stop  offset="0.2821" style="stop-color:#A81517;stop-opacity:0.9"/>
							<stop  offset="0.3697" style="stop-color:#A41618;stop-opacity:0.9158"/>
							<stop  offset="0.5007" style="stop-color:#981719;stop-opacity:0.9394"/>
							<stop  offset="0.6591" style="stop-color:#841719;stop-opacity:0.968"/>
							<stop  offset="0.8363" style="stop-color:#691516"/>
						</radialGradient>
						<path class="st27" d="M877.18,541.6c105.83,4.17,205.61,22.94,299.34,56.3c6.05,2.09,9.07,6.26,15.12,8.34
							c172.35,64.65,290.27,191.85,275.15,325.31c-6.05,66.73-36.28,135.55-3.02,202.28c57.45,112.61,208.63,193.94,374.93,216.88
							c-27.21,29.19-54.43,58.39-72.57,91.76c-145.13-27.11-266.08-85.5-356.79-173.08c-21.17-20.85-33.26-41.71-48.38-62.56
							c-12.09-18.77-15.12-37.54-24.19-56.3c-24.19-68.82,0-137.63,30.24-202.28c24.19-45.88,21.17-93.84,6.05-139.72
							c-15.12-35.45-33.26-66.73-63.5-98.01c-15.12-12.51-27.21-22.94-39.31-35.45c-15.12-12.51-30.24-22.94-48.38-33.37
							c-9.07-4.17-18.14-8.34-27.21-14.6C1097.9,577.06,992.07,552.03,877.18,541.6L877.18,541.6z"/>
					</g>
					<g>
						<path class="st7" d="M877.18,541.6c139.09,18.77,269.1,58.39,374.93,127.21c30.24,20.85,54.43,41.71,81.64,66.73
							c42.33,41.71,63.5,81.33,78.61,129.29c15.12,52.13,12.09,102.18-9.07,154.32c-12.09,29.19-27.21,58.39-36.28,89.67
							c-12.09,43.79-3.02,87.58,15.12,129.29c18.14,37.54,45.35,72.99,81.64,104.27c39.31,31.28,78.61,56.3,126.99,79.24
							c42.33,20.85,87.69,31.28,133.04,45.88c-27.21,27.11-54.43,52.13-78.61,81.33c-154.2-45.88-287.24-125.12-356.79-231.47
							c-33.26-54.22-48.38-110.52-42.33-168.91c6.05-64.65,51.4-120.95,84.66-181.43c24.19-52.13,18.14-108.44-3.02-160.57
							c-15.12-31.28-33.26-58.39-60.47-87.58c-15.12-16.68-33.26-29.19-51.4-45.88c-48.38-39.62-108.85-64.65-172.35-89.67
							c-6.05-2.09-12.09-2.09-18.14-4.17C979.98,558.29,925.55,554.12,877.18,541.6L877.18,541.6z"/>
					</g>
					<g>
						
							<radialGradient id="SVGID_26_" cx="-3070.0547" cy="4104.5718" r="621.8976" gradientTransform="matrix(0 -0.6854 0.9938 0 -2839.2727 -1014.2759)" gradientUnits="userSpaceOnUse">
							<stop  offset="0.2821" style="stop-color:#A81517;stop-opacity:0.9"/>
							<stop  offset="0.3697" style="stop-color:#A41618;stop-opacity:0.9158"/>
							<stop  offset="0.5007" style="stop-color:#981719;stop-opacity:0.9394"/>
							<stop  offset="0.6591" style="stop-color:#841719;stop-opacity:0.968"/>
							<stop  offset="0.8363" style="stop-color:#691516"/>
						</radialGradient>
						<path class="st28" d="M877.18,541.6c93.73,18.77,175.37,47.96,257.01,87.58c81.64,43.79,139.09,93.84,184.44,154.32
							c42.33,58.39,60.47,123.04,51.4,187.68c-6.05,50.05-33.26,95.93-66.52,141.8c-21.17,31.28-33.26,64.65-36.28,98.01
							c-9.07,91.76,42.33,181.43,130.02,250.24c60.47,43.79,126.99,79.24,205.61,106.35c-21.17,16.68-45.35,31.28-60.47,50.05
							c-9.07,8.34-18.14,12.51-24.19,20.85c-12.09-6.26-24.19-10.43-39.31-14.6c-48.38-22.94-90.71-41.71-130.02-68.82
							c-9.07-6.26-18.14-12.51-27.21-18.77c-30.24-22.94-54.43-45.88-81.64-72.99c-42.33-43.79-60.47-87.58-78.61-137.63
							c-6.05-27.11-9.07-54.22-9.07-81.33c3.02-41.71,12.09-81.33,36.28-120.95c30.24-47.96,75.59-87.58,99.78-137.63
							c21.17-50.05,21.17-100.1,6.05-152.23c0-2.09-6.05-6.26-6.05-8.34c-24.19-83.41-99.78-145.97-190.49-200.19
							C1031.38,587.48,955.79,562.46,877.18,541.6L877.18,541.6z"/>
					</g>
					<g>
						<path class="st7" d="M877.18,541.6c57.45,18.77,111.87,35.45,163.28,62.56c6.05,2.09,12.09,4.17,18.14,6.26
							c42.33,22.94,78.61,45.88,114.9,72.99c15.12,12.51,30.24,25.02,45.35,39.62c54.43,56.3,87.69,112.61,99.78,177.25
							c15.12,83.41-12.09,164.74-84.66,235.64c-24.19,27.11-42.33,54.22-54.43,83.41c-18.14,45.88-18.14,89.67-12.09,135.55
							c6.05,37.54,27.21,72.99,51.4,108.44c9.07,12.51,18.14,27.11,30.24,39.62c63.5,62.56,136.06,112.61,229.8,148.06
							c-3.02,2.09-3.02,4.17-6.05,6.26c-6.05,4.17-12.09,4.17-18.14,8.34c-24.19,16.68-45.35,31.28-72.57,45.88
							c-139.09-62.56-247.94-152.23-302.36-260.67c-48.38-108.44-42.33-223.13,54.43-323.23c48.38-50.05,99.78-91.76,114.9-150.14
							c0-2.09,6.05-6.26,6.05-8.34c15.12-70.9,6.05-141.8-39.31-206.45C1146.28,662.55,1022.31,587.48,877.18,541.6L877.18,541.6z"
							/>
					</g>
					<g>
						
							<radialGradient id="SVGID_27_" cx="-3164.3679" cy="3978.3135" r="654.6326" gradientTransform="matrix(0 -0.6854 0.9938 0 -2839.2727 -1014.2759)" gradientUnits="userSpaceOnUse">
							<stop  offset="0.2821" style="stop-color:#A81517;stop-opacity:0.9"/>
							<stop  offset="0.3697" style="stop-color:#A41618;stop-opacity:0.9158"/>
							<stop  offset="0.5007" style="stop-color:#981719;stop-opacity:0.9394"/>
							<stop  offset="0.6591" style="stop-color:#841719;stop-opacity:0.968"/>
							<stop  offset="0.8363" style="stop-color:#691516"/>
						</radialGradient>
						<path class="st29" d="M877.18,541.6c163.28,58.39,305.39,154.32,365.86,277.35c3.02,8.34,3.02,14.6,9.07,22.94
							c3.02,4.17,3.02,8.34,3.02,12.51c3.02,4.17,3.02,6.26,6.05,10.43c9.07,22.94,9.07,45.88,12.09,68.82
							c0,25.02-3.02,50.05-9.07,75.07c-12.09,39.62-30.24,75.07-60.47,110.52c-36.28,39.62-81.64,68.82-108.85,110.52
							c-48.38,72.99-54.43,154.32-24.19,233.56c9.07,14.6,12.09,29.19,21.17,43.79c54.43,87.58,145.13,160.57,260.03,212.71
							c-36.28,16.68-72.57,33.37-108.85,47.96c-190.49-98.01-323.53-258.58-296.32-427.5c6.05-27.11,12.09-54.22,24.19-79.24
							c30.24-58.39,81.64-110.52,145.13-156.4c36.28-27.11,60.47-60.47,78.61-93.84c3.02-6.26,6.05-12.51,9.07-18.77
							c54.43-135.55-27.21-273.18-169.32-369.11c-18.14-12.51-39.31-22.94-57.45-35.45c-6.05-2.09-12.09-4.17-18.14-6.26
							C934.63,564.54,904.39,556.2,877.18,541.6L877.18,541.6z"/>
					</g>
					<g>
						<path class="st7" d="M877.18,541.6c205.61,87.58,359.81,243.99,344.69,414.98c-6.05,72.99-42.33,141.8-114.9,198.11
							c-51.4,37.54-102.8,75.07-130.02,125.12c-15.12,27.11-27.21,54.22-33.26,83.41c-9.07,50.05-6.05,98.01,12.09,145.97
							c42.33,108.44,139.09,198.11,266.08,262.75c-39.31,12.51-81.64,25.02-123.97,33.37
							c-172.35-102.18-287.24-258.58-263.06-419.15c12.09-77.16,54.43-148.06,126.99-208.53c63.5-50.05,139.09-89.67,175.37-150.14
							c27.21-43.79,42.33-91.76,39.31-139.72C1170.47,745.97,1040.45,620.85,877.18,541.6L877.18,541.6z"/>
					</g>
					<g>
						
							<radialGradient id="SVGID_28_" cx="-3205.4399" cy="3807.7407" r="681.2234" gradientTransform="matrix(0 -0.6854 0.9938 0 -2839.2727 -1014.2759)" gradientUnits="userSpaceOnUse">
							<stop  offset="0.2821" style="stop-color:#A81517;stop-opacity:0.9"/>
							<stop  offset="0.3697" style="stop-color:#A41618;stop-opacity:0.9158"/>
							<stop  offset="0.5007" style="stop-color:#981719;stop-opacity:0.9394"/>
							<stop  offset="0.6591" style="stop-color:#841719;stop-opacity:0.968"/>
							<stop  offset="0.8363" style="stop-color:#691516"/>
						</radialGradient>
						<path class="st30" d="M877.18,541.6c9.07,8.34,21.17,12.51,33.26,18.77c87.69,52.13,157.23,110.52,205.61,181.43
							c18.14,31.28,33.26,60.48,45.35,93.84c15.12,47.96,15.12,91.76,6.05,139.72c-15.12,64.65-51.4,123.04-114.9,173.08
							c-30.24,25.02-69.54,41.71-99.78,64.65c-24.19,18.77-42.33,37.54-63.5,58.39c-24.19,29.19-39.31,56.3-51.4,89.67
							c-15.12,41.71-18.14,83.41-12.09,125.12c12.09,52.13,27.21,102.18,66.52,150.14c3.02,4.17,3.02,8.34,6.05,12.51
							c48.38,62.56,114.9,112.61,190.49,158.49c-45.35,8.34-90.71,14.6-139.09,16.68c-78.61-54.22-142.11-118.86-184.44-191.85
							c-87.69-148.06-60.47-327.4,105.83-446.26c33.26-22.94,69.54-41.71,105.83-62.56c18.14-12.51,33.26-22.94,51.4-35.45
							c30.24-25.02,54.43-52.13,72.57-83.41c27.21-54.22,39.31-108.44,27.21-166.83C1103.95,718.86,1004.17,616.68,877.18,541.6
							L877.18,541.6z"/>
					</g>
					<g>
						<path class="st7" d="M880.2,541.6c163.28,108.44,266.08,260.67,235.84,419.15c-15.12,72.99-57.45,135.55-126.99,191.85
							c-45.35,35.45-102.8,58.39-151.18,89.67c-30.24,22.94-57.45,45.88-78.61,72.99c-27.21,35.45-42.33,70.9-51.4,110.52
							c-6.05,25.02-3.02,52.13-3.02,77.16c3.02,39.62,18.14,79.24,39.31,116.78c42.33,79.24,114.9,150.15,208.63,204.36
							c-54.43,4.17-105.83,4.17-160.25,0c-184.44-137.63-269.1-352.42-130.02-527.59c45.35-56.3,105.83-100.1,184.44-133.46
							c69.54-27.11,126.99-62.56,169.32-110.52c3.02-6.26,9.07-12.51,15.12-18.77c57.45-75.07,66.52-156.4,45.35-239.81
							c0-4.17-6.05-6.26-6.05-10.43c-6.05-29.19-21.17-56.3-36.28-83.41c-12.09-16.68-21.17-31.28-33.26-47.96
							c-9.07-8.34-15.12-14.6-21.17-22.94c-3.02-4.17-9.07-6.26-12.09-10.43c-3.02-4.17-6.05-8.34-9.07-12.51
							c-21.17-18.77-42.33-35.45-63.5-54.22C889.27,547.86,886.25,545.77,880.2,541.6L880.2,541.6z"/>
					</g>
					<g>
						
							<radialGradient id="SVGID_29_" cx="-3205.4399" cy="3629.8765" r="696.0408" gradientTransform="matrix(0 -0.6854 0.9938 0 -2839.2727 -1014.2759)" gradientUnits="userSpaceOnUse">
							<stop  offset="0.2821" style="stop-color:#A81517;stop-opacity:0.9"/>
							<stop  offset="0.3697" style="stop-color:#A41618;stop-opacity:0.9158"/>
							<stop  offset="0.5007" style="stop-color:#981719;stop-opacity:0.9394"/>
							<stop  offset="0.6591" style="stop-color:#841719;stop-opacity:0.968"/>
							<stop  offset="0.8363" style="stop-color:#691516"/>
						</radialGradient>
						<path class="st31" d="M877.18,541.6c30.24,27.11,60.47,54.22,87.69,85.5c45.35,54.22,72.57,108.44,93.73,168.91
							c42.33,139.72-12.09,281.52-160.25,381.62c-57.45,37.54-123.97,60.47-181.42,95.93c-21.17,12.51-36.28,29.19-54.43,43.79
							c-33.26,31.28-51.4,64.65-66.52,100.1c-33.26,87.58-12.09,175.17,39.31,256.5c39.31,56.3,87.69,108.44,154.2,150.15
							c-60.47-2.09-123.97-8.34-181.42-22.94c-57.45-52.13-96.76-108.44-117.92-173.08c-9.07-18.77-15.12-33.37-18.14-52.13
							c-33.26-141.8,36.28-285.69,214.68-369.11c39.31-16.68,81.64-27.11,120.94-43.79c78.61-33.37,136.06-77.16,175.37-133.46
							c63.5-87.58,72.57-181.43,42.33-277.35C998.12,672.98,946.72,604.16,877.18,541.6L877.18,541.6z"/>
					</g>
					<g>
						<path class="st7" d="M877.18,541.6c111.87,114.69,181.42,250.24,142.11,394.13c-21.17,72.99-60.47,135.55-130.02,191.85
							c-36.28,29.19-75.59,54.22-123.97,72.99c-33.26,12.51-60.47,27.11-93.73,35.45c-9.07,2.09-15.12,8.34-21.17,12.51
							c-27.21,8.34-45.35,22.94-66.52,37.54c-24.19,16.68-42.33,35.45-60.47,56.3c-54.43,64.65-72.57,135.55-63.5,206.45
							c15.12,93.84,66.52,183.51,154.2,254.41c-66.52-10.43-126.99-29.19-187.46-47.96c-84.66-110.52-111.87-241.9-57.45-364.94
							c51.4-112.61,184.44-200.19,347.72-231.47c39.31-14.6,75.59-31.28,111.87-52.13c48.38-29.19,87.69-62.56,114.9-102.18
							c24.19-35.45,42.33-68.82,51.4-108.44C1025.33,768.91,973.93,645.87,877.18,541.6L877.18,541.6z"/>
					</g>
					<g>
						
							<radialGradient id="SVGID_30_" cx="-3159.8044" cy="3462.9634" r="687.212" gradientTransform="matrix(0 -0.6854 0.9938 0 -2839.2727 -1014.2759)" gradientUnits="userSpaceOnUse">
							<stop  offset="0.2821" style="stop-color:#A81517;stop-opacity:0.9"/>
							<stop  offset="0.3697" style="stop-color:#A41618;stop-opacity:0.9158"/>
							<stop  offset="0.5007" style="stop-color:#981719;stop-opacity:0.9394"/>
							<stop  offset="0.6591" style="stop-color:#841719;stop-opacity:0.968"/>
							<stop  offset="0.8363" style="stop-color:#691516"/>
						</radialGradient>
						<path class="st32" d="M877.18,541.6c33.26,43.79,66.52,87.58,84.66,135.55c21.17,58.39,33.26,114.69,27.21,175.17
							c-3.02,27.11-12.09,50.05-18.14,77.16c-12.09,37.54-33.26,68.82-57.45,102.18c-69.54,83.41-181.42,139.72-308.41,177.25
							c-39.31,10.43-75.59,27.11-108.85,45.88c-30.24,16.68-51.4,37.54-75.59,58.39c-3.02,4.17-3.02,6.26-6.05,10.43
							c-48.38,45.88-66.52,95.93-72.57,150.14c-15.12,102.18,27.21,202.28,105.83,287.78c-69.54-18.77-130.02-45.88-190.49-75.07
							c-39.31-83.41-57.45-171-30.24-260.67c3.02-8.34,6.05-14.6,9.07-22.94c0-4.17,3.02-6.26,6.05-10.43c0-4.17,0-8.34,3.02-12.51
							c30.24-62.56,78.61-114.69,148.16-160.57c51.4-31.28,108.85-54.22,172.35-68.82c39.31-8.34,78.61-14.6,114.9-25.02
							c54.43-18.77,102.8-43.79,145.13-72.99C1016.26,912.8,1001.14,700.09,877.18,541.6L877.18,541.6z"/>
					</g>
					<g>
						<path class="st7" d="M877.18,541.6c57.45,85.5,84.66,179.34,75.59,275.27c-9.07,75.07-42.33,143.89-108.85,208.53
							c-81.64,81.33-196.54,123.04-326.55,152.23c-60.47,12.51-111.87,33.37-157.23,64.65c-42.33,31.28-75.59,64.65-99.78,102.18
							c-30.24,52.13-45.35,110.52-42.33,166.83c6.05,64.65,27.21,127.21,69.54,185.6c-69.54-25.02-126.99-62.56-181.42-100.1
							c-33.26-100.1-15.12-208.53,54.43-302.38c60.47-81.33,160.25-143.89,284.22-173.08c75.59-16.68,157.23-16.68,229.8-45.88
							c48.38-20.85,90.71-43.79,130.02-72.99c54.43-45.88,90.71-93.84,111.87-150.14c36.28-95.93,24.19-191.85-24.19-283.61
							C886.25,560.37,880.2,552.03,877.18,541.6L877.18,541.6z"/>
					</g>
					<g>
						
							<radialGradient id="SVGID_31_" cx="-3053.3218" cy="3307.759" r="649.6954" gradientTransform="matrix(0 -0.6854 0.9938 0 -2839.2727 -1014.2759)" gradientUnits="userSpaceOnUse">
							<stop  offset="0.2821" style="stop-color:#A81517;stop-opacity:0.9"/>
							<stop  offset="0.3697" style="stop-color:#A41618;stop-opacity:0.9158"/>
							<stop  offset="0.5007" style="stop-color:#981719;stop-opacity:0.9394"/>
							<stop  offset="0.6591" style="stop-color:#841719;stop-opacity:0.968"/>
							<stop  offset="0.8363" style="stop-color:#691516"/>
						</radialGradient>
						<path class="st33" d="M877.18,541.6c48.38,93.84,63.5,191.85,30.24,291.95c-6.05,16.68-12.09,31.28-21.17,47.96
							c-36.28,64.65-87.69,120.95-166.3,166.83c-84.66,47.96-178.39,68.82-287.24,85.5c-48.38,6.26-87.69,20.85-130.02,39.62
							c-102.8,50.05-160.25,120.95-187.46,204.36c-24.19,81.33-12.09,160.57,24.19,237.73c-60.47-37.54-120.94-77.16-166.3-125.12
							c-12.09-102.18,27.21-206.45,120.94-291.95c24.19-20.85,51.4-39.62,81.64-58.39c33.26-18.77,66.52-33.37,105.83-47.96
							c72.57-22.94,148.16-29.19,226.77-33.37c111.87-10.43,205.61-52.13,278.17-112.61c42.33-37.54,72.57-75.07,93.73-118.86
							c3.02-8.34,6.05-14.6,9.07-22.94C919.51,714.69,913.46,627.1,877.18,541.6L877.18,541.6z"/>
					</g>
				</g>
			</g>
		</g>
	</g>
</g>
<g id="Layer_4">
</g>
<g id="text">
</g>
</svg>
