<svg version="1.1" id="Layer_1" xmlns="http://www.w3.org/2000/svg" xmlns:xlink="http://www.w3.org/1999/xlink" x="0px" y="0px" viewBox="0 0 586.7 118.5" xml:space="preserve">
            <style type="text/css">
                #smile .st0{
                    fill:#F3FF3C;
                }
                #smile {
                  
                    opacity: 1;
                  
                }
            </style>
            <g>
                
                <g id="smile">
                    <path class="st0" d="M211.698822,115.6919708c0-26.1391068-17.1176453-33.9498062-17.1176453-56.4419708
                        S211.698822,28.9471397,211.698822,2.8080306H387.964325c0,26.1391087,17.1176453,33.94981,17.1176453,56.4419708
                        s-17.1176453,30.3028641-17.1176453,56.4419708H211.698822z"></path>
                    <g>
                        <g>
                            <path d="M289.1608276,80.6039124c-0.03125,0.7416229-0.0579224,1.48349-0.0961304,2.2247543
                                c-0.0148621,0.2883606-0.0525208,0.5757675-0.0860291,0.8628769c-0.0223389,0.1913223-0.0576172,0.3811111-0.0837402,0.5720444
                                c-0.0339661,0.2482834-0.0639343,0.4968185-0.0767822,0.7476501c-0.013855,0.2696915-0.0625916,0.5357742-0.1031799,0.802597
                                c-0.056488,0.371521-0.103241,0.7445755-0.1644897,1.1152725c-0.0360718,0.2182846-0.0960388,0.4325256-0.138031,0.6499786
                                c-0.0364685,0.1890259-0.0710449,0.3791504-0.0914612,0.5703812c-0.0245972,0.2304611-0.0558777,0.4592133-0.1093445,0.6846008
                                c-0.0959167,0.40448-0.1393738,0.8168182-0.1819153,1.2289429c-0.034668,0.3354797-0.0697937,0.6712799-0.0675659,1.0094986
                                c0.0004578,0.0673218-0.006134,0.1348572-0.0123901,0.2020187c-0.032959,0.3551178-0.0646667,0.7103653-0.1011963,1.0651169
                                c-0.0246582,0.2396317-0.0539551,0.4788589-0.0856934,0.7176666c-0.0733032,0.5515671-0.0413513,1.0969009,0.0969543,1.6351547
                                c0.105896,0.4122696,0.3451233,0.7261276,0.7138367,0.9415588c0.167572,0.0979156,0.342926,0.1776962,0.5307007,0.2247009
                                c0.2901306,0.0726395,0.5736694,0.1657028,0.8573303,0.2593994c0.3113708,0.1028595,0.6277161,0.182579,0.9535217,0.2312927
                                c0.4667664,0.0697937,0.9299622,0.1633987,1.3963318,0.2361221c0.3053284,0.0476151,0.6049194,0.1151276,0.9038086,0.1925201
                                c0.3644714,0.0943985,0.7393494,0.133522,1.1131287,0.1740036c0.3065796,0.0332108,0.6134949,0.0636215,0.9202576,0.0953064
                                c0.0575256,0.0059357,0.1149902,0.0167465,0.1725769,0.0172958c0.4067078,0.0038757,0.8066711,0.0664902,1.2047119,0.1409836
                                c0.2004089,0.0374985,0.4017639,0.0558548,0.6040344,0.0515366c0.4448547-0.0095062,0.885498,0.0445709,1.3276672,0.0759811
                                c0.125,0.0088806,0.2499084,0.0207367,0.375061,0.0249405c0.2217102,0.0074387,0.4427795,0.0164032,0.6627808,0.050354
                                c0.1042786,0.0160904,0.2114258,0.0170593,0.3173523,0.0179825c0.1445312,0.0012665,0.2892151-0.0021057,0.4337463-0.0068817
                                c0.5010986-0.0165482,1.0020752-0.0365143,1.5032349-0.0512772c0.2706604-0.0079651,0.5369263-0.0540009,0.8050232-0.0835953
                                c0.4405823-0.0486374,0.8805847-0.1027374,1.320343-0.1582108c0.19104-0.0241013,0.3813171-0.0525208,0.5701599-0.0939713
                                c0.3009949-0.0660553,0.6049194-0.1187973,0.9075317-0.1774216c0.1324463-0.02565,0.2649536-0.0509796,0.3970947-0.078064
                                c0.2359009-0.048378,0.4708557-0.1017914,0.7075806-0.1457367c0.161438-0.0299759,0.319397-0.0710526,0.4772949-0.1150055
                                c0.2041016-0.0568161,0.4093628-0.1100769,0.6155396-0.1586838c0.8913879-0.2101746,1.7697144-0.466362,2.6427917-0.7418823
                                c0.2019348-0.0637283,0.4072876-0.1167068,0.611145-0.1743622c0.1946411-0.0550385,0.3890686-0.1108627,0.5841675-0.1642075
                                c0.1485596-0.0406113,0.2971802-0.0814896,0.4472351-0.1158066c0.2351685-0.0537949,0.4673462-0.1153183,0.6913757-0.206955
                                c0.1336365-0.0546646,0.2715149-0.0990677,0.4078064-0.1472015c0.2545166-0.0898895,0.5062866-0.1865311,0.7506714-0.3016663
                                c0.270752-0.1275558,0.550354-0.2325745,0.8370361-0.3177719c0.2498779-0.0742569,0.4922791-0.1671982,0.7314453-0.2704468
                                c0.2476196-0.1069107,0.4979858-0.20755,0.7471924-0.3108749c0.4541931-0.1883011,0.903595-0.3863678,1.3341064-0.625618
                                c0.3874817-0.215332,0.7836914-0.4140091,1.1784363-0.6158142c0.6347351-0.3244934,1.2704163-0.6484833,1.8724976-1.0333633
                                c0.2922974-0.186821,0.5950317-0.3571777,0.889801-0.5402222c0.3356934-0.2084656,0.6678162-0.4226303,1.0013428-0.6345978
                                c0.1464233-0.0930786,0.2915344-0.1882477,0.4388428-0.2799683c0.2130127-0.1326599,0.416626-0.2782211,0.6158142-0.4308395
                                c0.206543-0.1582565,0.415863-0.3131409,0.6282654-0.4634323c0.1972046-0.1395493,0.3869324-0.2869492,0.5597839-0.4562149
                                c0.1723938-0.1688385,0.3598328-0.3201141,0.5506287-0.467926c0.1751404-0.1356506,0.3424377-0.2814178,0.5127258-0.4232864
                                c0.1555176-0.1295624,0.3048096-0.2672882,0.4666138-0.3883896c0.4173279-0.312355,0.8123169-0.6513519,1.2055359-0.992569
                                c0.5393677-0.4679947,1.0506897-0.9650192,1.5413513-1.4839783c0.2383118-0.2520599,0.4898376-0.4916,0.7343445-0.7378464
                                c0.0814819-0.0820541,0.1637268-0.1639175,0.2386169-0.2518158c0.2501526-0.2935028,0.4986572-0.5884323,0.7447815-0.8853073
                                c0.1601562-0.1931686,0.3226013-0.3841858,0.504303-0.5573273c0.385498-0.3672867,0.7225952-0.7754364,1.032074-1.20755
                                c0.168396-0.2351379,0.3387756-0.4688644,0.5080566-0.7033768c0.033844-0.0469131,0.0680237-0.0936508,0.099762-0.1419678
                                c0.4605713-0.7007828,0.9386292-1.3900909,1.3841248-2.100769c0.0921326-0.146965,0.1773376-0.2982635,0.26828-0.4459763
                                c0.14151-0.2297592,0.286377-0.4574432,0.4275818-0.6873779c0.0906982-0.1477203,0.1809998-0.2959137,0.2651367-0.4474335
                                c0.1262817-0.2274399,0.2428284-0.4603348,0.3710327-0.6866455c0.1808472-0.319252,0.3434448-0.6463776,0.4738464-0.9897842
                                c0.1677856-0.4418259,0.3597412-0.8725433,0.5870361-1.2878494c0.1621399-0.2962799,0.2911682-0.6079941,0.3920593-0.9311066
                                c0.0891724-0.2855301,0.2036438-0.5609894,0.3294983-0.8325424c0.4073486-0.8787155,0.4076843-0.8788834,0.6920166-1.8057175
                                c0.0705261-0.2299881,0.128418-0.4642258,0.1829529-0.6986542c0.0677795-0.2914124,0.1477051-0.5782318,0.256897-0.8572922
                                c0.0701294-0.1792908,0.1311035-0.3623657,0.1915894-0.5452499c0.1395569-0.4219971,0.2355957-0.8540726,0.2939453-1.2947006
                                c0.0126648-0.0954742,0.0310669-0.1901779,0.0464478-0.2852936c0.0898132-0.5544434-0.0661926-1.029129-0.4642639-1.4242401
                                c-0.2199707-0.2183762-0.4665222-0.4030075-0.7291565-0.5668564c-0.2371216-0.1479263-0.4729004-0.2979965-0.7108154-0.4446182
                                c-0.1148071-0.0707474-0.2327576-0.1364059-0.3499756-0.2031708c-0.1507568-0.0858574-0.3034058-0.1684494-0.4530945-0.2560921
                                c-0.3506165-0.2052841-0.6782837-0.4418144-0.9737244-0.7218399c-0.1189575-0.1127548-0.2410583-0.2222404-0.3587341-0.3362885
                                c-0.0760803-0.0737228-0.1525269-0.1483688-0.2189026-0.2305946c-0.3876038-0.480175-0.7750244-0.9609337-1.0877991-1.4953423
                                c-0.0826111-0.1411324-0.1569519-0.2875824-0.2272949-0.4352913c-0.0993958-0.208744-0.1907349-0.4213066-0.2870789-0.6315346
                                c-0.1205444-0.2631226-0.2269897-0.5314751-0.3122864-0.8082848c-0.0794373-0.2577438-0.1617737-0.5145988-0.2438049-0.7715378
                                c-0.1914673-0.599678-0.2122192-1.2118988-0.1324158-1.8308258c0.0209045-0.1622314,0.0392151-0.3249626,0.0863647-0.483345
                                c0.0806885-0.2711563,0.2015991-0.5204887,0.3778076-0.7425079c0.1958618-0.246769,0.4346313-0.4372673,0.7309265-0.5490112
                                c0.1531372-0.0577469,0.3085632-0.1099396,0.4647827-0.1588249c0.222168-0.0695305,0.4505615-0.1027946,0.6837158-0.1013031
                                c0.0964355,0.000618,0.1928406-0.0000839,0.2892761,0.0006256c0.2958984,0.0021782,0.5695801,0.0834694,0.8270874,0.2274742
                                c0.272644,0.1524734,0.5105591,0.3467484,0.7071533,0.5886955c0.2559204,0.3149529,0.4837341,0.648716,0.6607056,1.0157623
                                c0.1715698,0.3558197,0.3461609,0.7101822,0.521759,1.0640259c0.0470276,0.0948105,0.101532,0.1860161,0.1546326,0.2777138
                                c0.0531006,0.0917549,0.1127625,0.1799011,0.1625671,0.2733536c0.24646,0.4624519,0.5643616,0.8751869,0.9025269,1.2711372
                                c0.3667908,0.4294739,0.8021851,0.7746773,1.3182983,1.0163841c0.3238831,0.1516914,0.6596069,0.2704201,0.9946899,0.3916359
                                c0.210022,0.0759811,0.4346313,0.0835915,0.6530151,0.1197739c0.1140137,0.0188904,0.2293396,0.0323944,0.344635,0.0401802
                                c0.1054077,0.0071182,0.2124634,0.0126038,0.3171387,0.0022812c0.2204895-0.0217476,0.4404297-0.0507355,0.6596375-0.0831413
                                c0.5918884-0.0874825,1.0959778-0.3533058,1.5255737-0.7646904c0.2876892-0.2755051,0.5270081-0.5919037,0.7183838-0.9385223
                                c0.2611694-0.4729385,0.5614014-0.9219055,0.8269348-1.3919907c0.2190552-0.3878212,0.5016479-0.7305336,0.7994995-1.0603065
                                c0.0387268-0.042881,0.0809326-0.0826836,0.122345-0.1230812c0.3275452-0.3195915,0.71875-0.5130501,1.1691284-0.588726
                                c0.0475464-0.0079842,0.0958862-0.0117455,0.1430054-0.0214806c0.2519226-0.0520134,0.5001831-0.0250626,0.7437744,0.0434036
                                c0.2701111,0.0759125,0.5255737,0.1893044,0.7676086,0.3316841c0.1255493,0.0738564,0.2355957,0.1670036,0.3330078,0.2754173
                                c0.1100159,0.122467,0.2073059,0.2543716,0.2852478,0.3991776c0.160675,0.2984962,0.2768555,0.6149025,0.3622131,0.9422112
                                c0.05896,0.2261467,0.0639648,0.4559441,0.0410461,0.6890068c-0.0387268,0.3940086-0.1112366,0.7818909-0.1861572,1.1699677
                                c-0.0475159,0.2462463-0.0961914,0.4909554-0.1795044,0.7286491c-0.1314392,0.3751068-0.3044128,0.7296524-0.5215149,1.0613403
                                c-0.2111206,0.3225441-0.4315491,0.63908-0.6510925,0.9560204c-0.0657349,0.0948906-0.1388245,0.1853142-0.2145996,0.2724953
                                c-0.1834717,0.2109985-0.3691406,0.4201126-0.5567322,0.6274529c-0.0775146,0.0856667-0.1595764,0.1676559-0.2440796,0.2464752
                                c-0.5443726,0.5077095-1.1266174,0.9674988-1.7617188,1.3564529c-0.2626343,0.1608429-0.5339661,0.3094711-0.8100281,0.4461212
                                c-0.7885742,0.3903427-1.3641357,0.9941483-1.7883606,1.7537003c-0.0851135,0.1523895-0.1408386,0.3169785-0.1808167,0.4863205
                                c-0.112915,0.4781723-0.2229919,0.957016-0.3361511,1.4351196c-0.0421448,0.1780472-0.0812988,0.35746-0.1363525,0.5316544
                                c-0.1829529,0.5787354-0.3721008,1.1555099-0.559845,1.7327271c-0.0327759,0.1007614-0.0688171,0.2005157-0.1056824,0.299881
                                c-0.1072998,0.2894287-0.2041321,0.5817337-0.2611389,0.8861084c-0.0141602,0.0755997-0.0363464,0.1498489-0.0576172,0.2239227
                                c-0.1196594,0.416687-0.2407532,0.8329391-0.3601074,1.2497101c-0.0744324,0.2599564-0.1664429,0.5133438-0.2824707,0.7574997
                                c-0.1448669,0.3048935-0.2695312,0.6179657-0.3931885,0.9319c-0.1836548,0.4663086-0.3880615,0.9236755-0.6160583,1.3705063
                                c-0.2408752,0.4720764-0.4747314,0.947731-0.7142334,1.4205246c-0.0652466,0.1288147-0.1387939,0.2534866-0.2102356,0.3790894
                                c-0.1191101,0.209404-0.2459717,0.4146347-0.3583679,0.6275406c-0.4823303,0.9137497-1.0294495,1.7869339-1.6291199,2.6278229
                                c-0.111908,0.156929-0.2170715,0.3186493-0.3260193,0.4776993c-0.119812,0.1749496-0.2404175,0.3493652-0.3607178,0.5239868
                                c-0.1421509,0.2063828-0.285675,0.4118423-0.4263,0.6192856c-0.2813416,0.4150238-0.5649414,0.8276596-0.8883972,1.2124634
                                c-0.2480469,0.2950287-0.47995,0.6036606-0.7173462,0.9075546c-0.1663513,0.2129288-0.3358459,0.4232178-0.5289001,0.6126175
                                c-0.3033142,0.2975922-0.5796814,0.6194382-0.8558655,0.9414444c-0.2950134,0.3439713-0.5802917,0.6965408-0.8825989,1.0338745
                                c-0.3215942,0.3588486-0.6557312,0.706604-0.9897461,1.0540466c-0.099762,0.1037521-0.213623,0.1952515-0.3278198,0.2835312
                                c-0.2292786,0.1771927-0.4477234,0.3661194-0.6525879,0.5709229c-0.2658997,0.2658463-0.5325012,0.5309906-0.7978516,0.7973862
                                c-0.3132935,0.3145599-0.640564,0.6136246-0.9893494,0.8884659c-0.1819153,0.1433411-0.3595581,0.291214-0.5252991,0.4532242
                                c-0.2628784,0.2569809-0.5527954,0.4799194-0.8571472,0.6855087c-0.1835938,0.1240463-0.3641663,0.2529831-0.5414429,0.3859482
                                c-0.285553,0.2141495-0.5756226,0.4213943-0.8778992,0.6112976c-0.3839722,0.2411957-0.755249,0.500412-1.1157837,0.7754898
                                c-0.1992493,0.1520081-0.4016418,0.3002014-0.6075134,0.4430466c-0.150238,0.1042557-0.3053284,0.2024689-0.4637451,0.293869
                                c-0.5759888,0.3323669-1.1541443,0.6610184-1.731781,0.9904861c-0.2762756,0.1575699-0.554657,0.3115387-0.8295288,0.4714584
                                c-0.2332153,0.1356583-0.4660034,0.2725372-0.6933594,0.4176331c-0.5380554,0.3433304-1.0976868,0.6413345-1.7019958,0.8528366
                                c-0.3367615,0.1178741-0.6634827,0.2606659-0.9796448,0.4271545c-0.1964722,0.1034622-0.4009705,0.1887665-0.6137695,0.2532654
                                c-0.3419189,0.1036148-0.6726379,0.2359467-0.9960938,0.3871155c-0.2359009,0.1102448-0.4769287,0.2071686-0.7250366,0.2874069
                                c-0.1372681,0.0444107-0.2724915,0.0968781-0.4048157,0.1545105c-0.2831116,0.1233063-0.5739441,0.2247543-0.8658447,0.3245087
                                c-0.6663818,0.2277527-1.348999,0.3972015-2.0302429,0.5718231c-0.1026611,0.0263062-0.2064819,0.0480423-0.3091125,0.0744324
                                c-0.2427368,0.0624008-0.4873962,0.1224365-0.7140198,0.2311401c-0.4555969,0.2185135-0.9360962,0.3532639-1.4295959,0.4499435
                                c-0.4447632,0.0871124-0.8833313,0.1983871-1.3147888,0.3384933c-0.1738586,0.0564423-0.3529358,0.0966797-0.5296936,0.1442261
                                c-0.2604065,0.0700531-0.5220947,0.135788-0.7810059,0.2111053c-0.3713379,0.1080399-0.7514038,0.1701736-1.1322632,0.2299194
                                c-0.1046753,0.0164261-0.2090149,0.035141-0.3139038,0.0500259c-0.2193604,0.0311508-0.4377136,0.0671463-0.6594238,0.0840225
                                c-0.2399292,0.0182571-0.479187,0.0515518-0.7170715,0.088913c-0.4198303,0.0659256-0.8425293,0.0960083-1.2662048,0.1183624
                                c-0.2888184,0.0152435-0.5775757,0.0319824-0.8664246,0.0471725c-0.4335938,0.0227966-0.8670349,0.0338058-1.3004761-0.0064392
                                c-0.2019348-0.0187531-0.4043274-0.0140991-0.6065063,0.0030365c-0.2696838,0.0228424-0.538147,0.0195541-0.8080139-0.0126572
                                c-0.2968445-0.0354309-0.5963135-0.040535-0.8954468-0.029007c-0.3472595,0.013382-0.6931763,0.0030289-1.0400696-0.024498
                                c-0.3559265-0.028244-0.710144-0.0641479-1.062439-0.1211395c-0.0474854-0.0076675-0.0957947-0.0107803-0.1438599-0.0141602
                                c-0.3173523-0.0222778-0.6349792-0.0411072-0.9520569-0.0668869c-0.2689514-0.0218658-0.5371704-0.0526123-0.8059082-0.0772934
                                c-0.1247864-0.011467-0.2499084-0.0215073-0.3750916-0.0259018c-0.4729614-0.0166245-0.9407959-0.0838089-1.4092407-0.1430283
                                c-0.5258179-0.0664749-1.0502014-0.1441269-1.5756531-0.2132874c-0.3824768-0.0503235-0.7598572-0.1289978-1.13974-0.193718
                                c-0.8559875-0.1458435-1.6935425-0.3714066-2.5361633-0.5754852c-0.2246704-0.0544128-0.4504089-0.1046448-0.6760254-0.1551437
                                c-0.2448425-0.0548096-0.4855652-0.1222229-0.7185364-0.2168579c-0.2054138-0.0834274-0.4157715-0.1519775-0.6296387-0.2119217
                                c-0.1851807-0.0519333-0.3673401-0.1161041-0.5479126-0.1828156c-0.1990356-0.0735245-0.3987427-0.1438293-0.6038513-0.1982498
                                c-0.196106-0.0520477-0.3846741-0.1238861-0.5698853-0.2067566c-0.1405334-0.0628738-0.2836609-0.1215363-0.4294739-0.1706619
                                c-0.5667114-0.1909103-1.1195068-0.4170456-1.6679993-0.6538239c-0.4513245-0.1948242-0.9034424-0.3868027-1.3717346-0.5383682
                                c-0.1927185-0.0623856-0.3778381-0.1438599-0.5605164-0.2318649c-0.1560669-0.0752106-0.3147278-0.1461182-0.4761353-0.2089233
                                c-0.171051-0.0665741-0.3374329-0.1413651-0.4986572-0.2288055c-0.3305359-0.1792374-0.666626-0.3471146-1.0120239-0.4962387
                                c-0.2038574-0.0880203-0.3978271-0.1947327-0.5852051-0.3143311c-0.1705933-0.1088715-0.3454285-0.2110367-0.5180664-0.3167038
                                c-0.123291-0.0754852-0.2464294-0.1512527-0.368988-0.227951c-0.2940979-0.184082-0.5844421-0.3745041-0.8824158-0.5520706
                                c-0.6217346-0.3704834-1.2214355-0.7731934-1.8051758-1.2006989c-0.2098389-0.1536636-0.4267578-0.2981415-0.6452332-0.439415
                                c-0.2112427-0.1365891-0.4120789-0.2851028-0.5943604-0.4586029c-0.230896-0.2197876-0.4759216-0.4218597-0.7416992-0.5988846
                                c-0.0880127-0.0586319-0.1696472-0.1271439-0.2521973-0.193634c-0.2779846-0.2238922-0.5588989-0.4430771-0.8704529-0.6202164
                                c-0.1940918-0.1103439-0.3625793-0.2552719-0.5190735-0.4132385c-0.1634827-0.1650543-0.3388367-0.314537-0.5335083-0.4418259
                                c-0.1214905-0.0794373-0.23172-0.1737595-0.3286133-0.2818146c-0.1362305-0.1519394-0.2966309-0.2738419-0.4598999-0.3945007
                                c-0.1781006-0.1316299-0.3546448-0.2669373-0.5198364-0.4141388c-0.3815002-0.33992-0.756012-0.6876678-1.132782-1.0328903
                                c-0.2990112-0.2739792-0.5755615-0.5695953-0.8374023-0.8789902c-0.105896-0.1250992-0.2122498-0.2500534-0.3125-0.3796158
                                c-0.3600769-0.4652786-0.7359314-0.9175034-1.1192322-1.3636246c-0.1193848-0.1389389-0.2384338-0.2783127-0.3622742-0.4132233
                                c-0.1633606-0.1779785-0.3115845-0.367363-0.4513855-0.5641708c-0.1451111-0.2043076-0.2937317-0.4061813-0.4428406-0.6076126
                                c-0.3041077-0.41082-0.5933533-0.831665-0.8662415-1.2639771c-0.1285706-0.2037125-0.2636719-0.4034119-0.3997192-0.6022568
                                c-0.1581116-0.2310638-0.3045044-0.4689331-0.4304504-0.718956c-0.1259766-0.250145-0.2742615-0.4866791-0.4255981-0.7219315
                                c-0.5375977-0.8357162-1.0317078-1.6958466-1.4519958-2.5973663c-0.0813904-0.1745529-0.1703796-0.3457718-0.261322-0.5155869
                                c-0.2367554-0.4420395-0.4513855-0.8946686-0.6544495-1.3528976c-0.125-0.2821045-0.2304993-0.5716095-0.3311157-0.8632812
                                c-0.1256409-0.3642654-0.2592468-0.7257767-0.3893738-1.0884857c-0.1366272-0.3808517-0.2778625-0.7601547-0.4076538-1.1433182
                                c-0.0554199-0.1636887-0.0874939-0.3353348-0.1292114-0.5036163c-0.0278015-0.1121826-0.0502319-0.2258301-0.0812988-0.3370743
                                c-0.1243591-0.4453354-0.2507629-0.8901062-0.3771973-1.3348541c-0.0658569-0.2316589-0.1311035-0.4635544-0.2007446-0.6940842
                                c-0.0977478-0.3235703-0.170166-0.6520538-0.2162476-0.9871292c-0.0486145-0.3536835-0.1204529-0.7023544-0.2413025-1.0400696
                                c-0.0485535-0.1356659-0.0900574-0.2751465-0.1196594-0.4160614c-0.0930786-0.442955-0.2049255-0.8819885-0.269043-1.3311234
                                c-0.0421753-0.2955322-0.0979614-0.5891876-0.1507874-0.8831177c-0.0409241-0.2275772-0.0868225-0.4542618-0.130188-0.6814041
                                c-0.0415344-0.2175827-0.0773315-0.4364471-0.1259155-0.6524506c-0.0316162-0.1405182-0.0734558-0.2800217-0.1249084-0.4145432
                                c-0.1407166-0.3678741-0.3904266-0.637764-0.7509918-0.8012085c-0.0877228-0.0397797-0.176239-0.0781784-0.2659607-0.1131973
                                c-0.2790527-0.1089096-0.5465698-0.2414665-0.8042297-0.3935432c-0.3903656-0.2304153-0.7902069-0.4431152-1.1966095-0.6434288
                                c-0.3297729-0.1625404-0.6387787-0.3578186-0.9337463-0.5763741c-0.1704254-0.1262589-0.3417511-0.251297-0.5125885-0.3769684
                                c-0.3813934-0.2805405-0.7400208-0.5871696-1.0670013-0.9301414c-0.119751-0.1256027-0.2401886-0.2505569-0.3600006-0.3761024
                                c-0.1537933-0.1611519-0.2893677-0.3364105-0.3971252-0.5315475c-0.1076355-0.1949348-0.2328644-0.3772354-0.3768005-0.546772
                                c-0.3112793-0.3666687-0.5089111-0.7953415-0.6546936-1.2465515c-0.1065216-0.3297577-0.1806335-0.6699753-0.2116394-1.0171623
                                c-0.0077209-0.0862808-0.0170135-0.1732483-0.0140533-0.2595062c0.0119324-0.3474007,0.0499725-0.6915245,0.1348419-1.0298576
                                c0.06633-0.2644157,0.1762238-0.5092583,0.3163757-0.7415733c0.1634674-0.2709236,0.3852386-0.4803467,0.6677094-0.6232529
                                c0.3813934-0.1929588,0.7845764-0.3212585,1.206665-0.3848877c0.2516174-0.0379295,0.4985809-0.0075684,0.7404327,0.077507
                                c0.4426575,0.1557198,0.8396454,0.3830032,1.1793671,0.7103043c0.2444763,0.2355232,0.4604492,0.4932747,0.6431732,0.7785721
                                c0.1507568,0.2353783,0.2966461,0.4738731,0.4440765,0.7113647c0.0304871,0.049118,0.0596008,0.0991859,0.0871582,0.1500053
                                c0.2422791,0.4467735,0.5735016,0.8193703,0.9530792,1.15308c0.1825714,0.1605148,0.381424,0.2930298,0.6022797,0.3945236
                                c0.3608856,0.1658325,0.7332764,0.2925911,1.1274414,0.3520393c0.1237488,0.0186615,0.2471924,0.042347,0.3687134,0.0721512
                                c0.283905,0.0696335,0.5692444,0.0926704,0.8604126,0.0565033c0.1719666-0.0213547,0.3455505-0.025383,0.5171509-0.0562935
                                c0.1723328-0.0310287,0.3376465-0.0804176,0.4955444-0.1533546c0.5853271-0.2704163,1.0974731-0.6361732,1.5140076-1.1352577
                                c0.3043213-0.3646317,0.5756226-0.7478561,0.7805786-1.1774101c0.1036987-0.217392,0.2155457-0.4309311,0.3249207-0.6455956
                                c0.1270447-0.2493095,0.2663879-0.4914665,0.4247742-0.7223969c0.2366028-0.3450279,0.5184631-0.6450844,0.8630981-0.8857803
                                c0.3666992-0.2560997,0.7731934-0.3860474,1.2180176-0.4004936c0.2716064-0.0088272,0.5385437,0.0219193,0.7997437,0.1004181
                                c0.4568176,0.137291,0.8287048,0.4053383,1.1462097,0.7522163c0.4093933,0.4472694,0.6402283,0.9788628,0.7308044,1.576313
                                c0.045105,0.2976341,0.0506287,0.5946999,0.0262146,0.8937836c-0.0251465,0.3078461-0.0614319,0.6137352-0.1428833,0.9126282
                                c-0.0151672,0.0557327-0.0304565,0.1115456-0.0487366,0.1663055c-0.214447,0.6422729-0.4916687,1.2557907-0.844696,1.8341751
                                c-0.0502014,0.0821991-0.1043396,0.1622353-0.1607361,0.2403259c-0.3787537,0.5244217-0.7847595,1.0255203-1.2456665,1.4814529
                                c-0.2402344,0.2376518-0.4903259,0.4625931-0.7512207,0.677475c-0.4914246,0.404747-0.9631042,0.8313866-1.3956299,1.3002853
                                c-0.2554016,0.2769089-0.4187012,0.5979996-0.4946899,0.9648514c-0.0155945,0.0751877-0.0265503,0.1520538-0.0309753,0.228653
                                c-0.0066833,0.1154175-0.0074158,0.2312698-0.007782,0.3469467c-0.0009155,0.3085098,0.0042419,0.6171112-0.0016174,0.9255219
                                c-0.0055237,0.2914352,0.0345459,0.5766449,0.0934448,0.8603897c0.06073,0.2923279,0.1393738,0.5812225,0.1679993,0.8796997
                                c0.0064392,0.0671539,0.0196228,0.1340103,0.0213318,0.2012177c0.0104065,0.408638,0.1105042,0.8005829,0.2174988,1.1914062
                                c0.0076294,0.0278778,0.0144348,0.0561218,0.0242615,0.0832367c0.1322632,0.3649216,0.2048035,0.7417526,0.2357483,1.1282806
                                c0.0146484,0.1831512,0.072937,0.3582382,0.1261597,0.5335999c0.0615234,0.202713,0.1213379,0.4059525,0.1801758,0.6094437
                                c0.0160217,0.0554199,0.0273132,0.1123123,0.0384521,0.1689835c0.0578308,0.2939529,0.1423645,0.5799637,0.2534485,0.8581085
                                c0.1001282,0.2506943,0.1920166,0.5041504,0.2656555,0.7641068c0.0209656,0.0740509,0.0445557,0.1478882,0.0739136,0.2189636
                                c0.1654358,0.4006729,0.3339844,0.8000565,0.4995422,1.2006836c0.1619263,0.3917618,0.3236694,0.7836227,0.4815369,1.1770172
                                c0.1652527,0.4117432,0.3349609,0.8207703,0.5710754,1.1988525c0.0662537,0.1060562,0.1205444,0.2195358,0.1813354,0.3290634
                                c0.0935059,0.1685257,0.1879272,0.3365479,0.2818298,0.5048523c0.0798035,0.1430283,0.1608276,0.2853928,0.2388611,0.4293747
                                c0.2068481,0.3816376,0.4303589,0.7530746,0.6752014,1.1115875c0.0380554,0.0557251,0.079895,0.109169,0.1143494,0.1670151
                                c0.2815247,0.4726181,0.6091919,0.9144135,0.9138184,1.3715897c0.2247925,0.3373108,0.4774475,0.6539993,0.7294312,0.9708481
                                c0.1562805,0.1964951,0.3387146,0.3694077,0.5223999,0.5401688c0.0776672,0.0722198,0.158905,0.1403961,0.2543945,0.1893616
                                c0.0534058,0.0273743,0.1094666,0.0357361,0.1680908,0.0286942c0.0503845-0.0060577,0.0948792-0.0293808,0.1184082-0.0731888
                                c0.0269775-0.0501785,0.0502319-0.1045456,0.0623779-0.1598816c0.0122375-0.055748,0.0137024-0.1151276,0.0115051-0.1725845
                                c-0.0149841-0.3874741,0.046051-0.7691422,0.0849609-1.1525269c0.0330505-0.326004,0.0673218-0.6518936,0.0967712-0.9782257
                                c0.0320435-0.355423,0.0832825-0.7082291,0.133667-1.0612717c0.0149536-0.1047974,0.0291443-0.2105103,0.0318604-0.3161087
                                c0.0055237-0.2130356,0.0430603-0.4218292,0.072998-0.6316147c0.028595-0.2002792,0.0667725-0.3992691,0.0920105-0.5999146
                                c0.0205078-0.1633453,0.0545044-0.323143,0.0997925-0.4806519c0.0771484-0.2684555,0.1582336-0.5357895,0.2362671-0.8040009
                                c0.0511169-0.1757355,0.1002808-0.3520355,0.1494141-0.5283508c0.1500854-0.5385437,0.3184814-1.0713959,0.514679-1.5948181
                                c0.0674438-0.1798782,0.149292-0.3558502,0.2405396-0.5249786c0.2106323-0.3903961,0.4069519-0.7868652,0.5870056-1.1926117
                                c0.2238159-0.5044632,0.5148926-0.9693222,0.8744812-1.390686c0.3004761-0.3521423,0.6039429-0.7013092,0.9225769-1.0372925
                                c0.3869629-0.4079971,0.8146973-0.7652893,1.2964478-1.0565033c0.2887268-0.1745148,0.5776672-0.3486481,0.8674927-0.521347
                                c0.0827332-0.0493011,0.1667175-0.0973358,0.2536621-0.1385422c0.4005127-0.1898193,0.8010864-0.3795929,1.2039185-0.5643921
                                c0.3519592-0.1614761,0.7254944-0.2588959,1.099823-0.351181c0.4029236-0.0993271,0.8110962-0.1727219,1.2244873-0.2079544
                                c0.1914062-0.0163116,0.3856812-0.016449,0.5776062-0.0053711c0.3560181,0.0205536,0.7121582,0.0461884,1.0665588,0.0851746
                                c0.5758972,0.0633316,1.1410217,0.1850433,1.6948547,0.3551331c0.2767334,0.0849991,0.5415649,0.2019806,0.8009949,0.3300934
                                c0.2419434,0.1194687,0.484375,0.2382736,0.7224426,0.3651962c0.4435425,0.2364731,0.8609619,0.5114517,1.2427673,0.8409729
                                c0.3948975,0.3408279,0.7691956,0.701416,1.1130981,1.0937576c0.3131409,0.3572388,0.5718079,0.7473984,0.7798157,1.1767807
                                c0.2690125,0.555275,0.5281372,1.114502,0.7698975,1.6819382c0.1474304,0.3460312,0.2775269,0.6980133,0.3747559,1.0620956
                                c0.0969238,0.3629913,0.2001648,0.7243042,0.3019409,1.0859833c0.0838318,0.298027,0.1383667,0.6006241,0.1530151,0.910347
                                c0.0040588,0.0865326,0.0176086,0.1725693,0.0245667,0.2590179c0.0278625,0.3468246,0.1069946,0.6852417,0.1677551,1.0266495
                                c0.0592651,0.3330002,0.0994873,0.6667633,0.0767517,1.0063705c-0.0232544,0.3474274,0.0065613,0.6940002,0.0359802,1.0396652
                                C289.1697083,79.9876862,289.1783142,80.2954407,289.1608276,80.6039124z M275.7216187,86.721756
                                c-0.0008545,0.0000229-0.0016785,0.0000458-0.002533,0.0000687c0.0049744,0.2022171,0.0223694,0.405098,0.0117798,0.6064911
                                c-0.0137024,0.2609787,0.0057983,0.5197525,0.0157471,0.7795486c0.018158,0.4729538,0.0818176,0.939003,0.1729431,1.4035645
                                c0.08078,0.4119415,0.2326355,0.793541,0.4290466,1.1601257c0.0820312,0.1531067,0.1860046,0.2922516,0.2952271,0.4275513
                                c0.2828064,0.3502426,0.6502991,0.5730362,1.078125,0.6897202c0.6587524,0.1796646,1.1416321-0.1427002,1.3945312-0.5566025
                                c0.0449524-0.0736084,0.0810852-0.1531067,0.1163025-0.2321091c0.0871277-0.1953201,0.1387329-0.4025879,0.1572571-0.6134033
                                c0.0328979-0.3740616,0.0560913-0.7491455,0.0423584-1.1256409c-0.0133362-0.3658371-0.0222473-0.7319183-0.0265503-1.0979767
                                c-0.0036316-0.3082886,0.0106812-0.6169281,0.0021057-0.9249878c-0.0203857-0.7324905,0.0080566-1.4645462,0.0092773-2.1968079
                                c0.0001221-0.0673523,0.0064087-0.1347046,0.0099792-0.2020569c0.009613-0.1827927,0.0257263-0.3655167,0.0275879-0.548378
                                c0.003418-0.3384705,0.0474548-0.6723251,0.099823-1.0054855c0.043396-0.2758942,0.0917053-0.5509949,0.1354675-0.826828
                                c0.0573425-0.3615494,0.1195374-0.7222977,0.2135315-1.0762558c0.0864563-0.3256531,0.1820679-0.6488724,0.2730408-0.9733276
                                c0.0988464-0.3524933,0.1915283-0.7059555,0.2298889-1.0718842c0.0307312-0.2928391,0.0019836-0.5800018-0.0934753-0.8550949
                                c-0.184021-0.530426-0.5368042-0.9049377-1.0704346-1.0987778c-0.3640442-0.1322327-0.7176819-0.1073456-1.0639343,0.065834
                                c-0.2730103,0.136528-0.5021667,0.3240356-0.6728821,0.5765686c-0.0914612,0.1352539-0.1762085,0.2767563-0.2477722,0.4233551
                                c-0.1393433,0.2854843-0.2756348,0.5730896-0.3973999,0.8663559c-0.103241,0.2486267-0.1965637,0.5028381-0.272583,0.7609634
                                c-0.1686401,0.5726013-0.323822,1.149086-0.4668884,1.7288666c-0.1483154,0.6011963-0.2230835,1.2111511-0.2516785,1.8287201
                                c-0.0178223,0.3848953-0.0448303,0.7695236-0.0759277,1.1536102c-0.0419922,0.5187759-0.0799866,1.0374374-0.0722351,1.5584335
                                C275.7232056,86.4711761,275.7216187,86.5964737,275.7216187,86.721756z"></path>
                            <path d="M323.3261414,32.0587692c0.0016785,0.132576,0.0039368,0.3402328,0.0071716,0.5478821
                                c0.0010071,0.0661011,0.0001221,0.1326714,0.0076904,0.1981544c0.0402527,0.3485184,0.035614,0.6980591,0.0260315,1.0476303
                                c-0.0144958,0.5292625-0.0125122,1.0589752,0.0206909,1.5867767c0.0273438,0.4349823,0.0368652,0.8667297-0.0041809,1.3012962
                                c-0.0311279,0.329277-0.0175476,0.6610794,0.0027161,0.9913139c0.0232544,0.3786697,0.002533,0.7549477-0.0369263,1.1316261
                                c-0.0196228,0.1874695-0.0240173,0.3769417-0.0271606,0.5656433c-0.0037537,0.2269516-0.0122986,0.4523277-0.0498962,0.6773529
                                c-0.0559998,0.3352509-0.1004639,0.672451-0.1481323,1.0090561c-0.0119324,0.0840721-0.0232239,0.1689301-0.0249634,0.2536278
                                c-0.0085144,0.4170685-0.0751953,0.8273315-0.1382446,1.2381935c-0.0300903,0.1960144-0.0653687,0.3918533-0.0822449,0.5891418
                                c-0.0403442,0.471489-0.1304932,0.9351654-0.2054138,1.4012871c-0.0224915,0.1398239-0.0391541,0.2808189-0.0677185,0.4193726
                                c-0.0724792,0.3512993-0.1477661,0.7020569-0.2266235,1.0519791c-0.0518799,0.2303162-0.1039124,0.4602318-0.1439819,0.6931801
                                c-0.0271301,0.1577148-0.0648193,0.3151321-0.1147156,0.4671364c-0.164978,0.5028763-0.2971191,1.0145721-0.4286194,1.5267372
                                c-0.0610046,0.2376137-0.125885,0.4748192-0.2033081,0.7074585c-0.0806885,0.2424889-0.1496277,0.4875526-0.2015686,0.7371941
                                c-0.0618896,0.2975731-0.1574707,0.582634-0.2888794,0.8566399c-0.0734863,0.153183-0.1481323,0.3067284-0.2073669,0.4656487
                                c-0.1954956,0.5243988-0.4642944,1.0123405-0.7336731,1.500164c-0.0730591,0.1322746-0.1535034,0.2604599-0.2266541,0.3926811
                                c-0.1928711,0.3486443-0.4229736,0.6712456-0.6809387,0.9740028c-0.1715698,0.2013588-0.3468323,0.3996162-0.5228577,0.5971146
                                c-0.1260071,0.1413994-0.2676086,0.2665787-0.4161072,0.3840828c-0.1778564,0.1407013-0.3569641,0.2799187-0.5314636,0.4246712
                                c-0.2280884,0.1892242-0.4804077,0.3368988-0.7597656,0.431736c-0.3127747,0.1061974-0.6290894,0.2026749-0.9465027,0.2942886
                                c-0.2741394,0.0791283-0.5573425,0.1083946-0.8416443,0.0929031c-0.5386047-0.0293503-1.072876-0.0913429-1.5890503-0.2606087
                                c-0.0986938-0.0323639-0.1974182-0.0646553-0.2969055-0.0944099c-0.1730957-0.0517769-0.3347168-0.128273-0.4899902-0.2196884
                                c-0.1790466-0.1054268-0.3583374-0.2105179-0.5386047-0.3138733c-0.1807861-0.1036415-0.3527527-0.2199669-0.513855-0.3519325
                                c-0.5198059-0.4257622-1.0174255-0.8746758-1.4499817-1.3914833c-0.0848999-0.1014252-0.1737976-0.1994705-0.2604675-0.2994232
                                c-0.1866455-0.2152634-0.344574-0.4499626-0.4697876-0.7058678c-0.1413269-0.2888336-0.3061218-0.5637627-0.4720154-0.8390846
                                c-0.3713989-0.6164017-0.6912231-1.2570915-0.878418-1.95784c-0.0583191-0.2183838-0.1397705-0.4308548-0.2159424-0.6441422
                                c-0.0889282-0.249115-0.1723328-0.4993706-0.2378845-0.7561111c-0.0677185-0.2651672-0.1428223-0.5287628-0.2244873-0.7899933
                                c-0.1947327-0.6228828-0.3395996-1.257019-0.4578552-1.89851c-0.0701904-0.3808861-0.1352844-0.7623405-0.192627-1.1452446
                                c-0.0097961-0.0653572-0.0196838-0.130825-0.0258484-0.1965866c-0.0351868-0.3763771-0.0897827-0.7501335-0.1464233-1.1237373
                                c-0.0411072-0.2710152-0.0672607-0.543232-0.0680847-0.8182716c-0.0012817-0.4156952-0.004303-0.8316269-0.019928-1.2469559
                                c-0.0106201-0.2828751-0.0411072-0.5651779-0.0682678-0.8472023c-0.021759-0.2255821-0.0541382-0.4501266-0.0777283-0.6755562
                                c-0.0284729-0.2724609-0.0514526-0.5454979-0.0791321-0.8180504c-0.019104-0.187851-0.0472107-0.3749046-0.0617676-0.5630493
                                c-0.0101929-0.1314812-0.0098267-0.2644196-0.0045166-0.3963165c0.0114441-0.2836227,0.006073-0.5667038-0.0088196-0.8499718
                                c-0.0049438-0.0939903-0.0041809-0.1886711,0.0005188-0.2827034c0.0136719-0.2736816,0.0300598-0.5472336,0.0465698-0.8207626
                                c0.0159607-0.2643547,0.0153503-0.5285454,0.0031738-0.7931099c-0.0064697-0.141449-0.0079041-0.283638-0.0018311-0.4250755
                                c0.0238037-0.5568581,0.0515442-1.1135483,0.0777893-1.6703033c0.0035706-0.0755119,0.0071411-0.1510201,0.0104065-0.2265472
                                c0.0212402-0.4907722,0.0421143-0.9815598,0.0639343-1.4723091c0.0033569-0.0754471,0.0069885-0.1512794,0.0175171-0.2259426
                                c0.0422974-0.2998505,0.0635681-0.6011753,0.070282-0.9037189c0.0004272-0.0188789,0.0030823-0.0377235,0.0032043-0.0565929
                                c0.0038147-0.5591049,0.0840759-1.1105461,0.1612549-1.6626759c0.0326233-0.2336521,0.0522461-0.4696178,0.0664062-0.7052174
                                c0.0131226-0.2180061,0.0489807-0.4317951,0.0951233-0.6439819c0.0704041-0.323595,0.1198425-0.6498413,0.1494751-0.979599
                                c0.0101013-0.112627,0.0299988-0.2246227,0.0501404-0.3360558c0.0772705-0.4272594,0.1242676-0.8599548,0.2329712-1.2815838
                                c0.1013489-0.3931408,0.1991882-0.7871914,0.3002014-1.1804237c0.0728455-0.2836494,0.1560669-0.5642014,0.2638245-0.8369007
                                c0.0696411-0.1762962,0.1235962-0.3582115,0.1553345-0.5440254c0.0593872-0.3479271,0.1827393-0.673605,0.3216248-0.9947701
                                c0.0524597-0.1213131,0.1103516-0.2403336,0.1677551-0.3594475c0.1598511-0.3317757,0.3196106-0.663414,0.4597778-1.0043736
                                c0.1006775-0.2448807,0.2255859-0.4782696,0.3677673-0.701992c0.1114807-0.1754074,0.2242737-0.3499851,0.3347473-0.5260315
                                c0.1764526-0.2812443,0.3831482-0.5382977,0.6105347-0.7798386c0.1618652-0.1719189,0.3222351-0.3455715,0.4762268-0.5244999
                                c0.2243652-0.2606812,0.4834595-0.4771862,0.7820435-0.6472759c0.1395264-0.079483,0.2779541-0.1608944,0.4172668-0.2408009
                                c0.1645203-0.0943871,0.3368225-0.169241,0.5207825-0.2187614c0.3647156-0.0981655,0.7269897-0.2047138,1.0846252-0.3267937
                                c0.3563232-0.1216211,0.7237854-0.1264,1.0931702-0.090044c0.150238,0.0147848,0.2991028,0.0431261,0.4489136,0.0627937
                                c0.1029358,0.0135155,0.2061768,0.0271053,0.3097229,0.0330982c0.4773865,0.0276279,0.9324646,0.1402512,1.3637695,0.3479443
                                c0.212677,0.1024189,0.426178,0.2031937,0.6396484,0.3039742c0.5276184,0.2490921,0.9804077,0.6018963,1.3956909,1.0066433
                                c0.0405884,0.0395641,0.0814209,0.0790787,0.1195374,0.1209869c0.4004517,0.4404068,0.799408,0.8821392,1.177948,1.3418102
                                c0.1808472,0.2195702,0.3355713,0.4558163,0.4718323,0.7055569c0.1492615,0.2735882,0.3019409,0.5455189,0.4613647,0.8132877
                                c0.1599121,0.2686329,0.2991638,0.5469589,0.4169006,0.8358994c0.1211243,0.2972984,0.2384644,0.5962029,0.3531494,0.8960476
                                c0.1383972,0.3617725,0.2593384,0.729187,0.3529968,1.1055927c0.0524292,0.210659,0.1194763,0.4176559,0.1731873,0.6280308
                                c0.0536499,0.2102795,0.1012268,0.4222031,0.1469421,0.6343899c0.0278015,0.1291466,0.0401306,0.2618294,0.0713806,0.3899994
                                c0.0806885,0.3306885,0.1329346,0.6667137,0.1955872,1.0007534c0.0260925,0.1391468,0.0454407,0.2797756,0.0622864,0.4203968
                                c0.038269,0.3187408,0.0870361,0.6362553,0.0957031,0.9582901c0.0093994,0.3498344,0.0496216,0.6974297,0.1068115,1.0423431
                                c0.0773926,0.4668236,0.1086426,0.9380646,0.1481934,1.408617c0.02771,0.3295097,0.0558167,0.6589928,0.0814209,0.9886665
                                c0.0095215,0.1222916,0.0200806,0.2453175,0.016571,0.3676205
                                C323.2887573,31.5696411,323.2955017,31.7768135,323.3261414,32.0587692z M318.7063599,30.0201569
                                c0.0023193,0.0000648,0.0046387,0.0001335,0.006958,0.0001984c0-0.1605988,0.0021057-0.3212299-0.0004272-0.4817905
                                c-0.006073-0.3873291-0.0131226-0.7746525-0.0220947-1.1619263c-0.0076904-0.330616-0.0132751-0.6614227-0.0298767-0.9916363
                                c-0.0109253-0.2168064-0.0287781-0.4344463-0.0625916-0.6487064c-0.1238708-0.7850361-0.308197-1.5556183-0.5671997-2.3080349
                                c-0.1701965-0.4944344-0.4616699-0.9067116-0.8371277-1.2632027c-0.322998-0.3066959-0.7054443-0.4598598-1.1556091-0.4535923
                                c-0.2633057,0.0036659-0.5038147,0.0663376-0.7273254,0.2013435c-0.3213196,0.1940708-0.5871277,0.4448605-0.7731934,0.7732887
                                c-0.252655,0.445919-0.4487,0.9151363-0.5716858,1.4138947c-0.1154175,0.4679813-0.2124939,0.9393406-0.2741394,1.4177322
                                c-0.0482788,0.374752-0.1049194,0.7484131-0.1081238,1.1276913c-0.0052795,0.6236534-0.0149231,1.2472687-0.0209045,1.8709202
                                c-0.0020142,0.2080727-0.0098572,0.4149952-0.0375366,0.6219101c-0.0325623,0.2435589-0.046936,0.489069-0.0372925,0.7353821
                                c0.0118103,0.3021297,0.0218201,0.6043224,0.0335083,0.906456c0.0040283,0.1038303,0.0076904,0.2078209,0.0167236,0.311285
                                c0.0296021,0.338829,0.0614624,0.6774597,0.0927734,1.0161324c0.003479,0.0376167,0.0079346,0.0752068,0.0137634,0.1125298
                                c0.0362549,0.2333145,0.0700684,0.4670715,0.1107788,0.6996155c0.026001,0.1486435,0.0518494,0.2987366,0.0962219,0.442482
                                c0.1393433,0.4514275,0.2998657,0.8954544,0.4988403,1.3246994c0.0956116,0.2062492,0.2086182,0.4023247,0.3401794,0.5878639
                                c0.127594,0.1799355,0.2858276,0.3267899,0.4732361,0.4421158c0.1939697,0.1193657,0.3999329,0.2140198,0.6168518,0.2826843
                                c0.1910706,0.0604858,0.3868713,0.0867691,0.5874939,0.0564194c0.3274841-0.0495453,0.6126404-0.1853294,0.851532-0.4160919
                                c0.1502686-0.1451569,0.2820435-0.3055344,0.3919983-0.4831276c0.074585-0.1204529,0.1454773-0.2431984,0.217926-0.3649788
                                c0.2044373-0.3436241,0.3500366-0.711525,0.4451294-1.0989952c0.0675354-0.2750969,0.1274719-0.552063,0.190033-0.8283615
                                c0.0125122-0.0552063,0.0258789-0.1107292,0.0317078-0.1668472c0.0361328-0.347683,0.0823059-0.6948929,0.1021423-1.0435677
                                c0.0300903-0.5281296,0.0629272-1.0562935,0.066925-1.5858955
                                C318.6686096,30.718668,318.6921692,30.3694458,318.7063599,30.0201569z M314.5914917,46.1079292
                                c0.0152893-0.3178101-0.0290527-0.634182-0.1221619-0.9435349c-0.0270691-0.0899162-0.0605774-0.1787605-0.1002197-0.2638626
                                c-0.1323242-0.284111-0.3457031-0.4927711-0.6221008-0.6346474c-0.347229-0.1782532-0.6754456-0.1334839-0.9761047,0.109005
                                c-0.0726318,0.0585823-0.1358948,0.1309738-0.1948242,0.2039909c-0.2433472,0.3014603-0.3757935,0.6504745-0.4300537,1.03125
                                c-0.0400391,0.2809868-0.0504456,0.563797-0.0403137,0.8469582c0.0154724,0.4335136,0.1394958,0.8342705,0.3744202,1.2000771
                                c0.166626,0.2594376,0.4044495,0.4123955,0.7008362,0.4884949c0.2249146,0.0577393,0.4299927,0.0174561,0.6253357-0.0954781
                                c0.1665649-0.0963364,0.2955017-0.2323723,0.3996277-0.393177c0.0877075-0.1353989,0.1542969-0.2810898,0.2068787-0.4327927
                                C314.5374146,46.8647614,314.6065063,46.4957962,314.5914917,46.1079292z"></path>
                            <path d="M277.9181824,34.8798523c0.0281372-0.5691185,0.0505676-1.0023232,0.0704651-1.4356422
                                c0.0075073-0.163662,0.0072021-0.3276749,0.0139771-0.4913826c0.0154724-0.3755722,0.0306396-0.7510185,0.0552368-1.1263428
                                c0.0340271-0.5192451,0.0456543-1.0399323,0.0689697-1.5599098c0.0206909-0.4622116,0.0346375-0.9250202,0.0693665-1.3862247
                                c0.0310974-0.4129238,0.0790405-0.8247108,0.1407166-1.2348499c0.0444946-0.2958298,0.1017761-0.5882587,0.1725159-0.8786907
                                c0.0295715-0.1215096,0.0548096-0.2452183,0.0677795-0.3694134c0.0300598-0.2879868,0.084259-0.5718212,0.1341858-0.8564682
                                c0.0549011-0.3131046,0.1062622-0.6269436,0.1679382-0.9387302c0.0653992-0.3306732,0.1445007-0.6585255,0.2000427-0.9913578
                                c0.0205688-0.1231441,0.0533752-0.2448444,0.0888062-0.3647823c0.0927734-0.3140354,0.1867065-0.6278095,0.2868958-0.939537
                                c0.0529785-0.164875,0.1132812-0.328125,0.1817017-0.4871864c0.3160706-0.7345581,0.6307983-1.4698753,1.0097046-2.1753025
                                c0.0091248-0.0169792,0.0171509-0.0346107,0.0271301-0.0510578c0.3149414-0.5192966,0.6309509-1.0377407,1.0583496-1.476614
                                c0.0874023-0.0897427,0.1706543-0.1835804,0.2542419-0.2769718c0.2781677-0.3109093,0.5940552-0.5773544,0.9448853-0.8025322
                                c0.1378784-0.0884953,0.2775879-0.1741562,0.4152222-0.2630405c0.410553-0.2651463,0.8611755-0.4272346,1.3375549-0.5246563
                                c0.4075012-0.083334,0.8198242-0.1213131,1.2348938-0.1274548c0.1828918-0.0027065,0.3655396,0.0069237,0.545929,0.0487919
                                c0.1499939,0.0348263,0.3032532,0.0555077,0.4544373,0.0855541c0.179657,0.0357018,0.3586731,0.0763035,0.5299988,0.1416225
                                c0.2519531,0.0960445,0.5022583,0.1965046,0.7518311,0.2985725c0.1520386,0.0621853,0.2932129,0.1456795,0.429718,0.2369976
                                c0.2085876,0.139555,0.4102478,0.2884293,0.5961609,0.4571896c0.4217529,0.3828773,0.8186646,0.7878971,1.1628418,1.2448273
                                c0.3145142,0.4175549,0.590271,0.8575325,0.8197632,1.3258171c0.2331238,0.4756985,0.4739685,0.9482136,0.668457,1.4418564
                                c0.1412659,0.3584766,0.2804871,0.7177601,0.4176636,1.0778122c0.0376587,0.0988522,0.0697632,0.2004776,0.0956726,0.3030376
                                c0.1250305,0.4949093,0.25,0.9898701,0.3694458,1.4861431c0.1442566,0.5992794,0.2439575,1.2086544,0.4082642,1.8035507
                                c0.0667419,0.2416725,0.1084595,0.4888496,0.1464844,0.7366333c0.0511169,0.3332748,0.1323547,0.6613865,0.1710815,0.9968777
                                c0.0287476,0.2488651,0.0597839,0.4974613,0.0895081,0.7462158c0.0491333,0.4114037,0.0994873,0.8226719,0.1460571,1.2343674
                                c0.0130005,0.1147022,0.0220337,0.2308407,0.019928,0.3460846c-0.007782,0.425333,0.0253601,0.848156,0.0812988,1.2687263
                                c0.040863,0.3073254,0.0426636,0.6150055,0.0420837,0.9233818c-0.0004272,0.2216988-0.006958,0.443409-0.0055542,0.665081
                                c0.0016785,0.2698898,0.0084229,0.5394287,0.0453491,0.8078651c0.0276489,0.2010345,0.0218201,0.4043159,0.0076904,0.6064491
                                c-0.0161743,0.2313232-0.0096436,0.4617081,0.0028687,0.6930923c0.0229187,0.42342,0.0441284,0.8472672,0.0505066,1.2711716
                                c0.0094299,0.6267624-0.0176086,1.2528572-0.0733337,1.877388c-0.0197144,0.221096-0.0289612,0.4420891-0.0253906,0.664196
                                c0.0088806,0.5493469,0.0231628,1.0990143-0.004425,1.6480331c-0.0236816,0.4716034-0.0600891,0.9425545-0.0898438,1.4138603
                                c-0.0188599,0.2987518-0.0640869,0.5933838-0.1213074,0.8871536c-0.0330811,0.1698799-0.054657,0.3433838-0.0641174,0.5162048
                                c-0.0215454,0.3949432-0.0588684,0.7881012-0.1068726,1.1804962c-0.007019,0.057312-0.0101318,0.115345-0.0111389,0.1731071
                                c-0.0035706,0.2030029-0.029541,0.4032516-0.0644836,0.6030235c-0.0563965,0.3226089-0.1135254,0.645237-0.1611023,0.9692154
                                c-0.0323181,0.2201347-0.0797729,0.4365425-0.1439819,0.6483612c-0.1454773,0.4799461-0.264679,0.9658966-0.3622437,1.4576416
                                c-0.1369324,0.68993-0.3019409,1.3732376-0.4768677,2.0545807c-0.1896362,0.7385559-0.4256592,1.4609337-0.7080688,2.1686668
                                c-0.1108093,0.2776718-0.2387695,0.5474777-0.3755493,0.8131332c-0.0971985,0.1888237-0.2084045,0.3691902-0.3330383,0.5412712
                                c-0.3865051,0.5336571-0.8366699,1.0082092-1.3356018,1.4373055c-0.0657349,0.0565376-0.1312561,0.1145401-0.203125,0.1625519
                                c-0.6433105,0.4299469-1.3090515,0.8150253-2.0661926,1.0128021c-0.4423218,0.1155434-0.8903198,0.1674614-1.3455505,0.0988045
                                c-0.1327515-0.0200195-0.2629395-0.0582733-0.3934326-0.0916481c-0.1865845-0.0477371-0.3720703-0.0998268-0.5585327-0.1480217
                                c-0.3647156-0.0942497-0.7186584-0.2164955-1.0579529-0.3823891c-0.7418823-0.3627281-0.9032898-0.4606552-1.5250244-0.983017
                                c-0.3475037-0.2919579-0.6655579-0.6149673-0.958313-0.961895c-0.1491699-0.1767769-0.2917175-0.3591652-0.4359131-0.5400887
                                c-0.1386719-0.1739769-0.255127-0.3618011-0.353302-0.5617523c-0.0721741-0.1469574-0.1473389-0.2928276-0.2291565-0.4345474
                                c-0.1351624-0.2339973-0.2583618-0.4736252-0.3662109-0.721283c-0.0346069-0.0794945-0.0677795-0.1597519-0.1058044-0.2376137
                                c-0.3106384-0.6361427-0.5075989-1.3099976-0.6673584-1.996624c-0.0458069-0.1969337-0.0932007-0.3939819-0.1517639-0.5873756
                                c-0.1483765-0.4900208-0.2447815-0.9910202-0.3272095-1.4950981c-0.0575256-0.3518028-0.1093445-0.7045326-0.1646729-1.0566978
                                c-0.0119629-0.0760651-0.0280151-0.1514931-0.0423584-0.2271843c-0.0430298-0.2272644-0.0773315-0.4550934-0.0964355-0.6864052
                                c-0.0269775-0.3262901-0.0618286-0.652832-0.1141052-0.975914c-0.0786743-0.486496-0.1176758-0.9757309-0.137207-1.4670677
                                c-0.0157166-0.39505-0.0380859-0.7895241-0.0828552-1.1823997c-0.0239868-0.2106133-0.0451965-0.4219589-0.0806885-0.6307564
                                c-0.0810852-0.4770203-0.1141968-0.9566193-0.0974426-1.4397926c0.0190735-0.5496674-0.003479-1.0987282-0.0252991-1.6476364
                                c-0.0226135-0.5686226-0.0257568-1.1370087-0.0085449-1.70578c0.0066833-0.2214012,0.0033569-0.4431305,0.0036316-0.6647072
                                C277.9184875,35.4956436,277.9181824,35.1197662,277.9181824,34.8798523z M284.0975647,30.2457676
                                c-0.0593567,0.6811676,0.0310974,1.4107895,0.0653992,2.1420536c0.0018005,0.0384026,0.0093079,0.0765228,0.0137634,0.1148186
                                c0.051239,0.4402695,0.1007385,0.8807449,0.1540833,1.3207588c0.038269,0.3155327,0.0730591,0.6315765,0.1483459,0.9416695
                                c0.0340271,0.1401939,0.0529785,0.2840195,0.0799561,0.4259758c0.0521545,0.2746696,0.1124573,0.5472145,0.2073975,0.8110695
                                c0.0652161,0.1812515,0.1305847,0.3625336,0.190918,0.5454369c0.1532593,0.4647064,0.4121704,0.8675499,0.7142029,1.2474709
                                c0.2915649,0.3667259,0.6839905,0.5178223,1.1350708,0.5456734c0.0850525,0.005249,0.1729736-0.0101585,0.2574463-0.0267792
                                c0.2635498-0.0518646,0.4812012-0.1906815,0.675354-0.3704643c0.1494751-0.138401,0.2728882-0.2982864,0.3854065-0.4673958
                                c0.3305359-0.496666,0.5350037-1.0439606,0.651886-1.6258888c0.0322571-0.1604767,0.0511475-0.3236427,0.0836487-0.4840584
                                c0.0458984-0.2264977,0.0994568-0.4514313,0.1484985-0.6772995c0.1125183-0.5181236,0.1957703-1.0415955,0.2748108-1.5654564
                                c0.0473633-0.3141594,0.0820312-0.6303558,0.064209-0.9504509c-0.0209656-0.3760967,0.0028381-0.7512627,0.0398865-1.1259537
                                c0.0351562-0.3557281,0.0382996-0.7116814-0.0042725-1.0678406c-0.0171204-0.1432018-0.0248413-0.2882519-0.0256958-0.4325256
                                c-0.0021667-0.3758888,0.0002441-0.7518311,0.0037537-1.1277237c0.0047913-0.5119095-0.0304871-1.0202351-0.1103821-1.5263863
                                c-0.0540466-0.3424206-0.1168518-0.6836281-0.1481323-1.0297985c-0.016449-0.1817017-0.0425415-0.3637142-0.092804-0.5407257
                                c-0.0999451-0.352066-0.1925354-0.7063694-0.3001709-1.056057c-0.0794983-0.2583199-0.197113-0.5015678-0.3401184-0.7321606
                                c-0.2359314-0.3804855-0.5591125-0.6587563-0.9688416-0.837698c-0.2338562-0.1021309-0.4772034-0.1523952-0.7323914-0.1265297
                                c-0.2705383,0.0274239-0.5299988,0.0961113-0.7747803,0.2178478c-0.3202515,0.1592693-0.5730591,0.3892002-0.7400513,0.7070198
                                c-0.1075439,0.2046432-0.2120361,0.4111404-0.3092957,0.6208076c-0.0524292,0.1130486-0.0917664,0.2329865-0.1278381,0.3525829
                                c-0.0416565,0.138176-0.078064,0.2783623-0.1082764,0.4194908c-0.1008606,0.4709244-0.1975403,0.9427395-0.2965393,1.4140606
                                c-0.0655212,0.3119087-0.1061096,0.6264687-0.1177979,0.945385c-0.0148315,0.404501-0.0362549,0.8087635-0.0553284,1.2131081
                                c-0.0036316,0.0770187-0.0055847,0.1544113-0.0149536,0.2308159c-0.0388794,0.3169422-0.0350342,0.6347427-0.0271912,0.9530163
                                C284.1012573,29.8266163,284.0975647,30.009798,284.0975647,30.2457676z M285.3267212,46.4226189
                                c0.0012817-0.2238388-0.0119324-0.5112228-0.0680237-0.7971077c-0.0688782-0.3510246-0.1711121-0.6913567-0.2955017-1.0257339
                                c-0.0234375-0.0630455-0.050415-0.1253395-0.0817871-0.1847992c-0.3126831-0.5926971-1.050415-0.6874352-1.5055542-0.3044395
                                c-0.1801453,0.1516113-0.321991,0.3316422-0.4176025,0.5463753c-0.2164001,0.486084-0.2962036,0.9938545-0.2380981,1.5234489
                                c0.0167847,0.1530571,0.0354309,0.3067245,0.0377808,0.46035c0.00354,0.2323799,0.0359192,0.4612236,0.0695496,0.6897354
                                c0.0237732,0.1617699,0.0650024,0.3209724,0.1333618,0.471344c0.1245728,0.2739525,0.2872925,0.5231667,0.4862061,0.7487526
                                c0.0835876,0.0948296,0.1789246,0.1758614,0.2946472,0.2289963c0.133728,0.0613823,0.2719116,0.0890541,0.421051,0.0658302
                                c0.2303772-0.0358849,0.412262-0.1539764,0.5692749-0.3178596c0.121521-0.1268082,0.2098999-0.275631,0.2783203-0.4363403
                                c0.0906982-0.2130013,0.165802-0.4319458,0.2235413-0.6557846c0.0432739-0.1677475,0.0728149-0.3388786,0.0749817-0.5137978
                                C285.3106689,46.7770996,285.3189087,46.6326904,285.3267212,46.4226189z"></path>
                        </g>
                    </g>
                </g>
            </g>
        </svg>