<?xml version="1.0" encoding="UTF-8" standalone="no"?>
<svg
   xmlns:dc="http://purl.org/dc/elements/1.1/"
   xmlns:cc="http://creativecommons.org/ns#"
   xmlns:rdf="http://www.w3.org/1999/02/22-rdf-syntax-ns#"
   xmlns:svg="http://www.w3.org/2000/svg"
   xmlns="http://www.w3.org/2000/svg"
   xmlns:sodipodi="http://sodipodi.sourceforge.net/DTD/sodipodi-0.dtd"
   xmlns:inkscape="http://www.inkscape.org/namespaces/inkscape"
   version="1.1"
   id="Layer_1"
   x="0px"
   y="0px"
   viewBox="0 0 210.50079 112.88394"
   xml:space="preserve"
   sodipodi:docname="smiley.svg"
   inkscape:version="1.0.2-2 (e86c870879, 2021-01-15)"
   width="210.50079"
   height="112.88394"><metadata
   id="metadata56"><rdf:RDF><cc:Work
       rdf:about=""><dc:format>image/svg+xml</dc:format><dc:type
         rdf:resource="http://purl.org/dc/dcmitype/StillImage" /><dc:title></dc:title></cc:Work></rdf:RDF></metadata><defs
   id="defs54" /><sodipodi:namedview
   pagecolor="#ffffff"
   bordercolor="#666666"
   borderopacity="1"
   objecttolerance="10"
   gridtolerance="10"
   guidetolerance="10"
   inkscape:pageopacity="0"
   inkscape:pageshadow="2"
   inkscape:window-width="1920"
   inkscape:window-height="1017"
   id="namedview52"
   showgrid="false"
   showguides="true"
   inkscape:snap-page="false"
   inkscape:zoom="1.8203511"
   inkscape:cx="387.01325"
   inkscape:cy="59.25"
   inkscape:window-x="-8"
   inkscape:window-y="-8"
   inkscape:window-maximized="1"
   inkscape:current-layer="smile"
   inkscape:document-rotation="0"
   fit-margin-top="0"
   fit-margin-left="0"
   fit-margin-right="0"
   fit-margin-bottom="0" />
            <style
   type="text/css"
   id="style34">
                #smile .st0{
                    fill:#F3FF3C;
                }
                #smile {
                  
                    opacity: 1;
                  
                }
            </style>
            <g
   id="g49">
                
                <g
   id="smile">
                    <path
   class="st0"
   d="M 17.11764,112.88394 C 17.11764,86.744833 0,78.934134 0,56.441969 0,33.949805 17.11764,26.139109 17.11764,0 h 176.26551 c 0,26.139109 17.11764,33.94981 17.11764,56.441971 0,22.492161 -17.11764,30.302864 -17.11764,56.441969 z"
   id="path36"
   inkscape:export-xdpi="90.145691"
   inkscape:export-ydpi="90.145691" />
                    <g
   id="g46"
   transform="translate(-194.58118,-2.8080306)"
   inkscape:export-xdpi="90.145691"
   inkscape:export-ydpi="90.145691">
                        <g
   id="g44">
                            <path
   d="m 289.16083,80.603912 c -0.0312,0.741623 -0.0579,1.48349 -0.0961,2.224755 -0.0149,0.28836 -0.0525,0.575767 -0.086,0.862877 -0.0223,0.191322 -0.0576,0.381111 -0.0837,0.572044 -0.034,0.248283 -0.0639,0.496819 -0.0768,0.74765 -0.0139,0.269692 -0.0626,0.535774 -0.10318,0.802597 -0.0565,0.371521 -0.10325,0.744576 -0.16449,1.115273 -0.0361,0.218284 -0.096,0.432525 -0.13803,0.649978 -0.0365,0.189026 -0.071,0.379151 -0.0915,0.570381 -0.0246,0.230462 -0.0559,0.459214 -0.10934,0.684601 -0.0959,0.40448 -0.13937,0.816818 -0.18192,1.228943 -0.0347,0.33548 -0.0698,0.67128 -0.0676,1.009499 4.6e-4,0.06732 -0.006,0.134857 -0.0124,0.202018 -0.033,0.355118 -0.0647,0.710366 -0.1012,1.065117 -0.0247,0.239632 -0.0539,0.478859 -0.0857,0.717667 -0.0733,0.551567 -0.0414,1.096901 0.0969,1.635155 0.1059,0.412269 0.34513,0.726127 0.71384,0.941558 0.16757,0.09792 0.34293,0.177697 0.5307,0.224701 0.29013,0.07264 0.57367,0.165703 0.85733,0.2594 0.31137,0.102859 0.62772,0.182579 0.95352,0.231292 0.46677,0.06979 0.92996,0.163399 1.39633,0.236123 0.30533,0.04761 0.60492,0.115127 0.90381,0.19252 0.36447,0.0944 0.73935,0.133522 1.11313,0.174003 0.30658,0.03321 0.6135,0.06362 0.92026,0.09531 0.0575,0.0059 0.11499,0.01675 0.17258,0.0173 0.4067,0.0039 0.80667,0.06649 1.20471,0.140984 0.20041,0.0375 0.40176,0.05585 0.60403,0.05154 0.44486,-0.0095 0.8855,0.04457 1.32767,0.07598 0.125,0.0089 0.24991,0.02074 0.37506,0.02494 0.22171,0.0074 0.44278,0.0164 0.66278,0.05035 0.10428,0.01609 0.21143,0.01706 0.31735,0.01798 0.14453,0.0013 0.28922,-0.0021 0.43375,-0.0069 0.5011,-0.01655 1.00207,-0.03651 1.50323,-0.05128 0.27066,-0.008 0.53693,-0.054 0.80503,-0.0836 0.44058,-0.04864 0.88058,-0.102738 1.32034,-0.158211 0.19104,-0.0241 0.38132,-0.05252 0.57016,-0.09397 0.301,-0.06606 0.60492,-0.118797 0.90753,-0.177421 0.13245,-0.02565 0.26496,-0.05098 0.3971,-0.07806 0.2359,-0.04838 0.47085,-0.101792 0.70758,-0.145737 0.16144,-0.02998 0.31939,-0.07105 0.47729,-0.115005 0.2041,-0.05682 0.40937,-0.110077 0.61554,-0.158684 0.89139,-0.210175 1.76972,-0.466362 2.64279,-0.741882 0.20194,-0.06373 0.40729,-0.116707 0.61115,-0.174363 0.19464,-0.05504 0.38907,-0.110862 0.58417,-0.164207 0.14856,-0.04061 0.29718,-0.08149 0.44723,-0.115807 0.23517,-0.05379 0.46735,-0.115318 0.69138,-0.206955 0.13363,-0.05466 0.27151,-0.09907 0.4078,-0.147201 0.25452,-0.08989 0.50629,-0.186531 0.75067,-0.301667 0.27076,-0.127555 0.55036,-0.232574 0.83704,-0.317771 0.24988,-0.07426 0.49228,-0.167199 0.73145,-0.270447 0.24762,-0.106911 0.49798,-0.20755 0.74719,-0.310875 0.45419,-0.188301 0.90359,-0.386368 1.33411,-0.625618 0.38748,-0.215332 0.78369,-0.414009 1.17843,-0.615814 0.63474,-0.324494 1.27042,-0.648484 1.8725,-1.033364 0.2923,-0.186821 0.59503,-0.357177 0.8898,-0.540222 0.33569,-0.208465 0.66782,-0.42263 1.00134,-0.634598 0.14643,-0.09308 0.29154,-0.188247 0.43885,-0.279968 0.21301,-0.13266 0.41662,-0.278221 0.61581,-0.430839 0.20654,-0.158257 0.41586,-0.313141 0.62827,-0.463433 0.1972,-0.139549 0.38693,-0.286949 0.55978,-0.456215 0.17239,-0.168838 0.35983,-0.320114 0.55063,-0.467926 0.17514,-0.13565 0.34244,-0.281417 0.51272,-0.423286 0.15552,-0.129562 0.30481,-0.267288 0.46662,-0.38839 0.41733,-0.312355 0.81231,-0.651352 1.20553,-0.992569 0.53937,-0.467994 1.05069,-0.965019 1.54135,-1.483978 0.23832,-0.25206 0.48984,-0.4916 0.73435,-0.737846 0.0815,-0.08205 0.16373,-0.163918 0.23862,-0.251816 0.25015,-0.293503 0.49865,-0.588432 0.74478,-0.885307 0.16015,-0.193169 0.3226,-0.384186 0.5043,-0.557328 0.3855,-0.367286 0.7226,-0.775436 1.03207,-1.20755 0.1684,-0.235138 0.33878,-0.468864 0.50806,-0.703377 0.0339,-0.04691 0.068,-0.09365 0.0998,-0.141967 0.46057,-0.700783 0.93863,-1.390091 1.38413,-2.100769 0.0921,-0.146965 0.17734,-0.298264 0.26828,-0.445977 0.14151,-0.229759 0.28637,-0.457443 0.42758,-0.687378 0.0907,-0.14772 0.181,-0.295913 0.26514,-0.447433 0.12628,-0.22744 0.24282,-0.460335 0.37103,-0.686646 0.18085,-0.319252 0.34344,-0.646377 0.47385,-0.989784 0.16778,-0.441826 0.35974,-0.872543 0.58703,-1.287849 0.16214,-0.29628 0.29117,-0.607994 0.39206,-0.931107 0.0892,-0.28553 0.20364,-0.560989 0.3295,-0.832542 0.40735,-0.878716 0.40768,-0.878884 0.69202,-1.805718 0.0705,-0.229988 0.12841,-0.464225 0.18295,-0.698654 0.0678,-0.291412 0.1477,-0.578232 0.2569,-0.857292 0.0701,-0.179291 0.1311,-0.362366 0.19159,-0.54525 0.13955,-0.421997 0.23559,-0.854073 0.29394,-1.294701 0.0127,-0.09547 0.0311,-0.190177 0.0464,-0.285293 0.0898,-0.554444 -0.0662,-1.029129 -0.46427,-1.42424 -0.21997,-0.218376 -0.46652,-0.403008 -0.72915,-0.566857 -0.23712,-0.147926 -0.4729,-0.297996 -0.71082,-0.444618 -0.1148,-0.07075 -0.23276,-0.136406 -0.34997,-0.203171 -0.15076,-0.08586 -0.30341,-0.168449 -0.4531,-0.256092 -0.35061,-0.205284 -0.67828,-0.441814 -0.97372,-0.72184 -0.11896,-0.112754 -0.24106,-0.22224 -0.35874,-0.336288 -0.0761,-0.07372 -0.15252,-0.148369 -0.2189,-0.230595 -0.3876,-0.480175 -0.77502,-0.960933 -1.0878,-1.495342 -0.0826,-0.141132 -0.15695,-0.287582 -0.22729,-0.435291 -0.0994,-0.208744 -0.19074,-0.421307 -0.28708,-0.631535 -0.12055,-0.263123 -0.22699,-0.531475 -0.31229,-0.808285 -0.0794,-0.257744 -0.16177,-0.514599 -0.2438,-0.771538 -0.19147,-0.599678 -0.21222,-1.211898 -0.13242,-1.830825 0.0209,-0.162232 0.0392,-0.324963 0.0864,-0.483345 0.0807,-0.271157 0.20159,-0.520489 0.3778,-0.742508 0.19587,-0.246769 0.43463,-0.437268 0.73093,-0.549011 0.15314,-0.05775 0.30856,-0.10994 0.46478,-0.158825 0.22217,-0.06953 0.45056,-0.102795 0.68372,-0.101303 0.0964,6.18e-4 0.19284,-8.4e-5 0.28927,6.25e-4 0.2959,0.0022 0.56958,0.08347 0.82709,0.227474 0.27265,0.152474 0.51056,0.346749 0.70716,0.588696 0.25592,0.314953 0.48373,0.648716 0.6607,1.015762 0.17157,0.35582 0.34616,0.710182 0.52176,1.064026 0.047,0.09481 0.10153,0.186016 0.15463,0.277714 0.0531,0.09175 0.11276,0.179901 0.16257,0.273353 0.24646,0.462452 0.56436,0.875187 0.90253,1.271138 0.36679,0.429474 0.80218,0.774677 1.31829,1.016384 0.32389,0.151691 0.65961,0.27042 0.99469,0.391636 0.21003,0.07598 0.43464,0.08359 0.65302,0.119774 0.11401,0.01889 0.22934,0.03239 0.34463,0.04018 0.10541,0.0071 0.21247,0.0126 0.31714,0.0023 0.22049,-0.02175 0.44043,-0.05074 0.65964,-0.08314 0.59189,-0.08748 1.09598,-0.353306 1.52557,-0.764691 0.28769,-0.275505 0.52701,-0.591903 0.71839,-0.938522 0.26117,-0.472939 0.5614,-0.921906 0.82693,-1.391991 0.21906,-0.387821 0.50165,-0.730533 0.7995,-1.060306 0.0387,-0.04288 0.0809,-0.08268 0.12235,-0.123081 0.32754,-0.319592 0.71875,-0.513051 1.16913,-0.588727 0.0475,-0.008 0.0959,-0.01175 0.143,-0.02148 0.25192,-0.05201 0.50018,-0.02506 0.74378,0.0434 0.27011,0.07591 0.52557,0.189304 0.7676,0.331684 0.12555,0.07386 0.2356,0.167003 0.33301,0.275417 0.11002,0.122467 0.20731,0.254371 0.28525,0.399177 0.16068,0.298497 0.27686,0.614903 0.36221,0.942212 0.059,0.226146 0.064,0.455944 0.041,0.689007 -0.0387,0.394008 -0.11124,0.78189 -0.18616,1.169967 -0.0475,0.246247 -0.0962,0.490956 -0.1795,0.728649 -0.13144,0.375107 -0.30442,0.729653 -0.52152,1.061341 -0.21112,0.322544 -0.43155,0.63908 -0.65109,0.95602 -0.0657,0.09489 -0.13882,0.185314 -0.2146,0.272495 -0.18347,0.210999 -0.36914,0.420113 -0.55673,0.627453 -0.0775,0.08567 -0.15958,0.167656 -0.24408,0.246475 -0.54437,0.50771 -1.12662,0.967499 -1.76172,1.356453 -0.26263,0.160843 -0.53397,0.309471 -0.81003,0.446121 -0.78857,0.390343 -1.36413,0.994149 -1.78836,1.753701 -0.0851,0.152389 -0.14084,0.316978 -0.18082,0.48632 -0.11291,0.478173 -0.22299,0.957016 -0.33615,1.43512 -0.0421,0.178047 -0.0813,0.35746 -0.13635,0.531654 -0.18295,0.578736 -0.3721,1.15551 -0.55984,1.732727 -0.0328,0.100762 -0.0688,0.200516 -0.10569,0.299881 -0.1073,0.289429 -0.20413,0.581734 -0.26114,0.886109 -0.0142,0.0756 -0.0363,0.149849 -0.0576,0.223922 -0.11966,0.416687 -0.24076,0.83294 -0.36011,1.249711 -0.0744,0.259956 -0.16644,0.513343 -0.28247,0.757499 -0.14487,0.304894 -0.26953,0.617966 -0.39319,0.9319 -0.18365,0.466309 -0.38806,0.923676 -0.61606,1.370507 -0.24087,0.472076 -0.47473,0.947731 -0.71423,1.420524 -0.0653,0.128815 -0.13879,0.253487 -0.21024,0.37909 -0.11911,0.209404 -0.24597,0.414634 -0.35836,0.62754 -0.48233,0.91375 -1.02945,1.786934 -1.62912,2.627823 -0.11191,0.156929 -0.21708,0.318649 -0.32602,0.477699 -0.11982,0.17495 -0.24042,0.349366 -0.36072,0.523987 -0.14215,0.206383 -0.28568,0.411842 -0.4263,0.619286 -0.28134,0.415024 -0.56494,0.827659 -0.8884,1.212463 -0.24805,0.295029 -0.47995,0.603661 -0.71734,0.907555 -0.16636,0.212929 -0.33585,0.423218 -0.5289,0.612617 -0.30332,0.297592 -0.57969,0.619438 -0.85587,0.941445 -0.29501,0.343971 -0.58029,0.69654 -0.8826,1.033874 -0.32159,0.358849 -0.65573,0.706604 -0.98975,1.054047 -0.0998,0.103752 -0.21362,0.195251 -0.32781,0.283531 -0.22928,0.177193 -0.44773,0.366119 -0.65259,0.570923 -0.2659,0.265846 -0.5325,0.53099 -0.79785,0.797386 -0.3133,0.31456 -0.64057,0.613625 -0.98935,0.888466 -0.18192,0.143341 -0.35956,0.291214 -0.5253,0.453224 -0.26288,0.256981 -0.5528,0.47992 -0.85715,0.685509 -0.18359,0.124046 -0.36417,0.252983 -0.54144,0.385948 -0.28556,0.21415 -0.57563,0.421394 -0.8779,0.611298 -0.38397,0.241195 -0.75525,0.500412 -1.11579,0.775489 -0.19925,0.152009 -0.40164,0.300202 -0.60751,0.443047 -0.15024,0.104256 -0.30533,0.202469 -0.46374,0.293869 -0.57599,0.332367 -1.15415,0.661018 -1.73179,0.990486 -0.27627,0.15757 -0.55465,0.311539 -0.82952,0.471459 -0.23322,0.135658 -0.46601,0.272537 -0.69336,0.417633 -0.53806,0.34333 -1.09769,0.641334 -1.702,0.852836 -0.33676,0.117874 -0.66348,0.260666 -0.97964,0.427155 -0.19648,0.103462 -0.40097,0.188766 -0.61377,0.253265 -0.34192,0.103615 -0.67264,0.235947 -0.9961,0.387116 -0.2359,0.110244 -0.47693,0.207168 -0.72503,0.287407 -0.13727,0.04441 -0.2725,0.09688 -0.40482,0.15451 -0.28311,0.123306 -0.57394,0.224754 -0.86584,0.324509 -0.66639,0.227756 -1.349,0.397206 -2.03025,0.571826 -0.10266,0.0263 -0.20648,0.048 -0.30911,0.0744 -0.24274,0.0624 -0.4874,0.12244 -0.71402,0.23114 -0.4556,0.21851 -0.9361,0.35326 -1.4296,0.44994 -0.44476,0.0871 -0.88333,0.19839 -1.31478,0.3385 -0.17386,0.0564 -0.35294,0.0967 -0.5297,0.14422 -0.2604,0.0701 -0.52209,0.13579 -0.781,0.21111 -0.37134,0.10804 -0.75141,0.17017 -1.13227,0.22992 -0.10467,0.0164 -0.20901,0.0351 -0.3139,0.05 -0.21936,0.0311 -0.43771,0.0671 -0.65942,0.084 -0.23993,0.0182 -0.47919,0.0515 -0.71708,0.0889 -0.41983,0.0659 -0.84253,0.096 -1.2662,0.11836 -0.28882,0.0153 -0.57758,0.032 -0.86643,0.0472 -0.43359,0.0228 -0.86703,0.0338 -1.30047,-0.006 -0.20194,-0.0188 -0.40433,-0.0141 -0.60651,0.003 -0.26968,0.0228 -0.53815,0.0196 -0.80801,-0.0127 -0.29685,-0.0354 -0.59632,-0.0405 -0.89545,-0.029 -0.34726,0.0134 -0.69318,0.003 -1.04007,-0.0245 -0.35592,-0.0282 -0.71014,-0.0641 -1.06244,-0.12114 -0.0475,-0.008 -0.0958,-0.0108 -0.14386,-0.0142 -0.31735,-0.0223 -0.63498,-0.0411 -0.95205,-0.0669 -0.26896,-0.0219 -0.53717,-0.0526 -0.80591,-0.0773 -0.12479,-0.0115 -0.24991,-0.0215 -0.37509,-0.0259 -0.47297,-0.0166 -0.9408,-0.0838 -1.40924,-0.14303 -0.52582,-0.0665 -1.05021,-0.14413 -1.57566,-0.21329 -0.38247,-0.0503 -0.75985,-0.129 -1.13974,-0.19372 -0.85599,-0.14584 -1.69354,-0.3714 -2.53616,-0.57548 -0.22467,-0.0544 -0.45041,-0.10465 -0.67603,-0.15515 -0.24484,-0.0548 -0.48556,-0.12222 -0.71853,-0.21685 -0.20542,-0.0834 -0.41577,-0.15198 -0.62964,-0.21192 -0.18518,-0.0519 -0.36734,-0.11611 -0.54791,-0.18282 -0.19904,-0.0735 -0.39875,-0.14383 -0.60386,-0.19825 -0.1961,-0.0521 -0.38467,-0.123887 -0.56988,-0.206758 -0.14053,-0.06287 -0.28366,-0.121536 -0.42947,-0.170662 -0.56672,-0.19091 -1.11951,-0.417045 -1.668,-0.653823 -0.45133,-0.194825 -0.90345,-0.386803 -1.37174,-0.538369 -0.19272,-0.06238 -0.37784,-0.14386 -0.56051,-0.231865 -0.15607,-0.07521 -0.31473,-0.146118 -0.47614,-0.208923 -0.17105,-0.06657 -0.33743,-0.141365 -0.49866,-0.228805 -0.33053,-0.179238 -0.66662,-0.347115 -1.01202,-0.496239 -0.20386,-0.08802 -0.39783,-0.194733 -0.58521,-0.314331 -0.17059,-0.108872 -0.34542,-0.211037 -0.51806,-0.316704 -0.12329,-0.07549 -0.24643,-0.151253 -0.36899,-0.227951 -0.2941,-0.184082 -0.58444,-0.374504 -0.88242,-0.552071 -0.62173,-0.370483 -1.22143,-0.773193 -1.80517,-1.200698 -0.20984,-0.153664 -0.42676,-0.298142 -0.64524,-0.439415 -0.21124,-0.13659 -0.41207,-0.285103 -0.59436,-0.458603 -0.23089,-0.219788 -0.47592,-0.42186 -0.7417,-0.598885 -0.088,-0.05863 -0.16964,-0.127144 -0.25219,-0.193634 -0.27799,-0.223892 -0.5589,-0.443077 -0.87046,-0.620216 -0.19409,-0.110344 -0.36257,-0.255272 -0.51907,-0.413239 -0.16348,-0.165054 -0.33884,-0.314537 -0.53351,-0.441826 -0.12149,-0.07944 -0.23172,-0.173759 -0.32861,-0.281814 -0.13623,-0.15194 -0.29663,-0.273842 -0.4599,-0.394501 -0.1781,-0.13163 -0.35465,-0.266937 -0.51984,-0.414139 -0.3815,-0.33992 -0.75601,-0.687668 -1.13278,-1.03289 -0.29901,-0.273979 -0.57556,-0.569595 -0.8374,-0.87899 -0.1059,-0.1251 -0.21225,-0.250054 -0.3125,-0.379616 -0.36008,-0.465279 -0.73593,-0.917504 -1.11923,-1.363625 -0.11939,-0.138939 -0.23844,-0.278312 -0.36228,-0.413223 -0.16336,-0.177979 -0.31158,-0.367363 -0.45138,-0.564171 -0.14511,-0.204307 -0.29373,-0.406181 -0.44284,-0.607612 -0.30411,-0.41082 -0.59336,-0.831665 -0.86625,-1.263978 -0.12857,-0.203712 -0.26367,-0.403411 -0.39971,-0.602256 -0.15812,-0.231064 -0.30451,-0.468933 -0.43045,-0.718956 -0.12598,-0.250145 -0.27427,-0.486679 -0.4256,-0.721932 -0.5376,-0.835716 -1.03171,-1.695846 -1.452,-2.597366 -0.0814,-0.174553 -0.17038,-0.345772 -0.26132,-0.515587 -0.23676,-0.44204 -0.45139,-0.894669 -0.65445,-1.352898 -0.125,-0.282104 -0.2305,-0.571609 -0.33112,-0.863281 -0.12564,-0.364265 -0.25924,-0.725777 -0.38937,-1.088486 -0.13663,-0.380851 -0.27786,-0.760154 -0.40765,-1.143318 -0.0554,-0.163688 -0.0875,-0.335335 -0.12921,-0.503616 -0.0278,-0.112183 -0.0502,-0.22583 -0.0813,-0.337074 -0.12436,-0.445336 -0.25077,-0.890107 -0.3772,-1.334854 -0.0659,-0.231659 -0.1311,-0.463555 -0.20075,-0.694085 -0.0977,-0.32357 -0.17016,-0.652053 -0.21624,-0.987129 -0.0486,-0.353683 -0.12046,-0.702354 -0.24131,-1.040069 -0.0485,-0.135666 -0.09,-0.275147 -0.11966,-0.416062 -0.0931,-0.442955 -0.20492,-0.881988 -0.26904,-1.331123 -0.0422,-0.295532 -0.098,-0.589188 -0.15079,-0.883118 -0.0409,-0.227577 -0.0868,-0.454262 -0.13018,-0.681404 -0.0415,-0.217583 -0.0773,-0.436447 -0.12592,-0.652451 -0.0316,-0.140518 -0.0735,-0.280021 -0.12491,-0.414543 -0.14071,-0.367874 -0.39042,-0.637764 -0.75099,-0.801208 -0.0877,-0.03978 -0.17624,-0.07818 -0.26596,-0.113198 -0.27905,-0.108909 -0.54657,-0.241466 -0.80423,-0.393543 -0.39037,-0.230415 -0.79021,-0.443115 -1.19661,-0.643429 -0.32977,-0.16254 -0.63878,-0.357818 -0.93375,-0.576374 -0.17042,-0.126259 -0.34175,-0.251297 -0.51258,-0.376968 -0.3814,-0.280541 -0.74002,-0.58717 -1.06701,-0.930142 -0.11975,-0.125602 -0.24018,-0.250556 -0.36,-0.376102 -0.15379,-0.161152 -0.28936,-0.33641 -0.39712,-0.531547 -0.10764,-0.194935 -0.23287,-0.377236 -0.3768,-0.546772 -0.31128,-0.366669 -0.50891,-0.795342 -0.6547,-1.246552 -0.10652,-0.329758 -0.18063,-0.669975 -0.21163,-1.017162 -0.008,-0.08628 -0.017,-0.173249 -0.0141,-0.259506 0.0119,-0.347401 0.05,-0.691525 0.13484,-1.029858 0.0663,-0.264416 0.17623,-0.509258 0.31638,-0.741573 0.16347,-0.270924 0.38524,-0.480347 0.66771,-0.623253 0.38139,-0.192959 0.78458,-0.321259 1.20666,-0.384888 0.25162,-0.03793 0.49859,-0.0076 0.74044,0.07751 0.44265,0.15572 0.83964,0.383003 1.17936,0.710304 0.24448,0.235524 0.46045,0.493275 0.64318,0.778572 0.15075,0.235379 0.29664,0.473874 0.44407,0.711365 0.0305,0.04912 0.0596,0.09919 0.0872,0.150005 0.24228,0.446774 0.5735,0.819371 0.95308,1.15308 0.18257,0.160515 0.38143,0.29303 0.60228,0.394524 0.36089,0.165833 0.73328,0.292591 1.12744,0.352039 0.12375,0.01866 0.24719,0.04235 0.36872,0.07215 0.2839,0.06963 0.56924,0.09267 0.86041,0.0565 0.17196,-0.02135 0.34555,-0.02538 0.51715,-0.05629 0.17233,-0.03103 0.33765,-0.08042 0.49554,-0.153354 0.58533,-0.270417 1.09748,-0.636173 1.51401,-1.135258 0.30432,-0.364632 0.57562,-0.747856 0.78058,-1.17741 0.1037,-0.217392 0.21555,-0.430931 0.32492,-0.645596 0.12705,-0.249309 0.26639,-0.491466 0.42477,-0.722397 0.23661,-0.345027 0.51847,-0.645084 0.8631,-0.88578 0.3667,-0.2561 0.7732,-0.386047 1.21802,-0.400493 0.27161,-0.0088 0.53854,0.02192 0.79974,0.100418 0.45682,0.137291 0.82871,0.405338 1.14621,0.752216 0.4094,0.447269 0.64023,0.978863 0.73081,1.576313 0.0451,0.297634 0.0506,0.5947 0.0262,0.893784 -0.0251,0.307846 -0.0614,0.613735 -0.14288,0.912628 -0.0152,0.05573 -0.0305,0.111545 -0.0487,0.166305 -0.21444,0.642273 -0.49167,1.255791 -0.84469,1.834175 -0.0502,0.0822 -0.10434,0.162236 -0.16074,0.240326 -0.37875,0.524422 -0.78476,1.025521 -1.24567,1.481453 -0.24023,0.237652 -0.49032,0.462593 -0.75122,0.677475 -0.49142,0.404747 -0.9631,0.831387 -1.39563,1.300285 -0.2554,0.276909 -0.4187,0.598 -0.49469,0.964852 -0.0156,0.07519 -0.0265,0.152054 -0.031,0.228653 -0.007,0.115417 -0.007,0.23127 -0.008,0.346947 -9.2e-4,0.308509 0.004,0.617111 -0.002,0.925521 -0.006,0.291436 0.0345,0.576645 0.0934,0.86039 0.0607,0.292328 0.13938,0.581223 0.168,0.8797 0.006,0.06715 0.0196,0.13401 0.0213,0.201218 0.0104,0.408638 0.11051,0.800582 0.2175,1.191406 0.008,0.02788 0.0144,0.05612 0.0243,0.08324 0.13226,0.364922 0.2048,0.741753 0.23574,1.128281 0.0147,0.183151 0.0729,0.358238 0.12616,0.5336 0.0615,0.202713 0.12134,0.405952 0.18018,0.609444 0.016,0.05542 0.0273,0.112312 0.0385,0.168983 0.0578,0.293953 0.14237,0.579964 0.25345,0.858109 0.10013,0.250694 0.19202,0.50415 0.26566,0.764106 0.021,0.07405 0.0446,0.147889 0.0739,0.218964 0.16543,0.400673 0.33398,0.800057 0.49954,1.200684 0.16193,0.391761 0.32367,0.783622 0.48154,1.177017 0.16525,0.411743 0.33496,0.82077 0.57107,1.198852 0.0663,0.106057 0.12055,0.219536 0.18134,0.329064 0.0935,0.168525 0.18793,0.336548 0.28183,0.504852 0.0798,0.143028 0.16083,0.285393 0.23886,0.429375 0.20685,0.381637 0.43036,0.753074 0.6752,1.111587 0.0381,0.05573 0.0799,0.109169 0.11435,0.167015 0.28153,0.472618 0.60919,0.914414 0.91382,1.37159 0.22479,0.337311 0.47745,0.653999 0.72943,0.970848 0.15628,0.196495 0.33871,0.369408 0.5224,0.540169 0.0777,0.07222 0.1589,0.140396 0.25439,0.189362 0.0534,0.02737 0.10947,0.03574 0.1681,0.02869 0.0504,-0.0061 0.0949,-0.02938 0.1184,-0.07319 0.027,-0.05018 0.0502,-0.104546 0.0624,-0.159882 0.0122,-0.05575 0.0137,-0.115127 0.0115,-0.172584 -0.015,-0.387474 0.046,-0.769142 0.085,-1.152527 0.0331,-0.326004 0.0673,-0.651894 0.0968,-0.978226 0.032,-0.355423 0.0833,-0.708229 0.13367,-1.061271 0.0149,-0.104798 0.0291,-0.210511 0.0319,-0.316109 0.006,-0.213036 0.0431,-0.421829 0.073,-0.631615 0.0286,-0.200279 0.0668,-0.399269 0.092,-0.599914 0.0205,-0.163346 0.0545,-0.323143 0.0998,-0.480652 0.0772,-0.268456 0.15823,-0.53579 0.23626,-0.804001 0.0511,-0.175736 0.10028,-0.352036 0.14942,-0.528351 0.15008,-0.538544 0.31848,-1.071396 0.51468,-1.594818 0.0674,-0.179878 0.14929,-0.35585 0.24054,-0.524979 0.21063,-0.390396 0.40695,-0.786865 0.587,-1.192611 0.22382,-0.504464 0.51489,-0.969323 0.87448,-1.390686 0.30048,-0.352143 0.60395,-0.70131 0.92258,-1.037293 0.38696,-0.407997 0.8147,-0.765289 1.29645,-1.056503 0.28872,-0.174515 0.57767,-0.348648 0.86749,-0.521347 0.0827,-0.0493 0.16672,-0.09734 0.25366,-0.138542 0.40052,-0.18982 0.80109,-0.379593 1.20392,-0.564393 0.35196,-0.161476 0.7255,-0.258895 1.09982,-0.351181 0.40293,-0.09933 0.8111,-0.172721 1.22449,-0.207954 0.19141,-0.01631 0.38568,-0.01645 0.57761,-0.0054 0.35602,0.02055 0.71216,0.04619 1.06656,0.08518 0.57589,0.06333 1.14102,0.185043 1.69485,0.355133 0.27673,0.085 0.54157,0.20198 0.801,0.330093 0.24194,0.119469 0.48437,0.238274 0.72244,0.365196 0.44354,0.236473 0.86096,0.511452 1.24277,0.840973 0.39489,0.340828 0.76919,0.701416 1.11309,1.093758 0.31315,0.357239 0.57181,0.747398 0.77982,1.17678 0.26901,0.555275 0.52814,1.114502 0.7699,1.681939 0.14743,0.346031 0.27752,0.698013 0.37475,1.062095 0.0969,0.362992 0.20017,0.724304 0.30194,1.085984 0.0838,0.298027 0.13837,0.600624 0.15302,0.910347 0.004,0.08653 0.0176,0.172569 0.0246,0.259017 0.0279,0.346825 0.10699,0.685242 0.16775,1.02665 0.0593,0.333 0.0995,0.666763 0.0768,1.00637 -0.0233,0.347428 0.007,0.694001 0.036,1.039666 0.0262,0.308121 0.0348,0.615876 0.0173,0.924347 z m -13.43921,6.117844 c -8.6e-4,2.3e-5 -0.002,4.6e-5 -0.003,6.9e-5 0.005,0.202217 0.0224,0.405098 0.0118,0.606491 -0.0137,0.260978 0.006,0.519752 0.0157,0.779548 0.0182,0.472954 0.0818,0.939003 0.17295,1.403565 0.0808,0.411941 0.23263,0.793541 0.42904,1.160126 0.082,0.153106 0.18601,0.292251 0.29523,0.427551 0.28281,0.350242 0.6503,0.573036 1.07812,0.68972 0.65876,0.179665 1.14164,-0.1427 1.39454,-0.556602 0.045,-0.07361 0.0811,-0.153107 0.1163,-0.23211 0.0871,-0.19532 0.13873,-0.402587 0.15726,-0.613403 0.0329,-0.374061 0.0561,-0.749145 0.0423,-1.125641 -0.0133,-0.365837 -0.0222,-0.731918 -0.0265,-1.097976 -0.004,-0.308289 0.0107,-0.616929 0.002,-0.924988 -0.0204,-0.732491 0.008,-1.464546 0.009,-2.196808 1.2e-4,-0.06735 0.006,-0.134705 0.01,-0.202057 0.01,-0.182793 0.0257,-0.365517 0.0276,-0.548378 0.003,-0.33847 0.0475,-0.672325 0.0998,-1.005486 0.0434,-0.275894 0.0917,-0.550994 0.13546,-0.826828 0.0573,-0.361549 0.11954,-0.722297 0.21354,-1.076255 0.0864,-0.325653 0.18206,-0.648873 0.27304,-0.973328 0.0988,-0.352493 0.19152,-0.705955 0.22989,-1.071884 0.0307,-0.292839 0.002,-0.580002 -0.0935,-0.855095 -0.18402,-0.530426 -0.5368,-0.904938 -1.07043,-1.098778 -0.36405,-0.132233 -0.71769,-0.107345 -1.06394,0.06583 -0.27301,0.136528 -0.50217,0.324036 -0.67288,0.576569 -0.0915,0.135254 -0.17621,0.276756 -0.24777,0.423355 -0.13935,0.285484 -0.27564,0.573089 -0.3974,0.866356 -0.10324,0.248626 -0.19657,0.502838 -0.27259,0.760963 -0.16864,0.572601 -0.32382,1.149086 -0.46688,1.728867 -0.14832,0.601196 -0.22309,1.211151 -0.25168,1.82872 -0.0178,0.384895 -0.0448,0.769523 -0.0759,1.15361 -0.042,0.518776 -0.08,1.037437 -0.0722,1.558434 0.002,0.125259 2.8e-4,0.250557 2.8e-4,0.375839 z"
   id="path38" />
                            <path
   d="m 323.32614,32.058769 c 0.002,0.132576 0.004,0.340233 0.007,0.547882 10e-4,0.0661 1.3e-4,0.132672 0.008,0.198155 0.0403,0.348518 0.0356,0.698059 0.026,1.04763 -0.0145,0.529263 -0.0125,1.058975 0.0207,1.586777 0.0273,0.434982 0.0369,0.866729 -0.004,1.301296 -0.0311,0.329277 -0.0175,0.661079 0.003,0.991314 0.0233,0.37867 0.003,0.754948 -0.0369,1.131626 -0.0196,0.187469 -0.024,0.376942 -0.0272,0.565643 -0.004,0.226952 -0.0123,0.452328 -0.0499,0.677353 -0.056,0.335251 -0.10047,0.672451 -0.14813,1.009056 -0.0119,0.08407 -0.0232,0.16893 -0.025,0.253628 -0.009,0.417069 -0.0752,0.827332 -0.13824,1.238194 -0.0301,0.196014 -0.0654,0.391853 -0.0822,0.589141 -0.0403,0.471489 -0.13049,0.935166 -0.20541,1.401287 -0.0225,0.139824 -0.0392,0.280819 -0.0677,0.419373 -0.0725,0.351299 -0.14777,0.702057 -0.22662,1.051979 -0.0519,0.230316 -0.10392,0.460232 -0.14398,0.69318 -0.0271,0.157715 -0.0648,0.315132 -0.11472,0.467137 -0.16498,0.502876 -0.29712,1.014572 -0.42862,1.526737 -0.061,0.237614 -0.12588,0.474819 -0.20331,0.707458 -0.0807,0.242489 -0.14963,0.487553 -0.20157,0.737194 -0.0619,0.297574 -0.15747,0.582634 -0.28888,0.85664 -0.0735,0.153183 -0.14813,0.306729 -0.20736,0.465649 -0.1955,0.524399 -0.4643,1.012341 -0.73368,1.500164 -0.0731,0.132275 -0.1535,0.26046 -0.22665,0.392681 -0.19287,0.348644 -0.42297,0.671246 -0.68094,0.974003 -0.17157,0.201359 -0.34683,0.399616 -0.52286,0.597115 -0.126,0.141399 -0.26761,0.266578 -0.4161,0.384082 -0.17786,0.140702 -0.35697,0.279919 -0.53147,0.424672 -0.22809,0.189224 -0.48041,0.336898 -0.75976,0.431736 -0.31278,0.106197 -0.62909,0.202674 -0.94651,0.294288 -0.27414,0.07913 -0.55734,0.108395 -0.84164,0.0929 -0.5386,-0.02935 -1.07288,-0.09134 -1.58905,-0.260608 -0.0987,-0.03236 -0.19742,-0.06466 -0.29691,-0.09441 -0.17309,-0.05178 -0.33471,-0.128273 -0.48999,-0.219689 -0.17904,-0.105427 -0.35833,-0.210518 -0.5386,-0.313873 -0.18079,-0.103642 -0.35275,-0.219967 -0.51386,-0.351933 -0.5198,-0.425762 -1.01742,-0.874675 -1.44998,-1.391483 -0.0849,-0.101425 -0.17379,-0.19947 -0.26046,-0.299423 -0.18665,-0.215263 -0.34458,-0.449963 -0.46979,-0.705868 -0.14133,-0.288833 -0.30612,-0.563763 -0.47202,-0.839084 -0.3714,-0.616402 -0.69122,-1.257092 -0.87842,-1.95784 -0.0583,-0.218384 -0.13977,-0.430855 -0.21594,-0.644143 -0.0889,-0.249115 -0.17233,-0.49937 -0.23788,-0.756111 -0.0677,-0.265167 -0.14283,-0.528763 -0.22449,-0.789993 -0.19473,-0.622883 -0.3396,-1.257019 -0.45786,-1.89851 -0.0702,-0.380886 -0.13528,-0.762341 -0.19262,-1.145245 -0.01,-0.06536 -0.0197,-0.130825 -0.0259,-0.196586 -0.0352,-0.376377 -0.0898,-0.750134 -0.14642,-1.123738 -0.0411,-0.271015 -0.0673,-0.543232 -0.0681,-0.818271 -0.001,-0.415695 -0.004,-0.831627 -0.0199,-1.246956 -0.0106,-0.282875 -0.0411,-0.565178 -0.0683,-0.847202 -0.0218,-0.225582 -0.0541,-0.450127 -0.0777,-0.675557 -0.0285,-0.27246 -0.0515,-0.545497 -0.0791,-0.81805 -0.0191,-0.187851 -0.0472,-0.374905 -0.0618,-0.563049 -0.0102,-0.131481 -0.01,-0.26442 -0.005,-0.396317 0.0115,-0.283622 0.006,-0.566704 -0.009,-0.849972 -0.005,-0.09399 -0.004,-0.188671 5.2e-4,-0.282703 0.0137,-0.273682 0.0301,-0.547234 0.0466,-0.820763 0.016,-0.264354 0.0154,-0.528545 0.003,-0.793109 -0.006,-0.141449 -0.008,-0.283638 -0.002,-0.425076 0.0238,-0.556858 0.0515,-1.113548 0.0778,-1.670303 0.004,-0.07551 0.007,-0.15102 0.0104,-0.226547 0.0212,-0.490773 0.0421,-0.98156 0.0639,-1.47231 0.003,-0.07545 0.007,-0.151279 0.0175,-0.225942 0.0423,-0.299851 0.0636,-0.601175 0.0703,-0.903719 4.3e-4,-0.01888 0.003,-0.03772 0.003,-0.05659 0.004,-0.559105 0.0841,-1.110546 0.16125,-1.662676 0.0326,-0.233652 0.0523,-0.469618 0.0664,-0.705217 0.0131,-0.218006 0.049,-0.431795 0.0951,-0.643982 0.0704,-0.323595 0.11984,-0.649841 0.14948,-0.979599 0.0101,-0.112627 0.03,-0.224623 0.0501,-0.336056 0.0773,-0.427259 0.12426,-0.859955 0.23297,-1.281584 0.10135,-0.393141 0.19919,-0.787191 0.3002,-1.180423 0.0728,-0.28365 0.15607,-0.564202 0.26382,-0.836901 0.0696,-0.176296 0.1236,-0.358212 0.15534,-0.544026 0.0594,-0.347927 0.18274,-0.673605 0.32162,-0.99477 0.0525,-0.121313 0.11035,-0.240333 0.16776,-0.359447 0.15985,-0.331776 0.31961,-0.663414 0.45978,-1.004374 0.10067,-0.24488 0.22558,-0.478269 0.36776,-0.701992 0.11148,-0.175407 0.22428,-0.349985 0.33475,-0.526031 0.17645,-0.281245 0.38315,-0.538298 0.61053,-0.779839 0.16187,-0.171919 0.32224,-0.345571 0.47623,-0.5245 0.22437,-0.260681 0.48346,-0.477186 0.78204,-0.647276 0.13953,-0.07948 0.27796,-0.160894 0.41727,-0.240801 0.16452,-0.09439 0.33682,-0.169241 0.52078,-0.218761 0.36472,-0.09817 0.72699,-0.204714 1.08463,-0.326794 0.35632,-0.121621 0.72378,-0.1264 1.09317,-0.09004 0.15024,0.01478 0.2991,0.04313 0.44891,0.06279 0.10294,0.01352 0.20618,0.0271 0.30973,0.0331 0.47738,0.02763 0.93246,0.140251 1.36377,0.347945 0.21267,0.102418 0.42617,0.203193 0.63964,0.303974 0.52762,0.249092 0.98041,0.601896 1.39569,1.006643 0.0406,0.03956 0.0814,0.07908 0.11954,0.120987 0.40045,0.440407 0.79941,0.882139 1.17795,1.34181 0.18085,0.21957 0.33557,0.455816 0.47183,0.705557 0.14926,0.273588 0.30194,0.545519 0.46137,0.813288 0.15991,0.268633 0.29916,0.546959 0.4169,0.835899 0.12112,0.297299 0.23846,0.596203 0.35315,0.896048 0.13839,0.361772 0.25934,0.729187 0.35299,1.105592 0.0524,0.210659 0.11948,0.417656 0.17319,0.628031 0.0537,0.21028 0.10123,0.422203 0.14694,0.63439 0.0278,0.129147 0.0401,0.26183 0.0714,0.39 0.0807,0.330688 0.13294,0.666713 0.19559,1.000753 0.0261,0.139147 0.0454,0.279776 0.0623,0.420397 0.0383,0.318741 0.087,0.636255 0.0957,0.95829 0.009,0.349834 0.0496,0.69743 0.10681,1.042343 0.0774,0.466824 0.10864,0.938065 0.1482,1.408617 0.0277,0.32951 0.0558,0.658993 0.0814,0.988666 0.01,0.122292 0.0201,0.245318 0.0166,0.367621 -0.006,0.208225 8.2e-4,0.415397 0.0315,0.697353 z m -4.61978,-2.038612 c 0.002,6.5e-5 0.005,1.33e-4 0.007,1.98e-4 0,-0.160599 0.002,-0.32123 -4.3e-4,-0.48179 -0.006,-0.387329 -0.0131,-0.774653 -0.0221,-1.161927 -0.008,-0.330616 -0.0133,-0.661422 -0.0299,-0.991636 -0.0109,-0.216806 -0.0288,-0.434446 -0.0626,-0.648706 -0.12387,-0.785036 -0.3082,-1.555618 -0.5672,-2.308035 -0.1702,-0.494434 -0.46167,-0.906712 -0.83713,-1.263203 -0.323,-0.306696 -0.70544,-0.45986 -1.15561,-0.453592 -0.2633,0.0037 -0.50381,0.06634 -0.72732,0.201343 -0.32132,0.194071 -0.58713,0.444861 -0.7732,0.773289 -0.25265,0.445919 -0.4487,0.915136 -0.57168,1.413895 -0.11542,0.467981 -0.2125,0.93934 -0.27414,1.417732 -0.0483,0.374752 -0.10492,0.748413 -0.10813,1.127691 -0.005,0.623654 -0.0149,1.247269 -0.0209,1.87092 -0.002,0.208073 -0.01,0.414996 -0.0375,0.621911 -0.0326,0.243558 -0.0469,0.489069 -0.0373,0.735382 0.0118,0.302129 0.0218,0.604322 0.0335,0.906456 0.004,0.10383 0.008,0.207821 0.0167,0.311285 0.0296,0.338829 0.0615,0.677459 0.0928,1.016132 0.003,0.03762 0.008,0.07521 0.0138,0.11253 0.0362,0.233314 0.0701,0.467071 0.11078,0.699615 0.026,0.148644 0.0519,0.298737 0.0962,0.442482 0.13934,0.451428 0.29986,0.895455 0.49884,1.3247 0.0956,0.206249 0.20862,0.402324 0.34018,0.587864 0.12759,0.179935 0.28583,0.32679 0.47323,0.442115 0.19397,0.119366 0.39994,0.21402 0.61686,0.282685 0.19107,0.06049 0.38687,0.08677 0.58749,0.05642 0.32748,-0.04955 0.61264,-0.185329 0.85153,-0.416092 0.15027,-0.145157 0.28205,-0.305534 0.392,-0.483127 0.0746,-0.120453 0.14548,-0.243199 0.21793,-0.364979 0.20443,-0.343624 0.35003,-0.711525 0.44513,-1.098995 0.0675,-0.275097 0.12747,-0.552063 0.19003,-0.828362 0.0125,-0.05521 0.0259,-0.110729 0.0317,-0.166847 0.0361,-0.347683 0.0823,-0.694893 0.10214,-1.043568 0.0301,-0.528129 0.0629,-1.056293 0.0669,-1.585895 0.003,-0.349379 0.0262,-0.698601 0.0404,-1.04789 z m -4.11487,16.087772 c 0.0153,-0.31781 -0.0291,-0.634182 -0.12216,-0.943535 -0.0271,-0.08992 -0.0606,-0.17876 -0.10022,-0.263862 -0.13232,-0.284111 -0.3457,-0.492771 -0.6221,-0.634648 -0.34723,-0.178253 -0.67545,-0.133484 -0.97611,0.109005 -0.0726,0.05858 -0.13589,0.130974 -0.19482,0.203991 -0.24335,0.301461 -0.37579,0.650475 -0.43005,1.03125 -0.04,0.280987 -0.0505,0.563797 -0.0403,0.846958 0.0155,0.433514 0.1395,0.834271 0.37442,1.200078 0.16663,0.259437 0.40445,0.412395 0.70084,0.488494 0.22491,0.05774 0.42999,0.01746 0.62534,-0.09548 0.16656,-0.09634 0.2955,-0.232372 0.39962,-0.393177 0.0877,-0.135399 0.1543,-0.281089 0.20688,-0.432792 0.1246,-0.359452 0.1937,-0.728417 0.17868,-1.116284 z"
   id="path40" />
                            <path
   d="m 277.91818,34.879852 c 0.0281,-0.569118 0.0506,-1.002323 0.0705,-1.435642 0.007,-0.163662 0.007,-0.327675 0.014,-0.491382 0.0155,-0.375573 0.0306,-0.751019 0.0552,-1.126343 0.034,-0.519245 0.0457,-1.039933 0.069,-1.55991 0.0207,-0.462212 0.0346,-0.92502 0.0694,-1.386225 0.0311,-0.412924 0.079,-0.824711 0.14071,-1.23485 0.0445,-0.295829 0.10178,-0.588258 0.17252,-0.87869 0.0296,-0.12151 0.0548,-0.245219 0.0678,-0.369414 0.0301,-0.287987 0.0843,-0.571821 0.13419,-0.856468 0.0549,-0.313105 0.10626,-0.626944 0.16793,-0.93873 0.0654,-0.330673 0.1445,-0.658526 0.20005,-0.991358 0.0206,-0.123144 0.0534,-0.244844 0.0888,-0.364782 0.0928,-0.314036 0.18671,-0.62781 0.2869,-0.939537 0.053,-0.164875 0.11328,-0.328125 0.1817,-0.487187 0.31607,-0.734558 0.6308,-1.469875 1.0097,-2.175302 0.009,-0.01698 0.0172,-0.03461 0.0271,-0.05106 0.31495,-0.519297 0.63096,-1.037741 1.05835,-1.476614 0.0874,-0.08974 0.17066,-0.18358 0.25425,-0.276972 0.27816,-0.310909 0.59405,-0.577354 0.94488,-0.802532 0.13788,-0.0885 0.27759,-0.174156 0.41522,-0.26304 0.41056,-0.265147 0.86118,-0.427235 1.33756,-0.524657 0.4075,-0.08333 0.81982,-0.121313 1.23489,-0.127455 0.18289,-0.0027 0.36554,0.0069 0.54593,0.04879 0.15,0.03483 0.30325,0.05551 0.45444,0.08555 0.17966,0.0357 0.35867,0.0763 0.53,0.141623 0.25195,0.09604 0.50226,0.196505 0.75183,0.298572 0.15204,0.06219 0.29321,0.14568 0.42972,0.236998 0.20858,0.139555 0.41024,0.288429 0.59616,0.45719 0.42175,0.382877 0.81866,0.787897 1.16284,1.244827 0.31451,0.417555 0.59027,0.857532 0.81976,1.325817 0.23313,0.475699 0.47397,0.948214 0.66846,1.441856 0.14127,0.358477 0.28049,0.717761 0.41766,1.077813 0.0377,0.09885 0.0698,0.200477 0.0957,0.303037 0.12503,0.49491 0.25,0.98987 0.36944,1.486143 0.14426,0.59928 0.24396,1.208655 0.40827,1.803551 0.0667,0.241673 0.10846,0.48885 0.14648,0.736633 0.0511,0.333275 0.13235,0.661387 0.17108,0.996878 0.0288,0.248865 0.0598,0.497461 0.0895,0.746216 0.0491,0.411404 0.0995,0.822672 0.14606,1.234367 0.013,0.114702 0.022,0.230841 0.0199,0.346085 -0.008,0.425333 0.0254,0.848156 0.0813,1.268726 0.0409,0.307326 0.0427,0.615006 0.0421,0.923382 -4.3e-4,0.221699 -0.007,0.443409 -0.006,0.665081 0.002,0.26989 0.008,0.539429 0.0453,0.807865 0.0277,0.201035 0.0218,0.404316 0.008,0.606449 -0.0162,0.231323 -0.01,0.461708 0.003,0.693092 0.0229,0.42342 0.0441,0.847268 0.0505,1.271172 0.009,0.626762 -0.0176,1.252857 -0.0733,1.877388 -0.0197,0.221096 -0.029,0.442089 -0.0254,0.664196 0.009,0.549347 0.0232,1.099014 -0.004,1.648033 -0.0237,0.471604 -0.0601,0.942555 -0.0898,1.41386 -0.0189,0.298752 -0.0641,0.593384 -0.1213,0.887154 -0.0331,0.16988 -0.0547,0.343384 -0.0641,0.516205 -0.0215,0.394943 -0.0589,0.788101 -0.10687,1.180496 -0.007,0.05731 -0.0101,0.115345 -0.0111,0.173107 -0.004,0.203003 -0.0295,0.403252 -0.0645,0.603024 -0.0564,0.322609 -0.11352,0.645237 -0.1611,0.969215 -0.0323,0.220135 -0.0798,0.436543 -0.14398,0.648361 -0.14548,0.479946 -0.26468,0.965897 -0.36224,1.457642 -0.13694,0.68993 -0.30194,1.373237 -0.47687,2.054581 -0.18964,0.738555 -0.42566,1.460933 -0.70807,2.168666 -0.11081,0.277672 -0.23877,0.547478 -0.37555,0.813134 -0.0972,0.188823 -0.2084,0.36919 -0.33304,0.541271 -0.3865,0.533657 -0.83667,1.008209 -1.3356,1.437305 -0.0657,0.05654 -0.13125,0.11454 -0.20312,0.162552 -0.64331,0.429947 -1.30906,0.815025 -2.0662,1.012802 -0.44232,0.115544 -0.89032,0.167462 -1.34555,0.0988 -0.13275,-0.02002 -0.26294,-0.05827 -0.39343,-0.09165 -0.18658,-0.04774 -0.37207,-0.09983 -0.55853,-0.148022 -0.36472,-0.09425 -0.71866,-0.216496 -1.05796,-0.382389 -0.74188,-0.362728 -0.90328,-0.460655 -1.52502,-0.983017 -0.3475,-0.291958 -0.66556,-0.614967 -0.95831,-0.961895 -0.14917,-0.176777 -0.29172,-0.359165 -0.43592,-0.540089 -0.13867,-0.173977 -0.25512,-0.361801 -0.3533,-0.561752 -0.0722,-0.146958 -0.14734,-0.292828 -0.22915,-0.434548 -0.13517,-0.233997 -0.25837,-0.473625 -0.36622,-0.721283 -0.0346,-0.07949 -0.0678,-0.159751 -0.1058,-0.237613 -0.31064,-0.636143 -0.5076,-1.309998 -0.66736,-1.996624 -0.0458,-0.196934 -0.0932,-0.393982 -0.15176,-0.587376 -0.14838,-0.490021 -0.24478,-0.99102 -0.32721,-1.495098 -0.0575,-0.351803 -0.10935,-0.704533 -0.16467,-1.056698 -0.012,-0.07606 -0.028,-0.151493 -0.0424,-0.227184 -0.043,-0.227264 -0.0773,-0.455093 -0.0964,-0.686405 -0.027,-0.32629 -0.0618,-0.652832 -0.1141,-0.975914 -0.0787,-0.486496 -0.11768,-0.975731 -0.13721,-1.467068 -0.0157,-0.39505 -0.0381,-0.789524 -0.0829,-1.1824 -0.024,-0.210613 -0.0452,-0.421959 -0.0807,-0.630756 -0.0811,-0.47702 -0.1142,-0.956619 -0.0975,-1.439793 0.0191,-0.549667 -0.003,-1.098728 -0.0253,-1.647636 -0.0226,-0.568623 -0.0258,-1.137009 -0.009,-1.70578 0.007,-0.221401 0.003,-0.443131 0.004,-0.664707 4.3e-4,-0.375881 1.2e-4,-0.751759 1.2e-4,-0.991673 z m 6.17938,-4.634084 c -0.0593,0.681167 0.0311,1.410789 0.0654,2.142053 0.002,0.0384 0.009,0.07652 0.0138,0.114819 0.0512,0.440269 0.10074,0.880745 0.15408,1.320759 0.0383,0.315532 0.0731,0.631576 0.14835,0.941669 0.034,0.140194 0.053,0.28402 0.0799,0.425976 0.0522,0.27467 0.11246,0.547214 0.2074,0.811069 0.0652,0.181252 0.13058,0.362534 0.19092,0.545437 0.15326,0.464707 0.41217,0.86755 0.7142,1.247471 0.29157,0.366726 0.68399,0.517823 1.13507,0.545674 0.0851,0.0052 0.17298,-0.01016 0.25745,-0.02678 0.26355,-0.05186 0.4812,-0.190681 0.67535,-0.370464 0.14948,-0.138401 0.27289,-0.298286 0.38541,-0.467396 0.33053,-0.496666 0.535,-1.04396 0.65188,-1.625888 0.0323,-0.160477 0.0512,-0.323643 0.0836,-0.484059 0.0459,-0.226498 0.0995,-0.451431 0.1485,-0.677299 0.11252,-0.518124 0.19577,-1.041596 0.27481,-1.565457 0.0474,-0.314159 0.082,-0.630356 0.0642,-0.950451 -0.021,-0.376096 0.003,-0.751262 0.0399,-1.125953 0.0351,-0.355728 0.0383,-0.711682 -0.004,-1.067841 -0.0171,-0.143202 -0.0249,-0.288252 -0.0257,-0.432526 -0.002,-0.375888 2.4e-4,-0.751831 0.004,-1.127723 0.005,-0.51191 -0.0305,-1.020235 -0.11038,-1.526387 -0.0541,-0.34242 -0.11685,-0.683628 -0.14813,-1.029798 -0.0164,-0.181702 -0.0425,-0.363714 -0.0928,-0.540726 -0.0999,-0.352066 -0.19254,-0.706369 -0.30018,-1.056057 -0.0795,-0.25832 -0.19711,-0.501568 -0.34011,-0.73216 -0.23594,-0.380486 -0.55912,-0.658757 -0.96885,-0.837698 -0.23385,-0.102131 -0.4772,-0.152396 -0.73239,-0.12653 -0.27054,0.02742 -0.53,0.09611 -0.77478,0.217848 -0.32025,0.159269 -0.57306,0.3892 -0.74005,0.70702 -0.10754,0.204643 -0.21203,0.41114 -0.30929,0.620807 -0.0524,0.113049 -0.0918,0.232987 -0.12784,0.352583 -0.0417,0.138176 -0.0781,0.278362 -0.10828,0.419491 -0.10086,0.470924 -0.19754,0.942739 -0.29654,1.41406 -0.0655,0.311909 -0.10611,0.626469 -0.1178,0.945385 -0.0148,0.404501 -0.0362,0.808764 -0.0553,1.213109 -0.004,0.07702 -0.006,0.154411 -0.015,0.230815 -0.0389,0.316943 -0.035,0.634743 -0.0272,0.953017 0.005,0.182979 8.2e-4,0.366161 8.2e-4,0.602131 z m 1.22916,16.176851 c 10e-4,-0.223839 -0.0119,-0.511223 -0.068,-0.797108 -0.0689,-0.351024 -0.17111,-0.691356 -0.2955,-1.025734 -0.0234,-0.06305 -0.0504,-0.125339 -0.0818,-0.184799 -0.31268,-0.592697 -1.05042,-0.687435 -1.50556,-0.304439 -0.18014,0.151611 -0.32199,0.331642 -0.4176,0.546375 -0.2164,0.486084 -0.2962,0.993854 -0.2381,1.523449 0.0168,0.153057 0.0354,0.306724 0.0378,0.46035 0.004,0.23238 0.0359,0.461223 0.0695,0.689735 0.0238,0.16177 0.065,0.320973 0.13337,0.471344 0.12457,0.273953 0.28729,0.523167 0.4862,0.748753 0.0836,0.09483 0.17893,0.175861 0.29465,0.228996 0.13373,0.06138 0.27191,0.08905 0.42105,0.06583 0.23038,-0.03589 0.41226,-0.153976 0.56928,-0.317859 0.12152,-0.126808 0.2099,-0.275631 0.27832,-0.436341 0.0907,-0.213001 0.1658,-0.431945 0.22354,-0.655784 0.0433,-0.167748 0.0728,-0.338879 0.075,-0.513798 0.002,-0.144489 0.01,-0.288899 0.0179,-0.49897 z"
   id="path42" />
                        </g>
                    </g>
                </g>
            </g>
        </svg>
